<?xml version="1.0" encoding="UTF-8" standalone="no"?>
<svg
   version="1.1"
   viewBox="0 0 1319.8162 375.1994"
   fill="none"
   stroke="none"
   stroke-linecap="square"
   stroke-miterlimit="10"
   width="1319.8162"
   height="375.1994"
   id="svg28"
   sodipodi:docname="fall3d_commits+lines.svg"
   xml:space="preserve"
   inkscape:export-filename="fall3d_stats.pdf"
   inkscape:export-xdpi="96"
   inkscape:export-ydpi="96"
   inkscape:version="1.4 (e7c3feb100, 2024-10-09)"
   xmlns:inkscape="http://www.inkscape.org/namespaces/inkscape"
   xmlns:sodipodi="http://sodipodi.sourceforge.net/DTD/sodipodi-0.dtd"
   xmlns="http://www.w3.org/2000/svg"
   xmlns:svg="http://www.w3.org/2000/svg"><defs
     id="defs28" /><sodipodi:namedview
     id="namedview28"
     pagecolor="#ffffff"
     bordercolor="#000000"
     borderopacity="0.25"
     inkscape:showpageshadow="2"
     inkscape:pageopacity="0.0"
     inkscape:pagecheckerboard="0"
     inkscape:deskcolor="#d1d1d1"
     inkscape:zoom="0.67646549"
     inkscape:cx="630.48301"
     inkscape:cy="221.7408"
     inkscape:window-width="1876"
     inkscape:window-height="1005"
     inkscape:window-x="0"
     inkscape:window-y="0"
     inkscape:window-maximized="1"
     inkscape:current-layer="svg28" /><g
     id="g30"
     transform="translate(666.87291,-371)"
     inkscape:export-filename="fall3d_stats2.pdf"
     inkscape:export-xdpi="96"
     inkscape:export-ydpi="96"><path
       fill="#ffffff"
       fill-opacity="0"
       d="M 52.943218,371 H 652.94322 V 742 H 52.943218 Z"
       fill-rule="nonzero"
       id="path1-4"
       style="stroke:none;stroke-linecap:square;stroke-miterlimit:10" /><path
       fill="#46bdc6"
       d="m 348.64464,425.97878 c 1.43248,-0.0414 2.86551,-0.0621 4.29858,-0.0621 v 148.76666 z"
       fill-rule="nonzero"
       id="path2-7"
       style="stroke:none;stroke-linecap:square;stroke-miterlimit:10" /><path
       fill="#b7b7b7"
       d="m 338.3647,426.63271 c 3.41806,-0.33658 6.84677,-0.55468 10.27994,-0.65393 l 4.29858,148.70455 z"
       fill-rule="nonzero"
       id="path3-6"
       style="stroke:none;stroke-linecap:square;stroke-miterlimit:10" /><path
       fill="#d9ead3"
       d="m 304.56405,434.00293 c 10.94191,-3.76287 22.28547,-6.23633 33.80065,-7.37022 l 14.57852,148.05062 z"
       fill-rule="nonzero"
       id="path4-5"
       style="stroke:none;stroke-linecap:square;stroke-miterlimit:10" /><path
       fill="#fff2cc"
       d="m 224.33706,499.9038 c 17.96055,-30.88862 46.43839,-54.28117 80.22699,-65.90087 l 48.37917,140.6804 z"
       fill-rule="nonzero"
       id="path5-6"
       style="stroke:none;stroke-linecap:square;stroke-miterlimit:10" /><path
       fill="#e6b8af"
       d="M 321.34059,745.44138 C 268.39889,744.871 219.74968,716.2064 193.59546,670.17264 167.44125,624.13889 167.72368,567.67361 194.33706,521.9038 l 128.60616,74.77953 z"
       fill-rule="nonzero"
       id="path6-9"
       style="fill:#ff6600;stroke:#000000;stroke-width:1.5;stroke-linecap:square;stroke-miterlimit:10;stroke-dasharray:none;stroke-opacity:1" /><path
       fill="#c9daf8"
       d="m 352.94322,425.91667 c 53.34012,0 102.598,28.55708 129.102,74.84645 26.504,46.28937 26.19732,103.22576 -0.8038,149.2269 -27.00114,46.00116 -76.5638,74.02598 -129.90083,73.45136 l 1.60263,-148.75805 z"
       fill-rule="nonzero"
       id="path7-3"
       style="stroke:none;stroke-linecap:square;stroke-miterlimit:10" /><path
       fill="#1a1a1a"
       d="m 72.461968,436.91666 v -8.59375 h 1.125 v 3.53125 h 4.46875 v -3.53125 h 1.140624 v 8.59375 h -1.140624 v -4.04687 h -4.46875 v 4.04687 z m 8.953124,0 v -8.59375 h 3.25 q 0.84375,0 1.296876,0.0781 0.640624,0.10938 1.0625,0.40625 0.4375,0.29688 0.6875,0.82813 0.265624,0.53125 0.265624,1.17187 0,1.09375 -0.703124,1.85938 -0.6875,0.75 -2.515626,0.75 h -2.203124 v 3.5 z m 1.140626,-4.5 h 2.21875 q 1.109374,0 1.5625,-0.40625 0.46875,-0.42187 0.46875,-1.17187 0,-0.53125 -0.28125,-0.90625 -0.265626,-0.39063 -0.703126,-0.51563 -0.296874,-0.0781 -1.0625,-0.0781 h -2.203124 z"
       fill-rule="nonzero"
       id="path8-7"
       style="stroke:none;stroke-linecap:square;stroke-miterlimit:10" /><path
       fill="#9e9e9e"
       d="m 71.993218,451.65104 1.0625,-0.14063 q 0.171874,0.89063 0.609374,1.29688 0.4375,0.39062 1.0625,0.39062 0.75,0 1.265626,-0.51562 0.515624,-0.51563 0.515624,-1.28125 0,-0.71875 -0.484374,-1.1875 -0.46875,-0.48438 -1.203126,-0.48438 -0.296874,0 -0.75,0.125 l 0.125,-0.9375 q 0.109376,0.0156 0.171876,0.0156 0.671874,0 1.203124,-0.34375 0.546876,-0.35937 0.546876,-1.09375 0,-0.57812 -0.390626,-0.95312 -0.390624,-0.39063 -1.015624,-0.39063 -0.609376,0 -1.03125,0.39063 -0.40625,0.39062 -0.515626,1.15625 l -1.0625,-0.1875 q 0.1875,-1.04688 0.875,-1.625 0.6875,-0.59375 1.703126,-0.59375 0.703124,0 1.296874,0.3125 0.59375,0.29687 0.90625,0.8125 0.3125,0.51562 0.3125,1.10937 0,0.54688 -0.296874,1.01563 -0.296876,0.45312 -0.875,0.71875 0.75,0.17187 1.171874,0.73437 0.421876,0.54688 0.421876,1.39063 0,1.125 -0.828126,1.90625 -0.8125,0.78125 -2.0625,0.78125 -1.125,0 -1.875,-0.67188 -0.75,-0.6875 -0.859374,-1.75 z m 7.59375,2.26562 v -1.20312 h 1.203124 v 1.20312 z m 2.46875,-7.46875 v -1.01562 h 5.5625 v 0.82812 q -0.8125,0.875 -1.625,2.32813 -0.796876,1.4375 -1.234376,2.96875 -0.328124,1.07812 -0.40625,2.35937 h -1.09375 q 0.01563,-1.01562 0.390626,-2.45312 0.390624,-1.4375 1.09375,-2.76563 0.71875,-1.32812 1.53125,-2.25 z m 7.140624,0.9375 q 0,-0.92187 0.453126,-1.5625 0.46875,-0.64062 1.34375,-0.64062 0.8125,0 1.34375,0.57812 0.53125,0.57813 0.53125,1.6875 0,1.09375 -0.546876,1.6875 -0.53125,0.57813 -1.3125,0.57813 -0.78125,0 -1.296874,-0.57813 -0.515626,-0.57812 -0.515626,-1.75 z m 1.828126,-1.48437 q -0.390626,0 -0.65625,0.34375 -0.25,0.34375 -0.25,1.25 0,0.82812 0.25,1.17187 0.265624,0.32813 0.65625,0.32813 0.40625,0 0.65625,-0.34375 0.265624,-0.34375 0.265624,-1.23438 0,-0.84375 -0.265624,-1.17187 -0.265626,-0.34375 -0.65625,-0.34375 z m 0,8.32812 4.703124,-9.04687 h 0.859376 l -4.6875,9.04687 z m 3.71875,-2.32812 q 0,-0.92188 0.453124,-1.5625 0.46875,-0.64063 1.359376,-0.64063 0.8125,0 1.34375,0.57813 0.53125,0.5625 0.53125,1.6875 0,1.09375 -0.546876,1.6875 -0.53125,0.57812 -1.328124,0.57812 -0.765626,0 -1.296876,-0.57812 -0.515624,-0.57813 -0.515624,-1.75 z m 1.84375,-1.48438 q -0.40625,0 -0.671876,0.34375 -0.25,0.34375 -0.25,1.25 0,0.8125 0.265626,1.15625 0.265624,0.34375 0.65625,0.34375 0.390624,0 0.65625,-0.34375 0.265624,-0.34375 0.265624,-1.25 0,-0.82812 -0.265624,-1.15625 -0.265626,-0.34375 -0.65625,-0.34375 z"
       fill-rule="nonzero"
       id="path9-4"
       style="stroke:none;stroke-linecap:square;stroke-miterlimit:10" /><path
       stroke="#757575"
       stroke-width="1"
       stroke-linecap="butt"
       d="M 71.493218,441.41666 H 198.17656 l 124.65753,-4.81714"
       fill-rule="nonzero"
       id="path10-5"
       style="fill:none;stroke-miterlimit:10" /><path
       fill="#9e9e9e"
       d="m 324.83409,436.59952 c 0,-1.10457 -0.89542,-2 -2,-2 -1.10455,0 -2,0.89543 -2,2 0,1.10457 0.89545,2 2,2 1.10458,0 2,-0.89543 2,-2"
       fill-rule="nonzero"
       id="path11-2"
       style="stroke:none;stroke-linecap:square;stroke-miterlimit:10" /><path
       fill="#1a1a1a"
       d="m 76.446342,464.54166 v -1 l 3.625,-0.0156 v 3.1875 q -0.828124,0.67187 -1.71875,1.01562 -0.890624,0.32813 -1.828124,0.32813 -1.265626,0 -2.3125,-0.53125 -1.03125,-0.54688 -1.5625,-1.5625 -0.515626,-1.03125 -0.515626,-2.29688 0,-1.26562 0.515626,-2.34375 0.53125,-1.09375 1.515624,-1.60937 0.984376,-0.53125 2.265626,-0.53125 0.9375,0 1.6875,0.29687 0.75,0.29688 1.171874,0.84375 0.4375,0.53125 0.65625,1.40625 l -1.015624,0.28125 q -0.203126,-0.65625 -0.5,-1.03125 -0.28125,-0.375 -0.8125,-0.59375 -0.53125,-0.23437 -1.171876,-0.23437 -0.78125,0 -1.359374,0.23437 -0.5625,0.23438 -0.921876,0.625 -0.34375,0.39063 -0.53125,0.85938 -0.328124,0.79687 -0.328124,1.71875 0,1.15625 0.390624,1.9375 0.40625,0.76562 1.15625,1.14062 0.75,0.375 1.609376,0.375 0.734374,0 1.4375,-0.28125 0.703124,-0.29687 1.0625,-0.60937 v -1.60938 z m 4.9375,3.375 v -8.59375 h 1.71875 l 2.03125,6.07813 q 0.28125,0.85937 0.40625,1.28125 0.140626,-0.46875 0.453126,-1.375 l 2.0625,-5.98438 h 1.53125 v 8.59375 h -1.09375 v -7.1875 l -2.5,7.1875 h -1.03125 l -2.484376,-7.3125 v 7.3125 z"
       fill-rule="nonzero"
       id="path12-5"
       style="stroke:none;stroke-linecap:square;stroke-miterlimit:10" /><path
       fill="#9e9e9e"
       d="m 75.961968,484.91666 h -1.046876 v -6.71875 q -0.390624,0.35938 -1.015624,0.73438 -0.609376,0.35937 -1.09375,0.53125 v -1.01563 q 0.875,-0.42187 1.53125,-1 0.671874,-0.59375 0.953124,-1.15625 h 0.671876 z m 7,0 h -1.046876 v -6.71875 q -0.390624,0.35938 -1.015624,0.73438 -0.609376,0.35937 -1.09375,0.53125 v -1.01563 q 0.875,-0.42187 1.53125,-1 0.671874,-0.59375 0.953124,-1.15625 h 0.671876 z m 3.625,0 v -1.20312 h 1.203124 v 1.20312 z m 2.40625,-2.26562 1.0625,-0.14063 q 0.171874,0.89063 0.609374,1.29688 0.4375,0.39062 1.0625,0.39062 0.75,0 1.265626,-0.51562 0.515624,-0.51563 0.515624,-1.28125 0,-0.71875 -0.484374,-1.1875 -0.46875,-0.48438 -1.203126,-0.48438 -0.296874,0 -0.75,0.125 l 0.125,-0.9375 q 0.109376,0.0156 0.171876,0.0156 0.671874,0 1.203124,-0.34375 0.546876,-0.35938 0.546876,-1.09375 0,-0.57813 -0.390626,-0.95313 -0.390624,-0.39062 -1.015624,-0.39062 -0.609376,0 -1.03125,0.39062 -0.40625,0.39063 -0.515626,1.15625 l -1.0625,-0.1875 q 0.1875,-1.04687 0.875,-1.625 0.6875,-0.59375 1.703126,-0.59375 0.703124,0 1.296874,0.3125 0.59375,0.29688 0.90625,0.8125 0.3125,0.51563 0.3125,1.10938 0,0.54687 -0.296874,1.01562 -0.296876,0.45313 -0.875,0.71875 0.75,0.17188 1.171874,0.73438 0.421876,0.54687 0.421876,1.39062 0,1.125 -0.828126,1.90625 -0.8125,0.78125 -2.0625,0.78125 -1.125,0 -1.875,-0.67187 -0.75,-0.6875 -0.859374,-1.75 z m 7.203124,-4.26563 q 0,-0.92187 0.453126,-1.5625 0.46875,-0.64062 1.34375,-0.64062 0.8125,0 1.34375,0.57812 0.53125,0.57813 0.53125,1.6875 0,1.09375 -0.546876,1.6875 -0.53125,0.57813 -1.3125,0.57813 -0.78125,0 -1.296874,-0.57813 -0.515626,-0.57812 -0.515626,-1.75 z m 1.828126,-1.48437 q -0.390626,0 -0.65625,0.34375 -0.25,0.34375 -0.25,1.25 0,0.82812 0.25,1.17187 0.265624,0.32813 0.65625,0.32813 0.40625,0 0.65625,-0.34375 0.265624,-0.34375 0.265624,-1.23438 0,-0.84375 -0.265624,-1.17187 -0.265626,-0.34375 -0.65625,-0.34375 z m 0,8.32812 4.703122,-9.04687 h 0.85938 l -4.687502,9.04687 z m 3.718752,-2.32812 q 0,-0.92188 0.45312,-1.5625 0.46875,-0.64063 1.35938,-0.64063 0.8125,0 1.34375,0.57813 0.53125,0.5625 0.53125,1.6875 0,1.09375 -0.54688,1.6875 -0.53125,0.57812 -1.32812,0.57812 -0.76563,0 -1.29688,-0.57812 -0.51562,-0.57813 -0.51562,-1.75 z m 1.84375,-1.48438 q -0.40625,0 -0.67188,0.34375 -0.25,0.34375 -0.25,1.25 0,0.8125 0.26563,1.15625 0.26562,0.34375 0.65625,0.34375 0.39062,0 0.65625,-0.34375 0.26562,-0.34375 0.26562,-1.25 0,-0.82812 -0.26562,-1.15625 -0.26563,-0.34375 -0.65625,-0.34375 z"
       fill-rule="nonzero"
       id="path13-4"
       style="stroke:none;stroke-linecap:square;stroke-miterlimit:10" /><path
       stroke="#757575"
       stroke-width="1"
       stroke-linecap="butt"
       d="M 71.493218,472.41666 H 198.17656 l 65.05989,-6.94135"
       fill-rule="nonzero"
       id="path14-7"
       style="fill:none;stroke-miterlimit:10" /><path
       fill="#9e9e9e"
       d="m 265.23645,465.47531 c 0,-1.10457 -0.89543,-2 -2,-2 -1.10457,0 -2,0.89543 -2,2 0,1.10457 0.89543,2 2,2 1.10457,0 2,-0.89543 2,-2"
       fill-rule="nonzero"
       id="path15-4"
       style="stroke:none;stroke-linecap:square;stroke-miterlimit:10" /><g
       id="g28"
       transform="translate(52.943218)"><path
         fill="#1a1a1a"
         d="m -10.575,661.99817 v -8.59375 h 1.140624 v 7.57812 H -5.2 v 1.01563 z m 7.015624,0 v -8.59375 h 1.71875 l 2.03125,6.07812 q 0.28125,0.85938 0.40625,1.28126 Q 0.7375,660.29504 1.05,659.3888 l 2.0625,-5.98438 h 1.53125 v 8.59375 H 3.55 v -7.1875 l -2.5,7.1875 H 0.01875 l -2.484376,-7.3125 v 7.3125 z"
         fill-rule="nonzero"
         id="path16-4"
         style="stroke:none;stroke-linecap:square;stroke-miterlimit:10" /><path
         fill="#9e9e9e"
         d="m -10.95,676.73254 1.0625,-0.14062 q 0.171874,0.89062 0.609374,1.29688 0.4375,0.39062 1.0625,0.39062 0.75,0 1.265626,-0.51562 0.515624,-0.51563 0.515624,-1.28126 0,-0.71874 -0.484374,-1.1875 -0.46875,-0.48437 -1.203126,-0.48437 -0.296874,0 -0.75,0.125 l 0.125,-0.9375 q 0.109376,0.0156 0.171876,0.0156 0.671874,0 1.203124,-0.34376 0.546876,-0.35937 0.546876,-1.09374 0,-0.57813 -0.390626,-0.95313 -0.390624,-0.39063 -1.015624,-0.39063 -0.609376,0 -1.03125,0.39063 -0.40625,0.39063 -0.515626,1.15625 l -1.0625,-0.1875 q 0.1875,-1.04688 0.875,-1.625 0.6875,-0.59375 1.703126,-0.59375 0.703124,0 1.296874,0.3125 0.59375,0.29687 0.90625,0.8125 0.3125,0.51563 0.3125,1.10937 0,0.54688 -0.296874,1.01563 -0.296876,0.45313 -0.875,0.71875 0.75,0.17188 1.171874,0.73438 0.421876,0.54687 0.421876,1.39062 0,1.125 -0.828126,1.90625 -0.8125,0.78125 -2.0625,0.78125 -1.125,0 -1.875,-0.67188 -0.75,-0.6875 -0.859374,-1.75 z m 7,0 1.0625,-0.14062 q 0.171874,0.89062 0.609374,1.29688 0.4375,0.39062 1.0625,0.39062 0.75,0 1.265626,-0.51562 0.515624,-0.51563 0.515624,-1.28126 0,-0.71874 -0.484374,-1.1875 -0.46875,-0.48437 -1.203126,-0.48437 -0.296874,0 -0.75,0.125 l 0.125,-0.9375 q 0.109376,0.0156 0.171876,0.0156 0.671874,0 1.203124,-0.34376 0.546876,-0.35937 0.546876,-1.09374 0,-0.57813 -0.390626,-0.95313 -0.390624,-0.39063 -1.015624,-0.39063 -0.609376,0 -1.03125,0.39063 -0.40625,0.39063 -0.515626,1.15625 l -1.0625,-0.1875 q 0.1875,-1.04688 0.875,-1.625 0.6875,-0.59375 1.703126,-0.59375 0.703124,0 1.296874,0.3125 0.59375,0.29687 0.90625,0.8125 0.3125,0.51563 0.3125,1.10937 0,0.54688 -0.296874,1.01563 -0.296876,0.45313 -0.875,0.71875 0.75,0.17188 1.171874,0.73438 0.421876,0.54687 0.421876,1.39062 0,1.125 -0.828126,1.90625 -0.8125,0.78125 -2.0625,0.78125 -1.125,0 -1.875,-0.67188 -0.75,-0.6875 -0.859374,-1.75 z m 7.59375,2.26563 v -1.20313 h 1.203124 v 1.20313 z m 7.953124,-1.01563 v 1.01563 h -5.6875 q 0,-0.375 0.125,-0.73437 0.21875,-0.57813 0.6875,-1.14063 0.484376,-0.5625 1.390626,-1.29687 1.40625,-1.15626 1.890624,-1.82813 0.5,-0.67187 0.5,-1.26563 0,-0.625 -0.453124,-1.04687 -0.453126,-0.4375 -1.171876,-0.4375 -0.765624,0 -1.21875,0.45313 -0.453124,0.45312 -0.46875,1.26562 L 6.1125,672.85754 q 0.109374,-1.21874 0.828124,-1.84374 0.734376,-0.64063 1.96875,-0.64063 1.234376,0 1.953126,0.6875 0.71875,0.6875 0.71875,1.70313 0,0.51562 -0.21875,1.01562 -0.203126,0.48438 -0.703126,1.04688 -0.484374,0.54687 -1.609374,1.5 -0.953126,0.79687 -1.234376,1.09374 -0.265624,0.28126 -0.4375,0.5625 z m 1.65625,-5.51562 q 0,-0.92188 0.453126,-1.5625 0.46875,-0.64062 1.34375,-0.64062 0.8125,0 1.34375,0.57812 0.53125,0.57812 0.53125,1.6875 0,1.09375 -0.546876,1.6875 -0.53125,0.57812 -1.3125,0.57812 -0.78125,0 -1.296874,-0.57812 -0.515626,-0.57812 -0.515626,-1.75 z m 1.828126,-1.48438 q -0.390626,0 -0.65625,0.34376 -0.25,0.34374 -0.25,1.25 0,0.82812 0.25,1.17187 0.265624,0.32813 0.65625,0.32813 0.40625,0 0.65625,-0.34376 0.265624,-0.34374 0.265624,-1.23437 0,-0.84375 -0.265624,-1.17187 -0.265626,-0.34376 -0.65625,-0.34376 z m 0,8.32813 4.703124,-9.04687 h 0.859376 l -4.6875,9.04687 z M 18.8,676.98254 q 0,-0.92187 0.453124,-1.5625 0.46875,-0.64062 1.359376,-0.64062 0.8125,0 1.34375,0.57812 0.53125,0.5625 0.53125,1.6875 0,1.09376 -0.546876,1.6875 -0.53125,0.57813 -1.328124,0.57813 -0.765626,0 -1.296876,-0.57813 Q 18.8,678.15442 18.8,676.98254 Z m 1.84375,-1.48437 q -0.40625,0 -0.671876,0.34375 -0.25,0.34375 -0.25,1.25 0,0.8125 0.265626,1.15625 0.265624,0.34375 0.65625,0.34375 0.390624,0 0.65625,-0.34375 0.265624,-0.34375 0.265624,-1.25 0,-0.82813 -0.265624,-1.15625 -0.265626,-0.34375 -0.65625,-0.34375 z"
         fill-rule="nonzero"
         id="path17-3"
         style="stroke:none;stroke-linecap:square;stroke-miterlimit:10" /></g><path
       stroke="#757575"
       stroke-width="1"
       stroke-linecap="butt"
       d="M 41.493218,666.49817 H 168.17656 200.06285"
       fill-rule="nonzero"
       id="path18-0"
       style="fill:none;stroke-miterlimit:10" /><path
       fill="#9e9e9e"
       d="m 202.06285,666.49817 c 0,-1.10455 -0.89543,-2 -2,-2 -1.10457,0 -2,0.89545 -2,2 0,1.10458 0.89543,2 2,2 1.10457,0 2,-0.89542 2,-2"
       fill-rule="nonzero"
       id="path19-7"
       style="stroke:none;stroke-linecap:square;stroke-miterlimit:10" /><path
       fill="#1a1a1a"
       d="m 620.37762,570.9446 3.29686,-8.59375 h 1.21874 l 3.51564,8.59375 h -1.28124 l -1.01564,-2.60938 h -3.57812 l -0.95314,2.60938 z m 2.48436,-3.53125 h 2.90624 l -0.8906,-2.375 q -0.4219,-1.07813 -0.6094,-1.78125 -0.17186,0.82812 -0.46874,1.64062 z m 5.51564,3.53125 v -8.59375 h 5.79686 v 1.01562 h -4.65626 v 2.65625 h 4.03126 v 1.01563 h -4.03126 v 3.90625 z"
       fill-rule="nonzero"
       id="path20-8"
       style="stroke:none;stroke-linecap:square;stroke-miterlimit:10" /><path
       fill="#9e9e9e"
       d="m 599.89322,585.6946 1.1094,-0.0937 q 0.125,0.8125 0.5625,1.21875 0.4531,0.40625 1.09374,0.40625 0.75,0 1.28126,-0.57813 0.53124,-0.57812 0.53124,-1.51562 0,-0.90625 -0.51564,-1.42188 -0.5,-0.53125 -1.3281,-0.53125 -0.5,0 -0.9219,0.23438 -0.40624,0.23437 -0.6406,0.59375 l -0.9844,-0.125 0.82814,-4.40625 h 4.28126 v 1 h -3.4375 l -0.45314,2.3125 q 0.76564,-0.54688 1.60938,-0.54688 1.125,0 1.89062,0.78125 0.78124,0.78125 0.78124,2.01563 0,1.15625 -0.67186,2.01562 -0.82814,1.03125 -2.25,1.03125 -1.17188,0 -1.92188,-0.65625 -0.73436,-0.65625 -0.84376,-1.73437 z m 7,-1.98438 q 0,-1.53125 0.3125,-2.45312 0.3125,-0.9375 0.9219,-1.4375 0.625,-0.5 1.5625,-0.5 0.6875,0 1.2031,0.28125 0.53126,0.28125 0.875,0.8125 0.34376,0.51562 0.53126,1.26562 0.1875,0.75 0.1875,2.03125 0,1.51563 -0.3125,2.4375 -0.29686,0.92188 -0.92186,1.4375 -0.6094,0.5 -1.5625,0.5 -1.2344,0 -1.95314,-0.89062 -0.84376,-1.0625 -0.84376,-3.48438 z m 1.07814,0 q 0,2.10938 0.5,2.8125 0.5,0.70313 1.21876,0.70313 0.73436,0 1.21874,-0.70313 0.5,-0.70312 0.5,-2.8125 0,-2.125 -0.5,-2.8125 -0.48438,-0.70312 -1.23438,-0.70312 -0.71876,0 -1.15626,0.60937 -0.54686,0.78125 -0.54686,2.90625 z m 6.51562,4.23438 v -1.20313 h 1.20314 v 1.20313 z m 7.95314,-1.01563 v 1.01563 h -5.6875 q 0,-0.375 0.125,-0.73438 0.21874,-0.57812 0.6875,-1.14062 0.48436,-0.5625 1.3906,-1.29688 1.40626,-1.15625 1.89064,-1.82812 0.5,-0.67188 0.5,-1.26563 0,-0.625 -0.45314,-1.04687 -0.4531,-0.4375 -1.17186,-0.4375 -0.76564,0 -1.21874,0.45312 -0.45314,0.45313 -0.46876,1.26563 l -1.07814,-0.10938 q 0.1094,-1.21875 0.82814,-1.84375 0.73436,-0.64062 1.96876,-0.64062 1.23436,0 1.9531,0.6875 0.71876,0.6875 0.71876,1.70312 0,0.51563 -0.21876,1.01563 -0.2031,0.48437 -0.7031,1.04687 -0.4844,0.54688 -1.6094,1.5 -0.9531,0.79688 -1.23436,1.09375 -0.26564,0.28125 -0.4375,0.5625 z m 1.65624,-5.51562 q 0,-0.92188 0.45312,-1.5625 0.46874,-0.64063 1.34374,-0.64063 0.8125,0 1.34376,0.57813 0.53124,0.57812 0.53124,1.6875 0,1.09375 -0.54686,1.6875 -0.53124,0.57812 -1.3125,0.57812 -0.78124,0 -1.29688,-0.57812 -0.51562,-0.57813 -0.51562,-1.75 z m 1.82812,-1.48438 q -0.39062,0 -0.65626,0.34375 -0.25,0.34375 -0.25,1.25 0,0.82813 0.25,1.17188 0.26564,0.32812 0.65626,0.32812 0.40624,0 0.65624,-0.34375 0.26564,-0.34375 0.26564,-1.23437 0,-0.84375 -0.26564,-1.17188 -0.2656,-0.34375 -0.65624,-0.34375 z m 0,8.32813 4.70314,-9.04688 h 0.85936 l -4.6875,9.04688 z m 3.71874,-2.32813 q 0,-0.92187 0.45314,-1.5625 0.46876,-0.64062 1.35936,-0.64062 0.8125,0 1.34376,0.57812 0.53124,0.5625 0.53124,1.6875 0,1.09375 -0.54686,1.6875 -0.53124,0.57813 -1.32814,0.57813 -0.7656,0 -1.29686,-0.57813 -0.51564,-0.57812 -0.51564,-1.75 z m 1.84376,-1.48437 q -0.40626,0 -0.67186,0.34375 -0.25,0.34375 -0.25,1.25 0,0.8125 0.2656,1.15625 0.26564,0.34375 0.65626,0.34375 0.39064,0 0.65624,-0.34375 0.26564,-0.34375 0.26564,-1.25 0,-0.82813 -0.26564,-1.15625 -0.2656,-0.34375 -0.65624,-0.34375 z"
       fill-rule="nonzero"
       id="path21-6"
       style="stroke:none;stroke-linecap:square;stroke-miterlimit:10" /><path
       stroke="#757575"
       stroke-width="1"
       stroke-linecap="butt"
       d="M 634.39322,575.4446 H 507.70988 494.26952"
       fill-rule="nonzero"
       id="path22-8"
       style="fill:none;stroke-miterlimit:10" /><path
       fill="#9e9e9e"
       d="m 496.26952,575.4446 c 0,-1.10457 -0.89545,-2 -2,-2 -1.1046,0 -2,0.89543 -2,2 0,1.10456 0.8954,2 2,2 1.10455,0 2,-0.89544 2,-2"
       fill-rule="nonzero"
       id="path23-8"
       style="stroke:none;stroke-linecap:square;stroke-miterlimit:10" /><path
       fill="#757575"
       d="m 72.961968,408.55 v -14.3125 h 1.890624 v 12.625 h 7.046876 v 1.6875 z m 10.859374,-12.29688 v -2.01562 h 1.765626 v 2.01562 z m 0,12.29688 v -10.375 h 1.765626 v 10.375 z m 3.984376,0 v -10.375 h 1.59375 v 1.48437 q 1.140624,-1.71875 3.296874,-1.71875 0.9375,0 1.71875,0.34375 0.796876,0.32813 1.1875,0.875 0.390626,0.54688 0.546876,1.29688 0.09375,0.5 0.09375,1.71875 v 6.375 h -1.765626 v -6.3125 q 0,-1.07813 -0.203124,-1.60938 -0.203126,-0.53125 -0.734376,-0.84375 -0.515624,-0.3125 -1.21875,-0.3125 -1.125,0 -1.9375,0.71875 -0.8125,0.70313 -0.8125,2.6875 V 408.55 Z m 17.109372,-3.34375 1.8125,0.23437 q -0.42187,1.57813 -1.59375,2.46875 -1.15625,0.875 -2.96875,0.875 -2.265622,0 -3.609372,-1.39062 -1.328126,-1.40625 -1.328126,-3.9375 0,-2.625 1.34375,-4.0625 1.34375,-1.45313 3.499998,-1.45313 2.07813,0 3.39063,1.42188 1.32812,1.40625 1.32812,3.98437 0,0.15625 -0.0156,0.46875 h -7.734374 q 0.09375,1.70313 0.968754,2.60938 0.875,0.90625 2.17187,0.90625 0.96875,0 1.64063,-0.5 0.6875,-0.51563 1.09375,-1.625 z m -5.781248,-2.84375 h 5.796878 q -0.10938,-1.29688 -0.65625,-1.95313 -0.84375,-1.01562 -2.1875,-1.01562 -1.20313,0 -2.03125,0.8125 -0.828128,0.79687 -0.921878,2.15625 z m 8.968748,3.09375 1.75,-0.28125 q 0.14063,1.04687 0.8125,1.60937 0.67188,0.54688 1.875,0.54688 1.20313,0 1.78125,-0.48438 0.59375,-0.5 0.59375,-1.15625 0,-0.59375 -0.51562,-0.9375 -0.35938,-0.23437 -1.79688,-0.59375 -1.9375,-0.5 -2.6875,-0.84375 -0.73437,-0.35937 -1.125,-0.98437 -0.39062,-0.64063 -0.39062,-1.40625 0,-0.6875 0.3125,-1.28125 0.32812,-0.59375 0.875,-0.98438 0.40625,-0.29687 1.10937,-0.5 0.71875,-0.21875 1.53125,-0.21875 1.21875,0 2.14063,0.35938 0.92187,0.34375 1.35937,0.95312 0.4375,0.59375 0.60938,1.59375 l -1.71875,0.23438 q -0.125,-0.79688 -0.6875,-1.23438 -0.5625,-0.45312 -1.57813,-0.45312 -1.21875,0 -1.73437,0.40625 -0.51563,0.39062 -0.51563,0.92187 0,0.34375 0.21875,0.625 0.20313,0.28125 0.67188,0.46875 0.26562,0.0937 1.54687,0.4375 1.875,0.5 2.60938,0.82813 0.73437,0.3125 1.15625,0.92187 0.42187,0.59375 0.42187,1.5 0,0.875 -0.51562,1.65625 -0.51563,0.78125 -1.48438,1.20313 -0.96875,0.42187 -2.1875,0.42187 -2.01562,0 -3.07812,-0.84375 -1.0625,-0.84375 -1.35938,-2.48437 z m 16.06251,-2.09375 q 0,-2.875 1.59375,-4.26563 1.34375,-1.15625 3.26562,-1.15625 2.14063,0 3.48438,1.40625 1.35937,1.40625 1.35937,3.875 0,2 -0.59375,3.15625 -0.59375,1.14063 -1.75,1.78125 -1.14062,0.625 -2.5,0.625 -2.1875,0 -3.53125,-1.39062 -1.32812,-1.40625 -1.32812,-4.03125 z m 1.79687,0 q 0,2 0.85938,2.98437 0.875,0.98438 2.20312,0.98438 1.3125,0 2.17188,-0.98438 0.875,-1 0.875,-3.04687 0,-1.92188 -0.875,-2.90625 -0.875,-1 -2.17188,-1 -1.32812,0 -2.20312,1 -0.85938,0.98437 -0.85938,2.96875 z m 10.26563,5.1875 v -9 h -1.54688 v -1.375 h 1.54688 v -1.09375 q 0,-1.04688 0.1875,-1.5625 0.25,-0.6875 0.89062,-1.10938 0.64063,-0.42187 1.79688,-0.42187 0.75,0 1.64062,0.17187 l -0.26562,1.53125 q -0.54688,-0.0937 -1.03125,-0.0937 -0.79688,0 -1.14063,0.34375 -0.32812,0.34375 -0.32812,1.28125 v 0.95313 h 2.03125 v 1.375 h -2.03125 v 9 z m 18.35937,-3.79688 1.71875,0.21875 q -0.28125,1.79688 -1.45312,2.8125 -1.15625,1 -2.85938,1 -2.125,0 -3.42187,-1.39062 -1.29688,-1.39063 -1.29688,-3.98438 0,-1.6875 0.54688,-2.9375 0.5625,-1.26562 1.70312,-1.89062 1.14063,-0.64063 2.48438,-0.64063 1.6875,0 2.75,0.85938 1.07812,0.85937 1.39062,2.42187 l -1.71875,0.26563 q -0.23437,-1.04688 -0.85937,-1.5625 -0.625,-0.53125 -1.5,-0.53125 -1.32813,0 -2.15625,0.95312 -0.82813,0.95313 -0.82813,3 0,2.09375 0.79688,3.04688 0.79687,0.9375 2.09375,0.9375 1.03125,0 1.71875,-0.625 0.70312,-0.64063 0.89062,-1.95313 z m 2.57813,-1.39062 q 0,-2.875 1.59375,-4.26563 1.34375,-1.15625 3.26562,-1.15625 2.14063,0 3.48438,1.40625 1.35937,1.40625 1.35937,3.875 0,2 -0.59375,3.15625 -0.59375,1.14063 -1.75,1.78125 -1.14062,0.625 -2.5,0.625 -2.1875,0 -3.53125,-1.39062 -1.32812,-1.40625 -1.32812,-4.03125 z m 1.79687,0 q 0,2 0.85938,2.98437 0.875,0.98438 2.20312,0.98438 1.3125,0 2.17188,-0.98438 0.875,-1 0.875,-3.04687 0,-1.92188 -0.875,-2.90625 -0.875,-1 -2.17188,-1 -1.32812,0 -2.20312,1 -0.85938,0.98437 -0.85938,2.96875 z m 16.57813,5.1875 v -1.3125 q -0.98438,1.54687 -2.90625,1.54687 -1.23438,0 -2.28125,-0.6875 -1.03125,-0.6875 -1.60938,-1.90625 -0.5625,-1.21875 -0.5625,-2.8125 0,-1.5625 0.51563,-2.82812 0.51562,-1.26563 1.54687,-1.9375 1.04688,-0.67188 2.3125,-0.67188 0.9375,0 1.67188,0.40625 0.73437,0.39063 1.20312,1.01563 v -5.125 h 1.73438 V 408.55 Z m -5.5625,-5.17188 q 0,1.98438 0.84375,2.96875 0.84375,0.98438 1.98437,0.98438 1.15625,0 1.95313,-0.9375 0.8125,-0.9375 0.8125,-2.875 0,-2.125 -0.82813,-3.125 -0.8125,-1 -2.01562,-1 -1.17188,0 -1.96875,0.96875 -0.78125,0.95312 -0.78125,3.01562 z m 16.9375,1.82813 1.8125,0.23437 q -0.42188,1.57813 -1.59375,2.46875 -1.15625,0.875 -2.96875,0.875 -2.26563,0 -3.60938,-1.39062 -1.32812,-1.40625 -1.32812,-3.9375 0,-2.625 1.34375,-4.0625 1.34375,-1.45313 3.5,-1.45313 2.07812,0 3.39062,1.42188 1.32813,1.40625 1.32813,3.98437 0,0.15625 -0.0156,0.46875 h -7.73437 q 0.0937,1.70313 0.96875,2.60938 0.875,0.90625 2.17187,0.90625 0.96875,0 1.64063,-0.5 0.6875,-0.51563 1.09375,-1.625 z m -5.78125,-2.84375 h 5.79687 q -0.10937,-1.29688 -0.65625,-1.95313 -0.84375,-1.01562 -2.1875,-1.01562 -1.20312,0 -2.03125,0.8125 -0.82812,0.79687 -0.92187,2.15625 z"
       fill-rule="nonzero"
       id="path24-4"
       style="stroke:none;stroke-linecap:square;stroke-miterlimit:10" /><rect
       style="fill:none;stroke:#ff0000;stroke-width:1.5;stroke-miterlimit:12;stroke-dasharray:none;stroke-opacity:1"
       id="rect28"
       width="103.78331"
       height="76.870148"
       x="6.8203125"
       y="627.92249" /></g><g
     id="g31"
     transform="translate(0,2.09971)"
     inkscape:export-filename="fall3d_stats1.pdf"
     inkscape:export-xdpi="96"
     inkscape:export-ydpi="96"><path
       fill="#ffffff"
       fill-opacity="0"
       d="M 52.943218,0 H 652.94322 V 371 H 52.943218 Z"
       fill-rule="nonzero"
       id="path1" /><path
       fill="#46bdc6"
       d="m 338.05232,55.6638 c 4.94803,-0.497777 9.9179,-0.747132 14.8909,-0.747132 V 203.68333 Z"
       fill-rule="nonzero"
       id="path2" /><path
       fill="#b7b7b7"
       d="m 316.04277,59.565746 c 7.2283,-1.850756 14.58557,-3.155086 22.00955,-3.901946 l 14.8909,148.01953 z"
       fill-rule="nonzero"
       id="path3" /><path
       fill="#d9ead3"
       d="m 294.86632,66.72132 c 6.86938,-2.912875 13.94818,-5.304816 21.17645,-7.155574 l 36.90045,144.117584 z"
       fill-rule="nonzero"
       id="path4" /><path
       fill="#fff2cc"
       d="m 247.7493,98.48942 c 13.5185,-13.51851 29.51597,-24.30462 47.11702,-31.7681 l 58.0769,136.96201 z"
       fill-rule="nonzero"
       id="path5" /><path
       fill="#e6b8af"
       d="M 230.71147,324.90875 C 195.03549,299.53122 172.34933,259.72726 168.69552,216.09877 165.04173,172.47029 180.7913,129.4474 211.7493,98.48942 l 105.19392,105.19391 z"
       fill-rule="nonzero"
       id="path6"
       style="fill:#ff6600;stroke:#000000;stroke-width:1.5;stroke-dasharray:none;stroke-opacity:1" /><path
       fill="#c9daf8"
       d="m 352.94322,54.916668 c 64.26645,0 121.2675,41.268322 141.3311,102.322632 20.06355,61.05431 -1.34672,128.09008 -53.08574,166.21163 -51.73898,38.12155 -122.10834,38.70953 -174.47711,1.45782 l 86.23175,-121.22542 z"
       fill-rule="nonzero"
       id="path7" /><path
       fill="#1a1a1a"
       d="m 72.415092,65.916664 v -8.59375 h 1.15625 l 4.515626,6.75 v -6.75 h 1.09375 v 8.59375 h -1.171876 l -4.515624,-6.75 v 6.75 z m 13.03125,-3.375 v -1 l 3.625,-0.01562 v 3.1875 q -0.828124,0.67187 -1.71875,1.01562 -0.890624,0.328126 -1.828124,0.328126 -1.265626,0 -2.3125,-0.53125 -1.03125,-0.546876 -1.5625,-1.5625 -0.515626,-1.03125 -0.515626,-2.296876 0,-1.265624 0.515626,-2.34375 0.53125,-1.09375 1.515624,-1.609374 0.984376,-0.53125 2.265626,-0.53125 0.9375,0 1.6875,0.296874 0.75,0.296876 1.171874,0.84375 0.4375,0.53125 0.65625,1.40625 l -1.015624,0.28125 q -0.203126,-0.65625 -0.5,-1.03125 -0.28125,-0.375 -0.8125,-0.59375 -0.53125,-0.234374 -1.171876,-0.234374 -0.78125,0 -1.359374,0.234374 -0.5625,0.234376 -0.921876,0.625 -0.34375,0.390626 -0.53125,0.859376 -0.328124,0.796874 -0.328124,1.71875 0,1.15625 0.390624,1.9375 0.40625,0.765624 1.15625,1.140624 0.75,0.375 1.609376,0.375 0.734374,0 1.4375,-0.28125 0.703124,-0.296874 1.0625,-0.609374 v -1.609376 z"
       fill-rule="nonzero"
       id="path8" /><path
       fill="#9e9e9e"
       d="m 77.540092,81.90104 v 1.015624 h -5.6875 q 0,-0.375 0.125,-0.734374 0.21875,-0.578126 0.6875,-1.140626 0.484376,-0.5625 1.390626,-1.296874 1.40625,-1.15625 1.890624,-1.828126 0.5,-0.671874 0.5,-1.265624 0,-0.625 -0.453124,-1.046876 -0.453126,-0.4375 -1.171876,-0.4375 -0.765624,0 -1.21875,0.453126 -0.453124,0.453124 -0.46875,1.265624 L 72.055718,76.77604 q 0.109374,-1.21875 0.828124,-1.84375 0.734376,-0.640626 1.96875,-0.640626 1.234376,0 1.953126,0.6875 0.71875,0.6875 0.71875,1.703126 0,0.515624 -0.21875,1.015624 -0.203126,0.484376 -0.703126,1.046876 -0.484374,0.546874 -1.609374,1.5 -0.953126,0.796874 -1.234376,1.09375 -0.265624,0.28125 -0.4375,0.5625 z m 2.046876,1.015624 V 81.71354 h 1.203124 v 1.203124 z m 5.78125,0 v -2.0625 h -3.71875 v -0.96875 l 3.921874,-5.5625 h 0.859376 v 5.5625 h 1.15625 v 0.96875 h -1.15625 v 2.0625 z m 0,-3.03125 V 76.02604 l -2.6875,3.859374 z m 3.828124,-3.5 q 0,-0.921874 0.453126,-1.5625 0.46875,-0.640624 1.34375,-0.640624 0.8125,0 1.34375,0.578124 0.53125,0.578126 0.53125,1.6875 0,1.09375 -0.546876,1.6875 -0.53125,0.578126 -1.3125,0.578126 -0.78125,0 -1.296874,-0.578126 -0.515626,-0.578124 -0.515626,-1.75 z m 1.828126,-1.484374 q -0.390626,0 -0.65625,0.34375 -0.25,0.34375 -0.25,1.25 0,0.828124 0.25,1.171874 0.265624,0.328126 0.65625,0.328126 0.40625,0 0.65625,-0.34375 0.265624,-0.34375 0.265624,-1.234376 0,-0.84375 -0.265624,-1.171874 -0.265626,-0.34375 -0.65625,-0.34375 z m 0,8.328124 4.703124,-9.046874 h 0.859376 l -4.6875,9.046874 z m 3.71875,-2.328124 q 0,-0.921876 0.453124,-1.5625 0.46875,-0.640626 1.359376,-0.640626 0.8125,0 1.34375,0.578126 0.53125,0.5625 0.53125,1.6875 0,1.09375 -0.546876,1.6875 -0.53125,0.578124 -1.328124,0.578124 -0.765626,0 -1.296876,-0.578124 -0.515624,-0.578126 -0.515624,-1.75 z m 1.84375,-1.484376 q -0.40625,0 -0.671876,0.34375 -0.25,0.34375 -0.25,1.25 0,0.8125 0.265626,1.15625 0.265624,0.34375 0.65625,0.34375 0.390624,0 0.65625,-0.34375 0.265624,-0.34375 0.265624,-1.25 0,-0.828124 -0.265624,-1.15625 -0.265626,-0.34375 -0.65625,-0.34375 z"
       fill-rule="nonzero"
       id="path9" /><path
       stroke="#757575"
       stroke-width="1"
       stroke-linecap="butt"
       d="M 71.493218,70.416664 H 198.17656 L 328.27262,64.52494"
       fill-rule="nonzero"
       id="path10" /><path
       fill="#9e9e9e"
       d="m 330.27262,64.52494 c 0,-1.10457 -0.89544,-2.000003 -2,-2.000003 -1.10458,0 -2,0.895433 -2,2.000003 0,1.10457 0.89542,2 2,2 1.10456,0 2,-0.89543 2,-2"
       fill-rule="nonzero"
       id="path11" /><path
       fill="#1a1a1a"
       d="m 72.446342,96.916664 v -8.59375 h 6.203126 v 1.015626 h -5.0625 v 2.625 h 4.75 v 1.015624 h -4.75 v 2.921876 h 5.265624 v 1.015624 z m 8.015626,0 v -8.59375 h 1.125 v 3.53125 h 4.46875 v -3.53125 h 1.140624 v 8.59375 H 86.055718 V 92.86979 h -4.46875 v 4.046874 z"
       fill-rule="nonzero"
       id="path12" /><path
       fill="#9e9e9e"
       d="m 77.540092,112.90104 v 1.01562 h -5.6875 q 0,-0.375 0.125,-0.73437 0.21875,-0.57813 0.6875,-1.14063 0.484376,-0.5625 1.390626,-1.29687 1.40625,-1.15625 1.890624,-1.82813 0.5,-0.67187 0.5,-1.26562 0,-0.625 -0.453124,-1.04688 -0.453126,-0.4375 -1.171876,-0.4375 -0.765624,0 -1.21875,0.45313 -0.453124,0.45312 -0.46875,1.26562 l -1.078124,-0.10937 q 0.109374,-1.21875 0.828124,-1.84375 0.734376,-0.64063 1.96875,-0.64063 1.234376,0 1.953126,0.6875 0.71875,0.6875 0.71875,1.70313 0,0.51562 -0.21875,1.01562 -0.203126,0.48438 -0.703126,1.04688 -0.484374,0.54687 -1.609374,1.5 -0.953126,0.79687 -1.234376,1.09375 -0.265624,0.28125 -0.4375,0.5625 z m 2.046876,1.01562 v -1.20312 h 1.203124 v 1.20312 z m 5.78125,0 v -2.0625 h -3.71875 v -0.96875 l 3.921874,-5.5625 h 0.859376 v 5.5625 h 1.15625 v 0.96875 h -1.15625 v 2.0625 z m 0,-3.03125 v -3.85937 l -2.6875,3.85937 z m 3.828124,-3.5 q 0,-0.92187 0.453126,-1.5625 0.46875,-0.64062 1.34375,-0.64062 0.8125,0 1.34375,0.57812 0.53125,0.57813 0.53125,1.6875 0,1.09375 -0.546876,1.6875 -0.53125,0.57813 -1.3125,0.57813 -0.78125,0 -1.296874,-0.57813 -0.515626,-0.57812 -0.515626,-1.75 z m 1.828126,-1.48437 q -0.390626,0 -0.65625,0.34375 -0.25,0.34375 -0.25,1.25 0,0.82812 0.25,1.17187 0.265624,0.32813 0.65625,0.32813 0.40625,0 0.65625,-0.34375 0.265624,-0.34375 0.265624,-1.23438 0,-0.84375 -0.265624,-1.17187 -0.265626,-0.34375 -0.65625,-0.34375 z m 0,8.32812 4.703124,-9.04687 h 0.859376 l -4.6875,9.04687 z m 3.71875,-2.32812 q 0,-0.92188 0.453124,-1.5625 0.46875,-0.64063 1.359376,-0.64063 0.8125,0 1.34375,0.57813 0.53125,0.5625 0.53125,1.6875 0,1.09375 -0.546876,1.6875 -0.53125,0.57812 -1.328124,0.57812 -0.765626,0 -1.296876,-0.57812 -0.515624,-0.57813 -0.515624,-1.75 z m 1.84375,-1.48438 q -0.40625,0 -0.671876,0.34375 -0.25,0.34375 -0.25,1.25 0,0.8125 0.265626,1.15625 0.265624,0.34375 0.65625,0.34375 0.390624,0 0.65625,-0.34375 0.265624,-0.34375 0.265624,-1.25 0,-0.82812 -0.265624,-1.15625 -0.265626,-0.34375 -0.65625,-0.34375 z"
       fill-rule="nonzero"
       id="path13" /><path
       stroke="#757575"
       stroke-width="1"
       stroke-linecap="butt"
       d="M 71.493218,101.41666 H 198.17656 L 307.70112,69.792145"
       fill-rule="nonzero"
       id="path14" /><path
       fill="#9e9e9e"
       d="m 309.70112,69.792145 c 0,-1.104565 -0.89543,-2 -2,-2 -1.10456,0 -2,0.895435 -2,2 0,1.104565 0.89544,2 2,2 1.10457,0 2,-0.895435 2,-2"
       fill-rule="nonzero"
       id="path15" /><path
       fill="#1a1a1a"
       d="m 76.446342,124.54166 v -1 l 3.625,-0.0156 v 3.1875 q -0.828124,0.67187 -1.71875,1.01562 -0.890624,0.32812 -1.828124,0.32812 -1.265626,0 -2.3125,-0.53124 -1.03125,-0.54688 -1.5625,-1.5625 -0.515626,-1.03125 -0.515626,-2.29688 0,-1.26562 0.515626,-2.34375 0.53125,-1.09375 1.515624,-1.60937 0.984376,-0.53125 2.265626,-0.53125 0.9375,0 1.6875,0.29687 0.75,0.29688 1.171874,0.84375 0.4375,0.53125 0.65625,1.40625 l -1.015624,0.28125 q -0.203126,-0.65625 -0.5,-1.03125 -0.28125,-0.375 -0.8125,-0.59375 -0.53125,-0.23437 -1.171876,-0.23437 -0.78125,0 -1.359374,0.23437 -0.5625,0.23438 -0.921876,0.625 -0.34375,0.39063 -0.53125,0.85938 -0.328124,0.79687 -0.328124,1.71875 0,1.15625 0.390624,1.9375 0.40625,0.76562 1.15625,1.14062 0.75,0.375 1.609376,0.375 0.734374,0 1.4375,-0.28125 0.703124,-0.29687 1.0625,-0.60937 v -1.60938 z m 4.9375,3.375 v -8.59375 h 1.71875 l 2.03125,6.07813 q 0.28125,0.85937 0.40625,1.28125 0.140626,-0.46875 0.453126,-1.375 l 2.0625,-5.98438 h 1.53125 v 8.59375 h -1.09375 v -7.1875 l -2.5,7.1875 h -1.03125 l -2.484376,-7.3125 v 7.3125 z"
       fill-rule="nonzero"
       id="path16" /><path
       fill="#9e9e9e"
       d="m 77.461968,138.4323 -1.046876,0.0781 q -0.140624,-0.625 -0.390624,-0.90625 -0.4375,-0.45312 -1.0625,-0.45312 -0.5,0 -0.890626,0.28125 -0.484374,0.375 -0.78125,1.07812 -0.28125,0.6875 -0.296874,1.96875 0.375,-0.57812 0.921874,-0.85937 0.5625,-0.28125 1.171876,-0.28125 1.046874,0 1.78125,0.78125 0.75,0.78125 0.75,2 0,0.8125 -0.359376,1.51562 -0.34375,0.6875 -0.953124,1.0625 -0.609376,0.35938 -1.375,0.35938 -1.328126,0 -2.15625,-0.96875 -0.828126,-0.96875 -0.828126,-3.1875 0,-2.5 0.921876,-3.625 0.796874,-0.98438 2.15625,-0.98438 1.015624,0 1.65625,0.57813 0.65625,0.5625 0.78125,1.5625 z m -4.296876,3.70312 q 0,0.54688 0.21875,1.04688 0.234376,0.48437 0.640626,0.75 0.421874,0.26562 0.890624,0.26562 0.65625,0 1.140626,-0.53125 0.484374,-0.54687 0.484374,-1.46875 0,-0.89062 -0.484374,-1.40625 -0.46875,-0.51562 -1.1875,-0.51562 -0.71875,0 -1.21875,0.51562 -0.484376,0.51563 -0.484376,1.34375 z m 6.421876,2.78125 v -1.20312 h 1.203124 v 1.20312 z m 6.375,0 h -1.046876 v -6.71875 q -0.390624,0.35938 -1.015624,0.73438 -0.609376,0.35937 -1.09375,0.53125 v -1.01563 q 0.875,-0.42187 1.53125,-1 0.671874,-0.59375 0.953124,-1.15625 h 0.671876 z m 3.234374,-6.53125 q 0,-0.92187 0.453126,-1.5625 0.46875,-0.64062 1.34375,-0.64062 0.8125,0 1.34375,0.57812 0.53125,0.57813 0.53125,1.6875 0,1.09375 -0.546876,1.6875 -0.53125,0.57813 -1.3125,0.57813 -0.78125,0 -1.296874,-0.57813 -0.515626,-0.57812 -0.515626,-1.75 z m 1.828126,-1.48437 q -0.390626,0 -0.65625,0.34375 -0.25,0.34375 -0.25,1.25 0,0.82812 0.25,1.17187 0.265624,0.32813 0.65625,0.32813 0.40625,0 0.65625,-0.34375 0.265624,-0.34375 0.265624,-1.23438 0,-0.84375 -0.265624,-1.17187 -0.265626,-0.34375 -0.65625,-0.34375 z m 0,8.32812 4.703124,-9.04687 h 0.859376 l -4.6875,9.04687 z m 3.71875,-2.32812 q 0,-0.92188 0.453124,-1.5625 0.46875,-0.64063 1.359376,-0.64063 0.8125,0 1.34375,0.57813 0.53125,0.5625 0.53125,1.6875 0,1.09375 -0.546876,1.6875 -0.53125,0.57812 -1.328124,0.57812 -0.765626,0 -1.296876,-0.57812 -0.515624,-0.57813 -0.515624,-1.75 z m 1.84375,-1.48438 q -0.40625,0 -0.671876,0.34375 -0.25,0.34375 -0.25,1.25 0,0.8125 0.265626,1.15625 0.265624,0.34375 0.65625,0.34375 0.390624,0 0.65625,-0.34375 0.265624,-0.34375 0.265624,-1.25 0,-0.82812 -0.265624,-1.15625 -0.265626,-0.34375 -0.65625,-0.34375 z"
       fill-rule="nonzero"
       id="path17" /><path
       stroke="#757575"
       stroke-width="1"
       stroke-linecap="butt"
       d="M 71.493218,132.41667 H 198.17656 l 75.75862,-45.9145"
       fill-rule="nonzero"
       id="path18" /><path
       fill="#9e9e9e"
       d="m 275.93518,86.50217 c 0,-1.10458 -0.89543,-2 -2,-2 -1.10457,0 -2,0.89542 -2,2 0,1.104565 0.89543,2 2,2 1.10457,0 2,-0.895435 2,-2"
       fill-rule="nonzero"
       id="path19" /><g
       id="g29"
       transform="translate(52.943218)"><path
         fill="#1a1a1a"
         d="m -16.575,210.97801 v -8.59375 h 1.140624 v 7.57813 H -11.2 v 1.01562 z m 7.015624,0 v -8.59375 h 1.71875 l 2.03125,6.07813 q 0.28125,0.85937 0.40625,1.28125 0.140626,-0.46875 0.453126,-1.375 l 2.0625,-5.98438 h 1.53125 v 8.59375 H -2.45 v -7.1875 l -2.5,7.1875 h -1.03125 l -2.484376,-7.3125 v 7.3125 z"
         fill-rule="nonzero"
         id="path20" /><path
         fill="#9e9e9e"
         d="m -11.403126,226.96239 v 1.01562 h -5.6875 q 0,-0.375 0.125,-0.73437 0.21875,-0.57813 0.6875,-1.14063 0.484376,-0.5625 1.390626,-1.29687 1.40625,-1.15625 1.890624,-1.82813 0.5,-0.67187 0.5,-1.26562 0,-0.625 -0.453124,-1.04688 -0.453126,-0.4375 -1.171876,-0.4375 -0.765624,0 -1.21875,0.45313 -0.453124,0.45312 -0.46875,1.26562 l -1.078124,-0.10937 q 0.109374,-1.21875 0.828124,-1.84375 0.734376,-0.64063 1.96875,-0.64063 1.234376,0 1.953126,0.6875 0.71875,0.6875 0.71875,1.70313 0,0.51562 -0.21875,1.01562 -0.203126,0.48438 -0.703126,1.04688 -0.484374,0.54687 -1.609374,1.5 -0.953126,0.79687 -1.234376,1.09375 -0.265624,0.28125 -0.4375,0.5625 z m 1.515626,-6.45313 v -1.01562 h 5.5625 v 0.82812 q -0.8125,0.875 -1.625,2.32813 -0.796876,1.4375 -1.234376,2.96875 -0.328124,1.07812 -0.40625,2.35937 h -1.09375 q 0.01563,-1.01562 0.390626,-2.45312 0.390624,-1.4375 1.09375,-2.76563 0.71875,-1.32812 1.53125,-2.25 z m 7.53125,7.46875 v -1.20312 h 1.203124 v 1.20312 z m 2.46875,-7.46875 v -1.01562 H 5.675 v 0.82812 q -0.8125,0.875 -1.625,2.32813 -0.796876,1.4375 -1.234376,2.96875 -0.328124,1.07812 -0.40625,2.35937 h -1.09375 q 0.01563,-1.01562 0.390626,-2.45312 0.390624,-1.4375 1.09375,-2.76563 0.71875,-1.32812 1.53125,-2.25 z m 7.140624,0.9375 q 0,-0.92187 0.453126,-1.5625 0.46875,-0.64062 1.34375,-0.64062 0.8125,0 1.34375,0.57812 0.53125,0.57813 0.53125,1.6875 0,1.09375 -0.546876,1.6875 -0.53125,0.57813 -1.3125,0.57813 -0.78125,0 -1.296874,-0.57813 -0.515626,-0.57812 -0.515626,-1.75 z m 1.828126,-1.48437 q -0.390626,0 -0.65625,0.34375 -0.25,0.34375 -0.25,1.25 0,0.82812 0.25,1.17187 0.265624,0.32813 0.65625,0.32813 0.40625,0 0.65625,-0.34375 0.265624,-0.34375 0.265624,-1.23438 0,-0.84375 -0.265624,-1.17187 -0.265626,-0.34375 -0.65625,-0.34375 z m 0,8.32812 4.703124,-9.04687 h 0.859376 l -4.6875,9.04687 z M 12.8,225.96239 q 0,-0.92188 0.453124,-1.5625 0.46875,-0.64063 1.359376,-0.64063 0.8125,0 1.34375,0.57813 0.53125,0.5625 0.53125,1.6875 0,1.09375 -0.546876,1.6875 -0.53125,0.57812 -1.328124,0.57812 -0.765626,0 -1.296876,-0.57812 Q 12.8,227.13426 12.8,225.96239 Z m 1.84375,-1.48438 q -0.40625,0 -0.671876,0.34375 -0.25,0.34375 -0.25,1.25 0,0.8125 0.265626,1.15625 0.265624,0.34375 0.65625,0.34375 0.390624,0 0.65625,-0.34375 0.265624,-0.34375 0.265624,-1.25 0,-0.82812 -0.265624,-1.15625 -0.265626,-0.34375 -0.65625,-0.34375 z"
         fill-rule="nonzero"
         id="path21" /></g><path
       stroke="#757575"
       stroke-width="1"
       stroke-linecap="butt"
       d="M 35.493218,215.47801 H 162.17656 176.10791"
       fill-rule="nonzero"
       id="path22" /><path
       fill="#9e9e9e"
       d="m 178.10791,215.47801 c 0,-1.10458 -0.89543,-2 -2,-2 -1.10457,0 -2,0.89542 -2,2 0,1.10457 0.89543,2 2,2 1.10457,0 2,-0.89543 2,-2"
       fill-rule="nonzero"
       id="path23" /><path
       fill="#1a1a1a"
       d="m 620.37762,242.18182 3.29686,-8.59375 h 1.21874 l 3.51564,8.59375 h -1.28124 l -1.01564,-2.60937 h -3.57812 l -0.95314,2.60937 z m 2.48436,-3.53125 h 2.90624 l -0.8906,-2.375 q -0.4219,-1.07812 -0.6094,-1.78125 -0.17186,0.82813 -0.46874,1.64063 z m 5.51564,3.53125 v -8.59375 h 5.79686 v 1.01563 h -4.65626 v 2.65625 h 4.03126 v 1.01562 h -4.03126 v 3.90625 z"
       fill-rule="nonzero"
       id="path24" /><path
       fill="#9e9e9e"
       d="m 599.89322,256.93182 1.1094,-0.0937 q 0.125,0.8125 0.5625,1.21875 0.4531,0.40625 1.09374,0.40625 0.75,0 1.28126,-0.57812 0.53124,-0.57813 0.53124,-1.51563 0,-0.90625 -0.51564,-1.42187 -0.5,-0.53125 -1.3281,-0.53125 -0.5,0 -0.9219,0.23437 -0.40624,0.23438 -0.6406,0.59375 l -0.9844,-0.125 0.82814,-4.40625 h 4.28126 v 1 h -3.4375 l -0.45314,2.3125 q 0.76564,-0.54687 1.60938,-0.54687 1.125,0 1.89062,0.78125 0.78124,0.78125 0.78124,2.01562 0,1.15625 -0.67186,2.01563 -0.82814,1.03125 -2.25,1.03125 -1.17188,0 -1.92188,-0.65625 -0.73436,-0.65625 -0.84376,-1.73438 z m 7.15626,0.26563 1.01564,-0.0937 q 0.125,0.71875 0.48436,1.04687 0.375,0.3125 0.9375,0.3125 0.48438,0 0.84374,-0.21875 0.375,-0.23437 0.6094,-0.59375 0.23436,-0.375 0.3906,-1 0.15626,-0.64062 0.15626,-1.29687 0,-0.0781 0,-0.21875 -0.3125,0.5 -0.85936,0.82812 -0.5469,0.3125 -1.1875,0.3125 -1.07814,0 -1.8125,-0.76562 -0.7344,-0.78125 -0.7344,-2.04688 0,-1.3125 0.76564,-2.10937 0.78126,-0.79688 1.9375,-0.79688 0.82812,0 1.51562,0.45313 0.70314,0.45312 1.0625,1.29687 0.35938,0.82813 0.35938,2.40625 0,1.64063 -0.35938,2.625 -0.34376,0.96875 -1.0625,1.48438 -0.70312,0.5 -1.64062,0.5 -1.01564,0 -1.65624,-0.54688 -0.64064,-0.5625 -0.76564,-1.57812 z m 4.3125,-3.79688 q 0,-0.90625 -0.48436,-1.4375 -0.46876,-0.53125 -1.15626,-0.53125 -0.70314,0 -1.23438,0.57813 -0.51562,0.5625 -0.51562,1.48437 0,0.8125 0.5,1.32813 0.5,0.51562 1.21876,0.51562 0.73436,0 1.2031,-0.51562 0.46876,-0.51563 0.46876,-1.42188 z m 3.125,5.78125 v -1.20312 h 1.20314 v 1.20312 z m 4.03124,-4.65625 q -0.65624,-0.25 -0.98436,-0.6875 -0.3125,-0.45312 -0.3125,-1.0625 0,-0.9375 0.67186,-1.57812 0.6875,-0.64063 1.7969,-0.64063 1.125,0 1.8125,0.65625 0.6875,0.65625 0.6875,1.59375 0,0.59375 -0.3125,1.03125 -0.3125,0.4375 -0.95314,0.6875 0.79688,0.25 1.20314,0.82813 0.40624,0.57812 0.40624,1.375 0,1.09375 -0.78124,1.84375 -0.76564,0.75 -2.0469,0.75 -1.2656,0 -2.04686,-0.75 -0.78124,-0.75 -0.78124,-1.875 0,-0.84375 0.42186,-1.40625 0.4375,-0.5625 1.21874,-0.76563 z m -0.21874,-1.79687 q 0,0.60937 0.39064,1 0.40624,0.39062 1.03124,0.39062 0.60936,0 1,-0.375 0.39062,-0.39062 0.39062,-0.95312 0,-0.57813 -0.40626,-0.96875 -0.40624,-0.40625 -1,-0.40625 -0.60936,0 -1.0156,0.39062 -0.39064,0.39063 -0.39064,0.92188 z m -0.32812,3.96875 q 0,0.45312 0.20312,0.875 0.21874,0.42187 0.64064,0.65625 0.42186,0.23437 0.90624,0.23437 0.75,0 1.23436,-0.48437 0.5,-0.48438 0.5,-1.23438 0,-0.76562 -0.5,-1.26562 -0.5,-0.5 -1.2656,-0.5 -0.75,0 -1.2344,0.5 -0.48436,0.48437 -0.48436,1.21875 z m 6.125,-4.04688 q 0,-0.92187 0.45312,-1.5625 0.46874,-0.64062 1.34374,-0.64062 0.8125,0 1.34376,0.57812 0.53124,0.57813 0.53124,1.6875 0,1.09375 -0.54686,1.6875 -0.53124,0.57813 -1.3125,0.57813 -0.78124,0 -1.29688,-0.57813 -0.51562,-0.57812 -0.51562,-1.75 z m 1.82812,-1.48437 q -0.39062,0 -0.65626,0.34375 -0.25,0.34375 -0.25,1.25 0,0.82812 0.25,1.17187 0.26564,0.32813 0.65626,0.32813 0.40624,0 0.65624,-0.34375 0.26564,-0.34375 0.26564,-1.23438 0,-0.84375 -0.26564,-1.17187 -0.2656,-0.34375 -0.65624,-0.34375 z m 0,8.32812 4.70314,-9.04687 h 0.85936 l -4.6875,9.04687 z m 3.71874,-2.32812 q 0,-0.92188 0.45314,-1.5625 0.46876,-0.64063 1.35936,-0.64063 0.8125,0 1.34376,0.57813 0.53124,0.5625 0.53124,1.6875 0,1.09375 -0.54686,1.6875 -0.53124,0.57812 -1.32814,0.57812 -0.7656,0 -1.29686,-0.57812 -0.51564,-0.57813 -0.51564,-1.75 z m 1.84376,-1.48438 q -0.40626,0 -0.67186,0.34375 -0.25,0.34375 -0.25,1.25 0,0.8125 0.2656,1.15625 0.26564,0.34375 0.65626,0.34375 0.39064,0 0.65624,-0.34375 0.26564,-0.34375 0.26564,-1.25 0,-0.82812 -0.26564,-1.15625 -0.2656,-0.34375 -0.65624,-0.34375 z"
       fill-rule="nonzero"
       id="path25" /><path
       stroke="#757575"
       stroke-width="1"
       stroke-linecap="butt"
       d="M 634.39322,246.68182 H 507.70988 487.5717"
       fill-rule="nonzero"
       id="path26" /><path
       fill="#9e9e9e"
       d="m 489.5717,246.68182 c 0,-1.10458 -0.89542,-2 -2,-2 -1.10455,0 -2,0.89542 -2,2 0,1.10457 0.89545,2 2,2 1.10458,0 2,-0.89543 2,-2"
       fill-rule="nonzero"
       id="path27" /><path
       fill="#757575"
       d="M 73.024468,37.55 V 23.2375 h 1.9375 l 7.515624,11.234374 V 23.2375 h 1.8125 V 37.55 h -1.9375 L 74.836968,26.3 v 11.25 z m 19.578124,0 v -1.53125 q -1.203124,1.765624 -3.28125,1.765624 -0.921874,0 -1.71875,-0.34375 -0.796874,-0.359374 -1.1875,-0.890624 -0.375,-0.53125 -0.53125,-1.3125 -0.109374,-0.515626 -0.109374,-1.640626 V 27.175 h 1.75 v 5.75 q 0,1.375 0.109374,1.859374 0.171876,0.6875 0.703126,1.09375 0.546874,0.390626 1.328124,0.390626 0.796876,0 1.484376,-0.40625 0.703124,-0.40625 0.984374,-1.09375 0.296876,-0.703126 0.296876,-2.03125 V 27.175 h 1.75 V 37.55 Z m 3.203126,0 V 27.175 h 1.578124 v 1.453124 q 0.484376,-0.75 1.296876,-1.21875 0.8125,-0.46875 1.843752,-0.46875 1.15625,0 1.89062,0.484376 0.73438,0.46875 1.04688,1.328124 1.23437,-1.8125 3.20312,-1.8125 1.54688,0 2.375,0.859376 0.82813,0.859374 0.82813,2.625 v 7.125 h -1.75 v -6.53125 q 0,-1.0625 -0.17188,-1.515626 -0.17187,-0.46875 -0.625,-0.75 -0.4375,-0.28125 -1.04687,-0.28125 -1.09375,0 -1.82813,0.734376 -0.71875,0.71875 -0.71875,2.3125 V 37.55 h -1.75 v -6.734376 q 0,-1.171874 -0.4375,-1.75 -0.42187,-0.59375 -1.40625,-0.59375 -0.734372,0 -1.374998,0.390626 -0.625,0.390624 -0.90625,1.140624 -0.28125,0.75 -0.28125,2.171876 v 5.375 z m 17.625002,0 h -1.625 V 23.2375 h 1.75 v 5.109374 q 1.125,-1.40625 2.84375,-1.40625 0.95313,0 1.8125,0.390626 0.85938,0.390624 1.40625,1.09375 0.54688,0.6875 0.85938,1.671874 0.3125,0.984376 0.3125,2.109376 0,2.671874 -1.3125,4.125 -1.3125,1.453124 -3.15626,1.453124 -1.84375,0 -2.89062,-1.53125 z m -0.0156,-5.265626 q 0,1.859376 0.5,2.703126 0.84375,1.34375 2.25,1.34375 1.15625,0 1.98437,-1 0.84375,-1 0.84375,-2.984376 0,-2.03125 -0.8125,-2.984374 -0.79687,-0.96875 -1.9375,-0.96875 -1.15625,0 -2,1 -0.82812,1 -0.82812,2.890624 z m 16.5,1.921876 1.8125,0.234374 q -0.42188,1.578126 -1.59375,2.46875 -1.15625,0.875 -2.96875,0.875 -2.26563,0 -3.60938,-1.390624 -1.32812,-1.40625 -1.32812,-3.9375 0,-2.625 1.34375,-4.0625 1.34375,-1.453126 3.5,-1.453126 2.07812,0 3.39062,1.421876 1.32813,1.40625 1.32813,3.984374 0,0.15625 -0.0156,0.46875 h -7.73437 q 0.0937,1.703126 0.96875,2.609376 0.875,0.90625 2.17187,0.90625 0.96875,0 1.64063,-0.5 0.6875,-0.515626 1.09375,-1.625 z m -5.78124,-2.84375 h 5.79687 q -0.10937,-1.296876 -0.65625,-1.953126 -0.84375,-1.015624 -2.1875,-1.015624 -1.20312,0 -2.03125,0.8125 -0.82812,0.796874 -0.92187,2.15625 z M 133.7901,37.55 V 27.175 h 1.57812 v 1.578124 q 0.60938,-1.109374 1.125,-1.453124 0.51563,-0.359376 1.125,-0.359376 0.89063,0 1.8125,0.5625 l -0.60937,1.640626 q -0.64063,-0.390626 -1.28125,-0.390626 -0.57813,0 -1.04688,0.359376 -0.45312,0.34375 -0.65625,0.953124 -0.28125,0.9375 -0.28125,2.046876 V 37.55 Z m 12.375,-5.1875 q 0,-2.875 1.59375,-4.265626 1.34375,-1.15625 3.26562,-1.15625 2.14063,0 3.48438,1.40625 1.35937,1.40625 1.35937,3.875 0,2 -0.59375,3.15625 -0.59375,1.140626 -1.75,1.78125 -1.14062,0.625 -2.5,0.625 -2.1875,0 -3.53125,-1.390624 -1.32812,-1.40625 -1.32812,-4.03125 z m 1.79687,0 q 0,2 0.85938,2.984374 0.875,0.984376 2.20312,0.984376 1.3125,0 2.17188,-0.984376 0.875,-1 0.875,-3.046874 0,-1.921876 -0.875,-2.90625 -0.875,-1 -2.17188,-1 -1.32812,0 -2.20312,1 -0.85938,0.984374 -0.85938,2.96875 z M 158.2276,37.55 v -9 h -1.54688 v -1.375 h 1.54688 v -1.09375 q 0,-1.046876 0.1875,-1.5625 0.25,-0.6875 0.89062,-1.109376 0.64063,-0.421874 1.79688,-0.421874 0.75,0 1.64062,0.171874 l -0.26562,1.53125 q -0.54688,-0.09375 -1.03125,-0.09375 -0.79688,0 -1.14063,0.34375 -0.32812,0.34375 -0.32812,1.28125 V 27.175 h 2.03125 v 1.375 h -2.03125 v 9 z m 18.35937,-3.796876 1.71875,0.21875 q -0.28125,1.796876 -1.45312,2.8125 -1.15625,1 -2.85938,1 -2.125,0 -3.42187,-1.390624 -1.29688,-1.390626 -1.29688,-3.984376 0,-1.6875 0.54688,-2.9375 0.5625,-1.265624 1.70312,-1.890624 1.14063,-0.640626 2.48438,-0.640626 1.6875,0 2.75,0.859376 1.07812,0.859374 1.39062,2.421874 l -1.71875,0.265626 q -0.23437,-1.046876 -0.85937,-1.5625 -0.625,-0.53125 -1.5,-0.53125 -1.32813,0 -2.15625,0.953124 -0.82813,0.953126 -0.82813,3 0,2.09375 0.79688,3.046876 0.79687,0.9375 2.09375,0.9375 1.03125,0 1.71875,-0.625 0.70312,-0.640626 0.89062,-1.953126 z M 179.1651,32.3625 q 0,-2.875 1.59375,-4.265626 1.34375,-1.15625 3.26562,-1.15625 2.14063,0 3.48438,1.40625 1.35937,1.40625 1.35937,3.875 0,2 -0.59375,3.15625 -0.59375,1.140626 -1.75,1.78125 -1.14062,0.625 -2.5,0.625 -2.1875,0 -3.53125,-1.390624 -1.32812,-1.40625 -1.32812,-4.03125 z m 1.79687,0 q 0,2 0.85938,2.984374 0.875,0.984376 2.20312,0.984376 1.3125,0 2.17188,-0.984376 0.875,-1 0.875,-3.046874 0,-1.921876 -0.875,-2.90625 -0.875,-1 -2.17188,-1 -1.32812,0 -2.20312,1 -0.85938,0.984374 -0.85938,2.96875 z m 9.84375,5.1875 V 27.175 h 1.57813 v 1.453124 q 0.48437,-0.75 1.29687,-1.21875 0.8125,-0.46875 1.84375,-0.46875 1.15625,0 1.89063,0.484376 0.73437,0.46875 1.04687,1.328124 1.23438,-1.8125 3.20313,-1.8125 1.54687,0 2.375,0.859376 0.82812,0.859374 0.82812,2.625 v 7.125 h -1.75 v -6.53125 q 0,-1.0625 -0.17187,-1.515626 -0.17188,-0.46875 -0.625,-0.75 -0.4375,-0.28125 -1.04688,-0.28125 -1.09375,0 -1.82812,0.734376 -0.71875,0.71875 -0.71875,2.3125 V 37.55 h -1.75 v -6.734376 q 0,-1.171874 -0.4375,-1.75 -0.42188,-0.59375 -1.40625,-0.59375 -0.73438,0 -1.375,0.390626 -0.625,0.390624 -0.90625,1.140624 -0.28125,0.75 -0.28125,2.171876 v 5.375 z m 16,0 V 27.175 h 1.57813 v 1.453124 q 0.48437,-0.75 1.29687,-1.21875 0.8125,-0.46875 1.84375,-0.46875 1.15625,0 1.89063,0.484376 0.73437,0.46875 1.04687,1.328124 1.23438,-1.8125 3.20313,-1.8125 1.54687,0 2.375,0.859376 0.82812,0.859374 0.82812,2.625 v 7.125 h -1.75 v -6.53125 q 0,-1.0625 -0.17187,-1.515626 -0.17188,-0.46875 -0.625,-0.75 -0.4375,-0.28125 -1.04688,-0.28125 -1.09375,0 -1.82812,0.734376 -0.71875,0.71875 -0.71875,2.3125 V 37.55 h -1.75 v -6.734376 q 0,-1.171874 -0.4375,-1.75 -0.42188,-0.59375 -1.40625,-0.59375 -0.73438,0 -1.375,0.390626 -0.625,0.390624 -0.90625,1.140624 -0.28125,0.75 -0.28125,2.171876 V 37.55 Z M 222.82135,25.253124 V 23.2375 h 1.76562 v 2.015624 z m 0,12.296876 V 27.175 h 1.76562 V 37.55 Z m 7.82812,-1.578126 0.25,1.5625 q -0.73437,0.15625 -1.32812,0.15625 -0.95313,0 -1.48438,-0.296874 -0.51562,-0.3125 -0.73437,-0.796876 -0.21875,-0.5 -0.21875,-2.078124 V 28.55 h -1.28125 v -1.375 h 1.28125 v -2.5625 l 1.75,-1.0625 v 3.625 h 1.76562 v 1.375 h -1.76562 v 6.0625 q 0,0.75 0.0937,0.96875 0.0937,0.203124 0.29687,0.34375 0.21875,0.125 0.60938,0.125 0.28125,0 0.76562,-0.07813 z m 1.45313,-1.515624 1.75,-0.28125 q 0.14062,1.046874 0.8125,1.609374 0.67187,0.546876 1.875,0.546876 1.20312,0 1.78125,-0.484376 0.59375,-0.5 0.59375,-1.15625 0,-0.59375 -0.51563,-0.9375 -0.35937,-0.234374 -1.79687,-0.59375 -1.9375,-0.5 -2.6875,-0.84375 -0.73438,-0.359374 -1.125,-0.984374 -0.39063,-0.640626 -0.39063,-1.40625 0,-0.6875 0.3125,-1.28125 0.32813,-0.59375 0.875,-0.984376 0.40625,-0.296874 1.10938,-0.5 0.71875,-0.21875 1.53125,-0.21875 1.21875,0 2.14062,0.359376 0.92188,0.34375 1.35938,0.953124 0.4375,0.59375 0.60937,1.59375 l -1.71875,0.234376 q -0.125,-0.796876 -0.6875,-1.234376 -0.5625,-0.453124 -1.57812,-0.453124 -1.21875,0 -1.73438,0.40625 -0.51562,0.390624 -0.51562,0.921874 0,0.34375 0.21875,0.625 0.20312,0.28125 0.67187,0.46875 0.26563,0.09375 1.54688,0.4375 1.875,0.5 2.60937,0.828126 0.73438,0.3125 1.15625,0.921874 0.42188,0.59375 0.42188,1.5 0,0.875 -0.51563,1.65625 -0.51562,0.78125 -1.48437,1.203126 -0.96875,0.421874 -2.1875,0.421874 -2.01563,0 -3.07813,-0.84375 -1.0625,-0.84375 -1.35937,-2.484374 z"
       fill-rule="nonzero"
       id="path28" /><rect
       style="fill:none;stroke:#ff0000;stroke-width:1.5;stroke-miterlimit:12;stroke-dasharray:none;stroke-opacity:1"
       id="rect28-3"
       width="103.78331"
       height="76.870148"
       x="0.75"
       y="176.90231" /></g></svg>
