<svg version="1.1" viewBox="0.0 0.0 600.0 371.0" fill="none" stroke="none" stroke-linecap="square" stroke-miterlimit="10" width="600" height="371" xmlns:xlink="http://www.w3.org/1999/xlink" xmlns="http://www.w3.org/2000/svg"><path fill="#ffffff" fill-opacity="0.0" d="M0 0L600.0 0L600.0 371.0L0 371.0L0 0Z" fill-rule="nonzero"/><path fill="#46bdc6" d="M295.70142 54.978783C297.1339 54.937374 298.56693 54.916668 300.0 54.916668L300.0 203.68333Z" fill-rule="nonzero"/><path fill="#b7b7b7" d="M285.42148 55.632706C288.83954 55.29613 292.26825 55.078026 295.70142 54.978783L300.0 203.68333Z" fill-rule="nonzero"/><path fill="#d9ead3" d="M251.62083 63.002926C262.56274 59.240063 273.9063 56.7666 285.42148 55.632706L300.0 203.68333Z" fill-rule="nonzero"/><path fill="#fff2cc" d="M171.39384 128.9038C189.35439 98.01518 217.83223 74.62263 251.62083 63.002926L300.0 203.68333Z" fill-rule="nonzero"/><path fill="#e6b8af" d="M298.39737 352.44138C245.45567 351.871 196.80646 323.2064 170.65224 277.17264C144.49803 231.13889 144.78046 174.67361 171.39384 128.9038L300.0 203.68333Z" fill-rule="nonzero"/><path fill="#c9daf8" d="M300.0 54.916668C353.34012 54.916668 402.598 83.473755 429.102 129.76312C455.606 176.05249 455.29932 232.98888 428.2982 278.99002C401.29706 324.99118 351.7344 353.016 298.39737 352.44138L300.0 203.68333Z" fill-rule="nonzero"/><path fill="#1a1a1a" d="M19.51875 65.916664L19.51875 57.322914L20.64375 57.322914L20.64375 60.854164L25.1125 60.854164L25.1125 57.322914L26.253124 57.322914L26.253124 65.916664L25.1125 65.916664L25.1125 61.86979L20.64375 61.86979L20.64375 65.916664L19.51875 65.916664ZM28.471874 65.916664L28.471874 57.322914L31.721874 57.322914Q32.565624 57.322914 33.01875 57.40104Q33.659374 57.510414 34.08125 57.80729Q34.51875 58.104164 34.76875 58.635414Q35.034374 59.166664 35.034374 59.80729Q35.034374 60.90104 34.33125 61.666664Q33.64375 62.416664 31.815624 62.416664L29.6125 62.416664L29.6125 65.916664L28.471874 65.916664ZM29.6125 61.416664L31.83125 61.416664Q32.940624 61.416664 33.39375 61.010414Q33.8625 60.58854 33.8625 59.83854Q33.8625 59.30729 33.58125 58.93229Q33.315624 58.541664 32.878124 58.416664Q32.58125 58.33854 31.815624 58.33854L29.6125 58.33854L29.6125 61.416664Z" fill-rule="nonzero"/><path fill="#9e9e9e" d="M19.05 80.65104L20.1125 80.510414Q20.284374 81.40104 20.721874 81.80729Q21.159374 82.197914 21.784374 82.197914Q22.534374 82.197914 23.05 81.68229Q23.565624 81.166664 23.565624 80.40104Q23.565624 79.68229 23.08125 79.21354Q22.6125 78.729164 21.878124 78.729164Q21.58125 78.729164 21.128124 78.854164L21.253124 77.916664Q21.3625 77.93229 21.425 77.93229Q22.096874 77.93229 22.628124 77.58854Q23.175 77.229164 23.175 76.49479Q23.175 75.916664 22.784374 75.541664Q22.39375 75.15104 21.76875 75.15104Q21.159374 75.15104 20.7375 75.541664Q20.33125 75.93229 20.221874 76.697914L19.159374 76.510414Q19.346874 75.46354 20.034374 74.885414Q20.721874 74.291664 21.7375 74.291664Q22.440624 74.291664 23.034374 74.604164Q23.628124 74.90104 23.940624 75.416664Q24.253124 75.93229 24.253124 76.52604Q24.253124 77.072914 23.95625 77.541664Q23.659374 77.99479 23.08125 78.260414Q23.83125 78.43229 24.253124 78.99479Q24.675 79.541664 24.675 80.385414Q24.675 81.510414 23.846874 82.291664Q23.034374 83.072914 21.784374 83.072914Q20.659374 83.072914 19.909374 82.40104Q19.159374 81.71354 19.05 80.65104ZM26.64375 82.916664L26.64375 81.71354L27.846874 81.71354L27.846874 82.916664L26.64375 82.916664ZM29.1125 75.447914L29.1125 74.43229L34.675 74.43229L34.675 75.260414Q33.8625 76.135414 33.05 77.58854Q32.253124 79.02604 31.815624 80.55729Q31.4875 81.635414 31.409374 82.916664L30.315624 82.916664Q30.33125 81.90104 30.70625 80.46354Q31.096874 79.02604 31.8 77.697914Q32.51875 76.36979 33.33125 75.447914L29.1125 75.447914ZM36.253124 76.385414Q36.253124 75.46354 36.70625 74.822914Q37.175 74.18229 38.05 74.18229Q38.8625 74.18229 39.39375 74.760414Q39.925 75.33854 39.925 76.447914Q39.925 77.541664 39.378124 78.135414Q38.846874 78.71354 38.065624 78.71354Q37.284374 78.71354 36.76875 78.135414Q36.253124 77.55729 36.253124 76.385414ZM38.08125 74.90104Q37.690624 74.90104 37.425 75.24479Q37.175 75.58854 37.175 76.49479Q37.175 77.322914 37.425 77.666664Q37.690624 77.99479 38.08125 77.99479Q38.4875 77.99479 38.7375 77.65104Q39.003124 77.30729 39.003124 76.416664Q39.003124 75.572914 38.7375 75.24479Q38.471874 74.90104 38.08125 74.90104ZM38.08125 83.229164L42.784374 74.18229L43.64375 74.18229L38.95625 83.229164L38.08125 83.229164ZM41.8 80.90104Q41.8 79.979164 42.253124 79.33854Q42.721874 78.697914 43.6125 78.697914Q44.425 78.697914 44.95625 79.27604Q45.4875 79.83854 45.4875 80.96354Q45.4875 82.05729 44.940624 82.65104Q44.409374 83.229164 43.6125 83.229164Q42.846874 83.229164 42.315624 82.65104Q41.8 82.072914 41.8 80.90104ZM43.64375 79.416664Q43.2375 79.416664 42.971874 79.760414Q42.721874 80.104164 42.721874 81.010414Q42.721874 81.822914 42.9875 82.166664Q43.253124 82.510414 43.64375 82.510414Q44.034374 82.510414 44.3 82.166664Q44.565624 81.822914 44.565624 80.916664Q44.565624 80.08854 44.3 79.760414Q44.034374 79.416664 43.64375 79.416664Z" fill-rule="nonzero"/><path stroke="#757575" stroke-width="1.0" stroke-linecap="butt" d="M18.55 70.416664L145.23334 70.416664L269.89087 65.599525" fill-rule="nonzero"/><path fill="#9e9e9e" d="M271.89087 65.599525C271.89087 64.49495 270.99545 63.59952 269.89087 63.59952C268.78632 63.59952 267.89087 64.49495 267.89087 65.599525C267.89087 66.704094 268.78632 67.599525 269.89087 67.599525C270.99545 67.599525 271.89087 66.704094 271.89087 65.599525" fill-rule="nonzero"/><path fill="#1a1a1a" d="M23.503124 93.541664L23.503124 92.541664L27.128124 92.52604L27.128124 95.71354Q26.3 96.385414 25.409374 96.729164Q24.51875 97.05729 23.58125 97.05729Q22.315624 97.05729 21.26875 96.52604Q20.2375 95.979164 19.70625 94.96354Q19.190624 93.93229 19.190624 92.666664Q19.190624 91.40104 19.70625 90.322914Q20.2375 89.229164 21.221874 88.71354Q22.20625 88.18229 23.4875 88.18229Q24.425 88.18229 25.175 88.479164Q25.925 88.77604 26.346874 89.322914Q26.784374 89.854164 27.003124 90.729164L25.9875 91.010414Q25.784374 90.354164 25.4875 89.979164Q25.20625 89.604164 24.675 89.385414Q24.14375 89.15104 23.503124 89.15104Q22.721874 89.15104 22.14375 89.385414Q21.58125 89.61979 21.221874 90.010414Q20.878124 90.40104 20.690624 90.86979Q20.3625 91.666664 20.3625 92.58854Q20.3625 93.74479 20.753124 94.52604Q21.159374 95.291664 21.909374 95.666664Q22.659374 96.041664 23.51875 96.041664Q24.253124 96.041664 24.95625 95.760414Q25.659374 95.46354 26.01875 95.15104L26.01875 93.541664L23.503124 93.541664ZM28.440624 96.916664L28.440624 88.322914L30.159374 88.322914L32.190624 94.40104Q32.471874 95.260414 32.596874 95.68229Q32.7375 95.21354 33.05 94.30729L35.1125 88.322914L36.64375 88.322914L36.64375 96.916664L35.55 96.916664L35.55 89.729164L33.05 96.916664L32.01875 96.916664L29.534374 89.604164L29.534374 96.916664L28.440624 96.916664Z" fill-rule="nonzero"/><path fill="#9e9e9e" d="M23.01875 113.916664L21.971874 113.916664L21.971874 107.197914Q21.58125 107.55729 20.95625 107.93229Q20.346874 108.291664 19.8625 108.46354L19.8625 107.447914Q20.7375 107.02604 21.39375 106.447914Q22.065624 105.854164 22.346874 105.291664L23.01875 105.291664L23.01875 113.916664ZM30.01875 113.916664L28.971874 113.916664L28.971874 107.197914Q28.58125 107.55729 27.95625 107.93229Q27.346874 108.291664 26.8625 108.46354L26.8625 107.447914Q27.7375 107.02604 28.39375 106.447914Q29.065624 105.854164 29.346874 105.291664L30.01875 105.291664L30.01875 113.916664ZM33.64375 113.916664L33.64375 112.71354L34.846874 112.71354L34.846874 113.916664L33.64375 113.916664ZM36.05 111.65104L37.1125 111.510414Q37.284374 112.40104 37.721874 112.80729Q38.159374 113.197914 38.784374 113.197914Q39.534374 113.197914 40.05 112.68229Q40.565624 112.166664 40.565624 111.40104Q40.565624 110.68229 40.08125 110.21354Q39.6125 109.729164 38.878124 109.729164Q38.58125 109.729164 38.128124 109.854164L38.253124 108.916664Q38.3625 108.93229 38.425 108.93229Q39.096874 108.93229 39.628124 108.58854Q40.175 108.229164 40.175 107.49479Q40.175 106.916664 39.784374 106.541664Q39.39375 106.15104 38.76875 106.15104Q38.159374 106.15104 37.7375 106.541664Q37.33125 106.93229 37.221874 107.697914L36.159374 107.510414Q36.346874 106.46354 37.034374 105.885414Q37.721874 105.291664 38.7375 105.291664Q39.440624 105.291664 40.034374 105.604164Q40.628124 105.90104 40.940624 106.416664Q41.253124 106.93229 41.253124 107.52604Q41.253124 108.072914 40.95625 108.541664Q40.659374 108.99479 40.08125 109.260414Q40.83125 109.43229 41.253124 109.99479Q41.675 110.541664 41.675 111.385414Q41.675 112.510414 40.846874 113.291664Q40.034374 114.072914 38.784374 114.072914Q37.659374 114.072914 36.909374 113.40104Q36.159374 112.71354 36.05 111.65104ZM43.253124 107.385414Q43.253124 106.46354 43.70625 105.822914Q44.175 105.18229 45.05 105.18229Q45.8625 105.18229 46.39375 105.760414Q46.925 106.33854 46.925 107.447914Q46.925 108.541664 46.378124 109.135414Q45.846874 109.71354 45.065624 109.71354Q44.284374 109.71354 43.76875 109.135414Q43.253124 108.55729 43.253124 107.385414ZM45.08125 105.90104Q44.690624 105.90104 44.425 106.24479Q44.175 106.58854 44.175 107.49479Q44.175 108.322914 44.425 108.666664Q44.690624 108.99479 45.08125 108.99479Q45.4875 108.99479 45.7375 108.65104Q46.003124 108.30729 46.003124 107.416664Q46.003124 106.572914 45.7375 106.24479Q45.471874 105.90104 45.08125 105.90104ZM45.08125 114.229164L49.784374 105.18229L50.64375 105.18229L45.95625 114.229164L45.08125 114.229164ZM48.8 111.90104Q48.8 110.979164 49.253124 110.33854Q49.721874 109.697914 50.6125 109.697914Q51.425 109.697914 51.95625 110.27604Q52.4875 110.83854 52.4875 111.96354Q52.4875 113.05729 51.940624 113.65104Q51.409374 114.229164 50.6125 114.229164Q49.846874 114.229164 49.315624 113.65104Q48.8 113.072914 48.8 111.90104ZM50.64375 110.416664Q50.2375 110.416664 49.971874 110.760414Q49.721874 111.104164 49.721874 112.010414Q49.721874 112.822914 49.9875 113.166664Q50.253124 113.510414 50.64375 113.510414Q51.034374 113.510414 51.3 113.166664Q51.565624 112.822914 51.565624 111.916664Q51.565624 111.08854 51.3 110.760414Q51.034374 110.416664 50.64375 110.416664Z" fill-rule="nonzero"/><path stroke="#757575" stroke-width="1.0" stroke-linecap="butt" d="M18.55 101.416664L145.23334 101.416664L210.29323 94.47531" fill-rule="nonzero"/><path fill="#9e9e9e" d="M212.29323 94.47531C212.29323 93.37074 211.3978 92.47531 210.29323 92.47531C209.18866 92.47531 208.29323 93.37074 208.29323 94.47531C208.29323 95.57988 209.18866 96.47531 210.29323 96.47531C211.3978 96.47531 212.29323 95.57988 212.29323 94.47531" fill-rule="nonzero"/><path fill="#1a1a1a" d="M19.425 268.99817L19.425 260.40442L20.565624 260.40442L20.565624 267.98254L24.8 267.98254L24.8 268.99817L19.425 268.99817ZM26.440624 268.99817L26.440624 260.40442L28.159374 260.40442L30.190624 266.48254Q30.471874 267.34192 30.596874 267.7638Q30.7375 267.29504 31.05 266.3888L33.1125 260.40442L34.64375 260.40442L34.64375 268.99817L33.55 268.99817L33.55 261.81067L31.05 268.99817L30.01875 268.99817L27.534374 261.68567L27.534374 268.99817L26.440624 268.99817Z" fill-rule="nonzero"/><path fill="#9e9e9e" d="M19.05 283.73254L20.1125 283.59192Q20.284374 284.48254 20.721874 284.8888Q21.159374 285.27942 21.784374 285.27942Q22.534374 285.27942 23.05 284.7638Q23.565624 284.24817 23.565624 283.48254Q23.565624 282.7638 23.08125 282.29504Q22.6125 281.81067 21.878124 281.81067Q21.58125 281.81067 21.128124 281.93567L21.253124 280.99817Q21.3625 281.0138 21.425 281.0138Q22.096874 281.0138 22.628124 280.67004Q23.175 280.31067 23.175 279.5763Q23.175 278.99817 22.784374 278.62317Q22.39375 278.23254 21.76875 278.23254Q21.159374 278.23254 20.7375 278.62317Q20.33125 279.0138 20.221874 279.77942L19.159374 279.59192Q19.346874 278.54504 20.034374 277.96692Q20.721874 277.37317 21.7375 277.37317Q22.440624 277.37317 23.034374 277.68567Q23.628124 277.98254 23.940624 278.49817Q24.253124 279.0138 24.253124 279.60754Q24.253124 280.15442 23.95625 280.62317Q23.659374 281.0763 23.08125 281.34192Q23.83125 281.5138 24.253124 282.0763Q24.675 282.62317 24.675 283.46692Q24.675 284.59192 23.846874 285.37317Q23.034374 286.15442 21.784374 286.15442Q20.659374 286.15442 19.909374 285.48254Q19.159374 284.79504 19.05 283.73254ZM26.05 283.73254L27.1125 283.59192Q27.284374 284.48254 27.721874 284.8888Q28.159374 285.27942 28.784374 285.27942Q29.534374 285.27942 30.05 284.7638Q30.565624 284.24817 30.565624 283.48254Q30.565624 282.7638 30.08125 282.29504Q29.6125 281.81067 28.878124 281.81067Q28.58125 281.81067 28.128124 281.93567L28.253124 280.99817Q28.3625 281.0138 28.425 281.0138Q29.096874 281.0138 29.628124 280.67004Q30.175 280.31067 30.175 279.5763Q30.175 278.99817 29.784374 278.62317Q29.39375 278.23254 28.76875 278.23254Q28.159374 278.23254 27.7375 278.62317Q27.33125 279.0138 27.221874 279.77942L26.159374 279.59192Q26.346874 278.54504 27.034374 277.96692Q27.721874 277.37317 28.7375 277.37317Q29.440624 277.37317 30.034374 277.68567Q30.628124 277.98254 30.940624 278.49817Q31.253124 279.0138 31.253124 279.60754Q31.253124 280.15442 30.95625 280.62317Q30.659374 281.0763 30.08125 281.34192Q30.83125 281.5138 31.253124 282.0763Q31.675 282.62317 31.675 283.46692Q31.675 284.59192 30.846874 285.37317Q30.034374 286.15442 28.784374 286.15442Q27.659374 286.15442 26.909374 285.48254Q26.159374 284.79504 26.05 283.73254ZM33.64375 285.99817L33.64375 284.79504L34.846874 284.79504L34.846874 285.99817L33.64375 285.99817ZM41.596874 284.98254L41.596874 285.99817L35.909374 285.99817Q35.909374 285.62317 36.034374 285.2638Q36.253124 284.68567 36.721874 284.12317Q37.20625 283.56067 38.1125 282.8263Q39.51875 281.67004 40.003124 280.99817Q40.503124 280.3263 40.503124 279.73254Q40.503124 279.10754 40.05 278.68567Q39.596874 278.24817 38.878124 278.24817Q38.1125 278.24817 37.659374 278.7013Q37.20625 279.15442 37.190624 279.96692L36.1125 279.85754Q36.221874 278.6388 36.940624 278.0138Q37.675 277.37317 38.909374 277.37317Q40.14375 277.37317 40.8625 278.06067Q41.58125 278.74817 41.58125 279.7638Q41.58125 280.27942 41.3625 280.77942Q41.159374 281.2638 40.659374 281.8263Q40.175 282.37317 39.05 283.3263Q38.096874 284.12317 37.815624 284.42004Q37.55 284.7013 37.378124 284.98254L41.596874 284.98254ZM43.253124 279.46692Q43.253124 278.54504 43.70625 277.90442Q44.175 277.2638 45.05 277.2638Q45.8625 277.2638 46.39375 277.84192Q46.925 278.42004 46.925 279.52942Q46.925 280.62317 46.378124 281.21692Q45.846874 281.79504 45.065624 281.79504Q44.284374 281.79504 43.76875 281.21692Q43.253124 280.6388 43.253124 279.46692ZM45.08125 277.98254Q44.690624 277.98254 44.425 278.3263Q44.175 278.67004 44.175 279.5763Q44.175 280.40442 44.425 280.74817Q44.690624 281.0763 45.08125 281.0763Q45.4875 281.0763 45.7375 280.73254Q46.003124 280.3888 46.003124 279.49817Q46.003124 278.65442 45.7375 278.3263Q45.471874 277.98254 45.08125 277.98254ZM45.08125 286.31067L49.784374 277.2638L50.64375 277.2638L45.95625 286.31067L45.08125 286.31067ZM48.8 283.98254Q48.8 283.06067 49.253124 282.42004Q49.721874 281.77942 50.6125 281.77942Q51.425 281.77942 51.95625 282.35754Q52.4875 282.92004 52.4875 284.04504Q52.4875 285.1388 51.940624 285.73254Q51.409374 286.31067 50.6125 286.31067Q49.846874 286.31067 49.315624 285.73254Q48.8 285.15442 48.8 283.98254ZM50.64375 282.49817Q50.2375 282.49817 49.971874 282.84192Q49.721874 283.18567 49.721874 284.09192Q49.721874 284.90442 49.9875 285.24817Q50.253124 285.59192 50.64375 285.59192Q51.034374 285.59192 51.3 285.24817Q51.565624 284.90442 51.565624 283.99817Q51.565624 283.17004 51.3 282.84192Q51.034374 282.49817 50.64375 282.49817Z" fill-rule="nonzero"/><path stroke="#757575" stroke-width="1.0" stroke-linecap="butt" d="M18.55 273.49817L145.23334 273.49817L177.11963 273.49817" fill-rule="nonzero"/><path fill="#9e9e9e" d="M179.11963 273.49817C179.11963 272.39362 178.2242 271.49817 177.11963 271.49817C176.01506 271.49817 175.11963 272.39362 175.11963 273.49817C175.11963 274.60275 176.01506 275.49817 177.11963 275.49817C178.2242 275.49817 179.11963 274.60275 179.11963 273.49817" fill-rule="nonzero"/><path fill="#1a1a1a" d="M567.4344 199.9446L570.73126 191.35085L571.95 191.35085L575.46564 199.9446L574.1844 199.9446L573.16876 197.33522L569.59064 197.33522L568.6375 199.9446L567.4344 199.9446ZM569.91876 196.41335L572.825 196.41335L571.9344 194.03835Q571.5125 192.96022 571.325 192.2571Q571.15314 193.08522 570.85626 193.89772L569.91876 196.41335ZM575.4344 199.9446L575.4344 191.35085L581.23126 191.35085L581.23126 192.36647L576.575 192.36647L576.575 195.02272L580.60626 195.02272L580.60626 196.03835L576.575 196.03835L576.575 199.9446L575.4344 199.9446Z" fill-rule="nonzero"/><path fill="#9e9e9e" d="M546.95 214.6946L548.0594 214.60085Q548.1844 215.41335 548.6219 215.8196Q549.075 216.22585 549.71564 216.22585Q550.46564 216.22585 550.9969 215.64772Q551.52814 215.0696 551.52814 214.1321Q551.52814 213.22585 551.0125 212.71022Q550.5125 212.17897 549.6844 212.17897Q549.1844 212.17897 548.7625 212.41335Q548.35626 212.64772 548.1219 213.0071L547.1375 212.8821L547.96564 208.47585L552.2469 208.47585L552.2469 209.47585L548.8094 209.47585L548.35626 211.78835Q549.1219 211.24147 549.96564 211.24147Q551.09064 211.24147 551.85626 212.02272Q552.6375 212.80397 552.6375 214.03835Q552.6375 215.1946 551.96564 216.05397Q551.1375 217.08522 549.71564 217.08522Q548.54376 217.08522 547.79376 216.42897Q547.0594 215.77272 546.95 214.6946ZM553.95 212.71022Q553.95 211.17897 554.2625 210.2571Q554.575 209.3196 555.1844 208.8196Q555.8094 208.3196 556.7469 208.3196Q557.4344 208.3196 557.95 208.60085Q558.48126 208.8821 558.825 209.41335Q559.16876 209.92897 559.35626 210.67897Q559.54376 211.42897 559.54376 212.71022Q559.54376 214.22585 559.23126 215.14772Q558.9344 216.0696 558.3094 216.58522Q557.7 217.08522 556.7469 217.08522Q555.5125 217.08522 554.79376 216.1946Q553.95 215.1321 553.95 212.71022ZM555.02814 212.71022Q555.02814 214.8196 555.52814 215.52272Q556.02814 216.22585 556.7469 216.22585Q557.48126 216.22585 557.96564 215.52272Q558.46564 214.8196 558.46564 212.71022Q558.46564 210.58522 557.96564 209.89772Q557.48126 209.1946 556.73126 209.1946Q556.0125 209.1946 555.575 209.80397Q555.02814 210.58522 555.02814 212.71022ZM561.54376 216.9446L561.54376 215.74147L562.7469 215.74147L562.7469 216.9446L561.54376 216.9446ZM569.4969 215.92897L569.4969 216.9446L563.8094 216.9446Q563.8094 216.5696 563.9344 216.21022Q564.15314 215.6321 564.6219 215.0696Q565.10626 214.5071 566.0125 213.77272Q567.41876 212.61647 567.90314 211.9446Q568.40314 211.27272 568.40314 210.67897Q568.40314 210.05397 567.95 209.6321Q567.4969 209.1946 566.77814 209.1946Q566.0125 209.1946 565.5594 209.64772Q565.10626 210.10085 565.09064 210.91335L564.0125 210.80397Q564.1219 209.58522 564.84064 208.96022Q565.575 208.3196 566.8094 208.3196Q568.04376 208.3196 568.7625 209.0071Q569.48126 209.6946 569.48126 210.71022Q569.48126 211.22585 569.2625 211.72585Q569.0594 212.21022 568.5594 212.77272Q568.075 213.3196 566.95 214.27272Q565.9969 215.0696 565.71564 215.36647Q565.45 215.64772 565.27814 215.92897L569.4969 215.92897ZM571.15314 210.41335Q571.15314 209.49147 571.60626 208.85085Q572.075 208.21022 572.95 208.21022Q573.7625 208.21022 574.29376 208.78835Q574.825 209.36647 574.825 210.47585Q574.825 211.5696 574.27814 212.16335Q573.7469 212.74147 572.96564 212.74147Q572.1844 212.74147 571.66876 212.16335Q571.15314 211.58522 571.15314 210.41335ZM572.98126 208.92897Q572.59064 208.92897 572.325 209.27272Q572.075 209.61647 572.075 210.52272Q572.075 211.35085 572.325 211.6946Q572.59064 212.02272 572.98126 212.02272Q573.3875 212.02272 573.6375 211.67897Q573.90314 211.33522 573.90314 210.4446Q573.90314 209.60085 573.6375 209.27272Q573.3719 208.92897 572.98126 208.92897ZM572.98126 217.2571L577.6844 208.21022L578.54376 208.21022L573.85626 217.2571L572.98126 217.2571ZM576.7 214.92897Q576.7 214.0071 577.15314 213.36647Q577.6219 212.72585 578.5125 212.72585Q579.325 212.72585 579.85626 213.30397Q580.3875 213.86647 580.3875 214.99147Q580.3875 216.08522 579.84064 216.67897Q579.3094 217.2571 578.5125 217.2571Q577.7469 217.2571 577.21564 216.67897Q576.7 216.10085 576.7 214.92897ZM578.54376 213.4446Q578.1375 213.4446 577.8719 213.78835Q577.6219 214.1321 577.6219 215.03835Q577.6219 215.85085 577.8875 216.1946Q578.15314 216.53835 578.54376 216.53835Q578.9344 216.53835 579.2 216.1946Q579.46564 215.85085 579.46564 214.9446Q579.46564 214.11647 579.2 213.78835Q578.9344 213.4446 578.54376 213.4446Z" fill-rule="nonzero"/><path stroke="#757575" stroke-width="1.0" stroke-linecap="butt" d="M581.45 204.4446L454.76666 204.4446L441.3263 204.4446" fill-rule="nonzero"/><path fill="#9e9e9e" d="M443.3263 204.4446C443.3263 203.34003 442.43085 202.4446 441.3263 202.4446C440.2217 202.4446 439.3263 203.34003 439.3263 204.4446C439.3263 205.54916 440.2217 206.4446 441.3263 206.4446C442.43085 206.4446 443.3263 205.54916 443.3263 204.4446" fill-rule="nonzero"/><path fill="#757575" d="M20.01875 37.55L20.01875 23.2375L21.909374 23.2375L21.909374 35.8625L28.95625 35.8625L28.95625 37.55L20.01875 37.55ZM30.878124 25.253124L30.878124 23.2375L32.64375 23.2375L32.64375 25.253124L30.878124 25.253124ZM30.878124 37.55L30.878124 27.175L32.64375 27.175L32.64375 37.55L30.878124 37.55ZM34.8625 37.55L34.8625 27.175L36.45625 27.175L36.45625 28.659374Q37.596874 26.940624 39.753124 26.940624Q40.690624 26.940624 41.471874 27.284374Q42.26875 27.6125 42.659374 28.159374Q43.05 28.70625 43.20625 29.45625Q43.3 29.95625 43.3 31.175L43.3 37.55L41.534374 37.55L41.534374 31.2375Q41.534374 30.159374 41.33125 29.628124Q41.128124 29.096874 40.596874 28.784374Q40.08125 28.471874 39.378124 28.471874Q38.253124 28.471874 37.440624 29.190624Q36.628124 29.89375 36.628124 31.878124L36.628124 37.55L34.8625 37.55ZM51.971874 34.20625L53.784374 34.440624Q53.3625 36.01875 52.190624 36.909374Q51.034374 37.784374 49.221874 37.784374Q46.95625 37.784374 45.6125 36.39375Q44.284374 34.9875 44.284374 32.45625Q44.284374 29.83125 45.628124 28.39375Q46.971874 26.940624 49.128124 26.940624Q51.20625 26.940624 52.51875 28.3625Q53.846874 29.76875 53.846874 32.346874Q53.846874 32.503124 53.83125 32.815624L46.096874 32.815624Q46.190624 34.51875 47.065624 35.425Q47.940624 36.33125 49.2375 36.33125Q50.20625 36.33125 50.878124 35.83125Q51.565624 35.315624 51.971874 34.20625ZM46.190624 31.3625L51.9875 31.3625Q51.878124 30.065624 51.33125 29.409374Q50.4875 28.39375 49.14375 28.39375Q47.940624 28.39375 47.1125 29.20625Q46.284374 30.003124 46.190624 31.3625ZM55.159374 34.45625L56.909374 34.175Q57.05 35.221874 57.721874 35.784374Q58.39375 36.33125 59.596874 36.33125Q60.8 36.33125 61.378124 35.846874Q61.971874 35.346874 61.971874 34.690624Q61.971874 34.096874 61.45625 33.753124Q61.096874 33.51875 59.659374 33.159374Q57.721874 32.659374 56.971874 32.315624Q56.2375 31.95625 55.846874 31.33125Q55.45625 30.690624 55.45625 29.925Q55.45625 29.2375 55.76875 28.64375Q56.096874 28.05 56.64375 27.659374Q57.05 27.3625 57.753124 27.159374Q58.471874 26.940624 59.284374 26.940624Q60.503124 26.940624 61.425 27.3Q62.346874 27.64375 62.784374 28.253124Q63.221874 28.846874 63.39375 29.846874L61.675 30.08125Q61.55 29.284374 60.9875 28.846874Q60.425 28.39375 59.409374 28.39375Q58.190624 28.39375 57.675 28.8Q57.159374 29.190624 57.159374 29.721874Q57.159374 30.065624 57.378124 30.346874Q57.58125 30.628124 58.05 30.815624Q58.315624 30.909374 59.596874 31.253124Q61.471874 31.753124 62.20625 32.08125Q62.940624 32.39375 63.3625 33.003124Q63.784374 33.596874 63.784374 34.503124Q63.784374 35.378124 63.26875 36.159374Q62.753124 36.940624 61.784374 37.3625Q60.815624 37.784374 59.596874 37.784374Q57.58125 37.784374 56.51875 36.940624Q55.45625 36.096874 55.159374 34.45625ZM71.22188 32.3625Q71.22188 29.4875 72.81563 28.096874Q74.15938 26.940624 76.08125 26.940624Q78.22188 26.940624 79.56563 28.346874Q80.925 29.753124 80.925 32.221874Q80.925 34.221874 80.33125 35.378124Q79.7375 36.51875 78.58125 37.159374Q77.44063 37.784374 76.08125 37.784374Q73.89375 37.784374 72.55 36.39375Q71.22188 34.9875 71.22188 32.3625ZM73.01875 32.3625Q73.01875 34.3625 73.87813 35.346874Q74.75313 36.33125 76.08125 36.33125Q77.39375 36.33125 78.25313 35.346874Q79.12813 34.346874 79.12813 32.3Q79.12813 30.378124 78.25313 29.39375Q77.37813 28.39375 76.08125 28.39375Q74.75313 28.39375 73.87813 29.39375Q73.01875 30.378124 73.01875 32.3625ZM83.28438 37.55L83.28438 28.55L81.7375 28.55L81.7375 27.175L83.28438 27.175L83.28438 26.08125Q83.28438 25.034374 83.47188 24.51875Q83.72188 23.83125 84.3625 23.409374Q85.00313 22.9875 86.15938 22.9875Q86.90938 22.9875 87.8 23.159374L87.53438 24.690624Q86.9875 24.596874 86.50313 24.596874Q85.70625 24.596874 85.3625 24.940624Q85.03438 25.284374 85.03438 26.221874L85.03438 27.175L87.06563 27.175L87.06563 28.55L85.03438 28.55L85.03438 37.55L83.28438 37.55ZM101.64375 33.753124L103.3625 33.971874Q103.08125 35.76875 101.90938 36.784374Q100.75313 37.784374 99.05 37.784374Q96.925 37.784374 95.62813 36.39375Q94.33125 35.003124 94.33125 32.409374Q94.33125 30.721874 94.87813 29.471874Q95.44063 28.20625 96.58125 27.58125Q97.72188 26.940624 99.06563 26.940624Q100.75313 26.940624 101.81563 27.8Q102.89375 28.659374 103.20625 30.221874L101.4875 30.4875Q101.25313 29.440624 100.62813 28.925Q100.00313 28.39375 99.12813 28.39375Q97.8 28.39375 96.97188 29.346874Q96.14375 30.3 96.14375 32.346874Q96.14375 34.440624 96.94063 35.39375Q97.7375 36.33125 99.03438 36.33125Q100.06563 36.33125 100.75313 35.70625Q101.45625 35.065624 101.64375 33.753124ZM104.22188 32.3625Q104.22188 29.4875 105.81563 28.096874Q107.15938 26.940624 109.08125 26.940624Q111.22188 26.940624 112.56563 28.346874Q113.925 29.753124 113.925 32.221874Q113.925 34.221874 113.33125 35.378124Q112.7375 36.51875 111.58125 37.159374Q110.44063 37.784374 109.08125 37.784374Q106.89375 37.784374 105.55 36.39375Q104.22188 34.9875 104.22188 32.3625ZM106.01875 32.3625Q106.01875 34.3625 106.87813 35.346874Q107.75313 36.33125 109.08125 36.33125Q110.39375 36.33125 111.25313 35.346874Q112.12813 34.346874 112.12813 32.3Q112.12813 30.378124 111.25313 29.39375Q110.37813 28.39375 109.08125 28.39375Q107.75313 28.39375 106.87813 29.39375Q106.01875 30.378124 106.01875 32.3625ZM122.59688 37.55L122.59688 36.2375Q121.6125 37.784374 119.69063 37.784374Q118.45625 37.784374 117.40938 37.096874Q116.37813 36.409374 115.8 35.190624Q115.2375 33.971874 115.2375 32.378124Q115.2375 30.815624 115.75313 29.55Q116.26875 28.284374 117.3 27.6125Q118.34688 26.940624 119.6125 26.940624Q120.55 26.940624 121.28438 27.346874Q122.01875 27.7375 122.4875 28.3625L122.4875 23.2375L124.22188 23.2375L124.22188 37.55L122.59688 37.55ZM117.03438 32.378124Q117.03438 34.3625 117.87813 35.346874Q118.72188 36.33125 119.8625 36.33125Q121.01875 36.33125 121.81563 35.39375Q122.62813 34.45625 122.62813 32.51875Q122.62813 30.39375 121.8 29.39375Q120.9875 28.39375 119.78438 28.39375Q118.6125 28.39375 117.81563 29.3625Q117.03438 30.315624 117.03438 32.378124ZM133.97188 34.20625L135.78438 34.440624Q135.3625 36.01875 134.19063 36.909374Q133.03438 37.784374 131.22188 37.784374Q128.95625 37.784374 127.6125 36.39375Q126.28438 34.9875 126.28438 32.45625Q126.28438 29.83125 127.62813 28.39375Q128.97188 26.940624 131.12813 26.940624Q133.20625 26.940624 134.51875 28.3625Q135.84688 29.76875 135.84688 32.346874Q135.84688 32.503124 135.83125 32.815624L128.09688 32.815624Q128.19063 34.51875 129.06563 35.425Q129.94063 36.33125 131.2375 36.33125Q132.20625 36.33125 132.87813 35.83125Q133.56563 35.315624 133.97188 34.20625ZM128.19063 31.3625L133.9875 31.3625Q133.87813 30.065624 133.33125 29.409374Q132.4875 28.39375 131.14375 28.39375Q129.94063 28.39375 129.1125 29.20625Q128.28438 30.003124 128.19063 31.3625Z" fill-rule="nonzero"/></svg>