<svg version="1.1" viewBox="0.0 0.0 600.0 371.0" fill="none" stroke="none" stroke-linecap="square" stroke-miterlimit="10" width="600" height="371" xmlns:xlink="http://www.w3.org/1999/xlink" xmlns="http://www.w3.org/2000/svg"><path fill="#ffffff" fill-opacity="0.0" d="M0 0L600.0 0L600.0 371.0L0 371.0L0 0Z" fill-rule="nonzero"/><path fill="#46bdc6" d="M285.1091 55.6638C290.05713 55.166023 295.027 54.916668 300.0 54.916668L300.0 203.68333Z" fill-rule="nonzero"/><path fill="#b7b7b7" d="M263.09955 59.565746C270.32785 57.71499 277.68512 56.41066 285.1091 55.6638L300.0 203.68333Z" fill-rule="nonzero"/><path fill="#d9ead3" d="M241.9231 66.72132C248.79248 63.808445 255.87128 61.416504 263.09955 59.565746L300.0 203.68333Z" fill-rule="nonzero"/><path fill="#fff2cc" d="M194.80608 98.48942C208.32458 84.97091 224.32205 74.1848 241.9231 66.72132L300.0 203.68333Z" fill-rule="nonzero"/><path fill="#e6b8af" d="M213.76825 324.90875C178.09227 299.53122 155.40611 259.72726 151.7523 216.09877C148.09851 172.47029 163.84808 129.4474 194.80608 98.48942L300.0 203.68333Z" fill-rule="nonzero"/><path fill="#c9daf8" d="M300.0 54.916668C364.26645 54.916668 421.2675 96.18499 441.3311 157.2393C461.39465 218.29361 439.98438 285.32938 388.24536 323.45093C336.50638 361.57248 266.13702 362.16046 213.76825 324.90875L300.0 203.68333Z" fill-rule="nonzero"/><path fill="#1a1a1a" d="M19.471874 65.916664L19.471874 57.322914L20.628124 57.322914L25.14375 64.072914L25.14375 57.322914L26.2375 57.322914L26.2375 65.916664L25.065624 65.916664L20.55 59.166664L20.55 65.916664L19.471874 65.916664ZM32.503124 62.541664L32.503124 61.541664L36.128124 61.52604L36.128124 64.71354Q35.3 65.385414 34.409374 65.729164Q33.51875 66.05729 32.58125 66.05729Q31.315624 66.05729 30.26875 65.52604Q29.2375 64.979164 28.70625 63.96354Q28.190624 62.93229 28.190624 61.666664Q28.190624 60.40104 28.70625 59.322914Q29.2375 58.229164 30.221874 57.71354Q31.20625 57.18229 32.4875 57.18229Q33.425 57.18229 34.175 57.479164Q34.925 57.77604 35.346874 58.322914Q35.784374 58.854164 36.003124 59.729164L34.9875 60.010414Q34.784374 59.354164 34.4875 58.979164Q34.20625 58.604164 33.675 58.385414Q33.14375 58.15104 32.503124 58.15104Q31.721874 58.15104 31.14375 58.385414Q30.58125 58.61979 30.221874 59.010414Q29.878124 59.40104 29.690624 59.86979Q29.3625 60.666664 29.3625 61.58854Q29.3625 62.74479 29.753124 63.52604Q30.159374 64.291664 30.909374 64.666664Q31.659374 65.041664 32.51875 65.041664Q33.253124 65.041664 33.95625 64.760414Q34.659374 64.46354 35.01875 64.15104L35.01875 62.541664L32.503124 62.541664Z" fill-rule="nonzero"/><path fill="#9e9e9e" d="M24.596874 81.90104L24.596874 82.916664L18.909374 82.916664Q18.909374 82.541664 19.034374 82.18229Q19.253124 81.604164 19.721874 81.041664Q20.20625 80.479164 21.1125 79.74479Q22.51875 78.58854 23.003124 77.916664Q23.503124 77.24479 23.503124 76.65104Q23.503124 76.02604 23.05 75.604164Q22.596874 75.166664 21.878124 75.166664Q21.1125 75.166664 20.659374 75.61979Q20.20625 76.072914 20.190624 76.885414L19.1125 76.77604Q19.221874 75.55729 19.940624 74.93229Q20.675 74.291664 21.909374 74.291664Q23.14375 74.291664 23.8625 74.979164Q24.58125 75.666664 24.58125 76.68229Q24.58125 77.197914 24.3625 77.697914Q24.159374 78.18229 23.659374 78.74479Q23.175 79.291664 22.05 80.24479Q21.096874 81.041664 20.815624 81.33854Q20.55 81.61979 20.378124 81.90104L24.596874 81.90104ZM26.64375 82.916664L26.64375 81.71354L27.846874 81.71354L27.846874 82.916664L26.64375 82.916664ZM32.425 82.916664L32.425 80.854164L28.70625 80.854164L28.70625 79.885414L32.628124 74.322914L33.4875 74.322914L33.4875 79.885414L34.64375 79.885414L34.64375 80.854164L33.4875 80.854164L33.4875 82.916664L32.425 82.916664ZM32.425 79.885414L32.425 76.02604L29.7375 79.885414L32.425 79.885414ZM36.253124 76.385414Q36.253124 75.46354 36.70625 74.822914Q37.175 74.18229 38.05 74.18229Q38.8625 74.18229 39.39375 74.760414Q39.925 75.33854 39.925 76.447914Q39.925 77.541664 39.378124 78.135414Q38.846874 78.71354 38.065624 78.71354Q37.284374 78.71354 36.76875 78.135414Q36.253124 77.55729 36.253124 76.385414ZM38.08125 74.90104Q37.690624 74.90104 37.425 75.24479Q37.175 75.58854 37.175 76.49479Q37.175 77.322914 37.425 77.666664Q37.690624 77.99479 38.08125 77.99479Q38.4875 77.99479 38.7375 77.65104Q39.003124 77.30729 39.003124 76.416664Q39.003124 75.572914 38.7375 75.24479Q38.471874 74.90104 38.08125 74.90104ZM38.08125 83.229164L42.784374 74.18229L43.64375 74.18229L38.95625 83.229164L38.08125 83.229164ZM41.8 80.90104Q41.8 79.979164 42.253124 79.33854Q42.721874 78.697914 43.6125 78.697914Q44.425 78.697914 44.95625 79.27604Q45.4875 79.83854 45.4875 80.96354Q45.4875 82.05729 44.940624 82.65104Q44.409374 83.229164 43.6125 83.229164Q42.846874 83.229164 42.315624 82.65104Q41.8 82.072914 41.8 80.90104ZM43.64375 79.416664Q43.2375 79.416664 42.971874 79.760414Q42.721874 80.104164 42.721874 81.010414Q42.721874 81.822914 42.9875 82.166664Q43.253124 82.510414 43.64375 82.510414Q44.034374 82.510414 44.3 82.166664Q44.565624 81.822914 44.565624 80.916664Q44.565624 80.08854 44.3 79.760414Q44.034374 79.416664 43.64375 79.416664Z" fill-rule="nonzero"/><path stroke="#757575" stroke-width="1.0" stroke-linecap="butt" d="M18.55 70.416664L145.23334 70.416664L275.3294 64.52494" fill-rule="nonzero"/><path fill="#9e9e9e" d="M277.3294 64.52494C277.3294 63.42037 276.43396 62.524937 275.3294 62.524937C274.22482 62.524937 273.3294 63.42037 273.3294 64.52494C273.3294 65.62951 274.22482 66.52494 275.3294 66.52494C276.43396 66.52494 277.3294 65.62951 277.3294 64.52494" fill-rule="nonzero"/><path fill="#1a1a1a" d="M19.503124 96.916664L19.503124 88.322914L25.70625 88.322914L25.70625 89.33854L20.64375 89.33854L20.64375 91.96354L25.39375 91.96354L25.39375 92.979164L20.64375 92.979164L20.64375 95.90104L25.909374 95.90104L25.909374 96.916664L19.503124 96.916664ZM27.51875 96.916664L27.51875 88.322914L28.64375 88.322914L28.64375 91.854164L33.1125 91.854164L33.1125 88.322914L34.253124 88.322914L34.253124 96.916664L33.1125 96.916664L33.1125 92.86979L28.64375 92.86979L28.64375 96.916664L27.51875 96.916664Z" fill-rule="nonzero"/><path fill="#9e9e9e" d="M24.596874 112.90104L24.596874 113.916664L18.909374 113.916664Q18.909374 113.541664 19.034374 113.18229Q19.253124 112.604164 19.721874 112.041664Q20.20625 111.479164 21.1125 110.74479Q22.51875 109.58854 23.003124 108.916664Q23.503124 108.24479 23.503124 107.65104Q23.503124 107.02604 23.05 106.604164Q22.596874 106.166664 21.878124 106.166664Q21.1125 106.166664 20.659374 106.61979Q20.20625 107.072914 20.190624 107.885414L19.1125 107.77604Q19.221874 106.55729 19.940624 105.93229Q20.675 105.291664 21.909374 105.291664Q23.14375 105.291664 23.8625 105.979164Q24.58125 106.666664 24.58125 107.68229Q24.58125 108.197914 24.3625 108.697914Q24.159374 109.18229 23.659374 109.74479Q23.175 110.291664 22.05 111.24479Q21.096874 112.041664 20.815624 112.33854Q20.55 112.61979 20.378124 112.90104L24.596874 112.90104ZM26.64375 113.916664L26.64375 112.71354L27.846874 112.71354L27.846874 113.916664L26.64375 113.916664ZM32.425 113.916664L32.425 111.854164L28.70625 111.854164L28.70625 110.885414L32.628124 105.322914L33.4875 105.322914L33.4875 110.885414L34.64375 110.885414L34.64375 111.854164L33.4875 111.854164L33.4875 113.916664L32.425 113.916664ZM32.425 110.885414L32.425 107.02604L29.7375 110.885414L32.425 110.885414ZM36.253124 107.385414Q36.253124 106.46354 36.70625 105.822914Q37.175 105.18229 38.05 105.18229Q38.8625 105.18229 39.39375 105.760414Q39.925 106.33854 39.925 107.447914Q39.925 108.541664 39.378124 109.135414Q38.846874 109.71354 38.065624 109.71354Q37.284374 109.71354 36.76875 109.135414Q36.253124 108.55729 36.253124 107.385414ZM38.08125 105.90104Q37.690624 105.90104 37.425 106.24479Q37.175 106.58854 37.175 107.49479Q37.175 108.322914 37.425 108.666664Q37.690624 108.99479 38.08125 108.99479Q38.4875 108.99479 38.7375 108.65104Q39.003124 108.30729 39.003124 107.416664Q39.003124 106.572914 38.7375 106.24479Q38.471874 105.90104 38.08125 105.90104ZM38.08125 114.229164L42.784374 105.18229L43.64375 105.18229L38.95625 114.229164L38.08125 114.229164ZM41.8 111.90104Q41.8 110.979164 42.253124 110.33854Q42.721874 109.697914 43.6125 109.697914Q44.425 109.697914 44.95625 110.27604Q45.4875 110.83854 45.4875 111.96354Q45.4875 113.05729 44.940624 113.65104Q44.409374 114.229164 43.6125 114.229164Q42.846874 114.229164 42.315624 113.65104Q41.8 113.072914 41.8 111.90104ZM43.64375 110.416664Q43.2375 110.416664 42.971874 110.760414Q42.721874 111.104164 42.721874 112.010414Q42.721874 112.822914 42.9875 113.166664Q43.253124 113.510414 43.64375 113.510414Q44.034374 113.510414 44.3 113.166664Q44.565624 112.822914 44.565624 111.916664Q44.565624 111.08854 44.3 110.760414Q44.034374 110.416664 43.64375 110.416664Z" fill-rule="nonzero"/><path stroke="#757575" stroke-width="1.0" stroke-linecap="butt" d="M18.55 101.416664L145.23334 101.416664L254.7579 69.792145" fill-rule="nonzero"/><path fill="#9e9e9e" d="M256.7579 69.792145C256.7579 68.68758 255.86247 67.792145 254.7579 67.792145C253.65334 67.792145 252.7579 68.68758 252.7579 69.792145C252.7579 70.89671 253.65334 71.792145 254.7579 71.792145C255.86247 71.792145 256.7579 70.89671 256.7579 69.792145" fill-rule="nonzero"/><path fill="#1a1a1a" d="M23.503124 124.541664L23.503124 123.541664L27.128124 123.52604L27.128124 126.71354Q26.3 127.385414 25.409374 127.729164Q24.51875 128.05728 23.58125 128.05728Q22.315624 128.05728 21.26875 127.52604Q20.2375 126.979164 19.70625 125.96354Q19.190624 124.93229 19.190624 123.666664Q19.190624 122.40104 19.70625 121.322914Q20.2375 120.229164 21.221874 119.71354Q22.20625 119.18229 23.4875 119.18229Q24.425 119.18229 25.175 119.479164Q25.925 119.77604 26.346874 120.322914Q26.784374 120.854164 27.003124 121.729164L25.9875 122.010414Q25.784374 121.354164 25.4875 120.979164Q25.20625 120.604164 24.675 120.385414Q24.14375 120.15104 23.503124 120.15104Q22.721874 120.15104 22.14375 120.385414Q21.58125 120.61979 21.221874 121.010414Q20.878124 121.40104 20.690624 121.86979Q20.3625 122.666664 20.3625 123.58854Q20.3625 124.74479 20.753124 125.52604Q21.159374 126.291664 21.909374 126.666664Q22.659374 127.041664 23.51875 127.041664Q24.253124 127.041664 24.95625 126.760414Q25.659374 126.46354 26.01875 126.15104L26.01875 124.541664L23.503124 124.541664ZM28.440624 127.916664L28.440624 119.322914L30.159374 119.322914L32.190624 125.40104Q32.471874 126.260414 32.596874 126.68229Q32.7375 126.21354 33.05 125.30729L35.1125 119.322914L36.64375 119.322914L36.64375 127.916664L35.55 127.916664L35.55 120.729164L33.05 127.916664L32.01875 127.916664L29.534374 120.604164L29.534374 127.916664L28.440624 127.916664Z" fill-rule="nonzero"/><path fill="#9e9e9e" d="M24.51875 138.4323L23.471874 138.51042Q23.33125 137.88542 23.08125 137.60417Q22.64375 137.15105 22.01875 137.15105Q21.51875 137.15105 21.128124 137.4323Q20.64375 137.8073 20.346874 138.51042Q20.065624 139.19792 20.05 140.47917Q20.425 139.90105 20.971874 139.6198Q21.534374 139.33855 22.14375 139.33855Q23.190624 139.33855 23.925 140.1198Q24.675 140.90105 24.675 142.1198Q24.675 142.9323 24.315624 143.63542Q23.971874 144.32292 23.3625 144.69792Q22.753124 145.0573 21.9875 145.0573Q20.659374 145.0573 19.83125 144.08855Q19.003124 143.1198 19.003124 140.90105Q19.003124 138.40105 19.925 137.27605Q20.721874 136.29167 22.08125 136.29167Q23.096874 136.29167 23.7375 136.8698Q24.39375 137.4323 24.51875 138.4323ZM20.221874 142.13542Q20.221874 142.6823 20.440624 143.1823Q20.675 143.66667 21.08125 143.9323Q21.503124 144.19792 21.971874 144.19792Q22.628124 144.19792 23.1125 143.66667Q23.596874 143.1198 23.596874 142.19792Q23.596874 141.3073 23.1125 140.79167Q22.64375 140.27605 21.925 140.27605Q21.20625 140.27605 20.70625 140.79167Q20.221874 141.3073 20.221874 142.13542ZM26.64375 144.91667L26.64375 143.71355L27.846874 143.71355L27.846874 144.91667L26.64375 144.91667ZM33.01875 144.91667L31.971874 144.91667L31.971874 138.19792Q31.58125 138.5573 30.95625 138.9323Q30.346874 139.29167 29.8625 139.46355L29.8625 138.44792Q30.7375 138.02605 31.39375 137.44792Q32.065624 136.85417 32.346874 136.29167L33.01875 136.29167L33.01875 144.91667ZM36.253124 138.38542Q36.253124 137.46355 36.70625 136.82292Q37.175 136.1823 38.05 136.1823Q38.8625 136.1823 39.39375 136.76042Q39.925 137.33855 39.925 138.44792Q39.925 139.54167 39.378124 140.13542Q38.846874 140.71355 38.065624 140.71355Q37.284374 140.71355 36.76875 140.13542Q36.253124 139.5573 36.253124 138.38542ZM38.08125 136.90105Q37.690624 136.90105 37.425 137.2448Q37.175 137.58855 37.175 138.4948Q37.175 139.32292 37.425 139.66667Q37.690624 139.9948 38.08125 139.9948Q38.4875 139.9948 38.7375 139.65105Q39.003124 139.3073 39.003124 138.41667Q39.003124 137.57292 38.7375 137.2448Q38.471874 136.90105 38.08125 136.90105ZM38.08125 145.22917L42.784374 136.1823L43.64375 136.1823L38.95625 145.22917L38.08125 145.22917ZM41.8 142.90105Q41.8 141.97917 42.253124 141.33855Q42.721874 140.69792 43.6125 140.69792Q44.425 140.69792 44.95625 141.27605Q45.4875 141.83855 45.4875 142.96355Q45.4875 144.0573 44.940624 144.65105Q44.409374 145.22917 43.6125 145.22917Q42.846874 145.22917 42.315624 144.65105Q41.8 144.07292 41.8 142.90105ZM43.64375 141.41667Q43.2375 141.41667 42.971874 141.76042Q42.721874 142.10417 42.721874 143.01042Q42.721874 143.82292 42.9875 144.16667Q43.253124 144.51042 43.64375 144.51042Q44.034374 144.51042 44.3 144.16667Q44.565624 143.82292 44.565624 142.91667Q44.565624 142.08855 44.3 141.76042Q44.034374 141.41667 43.64375 141.41667Z" fill-rule="nonzero"/><path stroke="#757575" stroke-width="1.0" stroke-linecap="butt" d="M18.55 132.41667L145.23334 132.41667L220.99196 86.50217" fill-rule="nonzero"/><path fill="#9e9e9e" d="M222.99196 86.50217C222.99196 85.39759 222.09653 84.50217 220.99196 84.50217C219.88739 84.50217 218.99196 85.39759 218.99196 86.50217C218.99196 87.606735 219.88739 88.50217 220.99196 88.50217C222.09653 88.50217 222.99196 87.606735 222.99196 86.50217" fill-rule="nonzero"/><path fill="#1a1a1a" d="M19.425 210.97801L19.425 202.38426L20.565624 202.38426L20.565624 209.96239L24.8 209.96239L24.8 210.97801L19.425 210.97801ZM26.440624 210.97801L26.440624 202.38426L28.159374 202.38426L30.190624 208.46239Q30.471874 209.32176 30.596874 209.74364Q30.7375 209.27489 31.05 208.36864L33.1125 202.38426L34.64375 202.38426L34.64375 210.97801L33.55 210.97801L33.55 203.79051L31.05 210.97801L30.01875 210.97801L27.534374 203.66551L27.534374 210.97801L26.440624 210.97801Z" fill-rule="nonzero"/><path fill="#9e9e9e" d="M24.596874 226.96239L24.596874 227.97801L18.909374 227.97801Q18.909374 227.60301 19.034374 227.24364Q19.253124 226.66551 19.721874 226.10301Q20.20625 225.54051 21.1125 224.80614Q22.51875 223.64989 23.003124 222.97801Q23.503124 222.30614 23.503124 221.71239Q23.503124 221.08739 23.05 220.66551Q22.596874 220.22801 21.878124 220.22801Q21.1125 220.22801 20.659374 220.68114Q20.20625 221.13426 20.190624 221.94676L19.1125 221.83739Q19.221874 220.61864 19.940624 219.99364Q20.675 219.35301 21.909374 219.35301Q23.14375 219.35301 23.8625 220.04051Q24.58125 220.72801 24.58125 221.74364Q24.58125 222.25926 24.3625 222.75926Q24.159374 223.24364 23.659374 223.80614Q23.175 224.35301 22.05 225.30614Q21.096874 226.10301 20.815624 226.39989Q20.55 226.68114 20.378124 226.96239L24.596874 226.96239ZM26.1125 220.50926L26.1125 219.49364L31.675 219.49364L31.675 220.32176Q30.8625 221.19676 30.05 222.64989Q29.253124 224.08739 28.815624 225.61864Q28.4875 226.69676 28.409374 227.97801L27.315624 227.97801Q27.33125 226.96239 27.70625 225.52489Q28.096874 224.08739 28.8 222.75926Q29.51875 221.43114 30.33125 220.50926L26.1125 220.50926ZM33.64375 227.97801L33.64375 226.77489L34.846874 226.77489L34.846874 227.97801L33.64375 227.97801ZM36.1125 220.50926L36.1125 219.49364L41.675 219.49364L41.675 220.32176Q40.8625 221.19676 40.05 222.64989Q39.253124 224.08739 38.815624 225.61864Q38.4875 226.69676 38.409374 227.97801L37.315624 227.97801Q37.33125 226.96239 37.70625 225.52489Q38.096874 224.08739 38.8 222.75926Q39.51875 221.43114 40.33125 220.50926L36.1125 220.50926ZM43.253124 221.44676Q43.253124 220.52489 43.70625 219.88426Q44.175 219.24364 45.05 219.24364Q45.8625 219.24364 46.39375 219.82176Q46.925 220.39989 46.925 221.50926Q46.925 222.60301 46.378124 223.19676Q45.846874 223.77489 45.065624 223.77489Q44.284374 223.77489 43.76875 223.19676Q43.253124 222.61864 43.253124 221.44676ZM45.08125 219.96239Q44.690624 219.96239 44.425 220.30614Q44.175 220.64989 44.175 221.55614Q44.175 222.38426 44.425 222.72801Q44.690624 223.05614 45.08125 223.05614Q45.4875 223.05614 45.7375 222.71239Q46.003124 222.36864 46.003124 221.47801Q46.003124 220.63426 45.7375 220.30614Q45.471874 219.96239 45.08125 219.96239ZM45.08125 228.29051L49.784374 219.24364L50.64375 219.24364L45.95625 228.29051L45.08125 228.29051ZM48.8 225.96239Q48.8 225.04051 49.253124 224.39989Q49.721874 223.75926 50.6125 223.75926Q51.425 223.75926 51.95625 224.33739Q52.4875 224.89989 52.4875 226.02489Q52.4875 227.11864 51.940624 227.71239Q51.409374 228.29051 50.6125 228.29051Q49.846874 228.29051 49.315624 227.71239Q48.8 227.13426 48.8 225.96239ZM50.64375 224.47801Q50.2375 224.47801 49.971874 224.82176Q49.721874 225.16551 49.721874 226.07176Q49.721874 226.88426 49.9875 227.22801Q50.253124 227.57176 50.64375 227.57176Q51.034374 227.57176 51.3 227.22801Q51.565624 226.88426 51.565624 225.97801Q51.565624 225.14989 51.3 224.82176Q51.034374 224.47801 50.64375 224.47801Z" fill-rule="nonzero"/><path stroke="#757575" stroke-width="1.0" stroke-linecap="butt" d="M18.55 215.47801L145.23334 215.47801L159.16469 215.47801" fill-rule="nonzero"/><path fill="#9e9e9e" d="M161.16469 215.47801C161.16469 214.37343 160.26926 213.47801 159.16469 213.47801C158.06012 213.47801 157.16469 214.37343 157.16469 215.47801C157.16469 216.58258 158.06012 217.47801 159.16469 217.47801C160.26926 217.47801 161.16469 216.58258 161.16469 215.47801" fill-rule="nonzero"/><path fill="#1a1a1a" d="M567.4344 242.18182L570.73126 233.58807L571.95 233.58807L575.46564 242.18182L574.1844 242.18182L573.16876 239.57245L569.59064 239.57245L568.6375 242.18182L567.4344 242.18182ZM569.91876 238.65057L572.825 238.65057L571.9344 236.27557Q571.5125 235.19745 571.325 234.49432Q571.15314 235.32245 570.85626 236.13495L569.91876 238.65057ZM575.4344 242.18182L575.4344 233.58807L581.23126 233.58807L581.23126 234.6037L576.575 234.6037L576.575 237.25995L580.60626 237.25995L580.60626 238.27557L576.575 238.27557L576.575 242.18182L575.4344 242.18182Z" fill-rule="nonzero"/><path fill="#9e9e9e" d="M546.95 256.93182L548.0594 256.83807Q548.1844 257.65057 548.6219 258.05682Q549.075 258.46307 549.71564 258.46307Q550.46564 258.46307 550.9969 257.88495Q551.52814 257.30682 551.52814 256.36932Q551.52814 255.46307 551.0125 254.94745Q550.5125 254.4162 549.6844 254.4162Q549.1844 254.4162 548.7625 254.65057Q548.35626 254.88495 548.1219 255.24432L547.1375 255.11932L547.96564 250.71307L552.2469 250.71307L552.2469 251.71307L548.8094 251.71307L548.35626 254.02557Q549.1219 253.4787 549.96564 253.4787Q551.09064 253.4787 551.85626 254.25995Q552.6375 255.0412 552.6375 256.27557Q552.6375 257.43182 551.96564 258.2912Q551.1375 259.32245 549.71564 259.32245Q548.54376 259.32245 547.79376 258.6662Q547.0594 258.00995 546.95 256.93182ZM554.10626 257.19745L555.1219 257.1037Q555.2469 257.82245 555.60626 258.15057Q555.98126 258.46307 556.54376 258.46307Q557.02814 258.46307 557.3875 258.24432Q557.7625 258.00995 557.9969 257.65057Q558.23126 257.27557 558.3875 256.65057Q558.54376 256.00995 558.54376 255.3537Q558.54376 255.27557 558.54376 255.13495Q558.23126 255.63495 557.6844 255.96307Q557.1375 256.27557 556.4969 256.27557Q555.41876 256.27557 554.6844 255.50995Q553.95 254.7287 553.95 253.46307Q553.95 252.15057 554.71564 251.3537Q555.4969 250.55682 556.65314 250.55682Q557.48126 250.55682 558.16876 251.00995Q558.8719 251.46307 559.23126 252.30682Q559.59064 253.13495 559.59064 254.71307Q559.59064 256.3537 559.23126 257.33807Q558.8875 258.30682 558.16876 258.82245Q557.46564 259.32245 556.52814 259.32245Q555.5125 259.32245 554.8719 258.77557Q554.23126 258.21307 554.10626 257.19745ZM558.41876 253.40057Q558.41876 252.49432 557.9344 251.96307Q557.46564 251.43182 556.77814 251.43182Q556.075 251.43182 555.54376 252.00995Q555.02814 252.57245 555.02814 253.49432Q555.02814 254.30682 555.52814 254.82245Q556.02814 255.33807 556.7469 255.33807Q557.48126 255.33807 557.95 254.82245Q558.41876 254.30682 558.41876 253.40057ZM561.54376 259.18182L561.54376 257.9787L562.7469 257.9787L562.7469 259.18182L561.54376 259.18182ZM565.575 254.52557Q564.91876 254.27557 564.59064 253.83807Q564.27814 253.38495 564.27814 252.77557Q564.27814 251.83807 564.95 251.19745Q565.6375 250.55682 566.7469 250.55682Q567.8719 250.55682 568.5594 251.21307Q569.2469 251.86932 569.2469 252.80682Q569.2469 253.40057 568.9344 253.83807Q568.6219 254.27557 567.98126 254.52557Q568.77814 254.77557 569.1844 255.3537Q569.59064 255.93182 569.59064 256.7287Q569.59064 257.82245 568.8094 258.57245Q568.04376 259.32245 566.7625 259.32245Q565.4969 259.32245 564.71564 258.57245Q563.9344 257.82245 563.9344 256.69745Q563.9344 255.8537 564.35626 255.2912Q564.79376 254.7287 565.575 254.52557ZM565.35626 252.7287Q565.35626 253.33807 565.7469 253.7287Q566.15314 254.11932 566.77814 254.11932Q567.3875 254.11932 567.77814 253.74432Q568.16876 253.3537 568.16876 252.7912Q568.16876 252.21307 567.7625 251.82245Q567.35626 251.4162 566.7625 251.4162Q566.15314 251.4162 565.7469 251.80682Q565.35626 252.19745 565.35626 252.7287ZM565.02814 256.69745Q565.02814 257.15057 565.23126 257.57245Q565.45 257.99432 565.8719 258.2287Q566.29376 258.46307 566.77814 258.46307Q567.52814 258.46307 568.0125 257.9787Q568.5125 257.49432 568.5125 256.74432Q568.5125 255.9787 568.0125 255.4787Q567.5125 254.9787 566.7469 254.9787Q565.9969 254.9787 565.5125 255.4787Q565.02814 255.96307 565.02814 256.69745ZM571.15314 252.65057Q571.15314 251.7287 571.60626 251.08807Q572.075 250.44745 572.95 250.44745Q573.7625 250.44745 574.29376 251.02557Q574.825 251.6037 574.825 252.71307Q574.825 253.80682 574.27814 254.40057Q573.7469 254.9787 572.96564 254.9787Q572.1844 254.9787 571.66876 254.40057Q571.15314 253.82245 571.15314 252.65057ZM572.98126 251.1662Q572.59064 251.1662 572.325 251.50995Q572.075 251.8537 572.075 252.75995Q572.075 253.58807 572.325 253.93182Q572.59064 254.25995 572.98126 254.25995Q573.3875 254.25995 573.6375 253.9162Q573.90314 253.57245 573.90314 252.68182Q573.90314 251.83807 573.6375 251.50995Q573.3719 251.1662 572.98126 251.1662ZM572.98126 259.49432L577.6844 250.44745L578.54376 250.44745L573.85626 259.49432L572.98126 259.49432ZM576.7 257.1662Q576.7 256.24432 577.15314 255.6037Q577.6219 254.96307 578.5125 254.96307Q579.325 254.96307 579.85626 255.5412Q580.3875 256.1037 580.3875 257.2287Q580.3875 258.32245 579.84064 258.9162Q579.3094 259.49432 578.5125 259.49432Q577.7469 259.49432 577.21564 258.9162Q576.7 258.33807 576.7 257.1662ZM578.54376 255.68182Q578.1375 255.68182 577.8719 256.02557Q577.6219 256.36932 577.6219 257.27557Q577.6219 258.08807 577.8875 258.43182Q578.15314 258.77557 578.54376 258.77557Q578.9344 258.77557 579.2 258.43182Q579.46564 258.08807 579.46564 257.18182Q579.46564 256.3537 579.2 256.02557Q578.9344 255.68182 578.54376 255.68182Z" fill-rule="nonzero"/><path stroke="#757575" stroke-width="1.0" stroke-linecap="butt" d="M581.45 246.68182L454.76666 246.68182L434.62848 246.68182" fill-rule="nonzero"/><path fill="#9e9e9e" d="M436.62848 246.68182C436.62848 245.57724 435.73306 244.68182 434.62848 244.68182C433.52393 244.68182 432.62848 245.57724 432.62848 246.68182C432.62848 247.78639 433.52393 248.68182 434.62848 248.68182C435.73306 248.68182 436.62848 247.78639 436.62848 246.68182" fill-rule="nonzero"/><path fill="#757575" d="M20.08125 37.55L20.08125 23.2375L22.01875 23.2375L29.534374 34.471874L29.534374 23.2375L31.346874 23.2375L31.346874 37.55L29.409374 37.55L21.89375 26.3L21.89375 37.55L20.08125 37.55ZM39.659374 37.55L39.659374 36.01875Q38.45625 37.784374 36.378124 37.784374Q35.45625 37.784374 34.659374 37.440624Q33.8625 37.08125 33.471874 36.55Q33.096874 36.01875 32.940624 35.2375Q32.83125 34.721874 32.83125 33.596874L32.83125 27.175L34.58125 27.175L34.58125 32.925Q34.58125 34.3 34.690624 34.784374Q34.8625 35.471874 35.39375 35.878124Q35.940624 36.26875 36.721874 36.26875Q37.51875 36.26875 38.20625 35.8625Q38.909374 35.45625 39.190624 34.76875Q39.4875 34.065624 39.4875 32.7375L39.4875 27.175L41.2375 27.175L41.2375 37.55L39.659374 37.55ZM42.8625 37.55L42.8625 27.175L44.440624 27.175L44.440624 28.628124Q44.925 27.878124 45.7375 27.409374Q46.55 26.940624 47.58125 26.940624Q48.7375 26.940624 49.471874 27.425Q50.20625 27.89375 50.51875 28.753124Q51.753124 26.940624 53.721874 26.940624Q55.26875 26.940624 56.096874 27.8Q56.925 28.659374 56.925 30.425L56.925 37.55L55.175 37.55L55.175 31.01875Q55.175 29.95625 55.003124 29.503124Q54.83125 29.034374 54.378124 28.753124Q53.940624 28.471874 53.33125 28.471874Q52.2375 28.471874 51.503124 29.20625Q50.784374 29.925 50.784374 31.51875L50.784374 37.55L49.034374 37.55L49.034374 30.815624Q49.034374 29.64375 48.596874 29.065624Q48.175 28.471874 47.190624 28.471874Q46.45625 28.471874 45.815624 28.8625Q45.190624 29.253124 44.909374 30.003124Q44.628124 30.753124 44.628124 32.175L44.628124 37.55L42.8625 37.55ZM60.4875 37.55L58.8625 37.55L58.8625 23.2375L60.6125 23.2375L60.6125 28.346874Q61.7375 26.940624 63.45625 26.940624Q64.40938 26.940624 65.26875 27.33125Q66.12813 27.721874 66.675 28.425Q67.22188 29.1125 67.53438 30.096874Q67.84688 31.08125 67.84688 32.20625Q67.84688 34.878124 66.53438 36.33125Q65.22188 37.784374 63.378124 37.784374Q61.534374 37.784374 60.4875 36.253124L60.4875 37.55ZM60.471874 32.284374Q60.471874 34.14375 60.971874 34.9875Q61.815624 36.33125 63.221874 36.33125Q64.37813 36.33125 65.20625 35.33125Q66.05 34.33125 66.05 32.346874Q66.05 30.315624 65.2375 29.3625Q64.44063 28.39375 63.3 28.39375Q62.14375 28.39375 61.3 29.39375Q60.471874 30.39375 60.471874 32.284374ZM76.97188 34.20625L78.78438 34.440624Q78.3625 36.01875 77.19063 36.909374Q76.03438 37.784374 74.22188 37.784374Q71.95625 37.784374 70.6125 36.39375Q69.28438 34.9875 69.28438 32.45625Q69.28438 29.83125 70.62813 28.39375Q71.97188 26.940624 74.12813 26.940624Q76.20625 26.940624 77.51875 28.3625Q78.84688 29.76875 78.84688 32.346874Q78.84688 32.503124 78.83125 32.815624L71.09688 32.815624Q71.19063 34.51875 72.06563 35.425Q72.94063 36.33125 74.2375 36.33125Q75.20625 36.33125 75.87813 35.83125Q76.56563 35.315624 76.97188 34.20625ZM71.19063 31.3625L76.9875 31.3625Q76.87813 30.065624 76.33125 29.409374Q75.4875 28.39375 74.14375 28.39375Q72.94063 28.39375 72.1125 29.20625Q71.28438 30.003124 71.19063 31.3625ZM80.84688 37.55L80.84688 27.175L82.425 27.175L82.425 28.753124Q83.03438 27.64375 83.55 27.3Q84.06563 26.940624 84.675 26.940624Q85.56563 26.940624 86.4875 27.503124L85.87813 29.14375Q85.2375 28.753124 84.59688 28.753124Q84.01875 28.753124 83.55 29.1125Q83.09688 29.45625 82.89375 30.065624Q82.6125 31.003124 82.6125 32.1125L82.6125 37.55L80.84688 37.55ZM93.22188 32.3625Q93.22188 29.4875 94.81563 28.096874Q96.15938 26.940624 98.08125 26.940624Q100.22188 26.940624 101.56563 28.346874Q102.925 29.753124 102.925 32.221874Q102.925 34.221874 102.33125 35.378124Q101.7375 36.51875 100.58125 37.159374Q99.44063 37.784374 98.08125 37.784374Q95.89375 37.784374 94.55 36.39375Q93.22188 34.9875 93.22188 32.3625ZM95.01875 32.3625Q95.01875 34.3625 95.87813 35.346874Q96.75313 36.33125 98.08125 36.33125Q99.39375 36.33125 100.25313 35.346874Q101.12813 34.346874 101.12813 32.3Q101.12813 30.378124 100.25313 29.39375Q99.37813 28.39375 98.08125 28.39375Q96.75313 28.39375 95.87813 29.39375Q95.01875 30.378124 95.01875 32.3625ZM105.28438 37.55L105.28438 28.55L103.7375 28.55L103.7375 27.175L105.28438 27.175L105.28438 26.08125Q105.28438 25.034374 105.47188 24.51875Q105.72188 23.83125 106.3625 23.409374Q107.00313 22.9875 108.15938 22.9875Q108.90938 22.9875 109.8 23.159374L109.53438 24.690624Q108.9875 24.596874 108.50313 24.596874Q107.70625 24.596874 107.3625 24.940624Q107.03438 25.284374 107.03438 26.221874L107.03438 27.175L109.06563 27.175L109.06563 28.55L107.03438 28.55L107.03438 37.55L105.28438 37.55ZM123.64375 33.753124L125.3625 33.971874Q125.08125 35.76875 123.90938 36.784374Q122.75313 37.784374 121.05 37.784374Q118.925 37.784374 117.62813 36.39375Q116.33125 35.003124 116.33125 32.409374Q116.33125 30.721874 116.87813 29.471874Q117.44063 28.20625 118.58125 27.58125Q119.72188 26.940624 121.06563 26.940624Q122.75313 26.940624 123.81563 27.8Q124.89375 28.659374 125.20625 30.221874L123.4875 30.4875Q123.25313 29.440624 122.62813 28.925Q122.00313 28.39375 121.12813 28.39375Q119.8 28.39375 118.97188 29.346874Q118.14375 30.3 118.14375 32.346874Q118.14375 34.440624 118.94063 35.39375Q119.7375 36.33125 121.03438 36.33125Q122.06563 36.33125 122.75313 35.70625Q123.45625 35.065624 123.64375 33.753124ZM126.22188 32.3625Q126.22188 29.4875 127.81563 28.096874Q129.15938 26.940624 131.08125 26.940624Q133.22188 26.940624 134.56563 28.346874Q135.925 29.753124 135.925 32.221874Q135.925 34.221874 135.33125 35.378124Q134.7375 36.51875 133.58125 37.159374Q132.44063 37.784374 131.08125 37.784374Q128.89375 37.784374 127.55 36.39375Q126.22188 34.9875 126.22188 32.3625ZM128.01875 32.3625Q128.01875 34.3625 128.87813 35.346874Q129.75313 36.33125 131.08125 36.33125Q132.39375 36.33125 133.25313 35.346874Q134.12813 34.346874 134.12813 32.3Q134.12813 30.378124 133.25313 29.39375Q132.37813 28.39375 131.08125 28.39375Q129.75313 28.39375 128.87813 29.39375Q128.01875 30.378124 128.01875 32.3625ZM137.8625 37.55L137.8625 27.175L139.44063 27.175L139.44063 28.628124Q139.925 27.878124 140.7375 27.409374Q141.55 26.940624 142.58125 26.940624Q143.7375 26.940624 144.47188 27.425Q145.20625 27.89375 145.51875 28.753124Q146.75313 26.940624 148.72188 26.940624Q150.26875 26.940624 151.09688 27.8Q151.925 28.659374 151.925 30.425L151.925 37.55L150.175 37.55L150.175 31.01875Q150.175 29.95625 150.00313 29.503124Q149.83125 29.034374 149.37813 28.753124Q148.94063 28.471874 148.33125 28.471874Q147.2375 28.471874 146.50313 29.20625Q145.78438 29.925 145.78438 31.51875L145.78438 37.55L144.03438 37.55L144.03438 30.815624Q144.03438 29.64375 143.59688 29.065624Q143.175 28.471874 142.19063 28.471874Q141.45625 28.471874 140.81563 28.8625Q140.19063 29.253124 139.90938 30.003124Q139.62813 30.753124 139.62813 32.175L139.62813 37.55L137.8625 37.55ZM153.8625 37.55L153.8625 27.175L155.44063 27.175L155.44063 28.628124Q155.925 27.878124 156.7375 27.409374Q157.55 26.940624 158.58125 26.940624Q159.7375 26.940624 160.47188 27.425Q161.20625 27.89375 161.51875 28.753124Q162.75313 26.940624 164.72188 26.940624Q166.26875 26.940624 167.09688 27.8Q167.925 28.659374 167.925 30.425L167.925 37.55L166.175 37.55L166.175 31.01875Q166.175 29.95625 166.00313 29.503124Q165.83125 29.034374 165.37813 28.753124Q164.94063 28.471874 164.33125 28.471874Q163.2375 28.471874 162.50313 29.20625Q161.78438 29.925 161.78438 31.51875L161.78438 37.55L160.03438 37.55L160.03438 30.815624Q160.03438 29.64375 159.59688 29.065624Q159.175 28.471874 158.19063 28.471874Q157.45625 28.471874 156.81563 28.8625Q156.19063 29.253124 155.90938 30.003124Q155.62813 30.753124 155.62813 32.175L155.62813 37.55L153.8625 37.55ZM169.87813 25.253124L169.87813 23.2375L171.64375 23.2375L171.64375 25.253124L169.87813 25.253124ZM169.87813 37.55L169.87813 27.175L171.64375 27.175L171.64375 37.55L169.87813 37.55ZM177.70625 35.971874L177.95625 37.534374Q177.22188 37.690624 176.62813 37.690624Q175.675 37.690624 175.14375 37.39375Q174.62813 37.08125 174.40938 36.596874Q174.19063 36.096874 174.19063 34.51875L174.19063 28.55L172.90938 28.55L172.90938 27.175L174.19063 27.175L174.19063 24.6125L175.94063 23.55L175.94063 27.175L177.70625 27.175L177.70625 28.55L175.94063 28.55L175.94063 34.6125Q175.94063 35.3625 176.03438 35.58125Q176.12813 35.784374 176.33125 35.925Q176.55 36.05 176.94063 36.05Q177.22188 36.05 177.70625 35.971874ZM179.15938 34.45625L180.90938 34.175Q181.05 35.221874 181.72188 35.784374Q182.39375 36.33125 183.59688 36.33125Q184.8 36.33125 185.37813 35.846874Q185.97188 35.346874 185.97188 34.690624Q185.97188 34.096874 185.45625 33.753124Q185.09688 33.51875 183.65938 33.159374Q181.72188 32.659374 180.97188 32.315624Q180.2375 31.95625 179.84688 31.33125Q179.45625 30.690624 179.45625 29.925Q179.45625 29.2375 179.76875 28.64375Q180.09688 28.05 180.64375 27.659374Q181.05 27.3625 181.75313 27.159374Q182.47188 26.940624 183.28438 26.940624Q184.50313 26.940624 185.425 27.3Q186.34688 27.64375 186.78438 28.253124Q187.22188 28.846874 187.39375 29.846874L185.675 30.08125Q185.55 29.284374 184.9875 28.846874Q184.425 28.39375 183.40938 28.39375Q182.19063 28.39375 181.675 28.8Q181.15938 29.190624 181.15938 29.721874Q181.15938 30.065624 181.37813 30.346874Q181.58125 30.628124 182.05 30.815624Q182.31563 30.909374 183.59688 31.253124Q185.47188 31.753124 186.20625 32.08125Q186.94063 32.39375 187.3625 33.003124Q187.78438 33.596874 187.78438 34.503124Q187.78438 35.378124 187.26875 36.159374Q186.75313 36.940624 185.78438 37.3625Q184.81563 37.784374 183.59688 37.784374Q181.58125 37.784374 180.51875 36.940624Q179.45625 36.096874 179.15938 34.45625Z" fill-rule="nonzero"/></svg>