<svg version="1.1" viewBox="0.0 0.0 759.0 472.0" fill="none" stroke="none" stroke-linecap="square" stroke-miterlimit="10" width="759" height="472" xmlns:xlink="http://www.w3.org/1999/xlink" xmlns="http://www.w3.org/2000/svg"><path fill="#ffffff" fill-opacity="0.0" d="M0 0L759.0 0L759.0 472.0L0 472.0L0 0Z" fill-rule="nonzero"/><path fill="#9fc5e8" d="M379.5 23.6C460.07736 23.6 533.71625 69.19529 569.6327 141.32518C605.5491 213.45506 597.55756 299.69748 548.99884 363.9996C500.44016 428.3017 419.67697 459.58954 340.4716 444.78348L346.32587 413.46597C413.65042 426.05112 482.29913 399.45645 523.57404 344.79965C564.84894 290.14285 571.6417 216.83679 541.1128 155.5264C510.58383 94.215996 447.99075 55.46 379.5 55.46Z" fill-rule="nonzero"/><path fill="#1a1a1a" d="M24.00625 209.77272Q24.00625 208.03835 24.959375 207.21022Q25.75625 206.52272 26.9125 206.52272Q28.19375 206.52272 29.00625 207.36647Q29.834375 208.1946 29.834375 209.67897Q29.834375 210.8821 29.475 211.5696Q29.115625 212.2571 28.4125 212.64772Q27.725 213.02272 26.9125 213.02272Q25.615625 213.02272 24.803125 212.1946Q24.00625 211.35085 24.00625 209.77272ZM25.084375 209.77272Q25.084375 210.96022 25.6 211.55397Q26.13125 212.14772 26.9125 212.14772Q27.709375 212.14772 28.225 211.55397Q28.740625 210.96022 28.740625 209.74147Q28.740625 208.58522 28.209375 207.99147Q27.69375 207.39772 26.9125 207.39772Q26.13125 207.39772 25.6 207.99147Q25.084375 208.5696 25.084375 209.77272ZM33.69375 211.9446L33.85 212.86647Q33.396873 212.96022 33.053123 212.96022Q32.475 212.96022 32.1625 212.78835Q31.85 212.60085 31.709375 212.30397Q31.584375 212.0071 31.584375 211.05397L31.584375 207.47585L30.81875 207.47585L30.81875 206.66335L31.584375 206.66335L31.584375 205.11647L32.63125 204.49147L32.63125 206.66335L33.69375 206.66335L33.69375 207.47585L32.63125 207.47585L32.63125 211.11647Q32.63125 211.5696 32.678123 211.6946Q32.740623 211.8196 32.865623 211.89772Q32.990623 211.97585 33.225 211.97585Q33.4125 211.97585 33.69375 211.9446ZM34.396873 212.8821L34.396873 204.28835L35.44375 204.28835L35.44375 207.36647Q36.178123 206.52272 37.303123 206.52272Q38.00625 206.52272 38.50625 206.80397Q39.021873 207.0696 39.240623 207.55397Q39.459373 208.02272 39.459373 208.9446L39.459373 212.8821L38.4125 212.8821L38.4125 208.9446Q38.4125 208.14772 38.06875 207.78835Q37.725 207.42897 37.1 207.42897Q36.63125 207.42897 36.209373 207.67897Q35.803123 207.91335 35.615623 208.33522Q35.44375 208.74147 35.44375 209.47585L35.44375 212.8821L34.396873 212.8821ZM45.646873 210.8821L46.740623 211.0071Q46.490623 211.96022 45.7875 212.49147Q45.084373 213.02272 44.00625 213.02272Q42.646873 213.02272 41.834373 212.17897Q41.0375 211.33522 41.0375 209.8196Q41.0375 208.2571 41.85 207.39772Q42.6625 206.52272 43.94375 206.52272Q45.19375 206.52272 45.975 207.36647Q46.771873 208.21022 46.771873 209.7571Q46.771873 209.85085 46.771873 210.03835L42.13125 210.03835Q42.19375 211.0696 42.709373 211.61647Q43.225 212.14772 44.00625 212.14772Q44.584373 212.14772 44.990623 211.85085Q45.4125 211.53835 45.646873 210.8821ZM42.19375 209.17897L45.6625 209.17897Q45.6 208.3821 45.271873 207.99147Q44.75625 207.3821 43.959373 207.3821Q43.225 207.3821 42.725 207.86647Q42.240623 208.35085 42.19375 209.17897ZM48.38125 212.8821L48.38125 206.66335L49.334373 206.66335L49.334373 207.60085Q49.69375 206.9446 49.990623 206.74147Q50.303123 206.52272 50.678123 206.52272Q51.209373 206.52272 51.75625 206.85085L51.396873 207.83522Q51.00625 207.60085 50.63125 207.60085Q50.271873 207.60085 49.990623 207.8196Q49.725 208.02272 49.615623 208.39772Q49.428123 208.96022 49.428123 209.61647L49.428123 212.8821L48.38125 212.8821Z" fill-rule="nonzero"/><path fill="#9e9e9e" d="M27.475 229.8821L27.475 227.8196L23.75625 227.8196L23.75625 226.85085L27.678125 221.28835L28.5375 221.28835L28.5375 226.85085L29.69375 226.85085L29.69375 227.8196L28.5375 227.8196L28.5375 229.8821L27.475 229.8821ZM27.475 226.85085L27.475 222.99147L24.7875 226.85085L27.475 226.85085ZM31.1625 222.41335L31.1625 221.39772L36.725 221.39772L36.725 222.22585Q35.9125 223.10085 35.1 224.55397Q34.303123 225.99147 33.865623 227.52272Q33.5375 228.60085 33.459373 229.8821L32.365623 229.8821Q32.38125 228.86647 32.75625 227.42897Q33.146873 225.99147 33.85 224.66335Q34.56875 223.33522 35.38125 222.41335L31.1625 222.41335ZM38.69375 229.8821L38.69375 228.67897L39.896873 228.67897L39.896873 229.8821L38.69375 229.8821ZM45.06875 229.8821L44.021873 229.8821L44.021873 223.16335Q43.63125 223.52272 43.00625 223.89772Q42.396873 224.2571 41.9125 224.42897L41.9125 223.41335Q42.7875 222.99147 43.44375 222.41335Q44.115623 221.8196 44.396873 221.2571L45.06875 221.2571L45.06875 229.8821ZM48.303123 223.35085Q48.303123 222.42897 48.75625 221.78835Q49.225 221.14772 50.1 221.14772Q50.9125 221.14772 51.44375 221.72585Q51.975 222.30397 51.975 223.41335Q51.975 224.5071 51.428123 225.10085Q50.896873 225.67897 50.115623 225.67897Q49.334373 225.67897 48.81875 225.10085Q48.303123 224.52272 48.303123 223.35085ZM50.13125 221.86647Q49.740623 221.86647 49.475 222.21022Q49.225 222.55397 49.225 223.46022Q49.225 224.28835 49.475 224.6321Q49.740623 224.96022 50.13125 224.96022Q50.5375 224.96022 50.7875 224.61647Q51.053123 224.27272 51.053123 223.3821Q51.053123 222.53835 50.7875 222.21022Q50.521873 221.86647 50.13125 221.86647ZM50.13125 230.1946L54.834373 221.14772L55.69375 221.14772L51.00625 230.1946L50.13125 230.1946ZM53.85 227.86647Q53.85 226.9446 54.303123 226.30397Q54.771873 225.66335 55.6625 225.66335Q56.475 225.66335 57.00625 226.24147Q57.5375 226.80397 57.5375 227.92897Q57.5375 229.02272 56.990623 229.61647Q56.459373 230.1946 55.6625 230.1946Q54.896873 230.1946 54.365623 229.61647Q53.85 229.03835 53.85 227.86647ZM55.69375 226.3821Q55.2875 226.3821 55.021873 226.72585Q54.771873 227.0696 54.771873 227.97585Q54.771873 228.78835 55.0375 229.1321Q55.303123 229.47585 55.69375 229.47585Q56.084373 229.47585 56.35 229.1321Q56.615623 228.78835 56.615623 227.8821Q56.615623 227.05397 56.35 226.72585Q56.084373 226.3821 55.69375 226.3821Z" fill-rule="nonzero"/><path stroke="#757575" stroke-width="1.0" stroke-linecap="butt" d="M23.6 217.3821L161.1 217.3821L178.58076 217.3821" fill-rule="nonzero"/><path fill="#9e9e9e" d="M180.58076 217.3821C180.58076 216.27753 179.68533 215.3821 178.58076 215.3821C177.47618 215.3821 176.58076 216.27753 176.58076 217.3821C176.58076 218.48666 177.47618 219.3821 178.58076 219.3821C179.68533 219.3821 180.58076 218.48666 180.58076 217.3821" fill-rule="nonzero"/><path fill="#1a1a1a" d="M720.3219 250.1179L720.3219 241.52415L723.29065 241.52415Q724.29065 241.52415 724.8219 241.64915Q725.5563 241.82103 726.0719 242.25853Q726.7594 242.83665 727.0875 243.7429Q727.4313 244.63353 727.4313 245.77415Q727.4313 246.75853 727.1969 247.50853Q726.97815 248.25853 726.6188 248.75853Q726.2594 249.25853 725.8219 249.53978Q725.4 249.82103 724.8063 249.97728Q724.2125 250.1179 723.4313 250.1179L720.3219 250.1179ZM721.4625 249.10228L723.29065 249.10228Q724.15 249.10228 724.6344 248.94603Q725.1188 248.78978 725.4 248.4929Q725.8063 248.10228 726.025 247.41478Q726.2594 246.72728 726.2594 245.75853Q726.2594 244.41478 725.8063 243.69603Q725.3688 242.96165 724.7438 242.71165Q724.275 242.53978 723.275 242.53978L721.4625 242.53978L721.4625 249.10228ZM732.8688 250.1179L731.8219 250.1179L731.8219 243.39915Q731.4313 243.75853 730.8063 244.13353Q730.1969 244.4929 729.7125 244.66478L729.7125 243.64915Q730.5875 243.22728 731.2438 242.64915Q731.91565 242.0554 732.1969 241.4929L732.8688 241.4929L732.8688 250.1179Z" fill-rule="nonzero"/><path fill="#9e9e9e" d="M700.9 264.86792L702.0094 264.77417Q702.1344 265.58667 702.5719 265.99292Q703.025 266.39917 703.66565 266.39917Q704.41565 266.39917 704.9469 265.82104Q705.47815 265.24292 705.47815 264.30542Q705.47815 263.39917 704.9625 262.88354Q704.4625 262.3523 703.6344 262.3523Q703.1344 262.3523 702.7125 262.58667Q702.3063 262.82104 702.0719 263.18042L701.0875 263.05542L701.91565 258.64917L706.1969 258.64917L706.1969 259.64917L702.7594 259.64917L702.3063 261.96167Q703.0719 261.4148 703.91565 261.4148Q705.04065 261.4148 705.8063 262.19604Q706.5875 262.9773 706.5875 264.21167Q706.5875 265.36792 705.91565 266.2273Q705.0875 267.25854 703.66565 267.25854Q702.4938 267.25854 701.7438 266.6023Q701.0094 265.94604 700.9 264.86792ZM713.4469 266.1023L713.4469 267.11792L707.7594 267.11792Q707.7594 266.74292 707.8844 266.38354Q708.10315 265.80542 708.5719 265.24292Q709.0563 264.68042 709.9625 263.94604Q711.3688 262.7898 711.85315 262.11792Q712.35315 261.44604 712.35315 260.8523Q712.35315 260.2273 711.9 259.80542Q711.4469 259.36792 710.72815 259.36792Q709.9625 259.36792 709.5094 259.82104Q709.0563 260.27417 709.04065 261.08667L707.9625 260.9773Q708.0719 259.75854 708.79065 259.13354Q709.525 258.49292 710.7594 258.49292Q711.9938 258.49292 712.7125 259.18042Q713.4313 259.86792 713.4313 260.88354Q713.4313 261.39917 713.2125 261.89917Q713.0094 262.38354 712.5094 262.94604Q712.025 263.49292 710.9 264.44604Q709.9469 265.24292 709.66565 265.5398Q709.4 265.82104 709.22815 266.1023L713.4469 266.1023ZM715.4938 267.11792L715.4938 265.9148L716.6969 265.9148L716.6969 267.11792L715.4938 267.11792ZM718.0563 265.13354L719.0719 265.0398Q719.1969 265.75854 719.5563 266.08667Q719.9313 266.39917 720.4938 266.39917Q720.97815 266.39917 721.3375 266.18042Q721.7125 265.94604 721.9469 265.58667Q722.1813 265.21167 722.3375 264.58667Q722.4938 263.94604 722.4938 263.2898Q722.4938 263.21167 722.4938 263.07104Q722.1813 263.57104 721.6344 263.89917Q721.0875 264.21167 720.4469 264.21167Q719.3688 264.21167 718.6344 263.44604Q717.9 262.6648 717.9 261.39917Q717.9 260.08667 718.66565 259.2898Q719.4469 258.49292 720.60315 258.49292Q721.4313 258.49292 722.1188 258.94604Q722.8219 259.39917 723.1813 260.24292Q723.54065 261.07104 723.54065 262.64917Q723.54065 264.2898 723.1813 265.27417Q722.8375 266.24292 722.1188 266.75854Q721.41565 267.25854 720.47815 267.25854Q719.4625 267.25854 718.8219 266.71167Q718.1813 266.14917 718.0563 265.13354ZM722.3688 261.33667Q722.3688 260.43042 721.8844 259.89917Q721.41565 259.36792 720.72815 259.36792Q720.025 259.36792 719.4938 259.94604Q718.97815 260.50854 718.97815 261.43042Q718.97815 262.24292 719.47815 262.75854Q719.97815 263.27417 720.6969 263.27417Q721.4313 263.27417 721.9 262.75854Q722.3688 262.24292 722.3688 261.33667ZM725.10315 260.58667Q725.10315 259.6648 725.5563 259.02417Q726.025 258.38354 726.9 258.38354Q727.7125 258.38354 728.2438 258.96167Q728.775 259.5398 728.775 260.64917Q728.775 261.74292 728.22815 262.33667Q727.6969 262.9148 726.91565 262.9148Q726.1344 262.9148 725.6188 262.33667Q725.10315 261.75854 725.10315 260.58667ZM726.9313 259.1023Q726.54065 259.1023 726.275 259.44604Q726.025 259.7898 726.025 260.69604Q726.025 261.52417 726.275 261.86792Q726.54065 262.19604 726.9313 262.19604Q727.3375 262.19604 727.5875 261.8523Q727.85315 261.50854 727.85315 260.61792Q727.85315 259.77417 727.5875 259.44604Q727.3219 259.1023 726.9313 259.1023ZM726.9313 267.43042L731.6344 258.38354L732.4938 258.38354L727.8063 267.43042L726.9313 267.43042ZM730.65 265.1023Q730.65 264.18042 731.10315 263.5398Q731.5719 262.89917 732.4625 262.89917Q733.275 262.89917 733.8063 263.4773Q734.3375 264.0398 734.3375 265.1648Q734.3375 266.25854 733.79065 266.8523Q733.2594 267.43042 732.4625 267.43042Q731.6969 267.43042 731.16565 266.8523Q730.65 266.27417 730.65 265.1023ZM732.4938 263.61792Q732.0875 263.61792 731.8219 263.96167Q731.5719 264.30542 731.5719 265.21167Q731.5719 266.02417 731.8375 266.36792Q732.10315 266.71167 732.4938 266.71167Q732.8844 266.71167 733.15 266.36792Q733.41565 266.02417 733.41565 265.11792Q733.41565 264.2898 733.15 263.96167Q732.8844 263.61792 732.4938 263.61792Z" fill-rule="nonzero"/><path stroke="#757575" stroke-width="1.0" stroke-linecap="butt" d="M735.4 254.6179L597.9 254.6179L580.41925 254.6179" fill-rule="nonzero"/><path fill="#9e9e9e" d="M582.41925 254.6179C582.41925 253.51334 581.5238 252.6179 580.41925 252.6179C579.3147 252.6179 578.41925 253.51334 578.41925 254.6179C578.41925 255.72247 579.3147 256.61792 580.41925 256.61792C581.5238 256.61792 582.41925 255.72247 582.41925 254.6179" fill-rule="nonzero"/></svg>