<svg version="1.1" viewBox="0.0 0.0 600.0 371.0" fill="none" stroke="none" stroke-linecap="square" stroke-miterlimit="10" width="600" height="371" xmlns:xlink="http://www.w3.org/1999/xlink" xmlns="http://www.w3.org/2000/svg"><path fill="#ffffff" fill-opacity="0.0" d="M0 0L600.0 0L600.0 371.0L0 371.0L0 0Z" fill-rule="nonzero"/><path fill="#ffe599" d="M239.6907 29.823761C258.92474 22.372456 279.37308 18.55 300.0 18.55L300.0 185.5Z" fill-rule="nonzero"/><path fill="#b6d7a8" d="M187.52652 62.12246C202.76999 48.22619 220.45667 37.275066 239.6907 29.823761L300.0 185.5Z" fill-rule="nonzero"/><path fill="#cfe2f3" d="M300.0 18.55C380.37335 18.55 449.3388 75.81818 464.10736 154.82301C478.87592 233.82787 435.25522 312.14203 360.3093 341.17624C285.36337 370.21045 200.36737 341.72266 158.05624 273.38785C115.74513 205.05305 128.12988 116.26964 187.52652 62.12246L300.0 185.5Z" fill-rule="nonzero"/><path fill="#1a1a1a" d="M18.95625 26.440624Q18.95625 24.70625 19.909374 23.878124Q20.70625 23.190624 21.8625 23.190624Q23.14375 23.190624 23.95625 24.034374Q24.784374 24.8625 24.784374 26.346874Q24.784374 27.55 24.425 28.2375Q24.065624 28.925 23.3625 29.315624Q22.675 29.690624 21.8625 29.690624Q20.565624 29.690624 19.753124 28.8625Q18.95625 28.01875 18.95625 26.440624ZM20.034374 26.440624Q20.034374 27.628124 20.55 28.221874Q21.08125 28.815624 21.8625 28.815624Q22.659374 28.815624 23.175 28.221874Q23.690624 27.628124 23.690624 26.409374Q23.690624 25.253124 23.159374 24.659374Q22.64375 24.065624 21.8625 24.065624Q21.08125 24.065624 20.55 24.659374Q20.034374 25.2375 20.034374 26.440624ZM28.64375 28.6125L28.8 29.534374Q28.346874 29.628124 28.003124 29.628124Q27.425 29.628124 27.1125 29.45625Q26.8 29.26875 26.659374 28.971874Q26.534374 28.675 26.534374 27.721874L26.534374 24.14375L25.76875 24.14375L25.76875 23.33125L26.534374 23.33125L26.534374 21.784374L27.58125 21.159374L27.58125 23.33125L28.64375 23.33125L28.64375 24.14375L27.58125 24.14375L27.58125 27.784374Q27.58125 28.2375 27.628124 28.3625Q27.690624 28.4875 27.815624 28.565624Q27.940624 28.64375 28.175 28.64375Q28.3625 28.64375 28.64375 28.6125ZM29.346874 29.55L29.346874 20.95625L30.39375 20.95625L30.39375 24.034374Q31.128124 23.190624 32.253124 23.190624Q32.95625 23.190624 33.45625 23.471874Q33.971874 23.7375 34.190624 24.221874Q34.409374 24.690624 34.409374 25.6125L34.409374 29.55L33.3625 29.55L33.3625 25.6125Q33.3625 24.815624 33.01875 24.45625Q32.675 24.096874 32.05 24.096874Q31.58125 24.096874 31.159374 24.346874Q30.753124 24.58125 30.565624 25.003124Q30.39375 25.409374 30.39375 26.14375L30.39375 29.55L29.346874 29.55ZM40.596874 27.55L41.690624 27.675Q41.440624 28.628124 40.7375 29.159374Q40.034374 29.690624 38.95625 29.690624Q37.596874 29.690624 36.784374 28.846874Q35.9875 28.003124 35.9875 26.4875Q35.9875 24.925 36.8 24.065624Q37.6125 23.190624 38.89375 23.190624Q40.14375 23.190624 40.925 24.034374Q41.721874 24.878124 41.721874 26.425Q41.721874 26.51875 41.721874 26.70625L37.08125 26.70625Q37.14375 27.7375 37.659374 28.284374Q38.175 28.815624 38.95625 28.815624Q39.534374 28.815624 39.940624 28.51875Q40.3625 28.20625 40.596874 27.55ZM37.14375 25.846874L40.6125 25.846874Q40.55 25.05 40.221874 24.659374Q39.70625 24.05 38.909374 24.05Q38.175 24.05 37.675 24.534374Q37.190624 25.01875 37.14375 25.846874ZM43.33125 29.55L43.33125 23.33125L44.284374 23.33125L44.284374 24.26875Q44.64375 23.6125 44.940624 23.409374Q45.253124 23.190624 45.628124 23.190624Q46.159374 23.190624 46.70625 23.51875L46.346874 24.503124Q45.95625 24.26875 45.58125 24.26875Q45.221874 24.26875 44.940624 24.4875Q44.675 24.690624 44.565624 25.065624Q44.378124 25.628124 44.378124 26.284374L44.378124 29.55L43.33125 29.55Z" fill-rule="nonzero"/><path fill="#9e9e9e" d="M19.05 44.3L20.159374 44.20625Q20.284374 45.01875 20.721874 45.425Q21.175 45.83125 21.815624 45.83125Q22.565624 45.83125 23.096874 45.253124Q23.628124 44.675 23.628124 43.7375Q23.628124 42.83125 23.1125 42.315624Q22.6125 41.784374 21.784374 41.784374Q21.284374 41.784374 20.8625 42.01875Q20.45625 42.253124 20.221874 42.6125L19.2375 42.4875L20.065624 38.08125L24.346874 38.08125L24.346874 39.08125L20.909374 39.08125L20.45625 41.39375Q21.221874 40.846874 22.065624 40.846874Q23.190624 40.846874 23.95625 41.628124Q24.7375 42.409374 24.7375 43.64375Q24.7375 44.8 24.065624 45.659374Q23.2375 46.690624 21.815624 46.690624Q20.64375 46.690624 19.89375 46.034374Q19.159374 45.378124 19.05 44.3ZM26.64375 46.55L26.64375 45.346874L27.846874 45.346874L27.846874 46.55L26.64375 46.55ZM29.20625 44.565624L30.221874 44.471874Q30.346874 45.190624 30.70625 45.51875Q31.08125 45.83125 31.64375 45.83125Q32.128124 45.83125 32.4875 45.6125Q32.8625 45.378124 33.096874 45.01875Q33.33125 44.64375 33.4875 44.01875Q33.64375 43.378124 33.64375 42.721874Q33.64375 42.64375 33.64375 42.503124Q33.33125 43.003124 32.784374 43.33125Q32.2375 43.64375 31.596874 43.64375Q30.51875 43.64375 29.784374 42.878124Q29.05 42.096874 29.05 40.83125Q29.05 39.51875 29.815624 38.721874Q30.596874 37.925 31.753124 37.925Q32.58125 37.925 33.26875 38.378124Q33.971874 38.83125 34.33125 39.675Q34.690624 40.503124 34.690624 42.08125Q34.690624 43.721874 34.33125 44.70625Q33.9875 45.675 33.26875 46.190624Q32.565624 46.690624 31.628124 46.690624Q30.6125 46.690624 29.971874 46.14375Q29.33125 45.58125 29.20625 44.565624ZM33.51875 40.76875Q33.51875 39.8625 33.034374 39.33125Q32.565624 38.8 31.878124 38.8Q31.175 38.8 30.64375 39.378124Q30.128124 39.940624 30.128124 40.8625Q30.128124 41.675 30.628124 42.190624Q31.128124 42.70625 31.846874 42.70625Q32.58125 42.70625 33.05 42.190624Q33.51875 41.675 33.51875 40.76875ZM36.253124 40.01875Q36.253124 39.096874 36.70625 38.45625Q37.175 37.815624 38.05 37.815624Q38.8625 37.815624 39.39375 38.39375Q39.925 38.971874 39.925 40.08125Q39.925 41.175 39.378124 41.76875Q38.846874 42.346874 38.065624 42.346874Q37.284374 42.346874 36.76875 41.76875Q36.253124 41.190624 36.253124 40.01875ZM38.08125 38.534374Q37.690624 38.534374 37.425 38.878124Q37.175 39.221874 37.175 40.128124Q37.175 40.95625 37.425 41.3Q37.690624 41.628124 38.08125 41.628124Q38.4875 41.628124 38.7375 41.284374Q39.003124 40.940624 39.003124 40.05Q39.003124 39.20625 38.7375 38.878124Q38.471874 38.534374 38.08125 38.534374ZM38.08125 46.8625L42.784374 37.815624L43.64375 37.815624L38.95625 46.8625L38.08125 46.8625ZM41.8 44.534374Q41.8 43.6125 42.253124 42.971874Q42.721874 42.33125 43.6125 42.33125Q44.425 42.33125 44.95625 42.909374Q45.4875 43.471874 45.4875 44.596874Q45.4875 45.690624 44.940624 46.284374Q44.409374 46.8625 43.6125 46.8625Q42.846874 46.8625 42.315624 46.284374Q41.8 45.70625 41.8 44.534374ZM43.64375 43.05Q43.2375 43.05 42.971874 43.39375Q42.721874 43.7375 42.721874 44.64375Q42.721874 45.45625 42.9875 45.8Q43.253124 46.14375 43.64375 46.14375Q44.034374 46.14375 44.3 45.8Q44.565624 45.45625 44.565624 44.55Q44.565624 43.721874 44.3 43.39375Q44.034374 43.05 43.64375 43.05Z" fill-rule="nonzero"/><path stroke="#757575" stroke-width="1.0" stroke-linecap="butt" d="M18.55 34.05L127.05 34.05L270.85687 29.59801" fill-rule="nonzero"/><path fill="#9e9e9e" d="M272.85687 29.59801C272.85687 28.493439 271.96143 27.59801 270.85687 27.59801C269.7523 27.59801 268.85687 28.493439 268.85687 29.59801C268.85687 30.702578 269.7523 31.59801 270.85687 31.59801C271.96143 31.59801 272.85687 30.702578 272.85687 29.59801" fill-rule="nonzero"/><path fill="#1a1a1a" d="M25.9875 59.628124Q26.784374 60.175 27.440624 60.425L27.1125 61.221874Q26.190624 60.878124 25.26875 60.159374Q24.315624 60.690624 23.159374 60.690624Q21.9875 60.690624 21.034374 60.128124Q20.096874 59.565624 19.58125 58.55Q19.065624 57.534374 19.065624 56.253124Q19.065624 54.9875 19.58125 53.940624Q20.096874 52.89375 21.05 52.346874Q22.003124 51.8 23.175 51.8Q24.3625 51.8 25.315624 52.378124Q26.284374 52.940624 26.784374 53.95625Q27.284374 54.971874 27.284374 56.253124Q27.284374 57.315624 26.95625 58.159374Q26.64375 59.003124 25.9875 59.628124ZM23.4875 58.175Q24.471874 58.45625 25.1125 59.003124Q26.1125 58.08125 26.1125 56.253124Q26.1125 55.20625 25.753124 54.425Q25.39375 53.64375 24.70625 53.221874Q24.034374 52.784374 23.190624 52.784374Q21.909374 52.784374 21.065624 53.659374Q20.2375 54.51875 20.2375 56.253124Q20.2375 57.925 21.065624 58.83125Q21.89375 59.721874 23.190624 59.721874Q23.8 59.721874 24.33125 59.4875Q23.8 59.14375 23.20625 59.003124L23.4875 58.175ZM33.596874 59.534374L33.596874 60.55L27.909374 60.55Q27.909374 60.175 28.034374 59.815624Q28.253124 59.2375 28.721874 58.675Q29.20625 58.1125 30.1125 57.378124Q31.51875 56.221874 32.003124 55.55Q32.503124 54.878124 32.503124 54.284374Q32.503124 53.659374 32.05 53.2375Q31.596874 52.8 30.878124 52.8Q30.1125 52.8 29.659374 53.253124Q29.20625 53.70625 29.190624 54.51875L28.1125 54.409374Q28.221874 53.190624 28.940624 52.565624Q29.675 51.925 30.909374 51.925Q32.14375 51.925 32.8625 52.6125Q33.58125 53.3 33.58125 54.315624Q33.58125 54.83125 33.3625 55.33125Q33.159374 55.815624 32.659374 56.378124Q32.175 56.925 31.05 57.878124Q30.096874 58.675 29.815624 58.971874Q29.55 59.253124 29.378124 59.534374L33.596874 59.534374Z" fill-rule="nonzero"/><path fill="#9e9e9e" d="M19.05 75.3L20.159374 75.20625Q20.284374 76.01875 20.721874 76.425Q21.175 76.83125 21.815624 76.83125Q22.565624 76.83125 23.096874 76.25313Q23.628124 75.675 23.628124 74.7375Q23.628124 73.83125 23.1125 73.31563Q22.6125 72.78438 21.784374 72.78438Q21.284374 72.78438 20.8625 73.01875Q20.45625 73.25313 20.221874 73.6125L19.2375 73.4875L20.065624 69.08125L24.346874 69.08125L24.346874 70.08125L20.909374 70.08125L20.45625 72.39375Q21.221874 71.84688 22.065624 71.84688Q23.190624 71.84688 23.95625 72.62813Q24.7375 73.40938 24.7375 74.64375Q24.7375 75.8 24.065624 76.65938Q23.2375 77.69063 21.815624 77.69063Q20.64375 77.69063 19.89375 77.03438Q19.159374 76.37813 19.05 75.3ZM26.64375 77.55L26.64375 76.34688L27.846874 76.34688L27.846874 77.55L26.64375 77.55ZM29.20625 75.56563L30.221874 75.47188Q30.346874 76.19063 30.70625 76.51875Q31.08125 76.83125 31.64375 76.83125Q32.128124 76.83125 32.4875 76.6125Q32.8625 76.37813 33.096874 76.01875Q33.33125 75.64375 33.4875 75.01875Q33.64375 74.37813 33.64375 73.72188Q33.64375 73.64375 33.64375 73.50313Q33.33125 74.00313 32.784374 74.33125Q32.2375 74.64375 31.596874 74.64375Q30.51875 74.64375 29.784374 73.87813Q29.05 73.09688 29.05 71.83125Q29.05 70.51875 29.815624 69.72188Q30.596874 68.925 31.753124 68.925Q32.58125 68.925 33.26875 69.37813Q33.971874 69.83125 34.33125 70.675Q34.690624 71.50313 34.690624 73.08125Q34.690624 74.72188 34.33125 75.70625Q33.9875 76.675 33.26875 77.19063Q32.565624 77.69063 31.628124 77.69063Q30.6125 77.69063 29.971874 77.14375Q29.33125 76.58125 29.20625 75.56563ZM33.51875 71.76875Q33.51875 70.8625 33.034374 70.33125Q32.565624 69.8 31.878124 69.8Q31.175 69.8 30.64375 70.37813Q30.128124 70.94063 30.128124 71.8625Q30.128124 72.675 30.628124 73.19063Q31.128124 73.70625 31.846874 73.70625Q32.58125 73.70625 33.05 73.19063Q33.51875 72.675 33.51875 71.76875ZM36.253124 71.01875Q36.253124 70.09688 36.70625 69.45625Q37.175 68.81563 38.05 68.81563Q38.8625 68.81563 39.39375 69.39375Q39.925 69.97188 39.925 71.08125Q39.925 72.175 39.378124 72.76875Q38.846874 73.34688 38.065624 73.34688Q37.284374 73.34688 36.76875 72.76875Q36.253124 72.19063 36.253124 71.01875ZM38.08125 69.53438Q37.690624 69.53438 37.425 69.87813Q37.175 70.22188 37.175 71.12813Q37.175 71.95625 37.425 72.3Q37.690624 72.62813 38.08125 72.62813Q38.4875 72.62813 38.7375 72.28438Q39.003124 71.94063 39.003124 71.05Q39.003124 70.20625 38.7375 69.87813Q38.471874 69.53438 38.08125 69.53438ZM38.08125 77.8625L42.784374 68.81563L43.64375 68.81563L38.95625 77.8625L38.08125 77.8625ZM41.8 75.53438Q41.8 74.6125 42.253124 73.97188Q42.721874 73.33125 43.6125 73.33125Q44.425 73.33125 44.95625 73.90938Q45.4875 74.47188 45.4875 75.59688Q45.4875 76.69063 44.940624 77.28438Q44.409374 77.8625 43.6125 77.8625Q42.846874 77.8625 42.315624 77.28438Q41.8 76.70625 41.8 75.53438ZM43.64375 74.05Q43.2375 74.05 42.971874 74.39375Q42.721874 74.7375 42.721874 75.64375Q42.721874 76.45625 42.9875 76.8Q43.253124 77.14375 43.64375 77.14375Q44.034374 77.14375 44.3 76.8Q44.565624 76.45625 44.565624 75.55Q44.565624 74.72188 44.3 74.39375Q44.034374 74.05 43.64375 74.05Z" fill-rule="nonzero"/><path stroke="#757575" stroke-width="1.0" stroke-linecap="butt" d="M18.55 65.05L127.05 65.05L216.50655 50.65344" fill-rule="nonzero"/><path fill="#9e9e9e" d="M218.50655 50.65344C218.50655 49.548866 217.61111 48.65344 216.50655 48.65344C215.40198 48.65344 214.50655 49.548866 214.50655 50.65344C214.50655 51.758007 215.40198 52.65344 216.50655 52.65344C217.61111 52.65344 218.50655 51.758007 218.50655 50.65344" fill-rule="nonzero"/><path fill="#1a1a1a" d="M572.8875 327.97055Q573.6844 328.51743 574.34064 328.76743L574.0125 329.5643Q573.09064 329.22055 572.16876 328.5018Q571.21564 329.03305 570.0594 329.03305Q568.8875 329.03305 567.9344 328.47055Q566.9969 327.90805 566.48126 326.89243Q565.96564 325.8768 565.96564 324.59555Q565.96564 323.32993 566.48126 322.28305Q566.9969 321.23618 567.95 320.6893Q568.90314 320.14243 570.075 320.14243Q571.2625 320.14243 572.21564 320.72055Q573.1844 321.28305 573.6844 322.29868Q574.1844 323.3143 574.1844 324.59555Q574.1844 325.65805 573.85626 326.5018Q573.54376 327.34555 572.8875 327.97055ZM570.3875 326.51743Q571.3719 326.79868 572.0125 327.34555Q573.0125 326.42368 573.0125 324.59555Q573.0125 323.54868 572.65314 322.76743Q572.29376 321.98618 571.60626 321.5643Q570.9344 321.1268 570.09064 321.1268Q568.8094 321.1268 567.96564 322.0018Q567.1375 322.86118 567.1375 324.59555Q567.1375 326.26743 567.96564 327.17368Q568.79376 328.0643 570.09064 328.0643Q570.7 328.0643 571.23126 327.82993Q570.7 327.48618 570.10626 327.34555L570.3875 326.51743ZM578.91876 328.89243L577.8719 328.89243L577.8719 322.17368Q577.48126 322.53305 576.85626 322.90805Q576.2469 323.26743 575.7625 323.4393L575.7625 322.42368Q576.6375 322.0018 577.29376 321.42368Q577.96564 320.82993 578.2469 320.26743L578.91876 320.26743L578.91876 328.89243Z" fill-rule="nonzero"/><path fill="#9e9e9e" d="M548.575 341.23618Q547.91876 340.98618 547.59064 340.54868Q547.27814 340.09555 547.27814 339.48618Q547.27814 338.54868 547.95 337.90805Q548.6375 337.26743 549.7469 337.26743Q550.8719 337.26743 551.5594 337.92368Q552.2469 338.57993 552.2469 339.51743Q552.2469 340.11118 551.9344 340.54868Q551.6219 340.98618 550.98126 341.23618Q551.77814 341.48618 552.1844 342.0643Q552.59064 342.64243 552.59064 343.4393Q552.59064 344.53305 551.8094 345.28305Q551.04376 346.03305 549.7625 346.03305Q548.4969 346.03305 547.71564 345.28305Q546.9344 344.53305 546.9344 343.40805Q546.9344 342.5643 547.35626 342.0018Q547.79376 341.4393 548.575 341.23618ZM548.35626 339.4393Q548.35626 340.04868 548.7469 340.4393Q549.15314 340.82993 549.77814 340.82993Q550.3875 340.82993 550.77814 340.45493Q551.16876 340.0643 551.16876 339.5018Q551.16876 338.92368 550.7625 338.53305Q550.35626 338.1268 549.7625 338.1268Q549.15314 338.1268 548.7469 338.51743Q548.35626 338.90805 548.35626 339.4393ZM548.02814 343.40805Q548.02814 343.86118 548.23126 344.28305Q548.45 344.70493 548.8719 344.9393Q549.29376 345.17368 549.77814 345.17368Q550.52814 345.17368 551.0125 344.6893Q551.5125 344.20493 551.5125 343.45493Q551.5125 342.6893 551.0125 342.1893Q550.5125 341.6893 549.7469 341.6893Q548.9969 341.6893 548.5125 342.1893Q548.02814 342.67368 548.02814 343.40805ZM555.575 341.23618Q554.91876 340.98618 554.59064 340.54868Q554.27814 340.09555 554.27814 339.48618Q554.27814 338.54868 554.95 337.90805Q555.6375 337.26743 556.7469 337.26743Q557.8719 337.26743 558.5594 337.92368Q559.2469 338.57993 559.2469 339.51743Q559.2469 340.11118 558.9344 340.54868Q558.6219 340.98618 557.98126 341.23618Q558.77814 341.48618 559.1844 342.0643Q559.59064 342.64243 559.59064 343.4393Q559.59064 344.53305 558.8094 345.28305Q558.04376 346.03305 556.7625 346.03305Q555.4969 346.03305 554.71564 345.28305Q553.9344 344.53305 553.9344 343.40805Q553.9344 342.5643 554.35626 342.0018Q554.79376 341.4393 555.575 341.23618ZM555.35626 339.4393Q555.35626 340.04868 555.7469 340.4393Q556.15314 340.82993 556.77814 340.82993Q557.3875 340.82993 557.77814 340.45493Q558.16876 340.0643 558.16876 339.5018Q558.16876 338.92368 557.7625 338.53305Q557.35626 338.1268 556.7625 338.1268Q556.15314 338.1268 555.7469 338.51743Q555.35626 338.90805 555.35626 339.4393ZM555.02814 343.40805Q555.02814 343.86118 555.23126 344.28305Q555.45 344.70493 555.8719 344.9393Q556.29376 345.17368 556.77814 345.17368Q557.52814 345.17368 558.0125 344.6893Q558.5125 344.20493 558.5125 343.45493Q558.5125 342.6893 558.0125 342.1893Q557.5125 341.6893 556.7469 341.6893Q555.9969 341.6893 555.5125 342.1893Q555.02814 342.67368 555.02814 343.40805ZM561.54376 345.89243L561.54376 344.6893L562.7469 344.6893L562.7469 345.89243L561.54376 345.89243ZM569.4969 344.8768L569.4969 345.89243L563.8094 345.89243Q563.8094 345.51743 563.9344 345.15805Q564.15314 344.57993 564.6219 344.01743Q565.10626 343.45493 566.0125 342.72055Q567.41876 341.5643 567.90314 340.89243Q568.40314 340.22055 568.40314 339.6268Q568.40314 339.0018 567.95 338.57993Q567.4969 338.14243 566.77814 338.14243Q566.0125 338.14243 565.5594 338.59555Q565.10626 339.04868 565.09064 339.86118L564.0125 339.7518Q564.1219 338.53305 564.84064 337.90805Q565.575 337.26743 566.8094 337.26743Q568.04376 337.26743 568.7625 337.95493Q569.48126 338.64243 569.48126 339.65805Q569.48126 340.17368 569.2625 340.67368Q569.0594 341.15805 568.5594 341.72055Q568.075 342.26743 566.95 343.22055Q565.9969 344.01743 565.71564 344.3143Q565.45 344.59555 565.27814 344.8768L569.4969 344.8768ZM571.15314 339.36118Q571.15314 338.4393 571.60626 337.79868Q572.075 337.15805 572.95 337.15805Q573.7625 337.15805 574.29376 337.73618Q574.825 338.3143 574.825 339.42368Q574.825 340.51743 574.27814 341.11118Q573.7469 341.6893 572.96564 341.6893Q572.1844 341.6893 571.66876 341.11118Q571.15314 340.53305 571.15314 339.36118ZM572.98126 337.8768Q572.59064 337.8768 572.325 338.22055Q572.075 338.5643 572.075 339.47055Q572.075 340.29868 572.325 340.64243Q572.59064 340.97055 572.98126 340.97055Q573.3875 340.97055 573.6375 340.6268Q573.90314 340.28305 573.90314 339.39243Q573.90314 338.54868 573.6375 338.22055Q573.3719 337.8768 572.98126 337.8768ZM572.98126 346.20493L577.6844 337.15805L578.54376 337.15805L573.85626 346.20493L572.98126 346.20493ZM576.7 343.8768Q576.7 342.95493 577.15314 342.3143Q577.6219 341.67368 578.5125 341.67368Q579.325 341.67368 579.85626 342.2518Q580.3875 342.8143 580.3875 343.9393Q580.3875 345.03305 579.84064 345.6268Q579.3094 346.20493 578.5125 346.20493Q577.7469 346.20493 577.21564 345.6268Q576.7 345.04868 576.7 343.8768ZM578.54376 342.39243Q578.1375 342.39243 577.8719 342.73618Q577.6219 343.07993 577.6219 343.98618Q577.6219 344.79868 577.8875 345.14243Q578.15314 345.48618 578.54376 345.48618Q578.9344 345.48618 579.2 345.14243Q579.46564 344.79868 579.46564 343.89243Q579.46564 343.0643 579.2 342.73618Q578.9344 342.39243 578.54376 342.39243Z" fill-rule="nonzero"/><path stroke="#757575" stroke-width="1.0" stroke-linecap="butt" d="M581.45 333.39243L472.95 333.39243L357.29382 333.39243" fill-rule="nonzero"/><path fill="#9e9e9e" d="M359.29382 333.39243C359.29382 332.28787 358.3984 331.39243 357.29382 331.39243C356.18927 331.39243 355.29382 332.28787 355.29382 333.39243C355.29382 334.497 356.18927 335.39243 357.29382 335.39243C358.3984 335.39243 359.29382 334.497 359.29382 333.39243" fill-rule="nonzero"/></svg>