<svg version="1.1" viewBox="0.0 0.0 425.0 262.0" fill="none" stroke="none" stroke-linecap="square" stroke-miterlimit="10" width="425" height="262" xmlns:xlink="http://www.w3.org/1999/xlink" xmlns="http://www.w3.org/2000/svg"><path fill="#ffffff" fill-opacity="0.0" d="M0 0L425.0 0L425.0 262.0L0 262.0L0 0Z" fill-rule="nonzero"/><path fill="#9fc5e8" d="M212.5 13.1C269.71613 13.1 318.67337 54.18 328.60883 110.52688L212.5 131.0Z" fill-rule="nonzero"/><path fill="#b6d7a8" d="M96.39117 151.47311C90.339455 117.152176 99.78195 81.9123 122.18336 55.21534C144.58476 28.518385 177.6496 13.1 212.5 13.1L212.5 131.0Z" fill-rule="nonzero"/><path fill="#ffe599" d="M136.71535 221.31664C115.48166 203.49947 101.20445 178.77061 96.39117 151.47311L212.5 131.0Z" fill-rule="nonzero"/><path fill="#ea9999" d="M328.60883 110.52688C337.2157 159.33885 314.3745 208.32191 271.45 233.1044C228.52548 257.88687 174.68431 253.17639 136.71535 221.31664L212.5 131.0Z" fill-rule="nonzero"/><path fill="#000000" d="M245.01581 72.770676L244.14081 72.770676L244.14081 67.176926Q243.82831 67.4738 243.31268 67.7863Q242.79706 68.083176 242.39081 68.2238L242.39081 67.38005Q243.12518 67.0363 243.67206 66.551926Q244.23456 66.051926 244.45331 65.583176L245.01581 65.583176L245.01581 72.770676ZM247.60956 71.2238L248.46893 71.083176Q248.54706 71.614426 248.87518 71.895676Q249.21893 72.1613 249.81268 72.1613Q250.42206 72.1613 250.71893 71.926926Q251.01581 71.676926 251.01581 71.333176Q251.01581 71.0363 250.75018 70.864426Q250.56268 70.75505 249.84393 70.56755Q248.89081 70.333176 248.51581 70.1613Q248.14081 69.9738 247.93768 69.6613Q247.75018 69.3488 247.75018 68.958176Q247.75018 68.614426 247.90643 68.31755Q248.06268 68.020676 248.34393 67.833176Q248.54706 67.676926 248.89081 67.583176Q249.25018 67.4738 249.65643 67.4738Q250.26581 67.4738 250.71893 67.645676Q251.18768 67.81755 251.40643 68.13005Q251.64081 68.426926 251.71893 68.926926L250.85956 69.0363Q250.79706 68.645676 250.51581 68.426926Q250.23456 68.19255 249.71893 68.19255Q249.12518 68.19255 248.85956 68.395676Q248.59393 68.583176 248.59393 68.864426Q248.59393 69.0363 248.70331 69.1613Q248.81268 69.301926 249.04706 69.395676Q249.17206 69.44255 249.82831 69.63005Q250.75018 69.88005 251.10956 70.0363Q251.48456 70.19255 251.68768 70.50505Q251.90643 70.801926 251.90643 71.239426Q251.90643 71.69255 251.65643 72.083176Q251.40643 72.458176 250.92206 72.676926Q250.43768 72.895676 249.82831 72.895676Q248.81268 72.895676 248.28143 72.4738Q247.75018 72.051926 247.60956 71.2238ZM253.87518 71.989426L254.00018 72.75505Q253.62518 72.833176 253.34393 72.833176Q252.85956 72.833176 252.59393 72.69255Q252.32831 72.5363 252.21893 72.2863Q252.12518 72.0363 252.12518 71.25505L252.12518 68.270676L251.46893 68.270676L251.46893 67.583176L252.12518 67.583176L252.12518 66.301926L252.98456 65.770676L252.98456 67.583176L253.87518 67.583176L253.87518 68.270676L252.98456 68.270676L252.98456 71.301926Q252.98456 71.676926 253.03143 71.7863Q253.07831 71.895676 253.18768 71.958176Q253.29706 72.020676 253.48456 72.020676Q253.64081 72.020676 253.87518 71.989426ZM261.34393 72.13005Q260.85956 72.551926 260.40643 72.7238Q259.9533 72.895676 259.43768 72.895676Q258.5783 72.895676 258.10956 72.4738Q257.65643 72.051926 257.65643 71.395676Q257.65643 71.020676 257.8283 70.708176Q258.00018 70.395676 258.28143 70.208176Q258.56268 70.00505 258.92206 69.9113Q259.17206 69.8488 259.7033 69.7863Q260.7658 69.6613 261.2658 69.4738Q261.2658 69.301926 261.2658 69.25505Q261.2658 68.708176 261.0158 68.489426Q260.68768 68.19255 260.0158 68.19255Q259.40643 68.19255 259.10956 68.4113Q258.81268 68.63005 258.67206 69.176926L257.81268 69.06755Q257.92206 68.50505 258.18768 68.176926Q258.46893 67.833176 258.96893 67.6613Q259.48456 67.4738 260.15643 67.4738Q260.81268 67.4738 261.21893 67.63005Q261.6408 67.7863 261.8283 68.020676Q262.03143 68.25505 262.10956 68.614426Q262.15643 68.833176 262.15643 69.426926L262.15643 70.5988Q262.15643 71.81755 262.2033 72.145676Q262.2658 72.4738 262.43768 72.770676L261.5158 72.770676Q261.37518 72.489426 261.34393 72.13005ZM261.2658 70.1613Q260.78143 70.364426 259.8283 70.50505Q259.29706 70.583176 259.06268 70.676926Q258.84393 70.770676 258.71893 70.958176Q258.59393 71.145676 258.59393 71.38005Q258.59393 71.7238 258.85956 71.958176Q259.12518 72.19255 259.6408 72.19255Q260.15643 72.19255 260.54706 71.9738Q260.93768 71.75505 261.12518 71.364426Q261.2658 71.06755 261.2658 70.489426L261.2658 70.1613ZM267.35956 72.770676L267.35956 72.00505Q266.75018 72.895676 265.7033 72.895676Q265.25018 72.895676 264.84393 72.7238Q264.4533 72.5363 264.25018 72.270676Q264.06268 72.00505 263.98456 71.614426Q263.93768 71.364426 263.93768 70.801926L263.93768 67.583176L264.81268 67.583176L264.81268 70.458176Q264.81268 71.145676 264.87518 71.395676Q264.9533 71.739426 265.21893 71.94255Q265.48456 72.13005 265.8908 72.13005Q266.28143 72.13005 266.62518 71.926926Q266.96893 71.7238 267.10956 71.38005Q267.2658 71.020676 267.2658 70.364426L267.2658 67.583176L268.1408 67.583176L268.1408 72.770676L267.35956 72.770676ZM271.87518 71.989426L272.00018 72.75505Q271.62518 72.833176 271.34393 72.833176Q270.85956 72.833176 270.59393 72.69255Q270.3283 72.5363 270.21893 72.2863Q270.12518 72.0363 270.12518 71.25505L270.12518 68.270676L269.46893 68.270676L269.46893 67.583176L270.12518 67.583176L270.12518 66.301926L270.98456 65.770676L270.98456 67.583176L271.87518 67.583176L271.87518 68.270676L270.98456 68.270676L270.98456 71.301926Q270.98456 71.676926 271.03143 71.7863Q271.0783 71.895676 271.18768 71.958176Q271.29706 72.020676 271.48456 72.020676Q271.6408 72.020676 271.87518 71.989426ZM272.9533 72.770676L272.9533 65.614426L273.8283 65.614426L273.8283 68.176926Q274.4533 67.4738 275.3908 67.4738Q275.96893 67.4738 276.3908 67.708176Q276.81268 67.926926 277.00018 68.333176Q277.18768 68.7238 277.18768 69.489426L277.18768 72.770676L276.29706 72.770676L276.29706 69.489426Q276.29706 68.81755 276.0158 68.520676Q275.73456 68.2238 275.2033 68.2238Q274.81268 68.2238 274.46893 68.426926Q274.12518 68.63005 273.96893 68.9738Q273.8283 69.31755 273.8283 69.926926L273.8283 72.770676L272.9533 72.770676ZM278.62518 70.176926Q278.62518 68.739426 279.43768 68.0363Q280.09393 67.4738 281.06268 67.4738Q282.12518 67.4738 282.79706 68.176926Q283.48456 68.864426 283.48456 70.0988Q283.48456 71.0988 283.18768 71.676926Q282.8908 72.25505 282.31268 72.583176Q281.73456 72.895676 281.06268 72.895676Q279.96893 72.895676 279.29706 72.19255Q278.62518 71.489426 278.62518 70.176926ZM279.53143 70.176926Q279.53143 71.176926 279.96893 71.676926Q280.40643 72.1613 281.06268 72.1613Q281.71893 72.1613 282.1408 71.6613Q282.5783 71.1613 282.5783 70.145676Q282.5783 69.19255 282.1408 68.69255Q281.7033 68.19255 281.06268 68.19255Q280.40643 68.19255 279.96893 68.69255Q279.53143 69.176926 279.53143 70.176926ZM284.9533 72.770676L284.9533 67.583176L285.73456 67.583176L285.73456 68.364426Q286.04706 67.81755 286.29706 67.645676Q286.54706 67.4738 286.85956 67.4738Q287.31268 67.4738 287.7658 67.75505L287.46893 68.56755Q287.1408 68.38005 286.81268 68.38005Q286.53143 68.38005 286.29706 68.551926Q286.06268 68.7238 285.96893 69.0363Q285.8283 69.50505 285.8283 70.051926L285.8283 72.770676L284.9533 72.770676Z" fill-rule="nonzero"/><path fill="#000000" d="M232.59148 203.90863L232.59148 204.75238L227.8571 204.75238Q227.8571 204.43988 227.96648 204.143Q228.15398 203.65863 228.5446 203.18988Q228.93523 202.72113 229.70085 202.11176Q230.8571 201.143 231.26335 200.59613Q231.68523 200.03363 231.68523 199.53363Q231.68523 199.00238 231.31023 198.65863Q230.93523 198.29926 230.34148 198.29926Q229.70085 198.29926 229.31023 198.67426Q228.93523 199.04926 228.93523 199.72113L228.02898 199.62738Q228.12273 198.62738 228.71648 198.09613Q229.32585 197.56488 230.3571 197.56488Q231.38835 197.56488 231.9821 198.143Q232.59148 198.7055 232.59148 199.54926Q232.59148 199.98676 232.40398 200.40863Q232.2321 200.81488 231.82585 201.28363Q231.4196 201.73676 230.46648 202.53363Q229.68523 203.18988 229.45085 203.43988Q229.2321 203.67426 229.09148 203.90863L232.59148 203.90863ZM234.21648 204.75238L234.21648 199.56488L235.01335 199.56488L235.01335 200.29926Q235.57585 199.4555 236.65398 199.4555Q237.12273 199.4555 237.51335 199.62738Q237.9196 199.78363 238.1071 200.06488Q238.31023 200.3305 238.38835 200.7055Q238.43523 200.9555 238.43523 201.56488L238.43523 204.75238L237.56023 204.75238L237.56023 201.59613Q237.56023 201.06488 237.45085 200.79926Q237.3571 200.53363 237.09148 200.37738Q236.82585 200.2055 236.4821 200.2055Q235.9196 200.2055 235.49773 200.56488Q235.09148 200.92426 235.09148 201.92426L235.09148 204.75238L234.21648 204.75238ZM243.59148 204.75238L243.59148 204.09613Q243.09148 204.87738 242.13835 204.87738Q241.51335 204.87738 240.9821 204.53363Q240.46648 204.18988 240.18523 203.5805Q239.90398 202.9555 239.90398 202.15863Q239.90398 201.393 240.15398 200.768Q240.4196 200.12738 240.93523 199.79926Q241.45085 199.4555 242.09148 199.4555Q242.56023 199.4555 242.9196 199.65863Q243.2946 199.84613 243.52898 200.15863L243.52898 197.59613L244.40398 197.59613L244.40398 204.75238L243.59148 204.75238ZM240.81023 202.15863Q240.81023 203.15863 241.21648 203.65863Q241.63835 204.143 242.21648 204.143Q242.7946 204.143 243.18523 203.67426Q243.59148 203.2055 243.59148 202.23676Q243.59148 201.17426 243.18523 200.67426Q242.77898 200.17426 242.18523 200.17426Q241.59148 200.17426 241.20085 200.65863Q240.81023 201.12738 240.81023 202.15863ZM252.6071 204.11176Q252.12273 204.53363 251.6696 204.7055Q251.21648 204.87738 250.70085 204.87738Q249.84148 204.87738 249.37273 204.4555Q248.9196 204.03363 248.9196 203.37738Q248.9196 203.00238 249.09148 202.68988Q249.26335 202.37738 249.5446 202.18988Q249.82585 201.98676 250.18523 201.893Q250.43523 201.8305 250.96648 201.768Q252.02898 201.643 252.52898 201.4555Q252.52898 201.28363 252.52898 201.23676Q252.52898 200.68988 252.27898 200.47113Q251.95085 200.17426 251.27898 200.17426Q250.6696 200.17426 250.37273 200.393Q250.07585 200.61176 249.93523 201.15863L249.07585 201.04926Q249.18523 200.48676 249.45085 200.15863Q249.7321 199.81488 250.2321 199.643Q250.74773 199.4555 251.4196 199.4555Q252.07585 199.4555 252.4821 199.61176Q252.90398 199.768 253.09148 200.00238Q253.2946 200.23676 253.37273 200.59613Q253.4196 200.81488 253.4196 201.40863L253.4196 202.5805Q253.4196 203.79926 253.46648 204.12738Q253.52898 204.4555 253.70085 204.75238L252.77898 204.75238Q252.63835 204.47113 252.6071 204.11176ZM252.52898 202.143Q252.0446 202.34613 251.09148 202.48676Q250.56023 202.56488 250.32585 202.65863Q250.1071 202.75238 249.9821 202.93988Q249.8571 203.12738 249.8571 203.36176Q249.8571 203.7055 250.12273 203.93988Q250.38835 204.17426 250.90398 204.17426Q251.4196 204.17426 251.81023 203.9555Q252.20085 203.73676 252.38835 203.34613Q252.52898 203.04926 252.52898 202.47113L252.52898 202.143ZM258.62274 204.75238L258.62274 203.98676Q258.01337 204.87738 256.9665 204.87738Q256.51337 204.87738 256.10712 204.7055Q255.71648 204.518 255.51335 204.25238Q255.32585 203.98676 255.24773 203.59613Q255.20085 203.34613 255.20085 202.78363L255.20085 199.56488L256.07587 199.56488L256.07587 202.43988Q256.07587 203.12738 256.13837 203.37738Q256.2165 203.72113 256.48212 203.92426Q256.74774 204.11176 257.154 204.11176Q257.54462 204.11176 257.88837 203.90863Q258.23212 203.7055 258.37274 203.36176Q258.529 203.00238 258.529 202.34613L258.529 199.56488L259.404 199.56488L259.404 204.75238L258.62274 204.75238ZM263.13837 203.97113L263.26337 204.73676Q262.88837 204.81488 262.60712 204.81488Q262.12274 204.81488 261.85712 204.67426Q261.5915 204.518 261.48212 204.268Q261.38837 204.018 261.38837 203.23676L261.38837 200.25238L260.73212 200.25238L260.73212 199.56488L261.38837 199.56488L261.38837 198.28363L262.24774 197.75238L262.24774 199.56488L263.13837 199.56488L263.13837 200.25238L262.24774 200.25238L262.24774 203.28363Q262.24774 203.65863 262.29462 203.768Q262.3415 203.87738 262.45087 203.93988Q262.56024 204.00238 262.74774 204.00238Q262.904 204.00238 263.13837 203.97113ZM264.2165 204.75238L264.2165 197.59613L265.0915 197.59613L265.0915 200.15863Q265.7165 199.4555 266.654 199.4555Q267.23212 199.4555 267.654 199.68988Q268.07587 199.90863 268.26337 200.31488Q268.45087 200.7055 268.45087 201.47113L268.45087 204.75238L267.56024 204.75238L267.56024 201.47113Q267.56024 200.79926 267.279 200.50238Q266.99774 200.2055 266.4665 200.2055Q266.07587 200.2055 265.73212 200.40863Q265.38837 200.61176 265.23212 200.9555Q265.0915 201.29926 265.0915 201.90863L265.0915 204.75238L264.2165 204.75238ZM269.88837 202.15863Q269.88837 200.72113 270.70087 200.018Q271.35712 199.4555 272.32587 199.4555Q273.38837 199.4555 274.06024 200.15863Q274.74774 200.84613 274.74774 202.0805Q274.74774 203.0805 274.45087 203.65863Q274.154 204.23676 273.57587 204.56488Q272.99774 204.87738 272.32587 204.87738Q271.23212 204.87738 270.56024 204.17426Q269.88837 203.47113 269.88837 202.15863ZM270.79462 202.15863Q270.79462 203.15863 271.23212 203.65863Q271.66962 204.143 272.32587 204.143Q272.98212 204.143 273.404 203.643Q273.8415 203.143 273.8415 202.12738Q273.8415 201.17426 273.404 200.67426Q272.9665 200.17426 272.32587 200.17426Q271.66962 200.17426 271.23212 200.67426Q270.79462 201.15863 270.79462 202.15863ZM276.2165 204.75238L276.2165 199.56488L276.99774 199.56488L276.99774 200.34613Q277.31024 199.79926 277.56024 199.62738Q277.81024 199.4555 278.12274 199.4555Q278.57587 199.4555 279.029 199.73676L278.73212 200.54926Q278.404 200.36176 278.07587 200.36176Q277.79462 200.36176 277.56024 200.53363Q277.32587 200.7055 277.23212 201.018Q277.0915 201.48676 277.0915 202.03363L277.0915 204.75238L276.2165 204.75238Z" fill-rule="nonzero"/><path fill="#000000" d="M121.5953 171.4804L122.4703 171.37102Q122.62655 172.1054 122.98592 172.44914Q123.3453 172.77727 123.87655 172.77727Q124.50155 172.77727 124.92342 172.3554Q125.3453 171.9179 125.3453 171.27727Q125.3453 170.6679 124.95467 170.27727Q124.56405 169.88664 123.95467 169.88664Q123.70467 169.88664 123.32967 169.9804L123.42342 169.21477Q123.51717 169.21477 123.56405 169.21477Q124.12655 169.21477 124.57967 168.93352Q125.0328 168.63664 125.0328 168.02727Q125.0328 167.5429 124.70467 167.2304Q124.37655 166.90227 123.86092 166.90227Q123.3453 166.90227 123.00155 167.2304Q122.6578 167.5429 122.56405 168.19914L121.68905 168.0429Q121.8453 167.15227 122.4078 166.6679Q122.98592 166.18352 123.82967 166.18352Q124.42342 166.18352 124.9078 166.43352Q125.4078 166.68352 125.6578 167.12102Q125.92342 167.55852 125.92342 168.0429Q125.92342 168.51164 125.67342 168.88664Q125.43905 169.26164 124.93905 169.49602Q125.57967 169.63664 125.92342 170.1054Q126.2828 170.55852 126.2828 171.26164Q126.2828 172.19914 125.5953 172.8554Q124.9078 173.49602 123.87655 173.49602Q122.92342 173.49602 122.29842 172.93352Q121.68905 172.37102 121.5953 171.4804ZM127.82967 173.37102L127.82967 168.18352L128.61093 168.18352L128.61093 168.96477Q128.92343 168.4179 129.17343 168.24602Q129.42343 168.07414 129.73593 168.07414Q130.18906 168.07414 130.64218 168.3554L130.3453 169.1679Q130.01718 168.9804 129.68906 168.9804Q129.4078 168.9804 129.17343 169.15227Q128.93906 169.32414 128.8453 169.63664Q128.70468 170.1054 128.70468 170.65227L128.70468 173.37102L127.82967 173.37102ZM134.20468 173.37102L134.20468 172.71477Q133.70468 173.49602 132.75156 173.49602Q132.12656 173.49602 131.5953 173.15227Q131.07968 172.80852 130.79843 172.19914Q130.51718 171.57414 130.51718 170.77727Q130.51718 170.01164 130.76718 169.38664Q131.0328 168.74602 131.54843 168.4179Q132.06406 168.07414 132.70468 168.07414Q133.17343 168.07414 133.5328 168.27727Q133.9078 168.46477 134.14218 168.77727L134.14218 166.21477L135.01718 166.21477L135.01718 173.37102L134.20468 173.37102ZM131.42343 170.77727Q131.42343 171.77727 131.82968 172.27727Q132.25156 172.76164 132.82968 172.76164Q133.4078 172.76164 133.79843 172.2929Q134.20468 171.82414 134.20468 170.8554Q134.20468 169.7929 133.79843 169.2929Q133.39218 168.7929 132.79843 168.7929Q132.20468 168.7929 131.81406 169.27727Q131.42343 169.74602 131.42343 170.77727ZM143.2203 172.7304Q142.73593 173.15227 142.2828 173.32414Q141.82968 173.49602 141.31406 173.49602Q140.45468 173.49602 139.98593 173.07414Q139.5328 172.65227 139.5328 171.99602Q139.5328 171.62102 139.70468 171.30852Q139.87656 170.99602 140.1578 170.80852Q140.43906 170.6054 140.79843 170.51164Q141.04843 170.44914 141.57968 170.38664Q142.64218 170.26164 143.14218 170.07414Q143.14218 169.90227 143.14218 169.8554Q143.14218 169.30852 142.89218 169.08977Q142.56406 168.7929 141.89218 168.7929Q141.2828 168.7929 140.98593 169.01164Q140.68906 169.2304 140.54843 169.77727L139.68906 169.6679Q139.79843 169.1054 140.06406 168.77727Q140.3453 168.43352 140.8453 168.26164Q141.36093 168.07414 142.0328 168.07414Q142.68906 168.07414 143.0953 168.2304Q143.51718 168.38664 143.70468 168.62102Q143.9078 168.8554 143.98593 169.21477Q144.0328 169.43352 144.0328 170.02727L144.0328 171.19914Q144.0328 172.4179 144.07968 172.74602Q144.14218 173.07414 144.31406 173.37102L143.39218 173.37102Q143.25156 173.08977 143.2203 172.7304ZM143.14218 170.76164Q142.6578 170.96477 141.70468 171.1054Q141.17343 171.18352 140.93906 171.27727Q140.7203 171.37102 140.5953 171.55852Q140.4703 171.74602 140.4703 171.9804Q140.4703 172.32414 140.73593 172.55852Q141.00156 172.7929 141.51718 172.7929Q142.0328 172.7929 142.42343 172.57414Q142.81406 172.3554 143.00156 171.96477Q143.14218 171.6679 143.14218 171.08977L143.14218 170.76164ZM149.23593 173.37102L149.23593 172.6054Q148.62656 173.49602 147.57968 173.49602Q147.12656 173.49602 146.7203 173.32414Q146.32968 173.13664 146.12656 172.87102Q145.93906 172.6054 145.86093 172.21477Q145.81406 171.96477 145.81406 171.40227L145.81406 168.18352L146.68906 168.18352L146.68906 171.05852Q146.68906 171.74602 146.75156 171.99602Q146.82968 172.33977 147.0953 172.5429Q147.36093 172.7304 147.76718 172.7304Q148.1578 172.7304 148.50156 172.52727Q148.8453 172.32414 148.98593 171.9804Q149.14218 171.62102 149.14218 170.96477L149.14218 168.18352L150.01718 168.18352L150.01718 173.37102L149.23593 173.37102ZM153.75156 172.58977L153.87656 173.3554Q153.50156 173.43352 153.2203 173.43352Q152.73593 173.43352 152.4703 173.2929Q152.20468 173.13664 152.0953 172.88664Q152.00156 172.63664 152.00156 171.8554L152.00156 168.87102L151.3453 168.87102L151.3453 168.18352L152.00156 168.18352L152.00156 166.90227L152.86093 166.37102L152.86093 168.18352L153.75156 168.18352L153.75156 168.87102L152.86093 168.87102L152.86093 171.90227Q152.86093 172.27727 152.9078 172.38664Q152.95468 172.49602 153.06406 172.55852Q153.17343 172.62102 153.36093 172.62102Q153.51718 172.62102 153.75156 172.58977ZM154.82968 173.37102L154.82968 166.21477L155.70468 166.21477L155.70468 168.77727Q156.32968 168.07414 157.26718 168.07414Q157.8453 168.07414 158.26718 168.30852Q158.68906 168.52727 158.87656 168.93352Q159.06406 169.32414 159.06406 170.08977L159.06406 173.37102L158.17343 173.37102L158.17343 170.08977Q158.17343 169.4179 157.89218 169.12102Q157.61093 168.82414 157.07968 168.82414Q156.68906 168.82414 156.3453 169.02727Q156.00156 169.2304 155.8453 169.57414Q155.70468 169.9179 155.70468 170.52727L155.70468 173.37102L154.82968 173.37102ZM160.50156 170.77727Q160.50156 169.33977 161.31406 168.63664Q161.9703 168.07414 162.93906 168.07414Q164.00156 168.07414 164.67343 168.77727Q165.36093 169.46477 165.36093 170.69914Q165.36093 171.69914 165.06406 172.27727Q164.76718 172.8554 164.18906 173.18352Q163.61093 173.49602 162.93906 173.49602Q161.8453 173.49602 161.17343 172.7929Q160.50156 172.08977 160.50156 170.77727ZM161.4078 170.77727Q161.4078 171.77727 161.8453 172.27727Q162.2828 172.76164 162.93906 172.76164Q163.5953 172.76164 164.01718 172.26164Q164.45468 171.76164 164.45468 170.74602Q164.45468 169.7929 164.01718 169.2929Q163.57968 168.7929 162.93906 168.7929Q162.2828 168.7929 161.8453 169.2929Q161.4078 169.77727 161.4078 170.77727ZM166.82968 173.37102L166.82968 168.18352L167.61093 168.18352L167.61093 168.96477Q167.92343 168.4179 168.17343 168.24602Q168.42343 168.07414 168.73593 168.07414Q169.18906 168.07414 169.64218 168.3554L169.3453 169.1679Q169.01718 168.9804 168.68906 168.9804Q168.4078 168.9804 168.17343 169.15227Q167.93906 169.32414 167.8453 169.63664Q167.70468 170.1054 167.70468 170.65227L167.70468 173.37102L166.82968 173.37102Z" fill-rule="nonzero"/><path fill="#000000" d="M133.48343 75.39734Q133.48343 73.95984 134.29593 73.256714Q134.95218 72.694214 135.92093 72.694214Q136.98343 72.694214 137.6553 73.39734Q138.3428 74.08484 138.3428 75.319214Q138.3428 76.319214 138.04593 76.89734Q137.74905 77.475464 137.17093 77.80359Q136.5928 78.11609 135.92093 78.11609Q134.82718 78.11609 134.1553 77.412964Q133.48343 76.70984 133.48343 75.39734ZM134.38968 75.39734Q134.38968 76.39734 134.82718 76.89734Q135.26468 77.381714 135.92093 77.381714Q136.57718 77.381714 136.99905 76.881714Q137.43655 76.381714 137.43655 75.36609Q137.43655 74.412964 136.99905 73.912964Q136.56155 73.412964 135.92093 73.412964Q135.26468 73.412964 134.82718 73.912964Q134.38968 74.39734 134.38968 75.39734ZM141.73343 77.20984L141.85843 77.975464Q141.48343 78.05359 141.20218 78.05359Q140.7178 78.05359 140.45218 77.912964Q140.18655 77.756714 140.07718 77.506714Q139.98343 77.256714 139.98343 76.475464L139.98343 73.49109L139.32718 73.49109L139.32718 72.80359L139.98343 72.80359L139.98343 71.52234L140.8428 70.99109L140.8428 72.80359L141.73343 72.80359L141.73343 73.49109L140.8428 73.49109L140.8428 76.52234Q140.8428 76.89734 140.88968 77.006714Q140.93655 77.11609 141.04593 77.17859Q141.1553 77.24109 141.3428 77.24109Q141.49905 77.24109 141.73343 77.20984ZM142.81155 77.99109L142.81155 70.83484L143.68655 70.83484L143.68655 73.39734Q144.31155 72.694214 145.24905 72.694214Q145.82718 72.694214 146.24905 72.92859Q146.67093 73.14734 146.85843 73.55359Q147.04593 73.944214 147.04593 74.70984L147.04593 77.99109L146.1553 77.99109L146.1553 74.70984Q146.1553 74.037964 145.87405 73.74109Q145.5928 73.444214 145.06155 73.444214Q144.67093 73.444214 144.32718 73.64734Q143.98343 73.850464 143.82718 74.194214Q143.68655 74.537964 143.68655 75.14734L143.68655 77.99109L142.81155 77.99109ZM152.35843 76.319214L153.2803 76.42859Q153.06155 77.225464 152.4678 77.67859Q151.88968 78.11609 150.99905 78.11609Q149.85843 78.11609 149.18655 77.412964Q148.51468 76.70984 148.51468 75.444214Q148.51468 74.131714 149.18655 73.412964Q149.87405 72.694214 150.93655 72.694214Q151.98343 72.694214 152.63968 73.39734Q153.29593 74.100464 153.29593 75.381714Q153.29593 75.45984 153.29593 75.61609L149.43655 75.61609Q149.48343 76.475464 149.9053 76.92859Q150.3428 77.381714 150.99905 77.381714Q151.48343 77.381714 151.82718 77.131714Q152.17093 76.881714 152.35843 76.319214ZM149.48343 74.89734L152.37405 74.89734Q152.31155 74.24109 152.04593 73.912964Q151.62405 73.412964 150.95218 73.412964Q150.3428 73.412964 149.93655 73.819214Q149.5303 74.225464 149.48343 74.89734ZM154.81155 77.99109L154.81155 72.80359L155.5928 72.80359L155.5928 73.58484Q155.9053 73.037964 156.1553 72.86609Q156.4053 72.694214 156.7178 72.694214Q157.17093 72.694214 157.62405 72.975464L157.32718 73.787964Q156.99905 73.600464 156.67093 73.600464Q156.38968 73.600464 156.1553 73.77234Q155.92093 73.944214 155.82718 74.256714Q155.68655 74.725464 155.68655 75.27234L155.68655 77.99109L154.81155 77.99109Z" fill-rule="nonzero"/><path fill="#1a1a1a" d="M13.50625 51.3952Q13.50625 49.660824 14.459375 48.8327Q15.25625 48.1452 16.4125 48.1452Q17.69375 48.1452 18.50625 48.98895Q19.334375 49.817074 19.334375 51.30145Q19.334375 52.504574 18.975 53.192074Q18.615625 53.879574 17.9125 54.2702Q17.225 54.6452 16.4125 54.6452Q15.115625 54.6452 14.303125 53.817074Q13.50625 52.973324 13.50625 51.3952ZM14.584375 51.3952Q14.584375 52.5827 15.1 53.17645Q15.63125 53.7702 16.4125 53.7702Q17.209375 53.7702 17.725 53.17645Q18.240625 52.5827 18.240625 51.36395Q18.240625 50.2077 17.709375 49.61395Q17.19375 49.0202 16.4125 49.0202Q15.63125 49.0202 15.1 49.61395Q14.584375 50.192074 14.584375 51.3952ZM23.19375 53.567074L23.35 54.48895Q22.896875 54.5827 22.553125 54.5827Q21.975 54.5827 21.6625 54.410824Q21.35 54.223324 21.209375 53.92645Q21.084375 53.629574 21.084375 52.67645L21.084375 49.098324L20.31875 49.098324L20.31875 48.285824L21.084375 48.285824L21.084375 46.73895L22.13125 46.11395L22.13125 48.285824L23.19375 48.285824L23.19375 49.098324L22.13125 49.098324L22.13125 52.73895Q22.13125 53.192074 22.178125 53.317074Q22.240625 53.442074 22.365625 53.5202Q22.490625 53.598324 22.725 53.598324Q22.9125 53.598324 23.19375 53.567074ZM23.896875 54.504574L23.896875 45.910824L24.94375 45.910824L24.94375 48.98895Q25.678125 48.1452 26.803125 48.1452Q27.50625 48.1452 28.00625 48.42645Q28.521875 48.692074 28.740625 49.17645Q28.959375 49.6452 28.959375 50.567074L28.959375 54.504574L27.9125 54.504574L27.9125 50.567074Q27.9125 49.7702 27.56875 49.410824Q27.225 49.05145 26.6 49.05145Q26.13125 49.05145 25.709375 49.30145Q25.303125 49.535824 25.115625 49.9577Q24.94375 50.36395 24.94375 51.098324L24.94375 54.504574L23.896875 54.504574ZM35.146873 52.504574L36.240623 52.629574Q35.990623 53.5827 35.2875 54.11395Q34.584373 54.6452 33.50625 54.6452Q32.146873 54.6452 31.334375 53.80145Q30.5375 52.9577 30.5375 51.442074Q30.5375 49.879574 31.35 49.0202Q32.1625 48.1452 33.44375 48.1452Q34.69375 48.1452 35.475 48.98895Q36.271873 49.8327 36.271873 51.379574Q36.271873 51.473324 36.271873 51.660824L31.63125 51.660824Q31.69375 52.692074 32.209373 53.23895Q32.725 53.7702 33.50625 53.7702Q34.084373 53.7702 34.490623 53.473324Q34.9125 53.160824 35.146873 52.504574ZM31.69375 50.80145L35.1625 50.80145Q35.1 50.004574 34.771873 49.61395Q34.25625 49.004574 33.459373 49.004574Q32.725 49.004574 32.225 49.48895Q31.740625 49.973324 31.69375 50.80145ZM37.88125 54.504574L37.88125 48.285824L38.834373 48.285824L38.834373 49.223324Q39.19375 48.567074 39.490623 48.36395Q39.803123 48.1452 40.178123 48.1452Q40.709373 48.1452 41.25625 48.473324L40.896873 49.4577Q40.50625 49.223324 40.13125 49.223324Q39.771873 49.223324 39.490623 49.442074Q39.225 49.6452 39.115623 50.0202Q38.928123 50.5827 38.928123 51.23895L38.928123 54.504574L37.88125 54.504574Z" fill-rule="nonzero"/><path fill="#9e9e9e" d="M19.146875 70.488945L19.146875 71.50457L13.459375 71.50457Q13.459375 71.12957 13.584375 70.770195Q13.803125 70.19207 14.271875 69.62957Q14.75625 69.06707 15.6625 68.332695Q17.06875 67.176445 17.553125 66.50457Q18.053125 65.832695 18.053125 65.238945Q18.053125 64.613945 17.6 64.19207Q17.146875 63.75457 16.428125 63.75457Q15.6625 63.75457 15.209375 64.207695Q14.75625 64.66082 14.740625 65.47332L13.6625 65.363945Q13.771875 64.145195 14.490625 63.520195Q15.225 62.87957 16.459375 62.87957Q17.69375 62.87957 18.4125 63.56707Q19.13125 64.25457 19.13125 65.270195Q19.13125 65.78582 18.9125 66.28582Q18.709375 66.770195 18.209375 67.332695Q17.725 67.87957 16.6 68.832695Q15.646875 69.62957 15.365625 69.926445Q15.1 70.207695 14.928125 70.488945L19.146875 70.488945ZM20.6625 64.03582L20.6625 63.020195L26.225 63.020195L26.225 63.84832Q25.4125 64.72332 24.6 66.176445Q23.803125 67.613945 23.365625 69.145195Q23.0375 70.22332 22.959375 71.50457L21.865625 71.50457Q21.88125 70.488945 22.25625 69.051445Q22.646875 67.613945 23.35 66.28582Q24.06875 64.957695 24.88125 64.03582L20.6625 64.03582ZM28.19375 71.50457L28.19375 70.301445L29.396875 70.301445L29.396875 71.50457L28.19375 71.50457ZM32.225 66.84832Q31.56875 66.59832 31.240625 66.16082Q30.928125 65.707695 30.928125 65.09832Q30.928125 64.16082 31.6 63.520195Q32.2875 62.87957 33.396873 62.87957Q34.521873 62.87957 35.209373 63.53582Q35.896873 64.19207 35.896873 65.12957Q35.896873 65.72332 35.584373 66.16082Q35.271873 66.59832 34.63125 66.84832Q35.428123 67.09832 35.834373 67.676445Q36.240623 68.25457 36.240623 69.051445Q36.240623 70.145195 35.459373 70.895195Q34.69375 71.645195 33.4125 71.645195Q32.146873 71.645195 31.365625 70.895195Q30.584375 70.145195 30.584375 69.020195Q30.584375 68.176445 31.00625 67.613945Q31.44375 67.051445 32.225 66.84832ZM32.00625 65.051445Q32.00625 65.66082 32.396873 66.051445Q32.803123 66.44207 33.428123 66.44207Q34.0375 66.44207 34.428123 66.06707Q34.81875 65.676445 34.81875 65.113945Q34.81875 64.53582 34.4125 64.145195Q34.00625 63.738945 33.4125 63.738945Q32.803123 63.738945 32.396873 64.12957Q32.00625 64.520195 32.00625 65.051445ZM31.678125 69.020195Q31.678125 69.47332 31.88125 69.895195Q32.1 70.31707 32.521873 70.551445Q32.94375 70.78582 33.428123 70.78582Q34.178123 70.78582 34.6625 70.301445Q35.1625 69.81707 35.1625 69.06707Q35.1625 68.301445 34.6625 67.801445Q34.1625 67.301445 33.396873 67.301445Q32.646873 67.301445 32.1625 67.801445Q31.678125 68.28582 31.678125 69.020195ZM37.803123 64.97332Q37.803123 64.051445 38.25625 63.41082Q38.725 62.770195 39.6 62.770195Q40.4125 62.770195 40.94375 63.34832Q41.475 63.926445 41.475 65.03582Q41.475 66.12957 40.928123 66.72332Q40.396873 67.301445 39.615623 67.301445Q38.834373 67.301445 38.31875 66.72332Q37.803123 66.145195 37.803123 64.97332ZM39.63125 63.488945Q39.240623 63.488945 38.975 63.832695Q38.725 64.176445 38.725 65.082695Q38.725 65.91082 38.975 66.25457Q39.240623 66.582695 39.63125 66.582695Q40.0375 66.582695 40.2875 66.238945Q40.553123 65.895195 40.553123 65.00457Q40.553123 64.16082 40.2875 63.832695Q40.021873 63.488945 39.63125 63.488945ZM39.63125 71.81707L44.334373 62.770195L45.19375 62.770195L40.50625 71.81707L39.63125 71.81707ZM43.35 69.488945Q43.35 68.56707 43.803123 67.926445Q44.271873 67.28582 45.1625 67.28582Q45.975 67.28582 46.50625 67.863945Q47.0375 68.426445 47.0375 69.551445Q47.0375 70.645195 46.490623 71.238945Q45.959373 71.81707 45.1625 71.81707Q44.396873 71.81707 43.865623 71.238945Q43.35 70.66082 43.35 69.488945ZM45.19375 68.00457Q44.7875 68.00457 44.521873 68.34832Q44.271873 68.69207 44.271873 69.59832Q44.271873 70.41082 44.5375 70.75457Q44.803123 71.09832 45.19375 71.09832Q45.584373 71.09832 45.85 70.75457Q46.115623 70.41082 46.115623 69.50457Q46.115623 68.676445 45.85 68.34832Q45.584373 68.00457 45.19375 68.00457Z" fill-rule="nonzero"/><path stroke="#757575" stroke-width="1.0" stroke-linecap="butt" d="M13.1 59.004574L88.6 59.004574L126.699196 59.004574" fill-rule="nonzero"/><path fill="#9e9e9e" d="M128.69919 59.004574C128.69919 57.900005 127.803764 57.004574 126.699196 57.004574C125.59462 57.004574 124.699196 57.900005 124.699196 59.004574C124.699196 60.109142 125.59462 61.004574 126.699196 61.004574C127.803764 61.004574 128.69919 60.109142 128.69919 59.004574" fill-rule="nonzero"/><path fill="#1a1a1a" d="M13.6 180.23688L14.6625 180.09625Q14.834375 180.98688 15.271875 181.39313Q15.709375 181.78375 16.334375 181.78375Q17.084375 181.78375 17.6 181.26813Q18.115625 180.7525 18.115625 179.98688Q18.115625 179.26813 17.63125 178.79938Q17.1625 178.315 16.428125 178.315Q16.13125 178.315 15.678125 178.44L15.803125 177.5025Q15.9125 177.51813 15.975 177.51813Q16.646875 177.51813 17.178125 177.17438Q17.725 176.815 17.725 176.08063Q17.725 175.5025 17.334375 175.1275Q16.94375 174.73688 16.31875 174.73688Q15.709375 174.73688 15.2875 175.1275Q14.88125 175.51813 14.771875 176.28375L13.709375 176.09625Q13.896875 175.04938 14.584375 174.47125Q15.271875 173.8775 16.2875 173.8775Q16.990625 173.8775 17.584375 174.19Q18.178125 174.48688 18.490625 175.0025Q18.803125 175.51813 18.803125 176.11188Q18.803125 176.65875 18.50625 177.1275Q18.209375 177.58063 17.63125 177.84625Q18.38125 178.01813 18.803125 178.58063Q19.225 179.1275 19.225 179.97125Q19.225 181.09625 18.396875 181.8775Q17.584375 182.65875 16.334375 182.65875Q15.209375 182.65875 14.459375 181.98688Q13.709375 181.29938 13.6 180.23688ZM20.88125 182.5025L20.88125 176.28375L21.834375 176.28375L21.834375 177.22125Q22.19375 176.565 22.490625 176.36188Q22.803125 176.14313 23.178125 176.14313Q23.709375 176.14313 24.25625 176.47125L23.896875 177.45563Q23.50625 177.22125 23.13125 177.22125Q22.771875 177.22125 22.490625 177.44Q22.225 177.64313 22.115625 178.01813Q21.928125 178.58063 21.928125 179.23688L21.928125 182.5025L20.88125 182.5025ZM28.928125 182.5025L28.928125 181.72125Q28.334375 182.64313 27.19375 182.64313Q26.44375 182.64313 25.81875 182.23688Q25.19375 181.815 24.85 181.08063Q24.50625 180.34625 24.50625 179.39313Q24.50625 178.47125 24.81875 177.70563Q25.13125 176.94 25.75625 176.54938Q26.38125 176.14313 27.146875 176.14313Q27.709375 176.14313 28.146875 176.3775Q28.584375 176.61188 28.865625 176.98688L28.865625 173.90875L29.9125 173.90875L29.9125 182.5025L28.928125 182.5025ZM25.6 179.39313Q25.6 180.59625 26.1 181.19Q26.6 181.76813 27.2875 181.76813Q27.975 181.76813 28.459375 181.20563Q28.94375 180.64313 28.94375 179.48688Q28.94375 178.20563 28.44375 177.61188Q27.959375 177.01813 27.240625 177.01813Q26.5375 177.01813 26.06875 177.59625Q25.6 178.15875 25.6 179.39313ZM38.959373 181.73688Q38.365623 182.23688 37.81875 182.44Q37.2875 182.64313 36.6625 182.64313Q35.63125 182.64313 35.084373 182.14313Q34.5375 181.64313 34.5375 180.86188Q34.5375 180.40875 34.740623 180.03375Q34.94375 179.64313 35.2875 179.42438Q35.63125 179.19 36.053123 179.08063Q36.35 178.98688 36.990623 178.90875Q38.25625 178.76813 38.865623 178.54938Q38.865623 178.33063 38.865623 178.28375Q38.865623 177.6275 38.56875 177.36188Q38.1625 177.01813 37.365623 177.01813Q36.63125 177.01813 36.271873 177.28375Q35.9125 177.53375 35.740623 178.19L34.709373 178.04938Q34.85 177.39313 35.178123 176.98688Q35.50625 176.58063 36.115623 176.36188Q36.725 176.14313 37.521873 176.14313Q38.31875 176.14313 38.81875 176.33063Q39.31875 176.51813 39.553123 176.79938Q39.7875 177.08063 39.88125 177.51813Q39.928123 177.78375 39.928123 178.48688L39.928123 179.89313Q39.928123 181.36188 39.990623 181.7525Q40.06875 182.14313 40.271873 182.5025L39.1625 182.5025Q39.00625 182.17438 38.959373 181.73688ZM38.865623 179.3775Q38.2875 179.61188 37.146873 179.78375Q36.490623 179.8775 36.225 180.0025Q35.959373 180.11188 35.803123 180.33063Q35.6625 180.54938 35.6625 180.83063Q35.6625 181.2525 35.975 181.53375Q36.303123 181.815 36.9125 181.815Q37.521873 181.815 37.990623 181.54938Q38.475 181.28375 38.69375 180.815Q38.865623 180.45563 38.865623 179.76813L38.865623 179.3775ZM45.975 182.5025L45.975 181.58063Q45.240623 182.64313 43.990623 182.64313Q43.44375 182.64313 42.959373 182.44Q42.490623 182.22125 42.25625 181.90875Q42.021873 181.58063 41.928123 181.11188Q41.865623 180.815 41.865623 180.1275L41.865623 176.28375L42.928123 176.28375L42.928123 179.73688Q42.928123 180.54938 42.990623 180.84625Q43.084373 181.2525 43.396873 181.5025Q43.725 181.73688 44.209373 181.73688Q44.678123 181.73688 45.084373 181.5025Q45.50625 181.2525 45.678123 180.83063Q45.865623 180.40875 45.865623 179.61188L45.865623 176.28375L46.9125 176.28375L46.9125 182.5025L45.975 182.5025ZM51.19375 181.565L51.35 182.48688Q50.896873 182.58063 50.553123 182.58063Q49.975 182.58063 49.6625 182.40875Q49.35 182.22125 49.209373 181.92438Q49.084373 181.6275 49.084373 180.67438L49.084373 177.09625L48.31875 177.09625L48.31875 176.28375L49.084373 176.28375L49.084373 174.73688L50.13125 174.11188L50.13125 176.28375L51.19375 176.28375L51.19375 177.09625L50.13125 177.09625L50.13125 180.73688Q50.13125 181.19 50.178123 181.315Q50.240623 181.44 50.365623 181.51813Q50.490623 181.59625 50.725 181.59625Q50.9125 181.59625 51.19375 181.565ZM51.896873 182.5025L51.896873 173.90875L52.94375 173.90875L52.94375 176.98688Q53.678123 176.14313 54.803123 176.14313Q55.50625 176.14313 56.00625 176.42438Q56.521873 176.69 56.740623 177.17438Q56.959373 177.64313 56.959373 178.565L56.959373 182.5025L55.9125 182.5025L55.9125 178.565Q55.9125 177.76813 55.56875 177.40875Q55.225 177.04938 54.6 177.04938Q54.13125 177.04938 53.709373 177.29938Q53.303123 177.53375 53.115623 177.95563Q52.94375 178.36188 52.94375 179.09625L52.94375 182.5025L51.896873 182.5025ZM58.50625 179.39313Q58.50625 177.65875 59.459373 176.83063Q60.25625 176.14313 61.4125 176.14313Q62.69375 176.14313 63.50625 176.98688Q64.33437 177.815 64.33437 179.29938Q64.33437 180.5025 63.975 181.19Q63.615623 181.8775 62.9125 182.26813Q62.225 182.64313 61.4125 182.64313Q60.115623 182.64313 59.303123 181.815Q58.50625 180.97125 58.50625 179.39313ZM59.584373 179.39313Q59.584373 180.58063 60.1 181.17438Q60.63125 181.76813 61.4125 181.76813Q62.209373 181.76813 62.725 181.17438Q63.240623 180.58063 63.240623 179.36188Q63.240623 178.20563 62.709373 177.61188Q62.19375 177.01813 61.4125 177.01813Q60.63125 177.01813 60.1 177.61188Q59.584373 178.19 59.584373 179.39313ZM65.88125 182.5025L65.88125 176.28375L66.83437 176.28375L66.83437 177.22125Q67.19375 176.565 67.49062 176.36188Q67.80312 176.14313 68.17812 176.14313Q68.70937 176.14313 69.25625 176.47125L68.89687 177.45563Q68.50625 177.22125 68.13125 177.22125Q67.77187 177.22125 67.49062 177.44Q67.225 177.64313 67.11562 178.01813Q66.92812 178.58063 66.92812 179.23688L66.92812 182.5025L65.88125 182.5025Z" fill-rule="nonzero"/><path fill="#9e9e9e" d="M17.56875 199.5025L16.521875 199.5025L16.521875 192.78375Q16.13125 193.14313 15.50625 193.51813Q14.896875 193.8775 14.4125 194.04938L14.4125 193.03375Q15.2875 192.61188 15.94375 192.03375Q16.615625 191.44 16.896875 190.8775L17.56875 190.8775L17.56875 199.5025ZM24.56875 199.5025L23.521875 199.5025L23.521875 192.78375Q23.13125 193.14313 22.50625 193.51813Q21.896875 193.8775 21.4125 194.04938L21.4125 193.03375Q22.2875 192.61188 22.94375 192.03375Q23.615625 191.44 23.896875 190.8775L24.56875 190.8775L24.56875 199.5025ZM28.19375 199.5025L28.19375 198.29938L29.396875 198.29938L29.396875 199.5025L28.19375 199.5025ZM34.56875 199.5025L33.521873 199.5025L33.521873 192.78375Q33.13125 193.14313 32.50625 193.51813Q31.896875 193.8775 31.4125 194.04938L31.4125 193.03375Q32.2875 192.61188 32.94375 192.03375Q33.615623 191.44 33.896873 190.8775L34.56875 190.8775L34.56875 199.5025ZM37.803123 192.97125Q37.803123 192.04938 38.25625 191.40875Q38.725 190.76813 39.6 190.76813Q40.4125 190.76813 40.94375 191.34625Q41.475 191.92438 41.475 193.03375Q41.475 194.1275 40.928123 194.72125Q40.396873 195.29938 39.615623 195.29938Q38.834373 195.29938 38.31875 194.72125Q37.803123 194.14313 37.803123 192.97125ZM39.63125 191.48688Q39.240623 191.48688 38.975 191.83063Q38.725 192.17438 38.725 193.08063Q38.725 193.90875 38.975 194.2525Q39.240623 194.58063 39.63125 194.58063Q40.0375 194.58063 40.2875 194.23688Q40.553123 193.89313 40.553123 193.0025Q40.553123 192.15875 40.2875 191.83063Q40.021873 191.48688 39.63125 191.48688ZM39.63125 199.815L44.334373 190.76813L45.19375 190.76813L40.50625 199.815L39.63125 199.815ZM43.35 197.48688Q43.35 196.565 43.803123 195.92438Q44.271873 195.28375 45.1625 195.28375Q45.975 195.28375 46.50625 195.86188Q47.0375 196.42438 47.0375 197.54938Q47.0375 198.64313 46.490623 199.23688Q45.959373 199.815 45.1625 199.815Q44.396873 199.815 43.865623 199.23688Q43.35 198.65875 43.35 197.48688ZM45.19375 196.0025Q44.7875 196.0025 44.521873 196.34625Q44.271873 196.69 44.271873 197.59625Q44.271873 198.40875 44.5375 198.7525Q44.803123 199.09625 45.19375 199.09625Q45.584373 199.09625 45.85 198.7525Q46.115623 198.40875 46.115623 197.5025Q46.115623 196.67438 45.85 196.34625Q45.584373 196.0025 45.19375 196.0025Z" fill-rule="nonzero"/><path stroke="#757575" stroke-width="1.0" stroke-linecap="butt" d="M13.1 187.0025L88.6 187.0025L115.500824 187.0025" fill-rule="nonzero"/><path fill="#9e9e9e" d="M117.500824 187.0025C117.500824 185.89793 116.60539 185.0025 115.500824 185.0025C114.396255 185.0025 113.500824 185.89793 113.500824 187.0025C113.500824 188.10707 114.396255 189.0025 115.500824 189.0025C116.60539 189.0025 117.500824 188.10707 117.500824 187.0025" fill-rule="nonzero"/><path fill="#1a1a1a" d="M361.36874 40.699192L360.32187 40.699192L360.32187 33.980442Q359.93124 34.339817 359.30624 34.714817Q358.69687 35.074192 358.2125 35.246067L358.2125 34.230442Q359.0875 33.808567 359.74374 33.230442Q360.41562 32.636692 360.69687 32.074192L361.36874 32.074192L361.36874 40.699192ZM364.275 38.839817L365.30624 38.683567Q365.4 39.308567 365.79062 39.636692Q366.19687 39.964817 366.93124 39.964817Q367.65 39.964817 367.99374 39.683567Q368.35312 39.386692 368.35312 38.980442Q368.35312 38.621067 368.04062 38.417942Q367.82187 38.277317 366.9625 38.058567Q365.80624 37.761692 365.35312 37.558567Q364.91562 37.339817 364.68124 36.964817Q364.44687 36.589817 364.44687 36.121067Q364.44687 35.714817 364.63437 35.355442Q364.82187 34.996067 365.15 34.761692Q365.4 34.589817 365.82187 34.464817Q366.24374 34.339817 366.74374 34.339817Q367.4625 34.339817 368.00937 34.558567Q368.57187 34.761692 368.8375 35.121067Q369.10312 35.480442 369.19687 36.074192L368.16562 36.214817Q368.10312 35.746067 367.75937 35.480442Q367.43124 35.199192 366.80624 35.199192Q366.0875 35.199192 365.775 35.449192Q365.4625 35.683567 365.4625 36.011692Q365.4625 36.214817 365.5875 36.371067Q365.72812 36.542942 365.99374 36.652317Q366.15 36.714817 366.93124 36.917942Q368.05624 37.230442 368.49374 37.417942Q368.93124 37.605442 369.18124 37.964817Q369.43124 38.324192 369.43124 38.871067Q369.43124 39.402317 369.11874 39.871067Q368.82187 40.324192 368.24374 40.589817Q367.66562 40.839817 366.93124 40.839817Q365.7125 40.839817 365.07187 40.339817Q364.44687 39.824192 364.275 38.839817ZM373.99374 39.761692L374.15 40.683567Q373.69687 40.777317 373.35312 40.777317Q372.775 40.777317 372.4625 40.605442Q372.15 40.417942 372.00937 40.121067Q371.88437 39.824192 371.88437 38.871067L371.88437 35.292942L371.11874 35.292942L371.11874 34.480442L371.88437 34.480442L371.88437 32.933567L372.93124 32.308567L372.93124 34.480442L373.99374 34.480442L373.99374 35.292942L372.93124 35.292942L372.93124 38.933567Q372.93124 39.386692 372.97812 39.511692Q373.04062 39.636692 373.16562 39.714817Q373.29062 39.792942 373.525 39.792942Q373.7125 39.792942 373.99374 39.761692ZM381.75937 39.933567Q381.16562 40.433567 380.61874 40.636692Q380.0875 40.839817 379.4625 40.839817Q378.43124 40.839817 377.88437 40.339817Q377.3375 39.839817 377.3375 39.058567Q377.3375 38.605442 377.54062 38.230442Q377.74374 37.839817 378.0875 37.621067Q378.43124 37.386692 378.85312 37.277317Q379.15 37.183567 379.79062 37.105442Q381.05624 36.964817 381.66562 36.746067Q381.66562 36.527317 381.66562 36.480442Q381.66562 35.824192 381.36874 35.558567Q380.9625 35.214817 380.16562 35.214817Q379.43124 35.214817 379.07187 35.480442Q378.7125 35.730442 378.54062 36.386692L377.50937 36.246067Q377.65 35.589817 377.97812 35.183567Q378.30624 34.777317 378.91562 34.558567Q379.525 34.339817 380.32187 34.339817Q381.11874 34.339817 381.61874 34.527317Q382.11874 34.714817 382.35312 34.996067Q382.5875 35.277317 382.68124 35.714817Q382.72812 35.980442 382.72812 36.683567L382.72812 38.089817Q382.72812 39.558567 382.79062 39.949192Q382.86874 40.339817 383.07187 40.699192L381.9625 40.699192Q381.80624 40.371067 381.75937 39.933567ZM381.66562 37.574192Q381.0875 37.808567 379.94687 37.980442Q379.29062 38.074192 379.025 38.199192Q378.75937 38.308567 378.60312 38.527317Q378.4625 38.746067 378.4625 39.027317Q378.4625 39.449192 378.775 39.730442Q379.10312 40.011692 379.7125 40.011692Q380.32187 40.011692 380.79062 39.746067Q381.275 39.480442 381.49374 39.011692Q381.66562 38.652317 381.66562 37.964817L381.66562 37.574192ZM388.775 40.699192L388.775 39.777317Q388.04062 40.839817 386.79062 40.839817Q386.24374 40.839817 385.75937 40.636692Q385.29062 40.417942 385.05624 40.105442Q384.82187 39.777317 384.72812 39.308567Q384.66562 39.011692 384.66562 38.324192L384.66562 34.480442L385.72812 34.480442L385.72812 37.933567Q385.72812 38.746067 385.79062 39.042942Q385.88437 39.449192 386.19687 39.699192Q386.525 39.933567 387.00937 39.933567Q387.47812 39.933567 387.88437 39.699192Q388.30624 39.449192 388.47812 39.027317Q388.66562 38.605442 388.66562 37.808567L388.66562 34.480442L389.7125 34.480442L389.7125 40.699192L388.775 40.699192ZM393.99374 39.761692L394.15 40.683567Q393.69687 40.777317 393.35312 40.777317Q392.775 40.777317 392.4625 40.605442Q392.15 40.417942 392.00937 40.121067Q391.88437 39.824192 391.88437 38.871067L391.88437 35.292942L391.11874 35.292942L391.11874 34.480442L391.88437 34.480442L391.88437 32.933567L392.93124 32.308567L392.93124 34.480442L393.99374 34.480442L393.99374 35.292942L392.93124 35.292942L392.93124 38.933567Q392.93124 39.386692 392.97812 39.511692Q393.04062 39.636692 393.16562 39.714817Q393.29062 39.792942 393.525 39.792942Q393.7125 39.792942 393.99374 39.761692ZM394.69687 40.699192L394.69687 32.105442L395.74374 32.105442L395.74374 35.183567Q396.47812 34.339817 397.60312 34.339817Q398.30624 34.339817 398.80624 34.621067Q399.32187 34.886692 399.54062 35.371067Q399.75937 35.839817 399.75937 36.761692L399.75937 40.699192L398.7125 40.699192L398.7125 36.761692Q398.7125 35.964817 398.36874 35.605442Q398.025 35.246067 397.4 35.246067Q396.93124 35.246067 396.50937 35.496067Q396.10312 35.730442 395.91562 36.152317Q395.74374 36.558567 395.74374 37.292942L395.74374 40.699192L394.69687 40.699192ZM401.30624 37.589817Q401.30624 35.855442 402.25937 35.027317Q403.05624 34.339817 404.2125 34.339817Q405.49374 34.339817 406.30624 35.183567Q407.13437 36.011692 407.13437 37.496067Q407.13437 38.699192 406.775 39.386692Q406.41562 40.074192 405.7125 40.464817Q405.025 40.839817 404.2125 40.839817Q402.91562 40.839817 402.10312 40.011692Q401.30624 39.167942 401.30624 37.589817ZM402.38437 37.589817Q402.38437 38.777317 402.9 39.371067Q403.43124 39.964817 404.2125 39.964817Q405.00937 39.964817 405.525 39.371067Q406.04062 38.777317 406.04062 37.558567Q406.04062 36.402317 405.50937 35.808567Q404.99374 35.214817 404.2125 35.214817Q403.43124 35.214817 402.9 35.808567Q402.38437 36.386692 402.38437 37.589817ZM408.68124 40.699192L408.68124 34.480442L409.63437 34.480442L409.63437 35.417942Q409.99374 34.761692 410.29062 34.558567Q410.60312 34.339817 410.97812 34.339817Q411.50937 34.339817 412.05624 34.667942L411.69687 35.652317Q411.30624 35.417942 410.93124 35.417942Q410.57187 35.417942 410.29062 35.636692Q410.025 35.839817 409.91562 36.214817Q409.72812 36.777317 409.72812 37.433567L409.72812 40.699192L408.68124 40.699192Z" fill-rule="nonzero"/><path fill="#9e9e9e" d="M382.94687 56.683567L382.94687 57.699192L377.25937 57.699192Q377.25937 57.324192 377.38437 56.964817Q377.60312 56.386692 378.07187 55.824192Q378.55624 55.261692 379.4625 54.527317Q380.86874 53.371067 381.35312 52.699192Q381.85312 52.027317 381.85312 51.433567Q381.85312 50.808567 381.4 50.386692Q380.94687 49.949192 380.22812 49.949192Q379.4625 49.949192 379.00937 50.402317Q378.55624 50.855442 378.54062 51.667942L377.4625 51.558567Q377.57187 50.339817 378.29062 49.714817Q379.025 49.074192 380.25937 49.074192Q381.49374 49.074192 382.2125 49.761692Q382.93124 50.449192 382.93124 51.464817Q382.93124 51.980442 382.7125 52.480442Q382.50937 52.964817 382.00937 53.527317Q381.525 54.074192 380.4 55.027317Q379.44687 55.824192 379.16562 56.121067Q378.9 56.402317 378.72812 56.683567L382.94687 56.683567ZM389.94687 56.683567L389.94687 57.699192L384.25937 57.699192Q384.25937 57.324192 384.38437 56.964817Q384.60312 56.386692 385.07187 55.824192Q385.55624 55.261692 386.4625 54.527317Q387.86874 53.371067 388.35312 52.699192Q388.85312 52.027317 388.85312 51.433567Q388.85312 50.808567 388.4 50.386692Q387.94687 49.949192 387.22812 49.949192Q386.4625 49.949192 386.00937 50.402317Q385.55624 50.855442 385.54062 51.667942L384.4625 51.558567Q384.57187 50.339817 385.29062 49.714817Q386.025 49.074192 387.25937 49.074192Q388.49374 49.074192 389.2125 49.761692Q389.93124 50.449192 389.93124 51.464817Q389.93124 51.980442 389.7125 52.480442Q389.50937 52.964817 389.00937 53.527317Q388.525 54.074192 387.4 55.027317Q386.44687 55.824192 386.16562 56.121067Q385.9 56.402317 385.72812 56.683567L389.94687 56.683567ZM391.99374 57.699192L391.99374 56.496067L393.19687 56.496067L393.19687 57.699192L391.99374 57.699192ZM399.94687 56.683567L399.94687 57.699192L394.25937 57.699192Q394.25937 57.324192 394.38437 56.964817Q394.60312 56.386692 395.07187 55.824192Q395.55624 55.261692 396.4625 54.527317Q397.86874 53.371067 398.35312 52.699192Q398.85312 52.027317 398.85312 51.433567Q398.85312 50.808567 398.4 50.386692Q397.94687 49.949192 397.22812 49.949192Q396.4625 49.949192 396.00937 50.402317Q395.55624 50.855442 395.54062 51.667942L394.4625 51.558567Q394.57187 50.339817 395.29062 49.714817Q396.025 49.074192 397.25937 49.074192Q398.49374 49.074192 399.2125 49.761692Q399.93124 50.449192 399.93124 51.464817Q399.93124 51.980442 399.7125 52.480442Q399.50937 52.964817 399.00937 53.527317Q398.525 54.074192 397.4 55.027317Q396.44687 55.824192 396.16562 56.121067Q395.9 56.402317 395.72812 56.683567L399.94687 56.683567ZM401.60312 51.167942Q401.60312 50.246067 402.05624 49.605442Q402.525 48.964817 403.4 48.964817Q404.2125 48.964817 404.74374 49.542942Q405.275 50.121067 405.275 51.230442Q405.275 52.324192 404.72812 52.917942Q404.19687 53.496067 403.41562 53.496067Q402.63437 53.496067 402.11874 52.917942Q401.60312 52.339817 401.60312 51.167942ZM403.43124 49.683567Q403.04062 49.683567 402.775 50.027317Q402.525 50.371067 402.525 51.277317Q402.525 52.105442 402.775 52.449192Q403.04062 52.777317 403.43124 52.777317Q403.8375 52.777317 404.0875 52.433567Q404.35312 52.089817 404.35312 51.199192Q404.35312 50.355442 404.0875 50.027317Q403.82187 49.683567 403.43124 49.683567ZM403.43124 58.011692L408.13437 48.964817L408.99374 48.964817L404.30624 58.011692L403.43124 58.011692ZM407.15 55.683567Q407.15 54.761692 407.60312 54.121067Q408.07187 53.480442 408.9625 53.480442Q409.775 53.480442 410.30624 54.058567Q410.8375 54.621067 410.8375 55.746067Q410.8375 56.839817 410.29062 57.433567Q409.75937 58.011692 408.9625 58.011692Q408.19687 58.011692 407.66562 57.433567Q407.15 56.855442 407.15 55.683567ZM408.99374 54.199192Q408.5875 54.199192 408.32187 54.542942Q408.07187 54.886692 408.07187 55.792942Q408.07187 56.605442 408.3375 56.949192Q408.60312 57.292942 408.99374 57.292942Q409.38437 57.292942 409.65 56.949192Q409.91562 56.605442 409.91562 55.699192Q409.91562 54.871067 409.65 54.542942Q409.38437 54.199192 408.99374 54.199192Z" fill-rule="nonzero"/><path stroke="#757575" stroke-width="1.0" stroke-linecap="butt" d="M411.9 45.199192L336.4 45.199192L284.49542 45.199192" fill-rule="nonzero"/><path fill="#9e9e9e" d="M286.49542 45.199192C286.49542 44.094624 285.6 43.199192 284.49542 43.199192C283.39087 43.199192 282.49542 44.094624 282.49542 45.199192C282.49542 46.30376 283.39087 47.199192 284.49542 47.199192C285.6 47.199192 286.49542 46.30376 286.49542 45.199192" fill-rule="nonzero"/><path fill="#1a1a1a" d="M358.94687 222.48355L358.94687 223.49918L353.25937 223.49918Q353.25937 223.12418 353.38437 222.7648Q353.60312 222.18668 354.07187 221.62418Q354.55624 221.06168 355.4625 220.3273Q356.86874 219.17105 357.35312 218.49918Q357.85312 217.8273 357.85312 217.23355Q357.85312 216.60855 357.4 216.18668Q356.94687 215.74918 356.22812 215.74918Q355.4625 215.74918 355.00937 216.2023Q354.55624 216.65543 354.54062 217.46793L353.4625 217.35855Q353.57187 216.1398 354.29062 215.5148Q355.025 214.87418 356.25937 214.87418Q357.49374 214.87418 358.2125 215.56168Q358.93124 216.24918 358.93124 217.2648Q358.93124 217.78043 358.7125 218.28043Q358.50937 218.7648 358.00937 219.3273Q357.525 219.87418 356.4 220.8273Q355.44687 221.62418 355.16562 221.92105Q354.9 222.2023 354.72812 222.48355L358.94687 222.48355ZM360.69687 223.49918L360.69687 217.28043L361.63437 217.28043L361.63437 218.15543Q362.32187 217.1398 363.61874 217.1398Q364.18124 217.1398 364.65 217.34293Q365.13437 217.54605 365.36874 217.87418Q365.60312 218.2023 365.69687 218.6398Q365.74374 218.93668 365.74374 219.67105L365.74374 223.49918L364.69687 223.49918L364.69687 219.71793Q364.69687 219.06168 364.57187 218.74918Q364.44687 218.43668 364.13437 218.24918Q363.82187 218.04605 363.4 218.04605Q362.72812 218.04605 362.22812 218.48355Q361.74374 218.90543 361.74374 220.09293L361.74374 223.49918L360.69687 223.49918ZM371.72812 223.49918L371.72812 222.71793Q371.13437 223.6398 369.99374 223.6398Q369.24374 223.6398 368.61874 223.23355Q367.99374 222.81168 367.65 222.0773Q367.30624 221.34293 367.30624 220.3898Q367.30624 219.46793 367.61874 218.7023Q367.93124 217.93668 368.55624 217.54605Q369.18124 217.1398 369.94687 217.1398Q370.50937 217.1398 370.94687 217.37418Q371.38437 217.60855 371.66562 217.98355L371.66562 214.90543L372.7125 214.90543L372.7125 223.49918L371.72812 223.49918ZM368.4 220.3898Q368.4 221.59293 368.9 222.18668Q369.4 222.7648 370.0875 222.7648Q370.775 222.7648 371.25937 222.2023Q371.74374 221.6398 371.74374 220.48355Q371.74374 219.2023 371.24374 218.60855Q370.75937 218.0148 370.04062 218.0148Q369.3375 218.0148 368.86874 218.59293Q368.4 219.15543 368.4 220.3898ZM381.75937 222.73355Q381.16562 223.23355 380.61874 223.43668Q380.0875 223.6398 379.4625 223.6398Q378.43124 223.6398 377.88437 223.1398Q377.3375 222.6398 377.3375 221.85855Q377.3375 221.40543 377.54062 221.03043Q377.74374 220.6398 378.0875 220.42105Q378.43124 220.18668 378.85312 220.0773Q379.15 219.98355 379.79062 219.90543Q381.05624 219.7648 381.66562 219.54605Q381.66562 219.3273 381.66562 219.28043Q381.66562 218.62418 381.36874 218.35855Q380.9625 218.0148 380.16562 218.0148Q379.43124 218.0148 379.07187 218.28043Q378.7125 218.53043 378.54062 219.18668L377.50937 219.04605Q377.65 218.3898 377.97812 217.98355Q378.30624 217.5773 378.91562 217.35855Q379.525 217.1398 380.32187 217.1398Q381.11874 217.1398 381.61874 217.3273Q382.11874 217.5148 382.35312 217.79605Q382.5875 218.0773 382.68124 218.5148Q382.72812 218.78043 382.72812 219.48355L382.72812 220.8898Q382.72812 222.35855 382.79062 222.74918Q382.86874 223.1398 383.07187 223.49918L381.9625 223.49918Q381.80624 223.17105 381.75937 222.73355ZM381.66562 220.37418Q381.0875 220.60855 379.94687 220.78043Q379.29062 220.87418 379.025 220.99918Q378.75937 221.10855 378.60312 221.3273Q378.4625 221.54605 378.4625 221.8273Q378.4625 222.24918 378.775 222.53043Q379.10312 222.81168 379.7125 222.81168Q380.32187 222.81168 380.79062 222.54605Q381.275 222.28043 381.49374 221.81168Q381.66562 221.4523 381.66562 220.7648L381.66562 220.37418ZM388.775 223.49918L388.775 222.5773Q388.04062 223.6398 386.79062 223.6398Q386.24374 223.6398 385.75937 223.43668Q385.29062 223.21793 385.05624 222.90543Q384.82187 222.5773 384.72812 222.10855Q384.66562 221.81168 384.66562 221.12418L384.66562 217.28043L385.72812 217.28043L385.72812 220.73355Q385.72812 221.54605 385.79062 221.84293Q385.88437 222.24918 386.19687 222.49918Q386.525 222.73355 387.00937 222.73355Q387.47812 222.73355 387.88437 222.49918Q388.30624 222.24918 388.47812 221.8273Q388.66562 221.40543 388.66562 220.60855L388.66562 217.28043L389.7125 217.28043L389.7125 223.49918L388.775 223.49918ZM393.99374 222.56168L394.15 223.48355Q393.69687 223.5773 393.35312 223.5773Q392.775 223.5773 392.4625 223.40543Q392.15 223.21793 392.00937 222.92105Q391.88437 222.62418 391.88437 221.67105L391.88437 218.09293L391.11874 218.09293L391.11874 217.28043L391.88437 217.28043L391.88437 215.73355L392.93124 215.10855L392.93124 217.28043L393.99374 217.28043L393.99374 218.09293L392.93124 218.09293L392.93124 221.73355Q392.93124 222.18668 392.97812 222.31168Q393.04062 222.43668 393.16562 222.5148Q393.29062 222.59293 393.525 222.59293Q393.7125 222.59293 393.99374 222.56168ZM394.69687 223.49918L394.69687 214.90543L395.74374 214.90543L395.74374 217.98355Q396.47812 217.1398 397.60312 217.1398Q398.30624 217.1398 398.80624 217.42105Q399.32187 217.68668 399.54062 218.17105Q399.75937 218.6398 399.75937 219.56168L399.75937 223.49918L398.7125 223.49918L398.7125 219.56168Q398.7125 218.7648 398.36874 218.40543Q398.025 218.04605 397.4 218.04605Q396.93124 218.04605 396.50937 218.29605Q396.10312 218.53043 395.91562 218.9523Q395.74374 219.35855 395.74374 220.09293L395.74374 223.49918L394.69687 223.49918ZM401.30624 220.3898Q401.30624 218.65543 402.25937 217.8273Q403.05624 217.1398 404.2125 217.1398Q405.49374 217.1398 406.30624 217.98355Q407.13437 218.81168 407.13437 220.29605Q407.13437 221.49918 406.775 222.18668Q406.41562 222.87418 405.7125 223.2648Q405.025 223.6398 404.2125 223.6398Q402.91562 223.6398 402.10312 222.81168Q401.30624 221.96793 401.30624 220.3898ZM402.38437 220.3898Q402.38437 221.5773 402.9 222.17105Q403.43124 222.7648 404.2125 222.7648Q405.00937 222.7648 405.525 222.17105Q406.04062 221.5773 406.04062 220.35855Q406.04062 219.2023 405.50937 218.60855Q404.99374 218.0148 404.2125 218.0148Q403.43124 218.0148 402.9 218.60855Q402.38437 219.18668 402.38437 220.3898ZM408.68124 223.49918L408.68124 217.28043L409.63437 217.28043L409.63437 218.21793Q409.99374 217.56168 410.29062 217.35855Q410.60312 217.1398 410.97812 217.1398Q411.50937 217.1398 412.05624 217.46793L411.69687 218.4523Q411.30624 218.21793 410.93124 218.21793Q410.57187 218.21793 410.29062 218.43668Q410.025 218.6398 409.91562 219.0148Q409.72812 219.5773 409.72812 220.23355L409.72812 223.49918L408.68124 223.49918Z" fill-rule="nonzero"/><path fill="#9e9e9e" d="M377.4 238.23355L378.4625 238.09293Q378.63437 238.98355 379.07187 239.3898Q379.50937 239.78043 380.13437 239.78043Q380.88437 239.78043 381.4 239.2648Q381.91562 238.74918 381.91562 237.98355Q381.91562 237.2648 381.43124 236.79605Q380.9625 236.31168 380.22812 236.31168Q379.93124 236.31168 379.47812 236.43668L379.60312 235.49918Q379.7125 235.5148 379.775 235.5148Q380.44687 235.5148 380.97812 235.17105Q381.525 234.81168 381.525 234.0773Q381.525 233.49918 381.13437 233.12418Q380.74374 232.73355 380.11874 232.73355Q379.50937 232.73355 379.0875 233.12418Q378.68124 233.5148 378.57187 234.28043L377.50937 234.09293Q377.69687 233.04605 378.38437 232.46793Q379.07187 231.87418 380.0875 231.87418Q380.79062 231.87418 381.38437 232.18668Q381.97812 232.48355 382.29062 232.99918Q382.60312 233.5148 382.60312 234.10855Q382.60312 234.65543 382.30624 235.12418Q382.00937 235.5773 381.43124 235.84293Q382.18124 236.0148 382.60312 236.5773Q383.025 237.12418 383.025 237.96793Q383.025 239.09293 382.19687 239.87418Q381.38437 240.65543 380.13437 240.65543Q379.00937 240.65543 378.25937 239.98355Q377.50937 239.29605 377.4 238.23355ZM386.025 235.84293Q385.36874 235.59293 385.04062 235.15543Q384.72812 234.7023 384.72812 234.09293Q384.72812 233.15543 385.4 232.5148Q386.0875 231.87418 387.19687 231.87418Q388.32187 231.87418 389.00937 232.53043Q389.69687 233.18668 389.69687 234.12418Q389.69687 234.71793 389.38437 235.15543Q389.07187 235.59293 388.43124 235.84293Q389.22812 236.09293 389.63437 236.67105Q390.04062 237.24918 390.04062 238.04605Q390.04062 239.1398 389.25937 239.8898Q388.49374 240.6398 387.2125 240.6398Q385.94687 240.6398 385.16562 239.8898Q384.38437 239.1398 384.38437 238.0148Q384.38437 237.17105 384.80624 236.60855Q385.24374 236.04605 386.025 235.84293ZM385.80624 234.04605Q385.80624 234.65543 386.19687 235.04605Q386.60312 235.43668 387.22812 235.43668Q387.8375 235.43668 388.22812 235.06168Q388.61874 234.67105 388.61874 234.10855Q388.61874 233.53043 388.2125 233.1398Q387.80624 232.73355 387.2125 232.73355Q386.60312 232.73355 386.19687 233.12418Q385.80624 233.5148 385.80624 234.04605ZM385.47812 238.0148Q385.47812 238.46793 385.68124 238.8898Q385.9 239.31168 386.32187 239.54605Q386.74374 239.78043 387.22812 239.78043Q387.97812 239.78043 388.4625 239.29605Q388.9625 238.81168 388.9625 238.06168Q388.9625 237.29605 388.4625 236.79605Q387.9625 236.29605 387.19687 236.29605Q386.44687 236.29605 385.9625 236.79605Q385.47812 237.28043 385.47812 238.0148ZM391.99374 240.49918L391.99374 239.29605L393.19687 239.29605L393.19687 240.49918L391.99374 240.49918ZM394.55624 238.5148L395.57187 238.42105Q395.69687 239.1398 396.05624 239.46793Q396.43124 239.78043 396.99374 239.78043Q397.47812 239.78043 397.8375 239.56168Q398.2125 239.3273 398.44687 238.96793Q398.68124 238.59293 398.8375 237.96793Q398.99374 237.3273 398.99374 236.67105Q398.99374 236.59293 398.99374 236.4523Q398.68124 236.9523 398.13437 237.28043Q397.5875 237.59293 396.94687 237.59293Q395.86874 237.59293 395.13437 236.8273Q394.4 236.04605 394.4 234.78043Q394.4 233.46793 395.16562 232.67105Q395.94687 231.87418 397.10312 231.87418Q397.93124 231.87418 398.61874 232.3273Q399.32187 232.78043 399.68124 233.62418Q400.04062 234.4523 400.04062 236.03043Q400.04062 237.67105 399.68124 238.65543Q399.3375 239.62418 398.61874 240.1398Q397.91562 240.6398 396.97812 240.6398Q395.9625 240.6398 395.32187 240.09293Q394.68124 239.53043 394.55624 238.5148ZM398.86874 234.71793Q398.86874 233.81168 398.38437 233.28043Q397.91562 232.74918 397.22812 232.74918Q396.525 232.74918 395.99374 233.3273Q395.47812 233.8898 395.47812 234.81168Q395.47812 235.62418 395.97812 236.1398Q396.47812 236.65543 397.19687 236.65543Q397.93124 236.65543 398.4 236.1398Q398.86874 235.62418 398.86874 234.71793ZM401.60312 233.96793Q401.60312 233.04605 402.05624 232.40543Q402.525 231.7648 403.4 231.7648Q404.2125 231.7648 404.74374 232.34293Q405.275 232.92105 405.275 234.03043Q405.275 235.12418 404.72812 235.71793Q404.19687 236.29605 403.41562 236.29605Q402.63437 236.29605 402.11874 235.71793Q401.60312 235.1398 401.60312 233.96793ZM403.43124 232.48355Q403.04062 232.48355 402.775 232.8273Q402.525 233.17105 402.525 234.0773Q402.525 234.90543 402.775 235.24918Q403.04062 235.5773 403.43124 235.5773Q403.8375 235.5773 404.0875 235.23355Q404.35312 234.8898 404.35312 233.99918Q404.35312 233.15543 404.0875 232.8273Q403.82187 232.48355 403.43124 232.48355ZM403.43124 240.81168L408.13437 231.7648L408.99374 231.7648L404.30624 240.81168L403.43124 240.81168ZM407.15 238.48355Q407.15 237.56168 407.60312 236.92105Q408.07187 236.28043 408.9625 236.28043Q409.775 236.28043 410.30624 236.85855Q410.8375 237.42105 410.8375 238.54605Q410.8375 239.6398 410.29062 240.23355Q409.75937 240.81168 408.9625 240.81168Q408.19687 240.81168 407.66562 240.23355Q407.15 239.65543 407.15 238.48355ZM408.99374 236.99918Q408.5875 236.99918 408.32187 237.34293Q408.07187 237.68668 408.07187 238.59293Q408.07187 239.40543 408.3375 239.74918Q408.60312 240.09293 408.99374 240.09293Q409.38437 240.09293 409.65 239.74918Q409.91562 239.40543 409.91562 238.49918Q409.91562 237.67105 409.65 237.34293Q409.38437 236.99918 408.99374 236.99918Z" fill-rule="nonzero"/><path stroke="#757575" stroke-width="1.0" stroke-linecap="butt" d="M411.9 227.99918L336.4 227.99918L268.5025 227.99918" fill-rule="nonzero"/><path fill="#9e9e9e" d="M270.5025 227.99918C270.5025 226.8946 269.60706 225.99918 268.5025 225.99918C267.39792 225.99918 266.5025 226.8946 266.5025 227.99918C266.5025 229.10374 267.39792 229.99918 268.5025 229.99918C269.60706 229.99918 270.5025 229.10374 270.5025 227.99918" fill-rule="nonzero"/></svg>