<svg version="1.1" viewBox="0.0 0.0 615.0 384.0" fill="none" stroke="none" stroke-linecap="square" stroke-miterlimit="10" width="615" height="384" xmlns:xlink="http://www.w3.org/1999/xlink" xmlns="http://www.w3.org/2000/svg"><path fill="#ffffff" fill-opacity="0.0" d="M0 0L615.0 0L615.0 384.0L0 384.0L0 0Z" fill-rule="nonzero"/><path fill="#e06666" d="M307.5 19.2C383.84625 19.2 451.14423 69.3015 473.0406 142.4404C494.93695 215.5793 466.24152 294.41934 402.45514 336.37228C338.6688 378.32526 254.91092 373.4469 196.4263 324.37247L224.19473 291.27936C268.0582 328.08517 330.8766 331.74393 378.71637 300.2792C426.55612 268.8145 448.0777 209.68448 431.65543 154.8303C415.2332 99.97613 364.75967 62.4 307.5 62.4Z" fill-rule="nonzero"/><path fill="#1a1a1a" d="M20.121876 131.35397L20.121876 122.76022L21.278126 122.76022L25.79375 129.51022L25.79375 122.76022L26.8875 122.76022L26.8875 131.35397L25.715626 131.35397L21.2 124.60397L21.2 131.35397L20.121876 131.35397ZM28.60625 128.2446Q28.60625 126.51022 29.559376 125.6821Q30.35625 124.9946 31.5125 124.9946Q32.79375 124.9946 33.60625 125.83835Q34.434376 126.66647 34.434376 128.15085Q34.434376 129.35397 34.075 130.04147Q33.715626 130.72897 33.0125 131.1196Q32.325 131.4946 31.5125 131.4946Q30.215626 131.4946 29.403126 130.66647Q28.60625 129.82272 28.60625 128.2446ZM29.684376 128.2446Q29.684376 129.4321 30.2 130.02585Q30.73125 130.6196 31.5125 130.6196Q32.309376 130.6196 32.825 130.02585Q33.340626 129.4321 33.340626 128.21335Q33.340626 127.0571 32.809376 126.46335Q32.29375 125.8696 31.5125 125.8696Q30.73125 125.8696 30.2 126.46335Q29.684376 127.04147 29.684376 128.2446ZM35.996876 131.35397L35.996876 125.13522L36.934376 125.13522L36.934376 126.01022Q37.621876 124.9946 38.91875 124.9946Q39.48125 124.9946 39.95 125.19772Q40.434376 125.40085 40.66875 125.72897Q40.903126 126.0571 40.996876 126.4946Q41.04375 126.79147 41.04375 127.52585L41.04375 131.35397L39.996876 131.35397L39.996876 127.57272Q39.996876 126.91647 39.871876 126.60397Q39.746876 126.29147 39.434376 126.10397Q39.121876 125.90085 38.7 125.90085Q38.028126 125.90085 37.528126 126.33835Q37.04375 126.76022 37.04375 127.94772L37.04375 131.35397L35.996876 131.35397ZM47.246876 129.35397L48.340626 129.47897Q48.090626 130.4321 47.3875 130.96335Q46.684376 131.4946 45.60625 131.4946Q44.246876 131.4946 43.434376 130.65085Q42.6375 129.8071 42.6375 128.29147Q42.6375 126.72897 43.45 125.8696Q44.2625 124.9946 45.54375 124.9946Q46.79375 124.9946 47.575 125.83835Q48.371876 126.6821 48.371876 128.22897Q48.371876 128.32272 48.371876 128.51022L43.73125 128.51022Q43.79375 129.54147 44.309376 130.08835Q44.825 130.6196 45.60625 130.6196Q46.184376 130.6196 46.590626 130.32272Q47.0125 130.01022 47.246876 129.35397ZM43.79375 127.65085L47.2625 127.65085Q47.2 126.85397 46.871876 126.46335Q46.35625 125.85397 45.559376 125.85397Q44.825 125.85397 44.325 126.33835Q43.840626 126.82272 43.79375 127.65085Z" fill-rule="nonzero"/><path fill="#9e9e9e" d="M19.7 146.08835L20.7625 145.94772Q20.934376 146.83835 21.371876 147.2446Q21.809376 147.63522 22.434376 147.63522Q23.184376 147.63522 23.7 147.1196Q24.215626 146.60397 24.215626 145.83835Q24.215626 145.1196 23.73125 144.65085Q23.2625 144.16647 22.528126 144.16647Q22.23125 144.16647 21.778126 144.29147L21.903126 143.35397Q22.0125 143.3696 22.075 143.3696Q22.746876 143.3696 23.278126 143.02585Q23.825 142.66647 23.825 141.9321Q23.825 141.35397 23.434376 140.97897Q23.04375 140.58835 22.41875 140.58835Q21.809376 140.58835 21.3875 140.97897Q20.98125 141.3696 20.871876 142.13522L19.809376 141.94772Q19.996876 140.90085 20.684376 140.32272Q21.371876 139.72897 22.3875 139.72897Q23.090626 139.72897 23.684376 140.04147Q24.278126 140.33835 24.590626 140.85397Q24.903126 141.3696 24.903126 141.96335Q24.903126 142.51022 24.60625 142.97897Q24.309376 143.4321 23.73125 143.69772Q24.48125 143.8696 24.903126 144.4321Q25.325 144.97897 25.325 145.82272Q25.325 146.94772 24.496876 147.72897Q23.684376 148.51022 22.434376 148.51022Q21.309376 148.51022 20.559376 147.83835Q19.809376 147.15085 19.7 146.08835ZM28.325 143.69772Q27.66875 143.44772 27.340626 143.01022Q27.028126 142.5571 27.028126 141.94772Q27.028126 141.01022 27.7 140.3696Q28.3875 139.72897 29.496876 139.72897Q30.621876 139.72897 31.309376 140.38522Q31.996876 141.04147 31.996876 141.97897Q31.996876 142.57272 31.684376 143.01022Q31.371876 143.44772 30.73125 143.69772Q31.528126 143.94772 31.934376 144.52585Q32.340626 145.10397 32.340626 145.90085Q32.340626 146.9946 31.559376 147.7446Q30.79375 148.4946 29.5125 148.4946Q28.246876 148.4946 27.465626 147.7446Q26.684376 146.9946 26.684376 145.8696Q26.684376 145.02585 27.10625 144.46335Q27.54375 143.90085 28.325 143.69772ZM28.10625 141.90085Q28.10625 142.51022 28.496876 142.90085Q28.903126 143.29147 29.528126 143.29147Q30.1375 143.29147 30.528126 142.91647Q30.91875 142.52585 30.91875 141.96335Q30.91875 141.38522 30.5125 140.9946Q30.10625 140.58835 29.5125 140.58835Q28.903126 140.58835 28.496876 140.97897Q28.10625 141.3696 28.10625 141.90085ZM27.778126 145.8696Q27.778126 146.32272 27.98125 146.7446Q28.2 147.16647 28.621876 147.40085Q29.04375 147.63522 29.528126 147.63522Q30.278126 147.63522 30.7625 147.15085Q31.2625 146.66647 31.2625 145.91647Q31.2625 145.15085 30.7625 144.65085Q30.2625 144.15085 29.496876 144.15085Q28.746876 144.15085 28.2625 144.65085Q27.778126 145.13522 27.778126 145.8696ZM34.29375 148.35397L34.29375 147.15085L35.496876 147.15085L35.496876 148.35397L34.29375 148.35397ZM36.85625 146.3696L37.871876 146.27585Q37.996876 146.9946 38.35625 147.32272Q38.73125 147.63522 39.29375 147.63522Q39.778126 147.63522 40.1375 147.41647Q40.5125 147.1821 40.746876 146.82272Q40.98125 146.44772 41.1375 145.82272Q41.29375 145.1821 41.29375 144.52585Q41.29375 144.44772 41.29375 144.3071Q40.98125 144.8071 40.434376 145.13522Q39.8875 145.44772 39.246876 145.44772Q38.16875 145.44772 37.434376 144.6821Q36.7 143.90085 36.7 142.63522Q36.7 141.32272 37.465626 140.52585Q38.246876 139.72897 39.403126 139.72897Q40.23125 139.72897 40.91875 140.1821Q41.621876 140.63522 41.98125 141.47897Q42.340626 142.3071 42.340626 143.88522Q42.340626 145.52585 41.98125 146.51022Q41.6375 147.47897 40.91875 147.9946Q40.215626 148.4946 39.278126 148.4946Q38.2625 148.4946 37.621876 147.94772Q36.98125 147.38522 36.85625 146.3696ZM41.16875 142.57272Q41.16875 141.66647 40.684376 141.13522Q40.215626 140.60397 39.528126 140.60397Q38.825 140.60397 38.29375 141.1821Q37.778126 141.7446 37.778126 142.66647Q37.778126 143.47897 38.278126 143.9946Q38.778126 144.51022 39.496876 144.51022Q40.23125 144.51022 40.7 143.9946Q41.16875 143.47897 41.16875 142.57272ZM43.903126 141.82272Q43.903126 140.90085 44.35625 140.26022Q44.825 139.6196 45.7 139.6196Q46.5125 139.6196 47.04375 140.19772Q47.575 140.77585 47.575 141.88522Q47.575 142.97897 47.028126 143.57272Q46.496876 144.15085 45.715626 144.15085Q44.934376 144.15085 44.41875 143.57272Q43.903126 142.9946 43.903126 141.82272ZM45.73125 140.33835Q45.340626 140.33835 45.075 140.6821Q44.825 141.02585 44.825 141.9321Q44.825 142.76022 45.075 143.10397Q45.340626 143.4321 45.73125 143.4321Q46.1375 143.4321 46.3875 143.08835Q46.653126 142.7446 46.653126 141.85397Q46.653126 141.01022 46.3875 140.6821Q46.121876 140.33835 45.73125 140.33835ZM45.73125 148.66647L50.434376 139.6196L51.29375 139.6196L46.60625 148.66647L45.73125 148.66647ZM49.45 146.33835Q49.45 145.41647 49.903126 144.77585Q50.371876 144.13522 51.2625 144.13522Q52.075 144.13522 52.60625 144.71335Q53.1375 145.27585 53.1375 146.40085Q53.1375 147.4946 52.590626 148.08835Q52.059376 148.66647 51.2625 148.66647Q50.496876 148.66647 49.965626 148.08835Q49.45 147.51022 49.45 146.33835ZM51.29375 144.85397Q50.8875 144.85397 50.621876 145.19772Q50.371876 145.54147 50.371876 146.44772Q50.371876 147.26022 50.6375 147.60397Q50.903126 147.94772 51.29375 147.94772Q51.684376 147.94772 51.95 147.60397Q52.215626 147.26022 52.215626 146.35397Q52.215626 145.52585 51.95 145.19772Q51.684376 144.85397 51.29375 144.85397Z" fill-rule="nonzero"/><path stroke="#757575" stroke-width="1.0" stroke-linecap="butt" d="M19.2 135.85397L128.7 135.85397L153.24007 135.85397" fill-rule="nonzero"/><path fill="#9e9e9e" d="M155.24007 135.85397C155.24007 134.7494 154.34464 133.85397 153.24007 133.85397C152.13548 133.85397 151.24007 134.7494 151.24007 135.85397C151.24007 136.95854 152.13548 137.85397 153.24007 137.85397C154.34464 137.85397 155.24007 136.95854 155.24007 135.85397" fill-rule="nonzero"/><path fill="#1a1a1a" d="M517.26874 243.64603L516.22186 243.64603L516.22186 236.92728Q515.83124 237.28665 515.20624 237.66165Q514.59686 238.02103 514.1125 238.1929L514.1125 237.17728Q514.9875 236.7554 515.64374 236.17728Q516.3156 235.58353 516.59686 235.02103L517.26874 235.02103L517.26874 243.64603ZM520.175 241.78665L521.20624 241.6304Q521.3 242.2554 521.6906 242.58353Q522.09686 242.91165 522.83124 242.91165Q523.55 242.91165 523.89374 242.6304Q524.2531 242.33353 524.2531 241.92728Q524.2531 241.5679 523.9406 241.36478Q523.72186 241.22415 522.8625 241.0054Q521.70624 240.70853 521.2531 240.5054Q520.8156 240.28665 520.58124 239.91165Q520.34686 239.53665 520.34686 239.0679Q520.34686 238.66165 520.53436 238.30228Q520.72186 237.9429 521.05 237.70853Q521.3 237.53665 521.72186 237.41165Q522.14374 237.28665 522.64374 237.28665Q523.3625 237.28665 523.90936 237.5054Q524.47186 237.70853 524.7375 238.0679Q525.0031 238.42728 525.09686 239.02103L524.0656 239.16165Q524.0031 238.6929 523.65936 238.42728Q523.33124 238.14603 522.70624 238.14603Q521.9875 238.14603 521.675 238.39603Q521.3625 238.6304 521.3625 238.95853Q521.3625 239.16165 521.4875 239.3179Q521.6281 239.48978 521.89374 239.59915Q522.05 239.66165 522.83124 239.86478Q523.95624 240.17728 524.39374 240.36478Q524.83124 240.55228 525.08124 240.91165Q525.33124 241.27103 525.33124 241.8179Q525.33124 242.34915 525.01874 242.8179Q524.72186 243.27103 524.14374 243.53665Q523.5656 243.78665 522.83124 243.78665Q521.6125 243.78665 520.97186 243.28665Q520.34686 242.77103 520.175 241.78665ZM529.89374 242.70853L530.05 243.6304Q529.59686 243.72415 529.2531 243.72415Q528.675 243.72415 528.3625 243.55228Q528.05 243.36478 527.90936 243.0679Q527.78436 242.77103 527.78436 241.8179L527.78436 238.23978L527.01874 238.23978L527.01874 237.42728L527.78436 237.42728L527.78436 235.8804L528.83124 235.2554L528.83124 237.42728L529.89374 237.42728L529.89374 238.23978L528.83124 238.23978L528.83124 241.8804Q528.83124 242.33353 528.8781 242.45853Q528.9406 242.58353 529.0656 242.66165Q529.1906 242.73978 529.425 242.73978Q529.6125 242.73978 529.89374 242.70853ZM532.8 242.2554L532.8 239.89603L530.47186 239.89603L530.47186 238.91165L532.8 238.91165L532.8 236.58353L533.8 236.58353L533.8 238.91165L536.14374 238.91165L536.14374 239.89603L533.8 239.89603L533.8 242.2554L532.8 242.2554ZM542.84686 242.6304L542.84686 243.64603L537.15936 243.64603Q537.15936 243.27103 537.28436 242.91165Q537.5031 242.33353 537.97186 241.77103Q538.45624 241.20853 539.3625 240.47415Q540.76874 239.3179 541.2531 238.64603Q541.7531 237.97415 541.7531 237.3804Q541.7531 236.7554 541.3 236.33353Q540.84686 235.89603 540.1281 235.89603Q539.3625 235.89603 538.90936 236.34915Q538.45624 236.80228 538.4406 237.61478L537.3625 237.5054Q537.47186 236.28665 538.1906 235.66165Q538.925 235.02103 540.15936 235.02103Q541.39374 235.02103 542.1125 235.70853Q542.83124 236.39603 542.83124 237.41165Q542.83124 237.92728 542.6125 238.42728Q542.40936 238.91165 541.90936 239.47415Q541.425 240.02103 540.3 240.97415Q539.34686 241.77103 539.0656 242.0679Q538.8 242.34915 538.6281 242.6304L542.84686 242.6304ZM544.59686 243.64603L544.59686 237.42728L545.53436 237.42728L545.53436 238.30228Q546.22186 237.28665 547.51874 237.28665Q548.08124 237.28665 548.55 237.48978Q549.03436 237.6929 549.26874 238.02103Q549.5031 238.34915 549.59686 238.78665Q549.64374 239.08353 549.64374 239.8179L549.64374 243.64603L548.59686 243.64603L548.59686 239.86478Q548.59686 239.20853 548.47186 238.89603Q548.34686 238.58353 548.03436 238.39603Q547.72186 238.1929 547.3 238.1929Q546.6281 238.1929 546.1281 238.6304Q545.64374 239.05228 545.64374 240.23978L545.64374 243.64603L544.59686 243.64603ZM555.6281 243.64603L555.6281 242.86478Q555.03436 243.78665 553.89374 243.78665Q553.14374 243.78665 552.51874 243.3804Q551.89374 242.95853 551.55 242.22415Q551.20624 241.48978 551.20624 240.53665Q551.20624 239.61478 551.51874 238.84915Q551.83124 238.08353 552.45624 237.6929Q553.08124 237.28665 553.84686 237.28665Q554.40936 237.28665 554.84686 237.52103Q555.28436 237.7554 555.5656 238.1304L555.5656 235.05228L556.6125 235.05228L556.6125 243.64603L555.6281 243.64603ZM552.3 240.53665Q552.3 241.73978 552.8 242.33353Q553.3 242.91165 553.9875 242.91165Q554.675 242.91165 555.15936 242.34915Q555.64374 241.78665 555.64374 240.6304Q555.64374 239.34915 555.14374 238.7554Q554.65936 238.16165 553.9406 238.16165Q553.2375 238.16165 552.76874 238.73978Q552.3 239.30228 552.3 240.53665ZM565.65936 242.8804Q565.0656 243.3804 564.51874 243.58353Q563.9875 243.78665 563.3625 243.78665Q562.33124 243.78665 561.78436 243.28665Q561.2375 242.78665 561.2375 242.0054Q561.2375 241.55228 561.4406 241.17728Q561.64374 240.78665 561.9875 240.5679Q562.33124 240.33353 562.7531 240.22415Q563.05 240.1304 563.6906 240.05228Q564.95624 239.91165 565.5656 239.6929Q565.5656 239.47415 565.5656 239.42728Q565.5656 238.77103 565.26874 238.5054Q564.8625 238.16165 564.0656 238.16165Q563.33124 238.16165 562.97186 238.42728Q562.6125 238.67728 562.4406 239.33353L561.40936 239.1929Q561.55 238.53665 561.8781 238.1304Q562.20624 237.72415 562.8156 237.5054Q563.425 237.28665 564.22186 237.28665Q565.01874 237.28665 565.51874 237.47415Q566.01874 237.66165 566.2531 237.9429Q566.4875 238.22415 566.58124 238.66165Q566.6281 238.92728 566.6281 239.6304L566.6281 241.03665Q566.6281 242.5054 566.6906 242.89603Q566.76874 243.28665 566.97186 243.64603L565.8625 243.64603Q565.70624 243.3179 565.65936 242.8804ZM565.5656 240.52103Q564.9875 240.7554 563.84686 240.92728Q563.1906 241.02103 562.925 241.14603Q562.65936 241.2554 562.5031 241.47415Q562.3625 241.6929 562.3625 241.97415Q562.3625 242.39603 562.675 242.67728Q563.0031 242.95853 563.6125 242.95853Q564.22186 242.95853 564.6906 242.6929Q565.175 242.42728 565.39374 241.95853Q565.5656 241.59915 565.5656 240.91165L565.5656 240.52103ZM572.675 243.64603L572.675 242.72415Q571.9406 243.78665 570.6906 243.78665Q570.14374 243.78665 569.65936 243.58353Q569.1906 243.36478 568.95624 243.05228Q568.72186 242.72415 568.6281 242.2554Q568.5656 241.95853 568.5656 241.27103L568.5656 237.42728L569.6281 237.42728L569.6281 240.8804Q569.6281 241.6929 569.6906 241.98978Q569.78436 242.39603 570.09686 242.64603Q570.425 242.8804 570.90936 242.8804Q571.3781 242.8804 571.78436 242.64603Q572.20624 242.39603 572.3781 241.97415Q572.5656 241.55228 572.5656 240.7554L572.5656 237.42728L573.6125 237.42728L573.6125 243.64603L572.675 243.64603ZM577.89374 242.70853L578.05 243.6304Q577.59686 243.72415 577.2531 243.72415Q576.675 243.72415 576.3625 243.55228Q576.05 243.36478 575.90936 243.0679Q575.78436 242.77103 575.78436 241.8179L575.78436 238.23978L575.01874 238.23978L575.01874 237.42728L575.78436 237.42728L575.78436 235.8804L576.83124 235.2554L576.83124 237.42728L577.89374 237.42728L577.89374 238.23978L576.83124 238.23978L576.83124 241.8804Q576.83124 242.33353 576.8781 242.45853Q576.9406 242.58353 577.0656 242.66165Q577.1906 242.73978 577.425 242.73978Q577.6125 242.73978 577.89374 242.70853ZM578.59686 243.64603L578.59686 235.05228L579.64374 235.05228L579.64374 238.1304Q580.3781 237.28665 581.5031 237.28665Q582.20624 237.28665 582.70624 237.5679Q583.22186 237.83353 583.4406 238.3179Q583.65936 238.78665 583.65936 239.70853L583.65936 243.64603L582.6125 243.64603L582.6125 239.70853Q582.6125 238.91165 582.26874 238.55228Q581.925 238.1929 581.3 238.1929Q580.83124 238.1929 580.40936 238.4429Q580.0031 238.67728 579.8156 239.09915Q579.64374 239.5054 579.64374 240.23978L579.64374 243.64603L578.59686 243.64603ZM585.20624 240.53665Q585.20624 238.80228 586.15936 237.97415Q586.95624 237.28665 588.1125 237.28665Q589.39374 237.28665 590.20624 238.1304Q591.03436 238.95853 591.03436 240.4429Q591.03436 241.64603 590.675 242.33353Q590.3156 243.02103 589.6125 243.41165Q588.925 243.78665 588.1125 243.78665Q586.8156 243.78665 586.0031 242.95853Q585.20624 242.11478 585.20624 240.53665ZM586.28436 240.53665Q586.28436 241.72415 586.8 242.3179Q587.33124 242.91165 588.1125 242.91165Q588.90936 242.91165 589.425 242.3179Q589.9406 241.72415 589.9406 240.5054Q589.9406 239.34915 589.40936 238.7554Q588.89374 238.16165 588.1125 238.16165Q587.33124 238.16165 586.8 238.7554Q586.28436 239.33353 586.28436 240.53665ZM592.58124 243.64603L592.58124 237.42728L593.53436 237.42728L593.53436 238.36478Q593.89374 237.70853 594.1906 237.5054Q594.5031 237.28665 594.8781 237.28665Q595.40936 237.28665 595.95624 237.61478L595.59686 238.59915Q595.20624 238.36478 594.83124 238.36478Q594.47186 238.36478 594.1906 238.58353Q593.925 238.78665 593.8156 239.16165Q593.6281 239.72415 593.6281 240.3804L593.6281 243.64603L592.58124 243.64603Z" fill-rule="nonzero"/><path fill="#9e9e9e" d="M566.76874 254.16165L565.72186 254.23978Q565.58124 253.61478 565.33124 253.33353Q564.89374 252.8804 564.26874 252.8804Q563.76874 252.8804 563.3781 253.16165Q562.89374 253.53665 562.59686 254.23978Q562.3156 254.92728 562.3 256.20853Q562.675 255.6304 563.22186 255.34915Q563.78436 255.0679 564.39374 255.0679Q565.4406 255.0679 566.175 255.84915Q566.925 256.6304 566.925 257.84915Q566.925 258.66165 566.5656 259.36478Q566.22186 260.05228 565.6125 260.42728Q565.0031 260.78665 564.2375 260.78665Q562.90936 260.78665 562.08124 259.8179Q561.2531 258.84915 561.2531 256.6304Q561.2531 254.1304 562.175 253.0054Q562.97186 252.02103 564.33124 252.02103Q565.34686 252.02103 565.9875 252.59915Q566.64374 253.16165 566.76874 254.16165ZM562.47186 257.86478Q562.47186 258.41165 562.6906 258.91165Q562.925 259.39603 563.33124 259.66165Q563.7531 259.92728 564.22186 259.92728Q564.8781 259.92728 565.3625 259.39603Q565.84686 258.84915 565.84686 257.92728Q565.84686 257.03665 565.3625 256.52103Q564.89374 256.0054 564.175 256.0054Q563.45624 256.0054 562.95624 256.52103Q562.47186 257.03665 562.47186 257.86478ZM572.26874 260.64603L571.22186 260.64603L571.22186 253.92728Q570.83124 254.28665 570.20624 254.66165Q569.59686 255.02103 569.1125 255.1929L569.1125 254.17728Q569.9875 253.7554 570.64374 253.17728Q571.3156 252.58353 571.59686 252.02103L572.26874 252.02103L572.26874 260.64603ZM575.89374 260.64603L575.89374 259.4429L577.09686 259.4429L577.09686 260.64603L575.89374 260.64603ZM582.26874 260.64603L581.22186 260.64603L581.22186 253.92728Q580.83124 254.28665 580.20624 254.66165Q579.59686 255.02103 579.1125 255.1929L579.1125 254.17728Q579.9875 253.7554 580.64374 253.17728Q581.3156 252.58353 581.59686 252.02103L582.26874 252.02103L582.26874 260.64603ZM585.5031 254.11478Q585.5031 253.1929 585.95624 252.55228Q586.425 251.91165 587.3 251.91165Q588.1125 251.91165 588.64374 252.48978Q589.175 253.0679 589.175 254.17728Q589.175 255.27103 588.6281 255.86478Q588.09686 256.4429 587.3156 256.4429Q586.53436 256.4429 586.01874 255.86478Q585.5031 255.28665 585.5031 254.11478ZM587.33124 252.6304Q586.9406 252.6304 586.675 252.97415Q586.425 253.3179 586.425 254.22415Q586.425 255.05228 586.675 255.39603Q586.9406 255.72415 587.33124 255.72415Q587.7375 255.72415 587.9875 255.3804Q588.2531 255.03665 588.2531 254.14603Q588.2531 253.30228 587.9875 252.97415Q587.72186 252.6304 587.33124 252.6304ZM587.33124 260.95853L592.03436 251.91165L592.89374 251.91165L588.20624 260.95853L587.33124 260.95853ZM591.05 258.6304Q591.05 257.70853 591.5031 257.0679Q591.97186 256.42728 592.8625 256.42728Q593.675 256.42728 594.20624 257.0054Q594.7375 257.5679 594.7375 258.6929Q594.7375 259.78665 594.1906 260.3804Q593.65936 260.95853 592.8625 260.95853Q592.09686 260.95853 591.5656 260.3804Q591.05 259.80228 591.05 258.6304ZM592.89374 257.14603Q592.4875 257.14603 592.22186 257.48978Q591.97186 257.83353 591.97186 258.73978Q591.97186 259.55228 592.2375 259.89603Q592.5031 260.23978 592.89374 260.23978Q593.28436 260.23978 593.55 259.89603Q593.8156 259.55228 593.8156 258.64603Q593.8156 257.8179 593.55 257.48978Q593.28436 257.14603 592.89374 257.14603Z" fill-rule="nonzero"/><path stroke="#757575" stroke-width="1.0" stroke-linecap="butt" d="M595.8 248.14603L486.3 248.14603L461.75995 248.14603" fill-rule="nonzero"/><path fill="#9e9e9e" d="M463.75995 248.14603C463.75995 247.04146 462.8645 246.14603 461.75995 246.14603C460.65536 246.14603 459.75995 247.04146 459.75995 248.14603C459.75995 249.2506 460.65536 250.14603 461.75995 250.14603C462.8645 250.14603 463.75995 249.2506 463.75995 248.14603" fill-rule="nonzero"/></svg>