<svg version="1.1" viewBox="0.0 0.0 615.0 384.0" fill="none" stroke="none" stroke-linecap="square" stroke-miterlimit="10" width="615" height="384" xmlns:xlink="http://www.w3.org/1999/xlink" xmlns="http://www.w3.org/2000/svg"><path fill="#ffffff" fill-opacity="0.0" d="M0 0L615.0 0L615.0 384.0L0 384.0L0 0Z" fill-rule="nonzero"/><path fill="#e06666" d="M307.5 19.2C399.03207 19.2 474.68555 90.57537 480.00766 181.95258C485.32977 273.32977 418.474 353.00537 327.56085 363.6316C236.6477 374.2578 153.21959 312.1479 137.32523 222.00641L179.86891 214.5048C191.7897 282.11093 254.36078 328.69336 322.54565 320.7237C390.7305 312.75403 440.8723 252.99733 436.88074 184.46443C432.88916 115.931526 376.14905 62.4 307.5 62.4Z" fill-rule="nonzero"/><path fill="#1a1a1a" d="M19.778126 77.79249Q19.778126 75.65186 20.91875 74.44874Q22.075 73.22999 23.8875 73.22999Q25.090626 73.22999 26.04375 73.80811Q26.996876 74.37061 27.496876 75.38624Q27.996876 76.40186 27.996876 77.69874Q27.996876 78.99561 27.465626 80.02686Q26.934376 81.05811 25.965626 81.58936Q25.0125 82.12061 23.8875 82.12061Q22.66875 82.12061 21.715626 81.54249Q20.7625 80.94874 20.2625 79.94874Q19.778126 78.93311 19.778126 77.79249ZM20.95 77.80811Q20.95 79.37061 21.778126 80.26124Q22.621876 81.15186 23.8875 81.15186Q25.16875 81.15186 25.996876 80.26124Q26.825 79.35499 26.825 77.68311Q26.825 76.63624 26.465626 75.85499Q26.121876 75.07374 25.434376 74.65186Q24.746876 74.21436 23.903126 74.21436Q22.7 74.21436 21.825 75.04249Q20.95 75.87061 20.95 77.80811ZM31.29375 81.04249L31.45 81.96436Q30.996876 82.05811 30.653126 82.05811Q30.075 82.05811 29.7625 81.88624Q29.45 81.69874 29.309376 81.40186Q29.184376 81.10499 29.184376 80.15186L29.184376 76.57374L28.41875 76.57374L28.41875 75.76124L29.184376 75.76124L29.184376 74.21436L30.23125 73.58936L30.23125 75.76124L31.29375 75.76124L31.29375 76.57374L30.23125 76.57374L30.23125 80.21436Q30.23125 80.66749 30.278126 80.79249Q30.340626 80.91749 30.465626 80.99561Q30.590626 81.07374 30.825 81.07374Q31.0125 81.07374 31.29375 81.04249ZM31.996876 81.97999L31.996876 73.38624L33.04375 73.38624L33.04375 76.46436Q33.778126 75.62061 34.903126 75.62061Q35.60625 75.62061 36.10625 75.90186Q36.621876 76.16749 36.840626 76.65186Q37.059376 77.12061 37.059376 78.04249L37.059376 81.97999L36.0125 81.97999L36.0125 78.04249Q36.0125 77.24561 35.66875 76.88624Q35.325 76.52686 34.7 76.52686Q34.23125 76.52686 33.809376 76.77686Q33.403126 77.01124 33.215626 77.43311Q33.04375 77.83936 33.04375 78.57374L33.04375 81.97999L31.996876 81.97999ZM43.246876 79.97999L44.340626 80.10499Q44.090626 81.05811 43.3875 81.58936Q42.684376 82.12061 41.60625 82.12061Q40.246876 82.12061 39.434376 81.27686Q38.6375 80.43311 38.6375 78.91749Q38.6375 77.35499 39.45 76.49561Q40.2625 75.62061 41.54375 75.62061Q42.79375 75.62061 43.575 76.46436Q44.371876 77.30811 44.371876 78.85499Q44.371876 78.94874 44.371876 79.13624L39.73125 79.13624Q39.79375 80.16749 40.309376 80.71436Q40.825 81.24561 41.60625 81.24561Q42.184376 81.24561 42.590626 80.94874Q43.0125 80.63624 43.246876 79.97999ZM39.79375 78.27686L43.2625 78.27686Q43.2 77.47999 42.871876 77.08936Q42.35625 76.47999 41.559376 76.47999Q40.825 76.47999 40.325 76.96436Q39.840626 77.44874 39.79375 78.27686ZM45.98125 81.97999L45.98125 75.76124L46.934376 75.76124L46.934376 76.69874Q47.29375 76.04249 47.590626 75.83936Q47.903126 75.62061 48.278126 75.62061Q48.809376 75.62061 49.35625 75.94874L48.996876 76.93311Q48.60625 76.69874 48.23125 76.69874Q47.871876 76.69874 47.590626 76.91749Q47.325 77.12061 47.215626 77.49561Q47.028126 78.05811 47.028126 78.71436L47.028126 81.97999L45.98125 81.97999Z" fill-rule="nonzero"/><path fill="#9e9e9e" d="M25.246876 97.96436L25.246876 98.97999L19.559376 98.97999Q19.559376 98.60499 19.684376 98.24561Q19.903126 97.66749 20.371876 97.10499Q20.85625 96.54249 21.7625 95.80811Q23.16875 94.65186 23.653126 93.97999Q24.153126 93.30811 24.153126 92.71436Q24.153126 92.08936 23.7 91.66749Q23.246876 91.22999 22.528126 91.22999Q21.7625 91.22999 21.309376 91.68311Q20.85625 92.13624 20.840626 92.94874L19.7625 92.83936Q19.871876 91.62061 20.590626 90.99561Q21.325 90.35499 22.559376 90.35499Q23.79375 90.35499 24.5125 91.04249Q25.23125 91.72999 25.23125 92.74561Q25.23125 93.26124 25.0125 93.76124Q24.809376 94.24561 24.309376 94.80811Q23.825 95.35499 22.7 96.30811Q21.746876 97.10499 21.465626 97.40186Q21.2 97.68311 21.028126 97.96436L25.246876 97.96436ZM26.7625 91.51124L26.7625 90.49561L32.325 90.49561L32.325 91.32374Q31.5125 92.19874 30.7 93.65186Q29.903126 95.08936 29.465626 96.62061Q29.1375 97.69874 29.059376 98.97999L27.965626 98.97999Q27.98125 97.96436 28.35625 96.52686Q28.746876 95.08936 29.45 93.76124Q30.16875 92.43311 30.98125 91.51124L26.7625 91.51124ZM34.29375 98.97999L34.29375 97.77686L35.496876 97.77686L35.496876 98.97999L34.29375 98.97999ZM38.325 94.32374Q37.66875 94.07374 37.340626 93.63624Q37.028126 93.18311 37.028126 92.57374Q37.028126 91.63624 37.7 90.99561Q38.3875 90.35499 39.496876 90.35499Q40.621876 90.35499 41.309376 91.01124Q41.996876 91.66749 41.996876 92.60499Q41.996876 93.19874 41.684376 93.63624Q41.371876 94.07374 40.73125 94.32374Q41.528126 94.57374 41.934376 95.15186Q42.340626 95.72999 42.340626 96.52686Q42.340626 97.62061 41.559376 98.37061Q40.79375 99.12061 39.5125 99.12061Q38.246876 99.12061 37.465626 98.37061Q36.684376 97.62061 36.684376 96.49561Q36.684376 95.65186 37.10625 95.08936Q37.54375 94.52686 38.325 94.32374ZM38.10625 92.52686Q38.10625 93.13624 38.496876 93.52686Q38.903126 93.91749 39.528126 93.91749Q40.1375 93.91749 40.528126 93.54249Q40.91875 93.15186 40.91875 92.58936Q40.91875 92.01124 40.5125 91.62061Q40.10625 91.21436 39.5125 91.21436Q38.903126 91.21436 38.496876 91.60499Q38.10625 91.99561 38.10625 92.52686ZM37.778126 96.49561Q37.778126 96.94874 37.98125 97.37061Q38.2 97.79249 38.621876 98.02686Q39.04375 98.26124 39.528126 98.26124Q40.278126 98.26124 40.7625 97.77686Q41.2625 97.29249 41.2625 96.54249Q41.2625 95.77686 40.7625 95.27686Q40.2625 94.77686 39.496876 94.77686Q38.746876 94.77686 38.2625 95.27686Q37.778126 95.76124 37.778126 96.49561ZM43.903126 92.44874Q43.903126 91.52686 44.35625 90.88624Q44.825 90.24561 45.7 90.24561Q46.5125 90.24561 47.04375 90.82374Q47.575 91.40186 47.575 92.51124Q47.575 93.60499 47.028126 94.19874Q46.496876 94.77686 45.715626 94.77686Q44.934376 94.77686 44.41875 94.19874Q43.903126 93.62061 43.903126 92.44874ZM45.73125 90.96436Q45.340626 90.96436 45.075 91.30811Q44.825 91.65186 44.825 92.55811Q44.825 93.38624 45.075 93.72999Q45.340626 94.05811 45.73125 94.05811Q46.1375 94.05811 46.3875 93.71436Q46.653126 93.37061 46.653126 92.47999Q46.653126 91.63624 46.3875 91.30811Q46.121876 90.96436 45.73125 90.96436ZM45.73125 99.29249L50.434376 90.24561L51.29375 90.24561L46.60625 99.29249L45.73125 99.29249ZM49.45 96.96436Q49.45 96.04249 49.903126 95.40186Q50.371876 94.76124 51.2625 94.76124Q52.075 94.76124 52.60625 95.33936Q53.1375 95.90186 53.1375 97.02686Q53.1375 98.12061 52.590626 98.71436Q52.059376 99.29249 51.2625 99.29249Q50.496876 99.29249 49.965626 98.71436Q49.45 98.13624 49.45 96.96436ZM51.29375 95.47999Q50.8875 95.47999 50.621876 95.82374Q50.371876 96.16749 50.371876 97.07374Q50.371876 97.88624 50.6375 98.22999Q50.903126 98.57374 51.29375 98.57374Q51.684376 98.57374 51.95 98.22999Q52.215626 97.88624 52.215626 96.97999Q52.215626 96.15186 51.95 95.82374Q51.684376 95.47999 51.29375 95.47999Z" fill-rule="nonzero"/><path stroke="#757575" stroke-width="1.0" stroke-linecap="butt" d="M19.2 86.47999L128.7 86.47999L181.74614 86.47999" fill-rule="nonzero"/><path fill="#9e9e9e" d="M183.74614 86.47999C183.74614 85.37542 182.85071 84.47999 181.74614 84.47999C180.64157 84.47999 179.74614 85.37542 179.74614 86.47999C179.74614 87.58456 180.64157 88.47999 181.74614 88.47999C182.85071 88.47999 183.74614 87.58456 183.74614 86.47999" fill-rule="nonzero"/><path fill="#1a1a1a" d="M492.26874 293.02002L491.22186 293.02002L491.22186 286.30127Q490.83124 286.66064 490.20624 287.03564Q489.59686 287.39502 489.1125 287.5669L489.1125 286.55127Q489.9875 286.1294 490.64374 285.55127Q491.3156 284.95752 491.59686 284.39502L492.26874 284.39502L492.26874 293.02002ZM495.175 291.16064L496.20624 291.0044Q496.3 291.6294 496.6906 291.95752Q497.09686 292.28564 497.83124 292.28564Q498.55 292.28564 498.89374 292.0044Q499.2531 291.70752 499.2531 291.30127Q499.2531 290.9419 498.9406 290.73877Q498.72186 290.59814 497.8625 290.3794Q496.70624 290.08252 496.2531 289.8794Q495.8156 289.66064 495.58124 289.28564Q495.34686 288.91064 495.34686 288.4419Q495.34686 288.03564 495.53436 287.67627Q495.72186 287.3169 496.05 287.08252Q496.3 286.91064 496.72186 286.78564Q497.14374 286.66064 497.64374 286.66064Q498.3625 286.66064 498.90936 286.8794Q499.47186 287.08252 499.7375 287.4419Q500.0031 287.80127 500.09686 288.39502L499.0656 288.53564Q499.0031 288.0669 498.65936 287.80127Q498.33124 287.52002 497.70624 287.52002Q496.9875 287.52002 496.675 287.77002Q496.3625 288.0044 496.3625 288.33252Q496.3625 288.53564 496.4875 288.6919Q496.6281 288.86377 496.89374 288.97314Q497.05 289.03564 497.83124 289.23877Q498.95624 289.55127 499.39374 289.73877Q499.83124 289.92627 500.08124 290.28564Q500.33124 290.64502 500.33124 291.1919Q500.33124 291.72314 500.01874 292.1919Q499.72186 292.64502 499.14374 292.91064Q498.5656 293.16064 497.83124 293.16064Q496.6125 293.16064 495.97186 292.66064Q495.34686 292.14502 495.175 291.16064ZM504.89374 292.08252L505.05 293.0044Q504.59686 293.09814 504.2531 293.09814Q503.675 293.09814 503.3625 292.92627Q503.05 292.73877 502.90936 292.4419Q502.78436 292.14502 502.78436 291.1919L502.78436 287.61377L502.01874 287.61377L502.01874 286.80127L502.78436 286.80127L502.78436 285.2544L503.83124 284.6294L503.83124 286.80127L504.89374 286.80127L504.89374 287.61377L503.83124 287.61377L503.83124 291.2544Q503.83124 291.70752 503.8781 291.83252Q503.9406 291.95752 504.0656 292.03564Q504.1906 292.11377 504.425 292.11377Q504.6125 292.11377 504.89374 292.08252ZM507.8 291.6294L507.8 289.27002L505.47186 289.27002L505.47186 288.28564L507.8 288.28564L507.8 285.95752L508.8 285.95752L508.8 288.28564L511.14374 288.28564L511.14374 289.27002L508.8 289.27002L508.8 291.6294L507.8 291.6294ZM517.84686 292.0044L517.84686 293.02002L512.15936 293.02002Q512.15936 292.64502 512.28436 292.28564Q512.5031 291.70752 512.97186 291.14502Q513.45624 290.58252 514.3625 289.84814Q515.76874 288.6919 516.2531 288.02002Q516.7531 287.34814 516.7531 286.7544Q516.7531 286.1294 516.3 285.70752Q515.84686 285.27002 515.1281 285.27002Q514.3625 285.27002 513.90936 285.72314Q513.45624 286.17627 513.4406 286.98877L512.3625 286.8794Q512.47186 285.66064 513.1906 285.03564Q513.925 284.39502 515.15936 284.39502Q516.39374 284.39502 517.1125 285.08252Q517.83124 285.77002 517.83124 286.78564Q517.83124 287.30127 517.6125 287.80127Q517.40936 288.28564 516.90936 288.84814Q516.425 289.39502 515.3 290.34814Q514.34686 291.14502 514.0656 291.4419Q513.8 291.72314 513.6281 292.0044L517.84686 292.0044ZM519.59686 293.02002L519.59686 286.80127L520.53436 286.80127L520.53436 287.67627Q521.22186 286.66064 522.51874 286.66064Q523.08124 286.66064 523.55 286.86377Q524.03436 287.0669 524.26874 287.39502Q524.5031 287.72314 524.59686 288.16064Q524.64374 288.45752 524.64374 289.1919L524.64374 293.02002L523.59686 293.02002L523.59686 289.23877Q523.59686 288.58252 523.47186 288.27002Q523.34686 287.95752 523.03436 287.77002Q522.72186 287.5669 522.3 287.5669Q521.6281 287.5669 521.1281 288.0044Q520.64374 288.42627 520.64374 289.61377L520.64374 293.02002L519.59686 293.02002ZM530.6281 293.02002L530.6281 292.23877Q530.03436 293.16064 528.89374 293.16064Q528.14374 293.16064 527.51874 292.7544Q526.89374 292.33252 526.55 291.59814Q526.20624 290.86377 526.20624 289.91064Q526.20624 288.98877 526.51874 288.22314Q526.83124 287.45752 527.45624 287.0669Q528.08124 286.66064 528.84686 286.66064Q529.40936 286.66064 529.84686 286.89502Q530.28436 287.1294 530.5656 287.5044L530.5656 284.42627L531.6125 284.42627L531.6125 293.02002L530.6281 293.02002ZM527.3 289.91064Q527.3 291.11377 527.8 291.70752Q528.3 292.28564 528.9875 292.28564Q529.675 292.28564 530.15936 291.72314Q530.64374 291.16064 530.64374 290.0044Q530.64374 288.72314 530.14374 288.1294Q529.65936 287.53564 528.9406 287.53564Q528.2375 287.53564 527.76874 288.11377Q527.3 288.67627 527.3 289.91064ZM535.8 291.6294L535.8 289.27002L533.47186 289.27002L533.47186 288.28564L535.8 288.28564L535.8 285.95752L536.8 285.95752L536.8 288.28564L539.14374 288.28564L539.14374 289.27002L536.8 289.27002L536.8 291.6294L535.8 291.6294ZM540.3 290.7544L541.3625 290.61377Q541.53436 291.5044 541.97186 291.91064Q542.40936 292.30127 543.03436 292.30127Q543.78436 292.30127 544.3 291.78564Q544.8156 291.27002 544.8156 290.5044Q544.8156 289.78564 544.33124 289.3169Q543.8625 288.83252 543.1281 288.83252Q542.83124 288.83252 542.3781 288.95752L542.5031 288.02002Q542.6125 288.03564 542.675 288.03564Q543.34686 288.03564 543.8781 287.6919Q544.425 287.33252 544.425 286.59814Q544.425 286.02002 544.03436 285.64502Q543.64374 285.2544 543.01874 285.2544Q542.40936 285.2544 541.9875 285.64502Q541.58124 286.03564 541.47186 286.80127L540.40936 286.61377Q540.59686 285.5669 541.28436 284.98877Q541.97186 284.39502 542.9875 284.39502Q543.6906 284.39502 544.28436 284.70752Q544.8781 285.0044 545.1906 285.52002Q545.5031 286.03564 545.5031 286.6294Q545.5031 287.17627 545.20624 287.64502Q544.90936 288.09814 544.33124 288.36377Q545.08124 288.53564 545.5031 289.09814Q545.925 289.64502 545.925 290.48877Q545.925 291.61377 545.09686 292.39502Q544.28436 293.17627 543.03436 293.17627Q541.90936 293.17627 541.15936 292.5044Q540.40936 291.8169 540.3 290.7544ZM547.58124 293.02002L547.58124 286.80127L548.53436 286.80127L548.53436 287.73877Q548.89374 287.08252 549.1906 286.8794Q549.5031 286.66064 549.8781 286.66064Q550.40936 286.66064 550.95624 286.98877L550.59686 287.97314Q550.20624 287.73877 549.83124 287.73877Q549.47186 287.73877 549.1906 287.95752Q548.925 288.16064 548.8156 288.53564Q548.6281 289.09814 548.6281 289.7544L548.6281 293.02002L547.58124 293.02002ZM555.6281 293.02002L555.6281 292.23877Q555.03436 293.16064 553.89374 293.16064Q553.14374 293.16064 552.51874 292.7544Q551.89374 292.33252 551.55 291.59814Q551.20624 290.86377 551.20624 289.91064Q551.20624 288.98877 551.51874 288.22314Q551.83124 287.45752 552.45624 287.0669Q553.08124 286.66064 553.84686 286.66064Q554.40936 286.66064 554.84686 286.89502Q555.28436 287.1294 555.5656 287.5044L555.5656 284.42627L556.6125 284.42627L556.6125 293.02002L555.6281 293.02002ZM552.3 289.91064Q552.3 291.11377 552.8 291.70752Q553.3 292.28564 553.9875 292.28564Q554.675 292.28564 555.15936 291.72314Q555.64374 291.16064 555.64374 290.0044Q555.64374 288.72314 555.14374 288.1294Q554.65936 287.53564 553.9406 287.53564Q553.2375 287.53564 552.76874 288.11377Q552.3 288.67627 552.3 289.91064ZM565.65936 292.2544Q565.0656 292.7544 564.51874 292.95752Q563.9875 293.16064 563.3625 293.16064Q562.33124 293.16064 561.78436 292.66064Q561.2375 292.16064 561.2375 291.3794Q561.2375 290.92627 561.4406 290.55127Q561.64374 290.16064 561.9875 289.9419Q562.33124 289.70752 562.7531 289.59814Q563.05 289.5044 563.6906 289.42627Q564.95624 289.28564 565.5656 289.0669Q565.5656 288.84814 565.5656 288.80127Q565.5656 288.14502 565.26874 287.8794Q564.8625 287.53564 564.0656 287.53564Q563.33124 287.53564 562.97186 287.80127Q562.6125 288.05127 562.4406 288.70752L561.40936 288.5669Q561.55 287.91064 561.8781 287.5044Q562.20624 287.09814 562.8156 286.8794Q563.425 286.66064 564.22186 286.66064Q565.01874 286.66064 565.51874 286.84814Q566.01874 287.03564 566.2531 287.3169Q566.4875 287.59814 566.58124 288.03564Q566.6281 288.30127 566.6281 289.0044L566.6281 290.41064Q566.6281 291.8794 566.6906 292.27002Q566.76874 292.66064 566.97186 293.02002L565.8625 293.02002Q565.70624 292.6919 565.65936 292.2544ZM565.5656 289.89502Q564.9875 290.1294 563.84686 290.30127Q563.1906 290.39502 562.925 290.52002Q562.65936 290.6294 562.5031 290.84814Q562.3625 291.0669 562.3625 291.34814Q562.3625 291.77002 562.675 292.05127Q563.0031 292.33252 563.6125 292.33252Q564.22186 292.33252 564.6906 292.0669Q565.175 291.80127 565.39374 291.33252Q565.5656 290.97314 565.5656 290.28564L565.5656 289.89502ZM572.675 293.02002L572.675 292.09814Q571.9406 293.16064 570.6906 293.16064Q570.14374 293.16064 569.65936 292.95752Q569.1906 292.73877 568.95624 292.42627Q568.72186 292.09814 568.6281 291.6294Q568.5656 291.33252 568.5656 290.64502L568.5656 286.80127L569.6281 286.80127L569.6281 290.2544Q569.6281 291.0669 569.6906 291.36377Q569.78436 291.77002 570.09686 292.02002Q570.425 292.2544 570.90936 292.2544Q571.3781 292.2544 571.78436 292.02002Q572.20624 291.77002 572.3781 291.34814Q572.5656 290.92627 572.5656 290.1294L572.5656 286.80127L573.6125 286.80127L573.6125 293.02002L572.675 293.02002ZM577.89374 292.08252L578.05 293.0044Q577.59686 293.09814 577.2531 293.09814Q576.675 293.09814 576.3625 292.92627Q576.05 292.73877 575.90936 292.4419Q575.78436 292.14502 575.78436 291.1919L575.78436 287.61377L575.01874 287.61377L575.01874 286.80127L575.78436 286.80127L575.78436 285.2544L576.83124 284.6294L576.83124 286.80127L577.89374 286.80127L577.89374 287.61377L576.83124 287.61377L576.83124 291.2544Q576.83124 291.70752 576.8781 291.83252Q576.9406 291.95752 577.0656 292.03564Q577.1906 292.11377 577.425 292.11377Q577.6125 292.11377 577.89374 292.08252ZM578.59686 293.02002L578.59686 284.42627L579.64374 284.42627L579.64374 287.5044Q580.3781 286.66064 581.5031 286.66064Q582.20624 286.66064 582.70624 286.9419Q583.22186 287.20752 583.4406 287.6919Q583.65936 288.16064 583.65936 289.08252L583.65936 293.02002L582.6125 293.02002L582.6125 289.08252Q582.6125 288.28564 582.26874 287.92627Q581.925 287.5669 581.3 287.5669Q580.83124 287.5669 580.40936 287.8169Q580.0031 288.05127 579.8156 288.47314Q579.64374 288.8794 579.64374 289.61377L579.64374 293.02002L578.59686 293.02002ZM585.20624 289.91064Q585.20624 288.17627 586.15936 287.34814Q586.95624 286.66064 588.1125 286.66064Q589.39374 286.66064 590.20624 287.5044Q591.03436 288.33252 591.03436 289.8169Q591.03436 291.02002 590.675 291.70752Q590.3156 292.39502 589.6125 292.78564Q588.925 293.16064 588.1125 293.16064Q586.8156 293.16064 586.0031 292.33252Q585.20624 291.48877 585.20624 289.91064ZM586.28436 289.91064Q586.28436 291.09814 586.8 291.6919Q587.33124 292.28564 588.1125 292.28564Q588.90936 292.28564 589.425 291.6919Q589.9406 291.09814 589.9406 289.8794Q589.9406 288.72314 589.40936 288.1294Q588.89374 287.53564 588.1125 287.53564Q587.33124 287.53564 586.8 288.1294Q586.28436 288.70752 586.28436 289.91064ZM592.58124 293.02002L592.58124 286.80127L593.53436 286.80127L593.53436 287.73877Q593.89374 287.08252 594.1906 286.8794Q594.5031 286.66064 594.8781 286.66064Q595.40936 286.66064 595.95624 286.98877L595.59686 287.97314Q595.20624 287.73877 594.83124 287.73877Q594.47186 287.73877 594.1906 287.95752Q593.925 288.16064 593.8156 288.53564Q593.6281 289.09814 593.6281 289.7544L593.6281 293.02002L592.58124 293.02002Z" fill-rule="nonzero"/><path fill="#9e9e9e" d="M561.3625 302.55127L561.3625 301.53564L566.925 301.53564L566.925 302.36377Q566.1125 303.23877 565.3 304.6919Q564.5031 306.1294 564.0656 307.66064Q563.7375 308.73877 563.65936 310.02002L562.5656 310.02002Q562.58124 309.0044 562.95624 307.5669Q563.34686 306.1294 564.05 304.80127Q564.76874 303.47314 565.58124 302.55127L561.3625 302.55127ZM573.84686 309.0044L573.84686 310.02002L568.15936 310.02002Q568.15936 309.64502 568.28436 309.28564Q568.5031 308.70752 568.97186 308.14502Q569.45624 307.58252 570.3625 306.84814Q571.76874 305.6919 572.2531 305.02002Q572.7531 304.34814 572.7531 303.7544Q572.7531 303.1294 572.3 302.70752Q571.84686 302.27002 571.1281 302.27002Q570.3625 302.27002 569.90936 302.72314Q569.45624 303.17627 569.4406 303.98877L568.3625 303.8794Q568.47186 302.66064 569.1906 302.03564Q569.925 301.39502 571.15936 301.39502Q572.39374 301.39502 573.1125 302.08252Q573.83124 302.77002 573.83124 303.78564Q573.83124 304.30127 573.6125 304.80127Q573.40936 305.28564 572.90936 305.84814Q572.425 306.39502 571.3 307.34814Q570.34686 308.14502 570.0656 308.4419Q569.8 308.72314 569.6281 309.0044L573.84686 309.0044ZM575.89374 310.02002L575.89374 308.8169L577.09686 308.8169L577.09686 310.02002L575.89374 310.02002ZM583.84686 309.0044L583.84686 310.02002L578.15936 310.02002Q578.15936 309.64502 578.28436 309.28564Q578.5031 308.70752 578.97186 308.14502Q579.45624 307.58252 580.3625 306.84814Q581.76874 305.6919 582.2531 305.02002Q582.7531 304.34814 582.7531 303.7544Q582.7531 303.1294 582.3 302.70752Q581.84686 302.27002 581.1281 302.27002Q580.3625 302.27002 579.90936 302.72314Q579.45624 303.17627 579.4406 303.98877L578.3625 303.8794Q578.47186 302.66064 579.1906 302.03564Q579.925 301.39502 581.15936 301.39502Q582.39374 301.39502 583.1125 302.08252Q583.83124 302.77002 583.83124 303.78564Q583.83124 304.30127 583.6125 304.80127Q583.40936 305.28564 582.90936 305.84814Q582.425 306.39502 581.3 307.34814Q580.34686 308.14502 580.0656 308.4419Q579.8 308.72314 579.6281 309.0044L583.84686 309.0044ZM585.5031 303.48877Q585.5031 302.5669 585.95624 301.92627Q586.425 301.28564 587.3 301.28564Q588.1125 301.28564 588.64374 301.86377Q589.175 302.4419 589.175 303.55127Q589.175 304.64502 588.6281 305.23877Q588.09686 305.8169 587.3156 305.8169Q586.53436 305.8169 586.01874 305.23877Q585.5031 304.66064 585.5031 303.48877ZM587.33124 302.0044Q586.9406 302.0044 586.675 302.34814Q586.425 302.6919 586.425 303.59814Q586.425 304.42627 586.675 304.77002Q586.9406 305.09814 587.33124 305.09814Q587.7375 305.09814 587.9875 304.7544Q588.2531 304.41064 588.2531 303.52002Q588.2531 302.67627 587.9875 302.34814Q587.72186 302.0044 587.33124 302.0044ZM587.33124 310.33252L592.03436 301.28564L592.89374 301.28564L588.20624 310.33252L587.33124 310.33252ZM591.05 308.0044Q591.05 307.08252 591.5031 306.4419Q591.97186 305.80127 592.8625 305.80127Q593.675 305.80127 594.20624 306.3794Q594.7375 306.9419 594.7375 308.0669Q594.7375 309.16064 594.1906 309.7544Q593.65936 310.33252 592.8625 310.33252Q592.09686 310.33252 591.5656 309.7544Q591.05 309.17627 591.05 308.0044ZM592.89374 306.52002Q592.4875 306.52002 592.22186 306.86377Q591.97186 307.20752 591.97186 308.11377Q591.97186 308.92627 592.2375 309.27002Q592.5031 309.61377 592.89374 309.61377Q593.28436 309.61377 593.55 309.27002Q593.8156 308.92627 593.8156 308.02002Q593.8156 307.1919 593.55 306.86377Q593.28436 306.52002 592.89374 306.52002Z" fill-rule="nonzero"/><path stroke="#757575" stroke-width="1.0" stroke-linecap="butt" d="M595.8 297.52002L486.3 297.52002L433.25385 297.52002" fill-rule="nonzero"/><path fill="#9e9e9e" d="M435.25385 297.52002C435.25385 296.41544 434.35843 295.52002 433.25385 295.52002C432.1493 295.52002 431.25385 296.41544 431.25385 297.52002C431.25385 298.62457 432.1493 299.52002 433.25385 299.52002C434.35843 299.52002 435.25385 298.62457 435.25385 297.52002" fill-rule="nonzero"/></svg>