<?xml version="1.0" encoding="UTF-8" standalone="no"?>
<svg
   version="1.1"
   viewBox="0 0 500 384"
   fill="none"
   stroke="none"
   stroke-linecap="square"
   stroke-miterlimit="10"
   width="500"
   height="384"
   id="svg10"
   xml:space="preserve"
   xmlns="http://www.w3.org/2000/svg"
   xmlns:svg="http://www.w3.org/2000/svg"><defs
     id="defs10" /><g
     id="layer1"
     style="display:none"><path
       fill="#1a1a1a"
       d="m 389.99064,293.01305 h -1.04688 v -6.71875 q -0.39062,0.35937 -1.01562,0.73437 -0.60938,0.35938 -1.09374,0.53126 v -1.01563 q 0.875,-0.42187 1.53124,-1 0.67186,-0.59375 0.95312,-1.15625 h 0.67188 z m 2.90626,-1.85938 1.03124,-0.15624 q 0.0938,0.625 0.48436,0.95312 0.40626,0.32812 1.14064,0.32812 0.71876,0 1.0625,-0.28124 0.35936,-0.29688 0.35936,-0.70313 0,-0.35937 -0.3125,-0.5625 -0.21874,-0.14063 -1.0781,-0.35937 -1.15626,-0.29688 -1.6094,-0.5 -0.4375,-0.21876 -0.67186,-0.59376 -0.23438,-0.375 -0.23438,-0.84374 0,-0.40626 0.1875,-0.76563 0.1875,-0.35937 0.51564,-0.59375 0.25,-0.17188 0.67186,-0.29688 0.42188,-0.125 0.92188,-0.125 0.71876,0 1.26562,0.21876 0.5625,0.20312 0.82814,0.5625 0.2656,0.35937 0.35936,0.95312 l -1.03126,0.14062 q -0.0625,-0.46874 -0.40624,-0.73437 -0.32812,-0.28125 -0.95312,-0.28125 -0.71874,0 -1.03124,0.25 -0.3125,0.23438 -0.3125,0.5625 0,0.20312 0.125,0.35938 0.1406,0.17187 0.40624,0.28124 0.15626,0.0625 0.9375,0.26563 1.125,0.3125 1.5625,0.5 0.4375,0.1875 0.6875,0.54687 0.25,0.35938 0.25,0.90626 0,0.53124 -0.3125,1 -0.29688,0.45312 -0.875,0.71874 -0.57814,0.25 -1.3125,0.25 -1.21874,0 -1.85938,-0.5 -0.625,-0.51562 -0.79686,-1.5 z m 9.71874,0.92188 0.15626,0.92188 q -0.45314,0.0937 -0.7969,0.0937 -0.5781,0 -0.8906,-0.17187 -0.3125,-0.1875 -0.45314,-0.48437 -0.125,-0.29688 -0.125,-1.25 v -3.57813 h -0.76562 v -0.8125 h 0.76562 v -1.54687 l 1.04688,-0.625 v 2.17187 h 1.0625 v 0.8125 h -1.0625 v 3.64063 q 0,0.45312 0.0469,0.57812 0.0625,0.125 0.1875,0.20312 0.125,0.0781 0.3594,0.0781 0.1875,0 0.46874,-0.0312 z m 2.90626,-0.45312 v -2.35938 h -2.32814 v -0.98438 h 2.32814 v -2.32812 h 1 v 2.32812 h 2.34374 v 0.98438 h -2.34374 v 2.35938 z m 10.04686,0.375 v 1.01562 h -5.6875 q 0,-0.375 0.125,-0.73438 0.21874,-0.57812 0.6875,-1.14062 0.48438,-0.5625 1.39064,-1.29688 1.40624,-1.15624 1.8906,-1.82812 0.5,-0.67188 0.5,-1.26562 0,-0.625 -0.4531,-1.04688 -0.45314,-0.4375 -1.1719,-0.4375 -0.7656,0 -1.21874,0.45312 -0.45312,0.45313 -0.46876,1.26563 l -1.0781,-0.10937 q 0.10936,-1.21876 0.8281,-1.84376 0.7344,-0.64062 1.96876,-0.64062 1.23438,0 1.95314,0.6875 0.71874,0.6875 0.71874,1.70312 0,0.51563 -0.21874,1.01563 -0.20314,0.48437 -0.70314,1.04687 -0.48436,0.54688 -1.60936,1.5 -0.95314,0.79688 -1.2344,1.09376 -0.2656,0.28124 -0.4375,0.5625 z m 1.75,1.01562 v -6.21875 h 0.9375 v 0.875 q 0.6875,-1.01563 1.98438,-1.01563 0.5625,0 1.03126,0.20313 0.48436,0.20313 0.71874,0.53125 0.23436,0.32812 0.32812,0.76562 0.0469,0.29688 0.0469,1.03126 v 3.82812 h -1.04688 v -3.78125 q 0,-0.65625 -0.125,-0.96875 -0.125,-0.3125 -0.4375,-0.5 -0.3125,-0.20312 -0.73436,-0.20312 -0.6719,0 -1.1719,0.4375 -0.48436,0.42187 -0.48436,1.60937 v 3.40625 z m 11.03124,0 v -0.78125 q -0.59374,0.92187 -1.73436,0.92187 -0.75,0 -1.375,-0.40624 -0.625,-0.42188 -0.96874,-1.15626 -0.34376,-0.73437 -0.34376,-1.6875 0,-0.92187 0.3125,-1.6875 0.3125,-0.76562 0.9375,-1.15624 0.625,-0.40626 1.39062,-0.40626 0.5625,0 1,0.23438 0.4375,0.23438 0.71874,0.60938 v -3.07813 h 1.0469 v 8.59375 z m -3.3281,-3.10938 q 0,1.20313 0.5,1.79688 0.5,0.57812 1.1875,0.57812 0.6875,0 1.17186,-0.5625 0.48438,-0.5625 0.48438,-1.71874 0,-1.28126 -0.5,-1.875 -0.48438,-0.59376 -1.20314,-0.59376 -0.7031,0 -1.17186,0.57813 -0.46874,0.5625 -0.46874,1.79687 z m 8.5,1.71876 v -2.35938 h -2.32814 v -0.98438 h 2.32814 v -2.32812 h 1 v 2.32812 h 2.34374 v 0.98438 h -2.34374 v 2.35938 z m 4.5,-0.875 1.0625,-0.14063 q 0.17186,0.89063 0.60936,1.29687 0.4375,0.39063 1.0625,0.39063 0.75,0 1.26564,-0.51563 0.5156,-0.51562 0.5156,-1.28124 0,-0.71876 -0.48436,-1.1875 -0.46874,-0.48438 -1.20314,-0.48438 -0.29686,0 -0.75,0.125 l 0.125,-0.9375 q 0.1094,0.0156 0.1719,0.0156 0.67186,0 1.2031,-0.34374 0.5469,-0.35938 0.5469,-1.09376 0,-0.57812 -0.39064,-0.95312 -0.39062,-0.39062 -1.01562,-0.39062 -0.60938,0 -1.03124,0.39062 -0.40626,0.39062 -0.51564,1.15625 l -1.0625,-0.1875 q 0.1875,-1.04687 0.875,-1.625 0.6875,-0.59375 1.70314,-0.59375 0.7031,0 1.29686,0.3125 0.59374,0.29688 0.90624,0.8125 0.3125,0.51562 0.3125,1.10938 0,0.54687 -0.29686,1.01562 -0.29688,0.45312 -0.875,0.71875 0.75,0.17187 1.17186,0.73437 0.4219,0.54688 0.4219,1.39063 0,1.125 -0.82814,1.90625 -0.8125,0.78125 -2.0625,0.78125 -1.125,0 -1.875,-0.67187 -0.75,-0.6875 -0.85936,-1.75 z m 7.28124,2.26562 v -6.21875 h 0.95312 v 0.9375 q 0.35938,-0.65625 0.65624,-0.85937 0.3125,-0.21876 0.6875,-0.21876 0.53126,0 1.07814,0.32813 l -0.35938,0.98437 q -0.39062,-0.23437 -0.76562,-0.23437 -0.35938,0 -0.64064,0.21875 -0.2656,0.20312 -0.375,0.57812 -0.1875,0.5625 -0.1875,1.21876 v 3.26562 z m 8.04686,0 v -0.78125 q -0.59374,0.92187 -1.73436,0.92187 -0.75,0 -1.375,-0.40624 -0.625,-0.42188 -0.96874,-1.15626 -0.34376,-0.73437 -0.34376,-1.6875 0,-0.92187 0.3125,-1.6875 0.3125,-0.76562 0.9375,-1.15624 0.625,-0.40626 1.39062,-0.40626 0.5625,0 1,0.23438 0.4375,0.23438 0.71874,0.60938 v -3.07813 h 1.0469 v 8.59375 z m -3.3281,-3.10938 q 0,1.20313 0.5,1.79688 0.5,0.57812 1.1875,0.57812 0.6875,0 1.17186,-0.5625 0.48438,-0.5625 0.48438,-1.71874 0,-1.28126 -0.5,-1.875 -0.48438,-0.59376 -1.20314,-0.59376 -0.7031,0 -1.17186,0.57813 -0.46874,0.5625 -0.46874,1.79687 z m 13.35936,2.34376 q -0.59376,0.5 -1.14062,0.70312 -0.53124,0.20312 -1.15624,0.20312 -1.03126,0 -1.57814,-0.5 -0.54686,-0.5 -0.54686,-1.28124 0,-0.45313 0.2031,-0.82813 0.20314,-0.39063 0.5469,-0.60937 0.34374,-0.23438 0.7656,-0.34376 0.2969,-0.0937 0.9375,-0.17187 1.26564,-0.14063 1.875,-0.35937 0,-0.21876 0,-0.26563 0,-0.65625 -0.29686,-0.92187 -0.40624,-0.34376 -1.20314,-0.34376 -0.73436,0 -1.09374,0.26563 -0.35936,0.25 -0.53126,0.90625 l -1.03124,-0.14062 q 0.14064,-0.65626 0.46874,-1.0625 0.32814,-0.40626 0.9375,-0.625 0.6094,-0.21876 1.40626,-0.21876 0.79688,0 1.29688,0.1875 0.5,0.1875 0.73436,0.46876 0.2344,0.28124 0.32814,0.71874 0.0469,0.26563 0.0469,0.96876 v 1.40624 q 0,1.46876 0.0625,1.85938 0.0781,0.39062 0.28126,0.75 h -1.10936 q -0.15626,-0.32812 -0.20314,-0.76562 z m -0.0938,-2.35938 q -0.5781,0.23438 -1.71874,0.40625 -0.65626,0.0937 -0.92186,0.21875 -0.26564,0.10938 -0.4219,0.32812 -0.1406,0.21876 -0.1406,0.5 0,0.42188 0.3125,0.70313 0.3281,0.28125 0.9375,0.28125 0.60936,0 1.0781,-0.26562 0.4844,-0.26563 0.70314,-0.73438 0.17186,-0.35938 0.17186,-1.04688 z m 7.1094,3.125 v -0.92188 q -0.7344,1.0625 -1.9844,1.0625 -0.54686,0 -1.03124,-0.20312 -0.46876,-0.21875 -0.70312,-0.53125 -0.23438,-0.32813 -0.32814,-0.79687 -0.0625,-0.29688 -0.0625,-0.98438 v -3.84375 h 1.0625 v 3.45313 q 0,0.8125 0.0625,1.10937 0.0938,0.40625 0.40626,0.65625 0.32814,0.23438 0.8125,0.23438 0.46874,0 0.875,-0.23438 0.42188,-0.25 0.59374,-0.67188 0.1875,-0.42187 0.1875,-1.21874 v -3.32813 h 1.0469 v 6.21875 z m 5.21874,-0.9375 0.15626,0.92188 q -0.45314,0.0937 -0.7969,0.0937 -0.5781,0 -0.8906,-0.17187 -0.3125,-0.1875 -0.45314,-0.48437 -0.125,-0.29688 -0.125,-1.25 v -3.57813 h -0.76562 v -0.8125 h 0.76562 v -1.54687 l 1.04688,-0.625 v 2.17187 h 1.0625 v 0.8125 h -1.0625 v 3.64063 q 0,0.45312 0.0469,0.57812 0.0625,0.125 0.1875,0.20312 0.125,0.0781 0.3594,0.0781 0.1875,0 0.46874,-0.0312 z m 0.70312,0.9375 v -8.59375 h 1.04688 v 3.07813 q 0.73436,-0.84376 1.85936,-0.84376 0.70314,0 1.20314,0.28126 0.51562,0.26562 0.73436,0.75 0.21876,0.46874 0.21876,1.39062 v 3.9375 h -1.04686 v -3.9375 q 0,-0.79688 -0.34376,-1.15625 -0.34374,-0.35937 -0.96874,-0.35937 -0.46876,0 -0.89064,0.25 -0.40626,0.23437 -0.59376,0.65624 -0.17186,0.40626 -0.17186,1.14063 v 3.40625 z m 6.60938,-3.10938 q 0,-1.73437 0.95312,-2.5625 0.79688,-0.6875 1.95314,-0.6875 1.28124,0 2.09374,0.84376 0.82812,0.82812 0.82812,2.3125 0,1.20312 -0.35936,1.89062 -0.3594,0.6875 -1.0625,1.07812 -0.6875,0.375 -1.5,0.375 -1.2969,0 -2.1094,-0.82812 -0.79686,-0.84375 -0.79686,-2.42188 z m 1.07812,0 q 0,1.1875 0.51564,1.78126 0.53124,0.59374 1.3125,0.59374 0.79686,0 1.3125,-0.59374 0.5156,-0.59376 0.5156,-1.8125 0,-1.15626 -0.53124,-1.75 -0.51562,-0.59376 -1.29686,-0.59376 -0.78126,0 -1.3125,0.59376 -0.51564,0.57812 -0.51564,1.78124 z m 6.29688,3.10938 v -6.21875 h 0.95312 v 0.9375 q 0.35938,-0.65625 0.65624,-0.85937 0.3125,-0.21876 0.6875,-0.21876 0.53126,0 1.07814,0.32813 l -0.35938,0.98437 q -0.39062,-0.23437 -0.76562,-0.23437 -0.35938,0 -0.64064,0.21875 -0.2656,0.20312 -0.375,0.57812 -0.1875,0.5625 -0.1875,1.21876 v 3.26562 z"
       fill-rule="nonzero"
       id="path7"
       style="display:inline" /><path
       fill="#9e9e9e"
       d="m 459.0844,302.5443 v -1.01563 h 5.5625 v 0.82813 q -0.8125,0.875 -1.625,2.32813 -0.7969,1.4375 -1.2344,2.96874 -0.3281,1.07813 -0.40624,2.35938 h -1.09376 q 0.0156,-1.01562 0.39064,-2.45312 0.39062,-1.4375 1.09376,-2.76563 0.71874,-1.32813 1.53124,-2.25 z m 12.48436,6.45313 v 1.01562 h -5.6875 q 0,-0.375 0.125,-0.73438 0.21874,-0.57812 0.6875,-1.14062 0.48438,-0.5625 1.39064,-1.29688 1.40624,-1.15624 1.8906,-1.82812 0.5,-0.67188 0.5,-1.26562 0,-0.625 -0.4531,-1.04688 -0.45314,-0.4375 -1.1719,-0.4375 -0.7656,0 -1.21874,0.45312 -0.45312,0.45313 -0.46876,1.26563 l -1.0781,-0.10937 q 0.10936,-1.21876 0.8281,-1.84376 0.7344,-0.64062 1.96876,-0.64062 1.23438,0 1.95314,0.6875 0.71874,0.6875 0.71874,1.70312 0,0.51563 -0.21874,1.01563 -0.20314,0.48437 -0.70314,1.04687 -0.48436,0.54688 -1.60936,1.5 -0.95314,0.79688 -1.2344,1.09376 -0.2656,0.28124 -0.4375,0.5625 z m 2.04688,1.01562 v -1.20312 h 1.20312 v 1.20312 z m 7.95312,-1.01562 v 1.01562 h -5.6875 q 0,-0.375 0.125,-0.73438 0.21874,-0.57812 0.6875,-1.14062 0.48438,-0.5625 1.39064,-1.29688 1.40624,-1.15624 1.8906,-1.82812 0.5,-0.67188 0.5,-1.26562 0,-0.625 -0.4531,-1.04688 -0.45314,-0.4375 -1.1719,-0.4375 -0.7656,0 -1.21874,0.45312 -0.45312,0.45313 -0.46876,1.26563 l -1.0781,-0.10937 q 0.10936,-1.21876 0.8281,-1.84376 0.7344,-0.64062 1.96876,-0.64062 1.23438,0 1.95314,0.6875 0.71874,0.6875 0.71874,1.70312 0,0.51563 -0.21874,1.01563 -0.20314,0.48437 -0.70314,1.04687 -0.48436,0.54688 -1.60936,1.5 -0.95314,0.79688 -1.2344,1.09376 -0.2656,0.28124 -0.4375,0.5625 z m 1.65624,-5.51563 q 0,-0.92187 0.45314,-1.5625 0.46876,-0.64063 1.34376,-0.64063 0.8125,0 1.34374,0.57813 0.53126,0.57813 0.53126,1.6875 0,1.09375 -0.5469,1.6875 -0.53124,0.57813 -1.3125,0.57813 -0.78124,0 -1.29686,-0.57813 -0.51564,-0.57813 -0.51564,-1.75 z m 1.82814,-1.48437 q -0.39064,0 -0.65624,0.34374 -0.25,0.34376 -0.25,1.25 0,0.82813 0.25,1.17188 0.2656,0.32812 0.65624,0.32812 0.40626,0 0.65626,-0.34374 0.2656,-0.34376 0.2656,-1.23438 0,-0.84375 -0.2656,-1.17188 -0.26564,-0.34374 -0.65626,-0.34374 z m 0,8.32812 4.70312,-9.04688 h 0.85938 l -4.6875,9.04688 z m 3.71876,-2.32812 q 0,-0.92188 0.4531,-1.5625 0.46876,-0.64063 1.3594,-0.64063 0.8125,0 1.34374,0.57813 0.53126,0.5625 0.53126,1.6875 0,1.09374 -0.5469,1.6875 -0.53124,0.57812 -1.3281,0.57812 -0.76564,0 -1.2969,-0.57812 -0.5156,-0.57813 -0.5156,-1.75 z m 1.84374,-1.48438 q -0.40624,0 -0.67188,0.34375 -0.25,0.34375 -0.25,1.25 0,0.8125 0.26564,1.15625 0.2656,0.34375 0.65624,0.34375 0.39062,0 0.65626,-0.34375 0.2656,-0.34375 0.2656,-1.25 0,-0.82812 -0.2656,-1.15625 -0.26564,-0.34375 -0.65626,-0.34375 z"
       fill-rule="nonzero"
       id="path8"
       style="display:inline" /><path
       fill="#e06666"
       d="m 205.2219,19.193028 c 91.53207,0 167.18555,71.37537 172.50766,162.752582 C 383.05167,273.3228 316.1959,352.9984 225.28275,363.62463 134.3696,374.25083 50.94149,312.14093 35.04713,221.99944 l 42.54368,-7.50161 C 89.5116,282.10396 152.08268,328.68639 220.26755,320.71673 288.4524,312.74706 338.5942,252.99036 334.60264,184.45746 330.61106,115.92456 273.87095,62.393028 205.2219,62.393028 Z"
       fill-rule="nonzero"
       id="path2"
       style="display:inline;stroke:none;stroke-opacity:1" /><path
       stroke="#757575"
       stroke-width="1"
       stroke-linecap="butt"
       d="m 493.5219,297.51305 h -109.5 -53.04615"
       fill-rule="nonzero"
       id="path9"
       style="display:inline" /><path
       fill="#9e9e9e"
       d="m 332.97575,297.51305 c 0,-1.10458 -0.89542,-2 -2,-2 -1.10455,0 -2,0.89542 -2,2 0,1.10455 0.89545,2 2,2 1.10458,0 2,-0.89545 2,-2"
       fill-rule="nonzero"
       id="path10"
       style="display:inline" /></g><g
     id="layer5"
     style="display:none"><path
       fill="#e06666"
       d="m 205.2219,19.193028 c 76.34625,0 143.64423,50.1015 165.5406,123.240402 21.89635,73.1389 -6.79908,151.97894 -70.58546,193.93188 C 236.3907,378.31829 152.63282,373.43993 94.1482,324.3655 l 27.76843,-33.09311 c 43.86347,36.80581 106.68187,40.46457 154.52164,8.99984 47.83975,-31.4647 69.36133,-90.59472 52.93906,-145.4489 C 312.9551,99.969158 262.48157,62.393028 205.2219,62.393028 Z"
       fill-rule="nonzero"
       id="path2-2"
       style="display:inline;stroke:none;stroke-linecap:square;stroke-miterlimit:10" /><path
       fill="#1a1a1a"
       d="m 414.99064,243.63906 h -1.04688 v -6.71875 q -0.39062,0.35937 -1.01562,0.73437 -0.60938,0.35938 -1.09374,0.53125 v -1.01562 q 0.875,-0.42188 1.53124,-1 0.67186,-0.59375 0.95312,-1.15625 h 0.67188 z m 2.90626,-1.85938 1.03124,-0.15625 q 0.0938,0.625 0.48436,0.95313 0.40626,0.32812 1.14064,0.32812 0.71876,0 1.0625,-0.28125 0.35936,-0.29687 0.35936,-0.70312 0,-0.35938 -0.3125,-0.5625 -0.21874,-0.14063 -1.0781,-0.35938 -1.15626,-0.29687 -1.6094,-0.5 -0.4375,-0.21875 -0.67186,-0.59375 -0.23438,-0.375 -0.23438,-0.84375 0,-0.40625 0.1875,-0.76562 0.1875,-0.35938 0.51564,-0.59375 0.25,-0.17188 0.67186,-0.29688 0.42188,-0.125 0.92188,-0.125 0.71876,0 1.26562,0.21875 0.5625,0.20313 0.82814,0.5625 0.2656,0.35938 0.35936,0.95313 l -1.03126,0.14062 q -0.0625,-0.46875 -0.40624,-0.73437 -0.32812,-0.28125 -0.95312,-0.28125 -0.71874,0 -1.03124,0.25 -0.3125,0.23437 -0.3125,0.5625 0,0.20312 0.125,0.35937 0.1406,0.17188 0.40624,0.28125 0.15626,0.0625 0.9375,0.26563 1.125,0.3125 1.5625,0.5 0.4375,0.1875 0.6875,0.54687 0.25,0.35938 0.25,0.90625 0,0.53125 -0.3125,1 -0.29688,0.45313 -0.875,0.71875 -0.57814,0.25 -1.3125,0.25 -1.21874,0 -1.85938,-0.5 -0.625,-0.51562 -0.79686,-1.5 z m 9.71874,0.92188 0.15626,0.92187 q -0.45314,0.0937 -0.7969,0.0937 -0.5781,0 -0.8906,-0.17187 -0.3125,-0.1875 -0.45314,-0.48438 -0.125,-0.29687 -0.125,-1.25 v -3.57812 h -0.76562 v -0.8125 h 0.76562 v -1.54688 l 1.04688,-0.625 v 2.17188 h 1.0625 v 0.8125 h -1.0625 v 3.64062 q 0,0.45313 0.0469,0.57813 0.0625,0.125 0.1875,0.20312 0.125,0.0781 0.3594,0.0781 0.1875,0 0.46874,-0.0312 z m 2.90626,-0.45313 v -2.35937 h -2.32814 v -0.98438 h 2.32814 v -2.32812 h 1 v 2.32812 h 2.34374 v 0.98438 h -2.34374 v 2.35937 z m 10.04686,0.375 v 1.01563 h -5.6875 q 0,-0.375 0.125,-0.73438 0.21874,-0.57812 0.6875,-1.14062 0.48438,-0.5625 1.39064,-1.29688 1.40624,-1.15625 1.8906,-1.82812 0.5,-0.67188 0.5,-1.26563 0,-0.625 -0.4531,-1.04687 -0.45314,-0.4375 -1.1719,-0.4375 -0.7656,0 -1.21874,0.45312 -0.45312,0.45313 -0.46876,1.26563 l -1.0781,-0.10938 q 0.10936,-1.21875 0.8281,-1.84375 0.7344,-0.64062 1.96876,-0.64062 1.23438,0 1.95314,0.6875 0.71874,0.6875 0.71874,1.70312 0,0.51563 -0.21874,1.01563 -0.20314,0.48437 -0.70314,1.04687 -0.48436,0.54688 -1.60936,1.5 -0.95314,0.79688 -1.2344,1.09375 -0.2656,0.28125 -0.4375,0.5625 z m 1.75,1.01563 v -6.21875 h 0.9375 v 0.875 q 0.6875,-1.01563 1.98438,-1.01563 0.5625,0 1.03126,0.20313 0.48436,0.20312 0.71874,0.53125 0.23436,0.32812 0.32812,0.76562 0.0469,0.29688 0.0469,1.03125 v 3.82813 h -1.04688 v -3.78125 q 0,-0.65625 -0.125,-0.96875 -0.125,-0.3125 -0.4375,-0.5 -0.3125,-0.20313 -0.73436,-0.20313 -0.6719,0 -1.1719,0.4375 -0.48436,0.42188 -0.48436,1.60938 v 3.40625 z m 11.03124,0 v -0.78125 q -0.59374,0.92187 -1.73436,0.92187 -0.75,0 -1.375,-0.40625 -0.625,-0.42187 -0.96874,-1.15625 -0.34376,-0.73437 -0.34376,-1.6875 0,-0.92187 0.3125,-1.6875 0.3125,-0.76562 0.9375,-1.15625 0.625,-0.40625 1.39062,-0.40625 0.5625,0 1,0.23438 0.4375,0.23437 0.71874,0.60937 v -3.07812 h 1.0469 v 8.59375 z m -3.3281,-3.10938 q 0,1.20313 0.5,1.79688 0.5,0.57812 1.1875,0.57812 0.6875,0 1.17186,-0.5625 0.48438,-0.5625 0.48438,-1.71875 0,-1.28125 -0.5,-1.875 -0.48438,-0.59375 -1.20314,-0.59375 -0.7031,0 -1.17186,0.57813 -0.46874,0.5625 -0.46874,1.79687 z m 13.35936,2.34375 q -0.59376,0.5 -1.14062,0.70313 -0.53124,0.20312 -1.15624,0.20312 -1.03126,0 -1.57814,-0.5 -0.54686,-0.5 -0.54686,-1.28125 0,-0.45312 0.2031,-0.82812 0.20314,-0.39063 0.5469,-0.60938 0.34374,-0.23437 0.7656,-0.34375 0.2969,-0.0937 0.9375,-0.17187 1.26564,-0.14063 1.875,-0.35938 0,-0.21875 0,-0.26562 0,-0.65625 -0.29686,-0.92188 -0.40624,-0.34375 -1.20314,-0.34375 -0.73436,0 -1.09374,0.26563 -0.35936,0.25 -0.53126,0.90625 l -1.03124,-0.14063 q 0.14064,-0.65625 0.46874,-1.0625 0.32814,-0.40625 0.9375,-0.625 0.6094,-0.21875 1.40626,-0.21875 0.79688,0 1.29688,0.1875 0.5,0.1875 0.73436,0.46875 0.2344,0.28125 0.32814,0.71875 0.0469,0.26563 0.0469,0.96875 v 1.40625 q 0,1.46875 0.0625,1.85938 0.0781,0.39062 0.28126,0.75 h -1.10936 q -0.15626,-0.32813 -0.20314,-0.76563 z m -0.0938,-2.35937 q -0.5781,0.23437 -1.71874,0.40625 -0.65626,0.0937 -0.92186,0.21875 -0.26564,0.10937 -0.4219,0.32812 -0.1406,0.21875 -0.1406,0.5 0,0.42188 0.3125,0.70313 0.3281,0.28125 0.9375,0.28125 0.60936,0 1.0781,-0.26563 0.4844,-0.26562 0.70314,-0.73437 0.17186,-0.35938 0.17186,-1.04688 z m 7.1094,3.125 v -0.92188 q -0.7344,1.0625 -1.9844,1.0625 -0.54686,0 -1.03124,-0.20312 -0.46876,-0.21875 -0.70312,-0.53125 -0.23438,-0.32813 -0.32814,-0.79688 -0.0625,-0.29687 -0.0625,-0.98437 v -3.84375 h 1.0625 v 3.45312 q 0,0.8125 0.0625,1.10938 0.0938,0.40625 0.40626,0.65625 0.32814,0.23437 0.8125,0.23437 0.46874,0 0.875,-0.23437 0.42188,-0.25 0.59374,-0.67188 0.1875,-0.42187 0.1875,-1.21875 v -3.32812 h 1.0469 v 6.21875 z m 5.21874,-0.9375 0.15626,0.92187 q -0.45314,0.0937 -0.7969,0.0937 -0.5781,0 -0.8906,-0.17187 -0.3125,-0.1875 -0.45314,-0.48438 -0.125,-0.29687 -0.125,-1.25 v -3.57812 h -0.76562 v -0.8125 h 0.76562 v -1.54688 l 1.04688,-0.625 v 2.17188 h 1.0625 v 0.8125 h -1.0625 v 3.64062 q 0,0.45313 0.0469,0.57813 0.0625,0.125 0.1875,0.20312 0.125,0.0781 0.3594,0.0781 0.1875,0 0.46874,-0.0312 z m 0.70312,0.9375 v -8.59375 h 1.04688 v 3.07812 q 0.73436,-0.84375 1.85936,-0.84375 0.70314,0 1.20314,0.28125 0.51562,0.26563 0.73436,0.75 0.21876,0.46875 0.21876,1.39063 v 3.9375 h -1.04686 v -3.9375 q 0,-0.79688 -0.34376,-1.15625 -0.34374,-0.35938 -0.96874,-0.35938 -0.46876,0 -0.89064,0.25 -0.40626,0.23438 -0.59376,0.65625 -0.17186,0.40625 -0.17186,1.14063 v 3.40625 z m 6.60938,-3.10938 q 0,-1.73437 0.95312,-2.5625 0.79688,-0.6875 1.95314,-0.6875 1.28124,0 2.09374,0.84375 0.82812,0.82813 0.82812,2.3125 0,1.20313 -0.35936,1.89063 -0.3594,0.6875 -1.0625,1.07812 -0.6875,0.375 -1.5,0.375 -1.2969,0 -2.1094,-0.82812 -0.79686,-0.84375 -0.79686,-2.42188 z m 1.07812,0 q 0,1.1875 0.51564,1.78125 0.53124,0.59375 1.3125,0.59375 0.79686,0 1.3125,-0.59375 0.5156,-0.59375 0.5156,-1.8125 0,-1.15625 -0.53124,-1.75 -0.51562,-0.59375 -1.29686,-0.59375 -0.78126,0 -1.3125,0.59375 -0.51564,0.57813 -0.51564,1.78125 z m 6.29688,3.10938 v -6.21875 h 0.95312 v 0.9375 q 0.35938,-0.65625 0.65624,-0.85938 0.3125,-0.21875 0.6875,-0.21875 0.53126,0 1.07814,0.32813 l -0.35938,0.98437 q -0.39062,-0.23437 -0.76562,-0.23437 -0.35938,0 -0.64064,0.21875 -0.2656,0.20312 -0.375,0.57812 -0.1875,0.5625 -0.1875,1.21875 v 3.26563 z"
       fill-rule="nonzero"
       id="path7-3"
       style="display:inline;stroke:none;stroke-linecap:square;stroke-miterlimit:10" /><path
       fill="#9e9e9e"
       d="m 464.49064,254.15468 -1.04688,0.0781 q -0.14062,-0.625 -0.39062,-0.90625 -0.4375,-0.45313 -1.0625,-0.45313 -0.5,0 -0.89064,0.28125 -0.48436,0.375 -0.78124,1.07813 -0.28126,0.6875 -0.29686,1.96875 0.375,-0.57813 0.92186,-0.85938 0.5625,-0.28125 1.17188,-0.28125 1.04686,0 1.78126,0.78125 0.75,0.78125 0.75,2 0,0.8125 -0.3594,1.51563 -0.34374,0.6875 -0.9531,1.0625 -0.6094,0.35937 -1.375,0.35937 -1.32814,0 -2.15626,-0.96875 -0.82814,-0.96875 -0.82814,-3.1875 0,-2.5 0.9219,-3.625 0.79686,-0.98437 2.15624,-0.98437 1.01562,0 1.65626,0.57812 0.65624,0.5625 0.78124,1.5625 z m -4.29688,3.70313 q 0,0.54687 0.21874,1.04687 0.2344,0.48438 0.64064,0.75 0.42186,0.26563 0.89062,0.26563 0.65624,0 1.14064,-0.53125 0.48436,-0.54688 0.48436,-1.46875 0,-0.89063 -0.48436,-1.40625 -0.46876,-0.51563 -1.1875,-0.51563 -0.71876,0 -1.21876,0.51563 -0.48438,0.51562 -0.48438,1.34375 z m 9.79688,2.78125 h -1.04688 v -6.71875 q -0.39062,0.35937 -1.01562,0.73437 -0.60938,0.35938 -1.09374,0.53125 v -1.01562 q 0.875,-0.42188 1.53124,-1 0.67186,-0.59375 0.95312,-1.15625 h 0.67188 z m 3.625,0 v -1.20313 h 1.20312 v 1.20313 z m 6.375,0 h -1.04688 v -6.71875 q -0.39062,0.35937 -1.01562,0.73437 -0.60938,0.35938 -1.09374,0.53125 v -1.01562 q 0.875,-0.42188 1.53124,-1 0.67186,-0.59375 0.95312,-1.15625 h 0.67188 z m 3.23436,-6.53125 q 0,-0.92188 0.45314,-1.5625 0.46876,-0.64063 1.34376,-0.64063 0.8125,0 1.34374,0.57813 0.53126,0.57812 0.53126,1.6875 0,1.09375 -0.5469,1.6875 -0.53124,0.57812 -1.3125,0.57812 -0.78124,0 -1.29686,-0.57812 -0.51564,-0.57813 -0.51564,-1.75 z m 1.82814,-1.48438 q -0.39064,0 -0.65624,0.34375 -0.25,0.34375 -0.25,1.25 0,0.82813 0.25,1.17188 0.2656,0.32812 0.65624,0.32812 0.40626,0 0.65626,-0.34375 0.2656,-0.34375 0.2656,-1.23437 0,-0.84375 -0.2656,-1.17188 -0.26564,-0.34375 -0.65626,-0.34375 z m 0,8.32813 4.70312,-9.04688 h 0.85938 l -4.6875,9.04688 z m 3.71876,-2.32813 q 0,-0.92187 0.4531,-1.5625 0.46876,-0.64062 1.3594,-0.64062 0.8125,0 1.34374,0.57812 0.53126,0.5625 0.53126,1.6875 0,1.09375 -0.5469,1.6875 -0.53124,0.57813 -1.3281,0.57813 -0.76564,0 -1.2969,-0.57813 -0.5156,-0.57812 -0.5156,-1.75 z m 1.84374,-1.48437 q -0.40624,0 -0.67188,0.34375 -0.25,0.34375 -0.25,1.25 0,0.8125 0.26564,1.15625 0.2656,0.34375 0.65624,0.34375 0.39062,0 0.65626,-0.34375 0.2656,-0.34375 0.2656,-1.25 0,-0.82813 -0.2656,-1.15625 -0.26564,-0.34375 -0.65626,-0.34375 z"
       fill-rule="nonzero"
       id="path8-6"
       style="display:inline;stroke:none;stroke-linecap:square;stroke-miterlimit:10" /><path
       stroke="#757575"
       stroke-width="1"
       stroke-linecap="butt"
       d="m 493.5219,248.13906 h -109.5 -24.54005"
       fill-rule="nonzero"
       id="path9-0"
       style="display:inline;fill:none;stroke-miterlimit:10" /><path
       fill="#9e9e9e"
       d="m 361.48185,248.13906 c 0,-1.10457 -0.89545,-2 -2,-2 -1.10459,0 -2,0.89543 -2,2 0,1.10457 0.89541,2 2,2 1.10455,0 2,-0.89543 2,-2"
       fill-rule="nonzero"
       id="path10-62"
       style="display:inline;stroke:none;stroke-linecap:square;stroke-miterlimit:10" /></g><g
     id="layer2"
     style="display:inline"><path
       fill="#9fc5e8"
       d="m 205.7219,74.093028 c 57.21613,0 106.17337,41.080002 116.10883,97.426882 L 205.7219,191.99303 Z"
       fill-rule="nonzero"
       id="path2-6"
       style="display:inline;stroke:none;stroke-linecap:square;stroke-miterlimit:10" /><path
       fill="#b6d7a8"
       d="m 89.61307,212.46614 c -6.05172,-34.32093 3.39078,-69.56081 25.79219,-96.25777 22.4014,-26.696957 55.46624,-42.115342 90.31664,-42.115342 V 191.99303 Z"
       fill-rule="nonzero"
       id="path3"
       style="display:inline;stroke:none;stroke-linecap:square;stroke-miterlimit:10" /><path
       fill="#ffe599"
       d="M 129.93725,282.30967 C 108.70356,264.4925 94.42635,239.76364 89.61307,212.46614 L 205.7219,191.99303 Z"
       fill-rule="nonzero"
       id="path4"
       style="display:inline;stroke:none;stroke-linecap:square;stroke-miterlimit:10" /><path
       fill="#ea9999"
       d="m 321.83073,171.51991 c 8.60687,48.81197 -14.23433,97.79503 -57.15883,122.57752 -42.92452,24.78247 -96.76569,20.07199 -134.73465,-11.78776 l 75.78465,-90.31664 z"
       fill-rule="nonzero"
       id="path5"
       style="display:inline;fill:#eabbdb;fill-opacity:1;stroke:none;stroke-linecap:square;stroke-miterlimit:10" /></g><g
     id="layer4"
     style="display:none"><path
       fill="#000000"
       d="m 238.23771,133.76371 h -0.875 v -5.59375 q -0.3125,0.29687 -0.82813,0.60937 -0.51562,0.29688 -0.92187,0.4375 v -0.84375 q 0.73437,-0.34375 1.28125,-0.82812 0.5625,-0.5 0.78125,-0.96875 h 0.5625 z m 2.59375,-1.54688 0.85937,-0.14062 q 0.0781,0.53125 0.40625,0.8125 0.34375,0.26562 0.9375,0.26562 0.60938,0 0.90625,-0.23437 0.29688,-0.25 0.29688,-0.59375 0,-0.29688 -0.26563,-0.46875 -0.1875,-0.10938 -0.90625,-0.29688 -0.95312,-0.23437 -1.32812,-0.40625 -0.375,-0.1875 -0.57813,-0.5 -0.1875,-0.3125 -0.1875,-0.70312 0,-0.34375 0.15625,-0.64063 0.15625,-0.29687 0.4375,-0.48437 0.20313,-0.15625 0.54688,-0.25 0.35937,-0.10938 0.76562,-0.10938 0.60938,0 1.0625,0.17188 0.46875,0.17187 0.6875,0.48437 0.23438,0.29688 0.3125,0.79688 l -0.85937,0.10937 q -0.0625,-0.39062 -0.34375,-0.60937 -0.28125,-0.23438 -0.79688,-0.23438 -0.59375,0 -0.85937,0.20313 -0.26563,0.1875 -0.26563,0.46875 0,0.17187 0.10938,0.29687 0.10937,0.14063 0.34375,0.23438 0.125,0.0469 0.78125,0.23437 0.92187,0.25 1.28125,0.40625 0.375,0.15625 0.57812,0.46875 0.21875,0.29688 0.21875,0.73438 0,0.45312 -0.25,0.84375 -0.25,0.375 -0.73437,0.59375 -0.48438,0.21875 -1.09375,0.21875 -1.01563,0 -1.54688,-0.42188 -0.53125,-0.42187 -0.67187,-1.25 z m 6.26562,0.76563 0.125,0.76562 q -0.375,0.0781 -0.65625,0.0781 -0.48437,0 -0.75,-0.14063 -0.26562,-0.15625 -0.375,-0.40625 -0.0937,-0.25 -0.0937,-1.03125 v -2.98437 h -0.65625 v -0.6875 h 0.65625 v -1.28125 l 0.85938,-0.53125 v 1.8125 h 0.89062 v 0.6875 h -0.89062 v 3.03125 q 0,0.375 0.0469,0.48437 0.0469,0.10938 0.15625,0.17188 0.10938,0.0625 0.29688,0.0625 0.15625,0 0.39062,-0.0312 z m 7.46875,0.14062 q -0.48437,0.42188 -0.9375,0.59375 -0.45313,0.17188 -0.96875,0.17188 -0.85938,0 -1.32812,-0.42188 -0.45313,-0.42187 -0.45313,-1.07812 0,-0.375 0.17187,-0.6875 0.17188,-0.3125 0.45313,-0.5 0.28125,-0.20313 0.64063,-0.29688 0.25,-0.0625 0.78124,-0.125 1.0625,-0.125 1.5625,-0.3125 0,-0.17187 0,-0.21875 0,-0.54687 -0.25,-0.76562 -0.32812,-0.29688 -1,-0.29688 -0.60937,0 -0.90624,0.21875 -0.29688,0.21875 -0.4375,0.76563 l -0.85938,-0.10938 q 0.10938,-0.5625 0.375,-0.89062 0.28125,-0.34375 0.78125,-0.51563 0.51563,-0.1875 1.1875,-0.1875 0.65625,0 1.0625,0.15625 0.42187,0.15625 0.60937,0.39063 0.20313,0.23437 0.28126,0.59375 0.0469,0.21875 0.0469,0.8125 v 1.17187 q 0,1.21875 0.0469,1.54688 0.0625,0.32812 0.23438,0.625 h -0.92188 q -0.14062,-0.28125 -0.17187,-0.64063 z m -0.0781,-1.96875 q -0.48437,0.20313 -1.4375,0.34375 -0.53124,0.0781 -0.76562,0.17188 -0.21875,0.0937 -0.34375,0.28125 -0.125,0.1875 -0.125,0.42187 0,0.34375 0.26563,0.57813 0.26562,0.23437 0.78124,0.23437 0.51563,0 0.90626,-0.21875 0.39062,-0.21875 0.57812,-0.60937 0.14062,-0.29688 0.14062,-0.875 z m 6.09376,2.60938 v -0.76563 q -0.60938,0.89063 -1.65626,0.89063 -0.45312,0 -0.85937,-0.17188 -0.39063,-0.1875 -0.59375,-0.45312 -0.1875,-0.26563 -0.26562,-0.65625 -0.0469,-0.25 -0.0469,-0.8125 v -3.21875 h 0.875 v 2.875 q 0,0.6875 0.0625,0.9375 0.0781,0.34375 0.34375,0.54687 0.26563,0.1875 0.67187,0.1875 0.39063,0 0.73438,-0.20312 0.34375,-0.20313 0.48438,-0.54688 0.15624,-0.35937 0.15624,-1.01562 v -2.78125 h 0.875 v 5.1875 z m 4.51562,-0.78125 0.125,0.76562 q -0.375,0.0781 -0.65625,0.0781 -0.48437,0 -0.75,-0.14063 -0.26563,-0.15625 -0.375,-0.40625 -0.0937,-0.25 -0.0937,-1.03125 v -2.98437 h -0.65625 v -0.6875 h 0.65625 v -1.28125 l 0.85938,-0.53125 v 1.8125 h 0.89062 v 0.6875 h -0.89062 v 3.03125 q 0,0.375 0.0469,0.48437 0.0469,0.10938 0.15625,0.17188 0.10938,0.0625 0.29688,0.0625 0.15624,0 0.39062,-0.0312 z m 1.07812,0.78125 v -7.15625 h 0.875 v 2.5625 q 0.625,-0.70313 1.5625,-0.70313 0.57813,0 1,0.23438 0.42188,0.21875 0.60938,0.625 0.1875,0.39062 0.1875,1.15625 v 3.28125 h -0.89062 v -3.28125 q 0,-0.67188 -0.28126,-0.96875 -0.28124,-0.29688 -0.8125,-0.29688 -0.39062,0 -0.73437,0.20313 -0.34375,0.20312 -0.5,0.54687 -0.14063,0.34375 -0.14063,0.95313 v 2.84375 z m 5.67188,-2.59375 q 0,-1.4375 0.8125,-2.14063 0.65625,-0.5625 1.625,-0.5625 1.0625,0 1.73438,0.70313 0.6875,0.6875 0.6875,1.92187 0,1 -0.29688,1.57813 -0.29688,0.57812 -0.875,0.90625 -0.57812,0.3125 -1.25,0.3125 -1.09375,0 -1.76562,-0.70313 -0.67188,-0.70312 -0.67188,-2.01562 z m 0.90625,0 q 0,1 0.4375,1.5 0.4375,0.48437 1.09375,0.48437 0.65625,0 1.07812,-0.5 0.4375,-0.5 0.4375,-1.51562 0,-0.95313 -0.4375,-1.45313 -0.4375,-0.5 -1.07812,-0.5 -0.65625,0 -1.09375,0.5 -0.4375,0.48438 -0.4375,1.48438 z m 5.42187,2.59375 v -5.1875 h 0.78126 v 0.78125 q 0.3125,-0.54688 0.5625,-0.71875 0.25,-0.17188 0.5625,-0.17188 0.45312,0 0.90624,0.28125 l -0.29687,0.8125 q -0.32813,-0.1875 -0.65625,-0.1875 -0.28125,0 -0.51562,0.17188 -0.23438,0.17187 -0.32813,0.48437 -0.14063,0.46875 -0.14063,1.01563 v 2.71875 z"
       fill-rule="nonzero"
       id="path6-7"
       style="display:inline;stroke:none;stroke-linecap:square;stroke-miterlimit:10" /><path
       fill="#000000"
       d="m 225.81338,264.90166 v 0.84375 H 221.079 q 0,-0.3125 0.10938,-0.60938 0.1875,-0.48437 0.57812,-0.95312 0.39063,-0.46875 1.15625,-1.07812 1.15625,-0.96876 1.5625,-1.51563 0.42188,-0.5625 0.42188,-1.0625 0,-0.53125 -0.375,-0.875 -0.375,-0.35937 -0.96875,-0.35937 -0.64063,0 -1.03125,0.375 -0.375,0.375 -0.375,1.04687 l -0.90625,-0.0937 q 0.0937,-1 0.6875,-1.53125 0.60937,-0.53125 1.64062,-0.53125 1.03125,0 1.625,0.57812 0.60938,0.5625 0.60938,1.40626 0,0.4375 -0.1875,0.85937 -0.17188,0.40625 -0.57813,0.875 -0.40625,0.45313 -1.35937,1.25 -0.78125,0.65625 -1.01563,0.90625 -0.21875,0.23438 -0.35937,0.46875 z m 1.625,0.84375 v -5.1875 h 0.79687 v 0.73438 q 0.5625,-0.84376 1.64063,-0.84376 0.46875,0 0.85937,0.17188 0.40625,0.15625 0.59375,0.4375 0.20313,0.26562 0.28125,0.64062 0.0469,0.25 0.0469,0.85938 v 3.1875 h -0.875 v -3.15625 q 0,-0.53125 -0.10938,-0.79687 -0.0937,-0.26563 -0.35937,-0.42188 -0.26563,-0.17188 -0.60938,-0.17188 -0.5625,0 -0.98437,0.35938 -0.40625,0.35938 -0.40625,1.35938 v 2.82812 z m 9.375,0 v -0.65625 q -0.5,0.78125 -1.45313,0.78125 -0.625,0 -1.15625,-0.34375 -0.51562,-0.34375 -0.79687,-0.95313 -0.28125,-0.625 -0.28125,-1.42187 0,-0.76563 0.25,-1.39063 0.26562,-0.64062 0.78125,-0.96874 0.51562,-0.34376 1.15625,-0.34376 0.46875,0 0.82812,0.20313 0.375,0.1875 0.60938,0.5 v -2.5625 h 0.875 v 7.15625 z m -2.78125,-2.59375 q 0,1 0.40625,1.5 0.42187,0.48437 1,0.48437 0.57812,0 0.96875,-0.46874 0.40625,-0.46876 0.40625,-1.4375 0,-1.0625 -0.40625,-1.5625 -0.40625,-0.5 -1,-0.5 -0.59375,0 -0.98438,0.48437 -0.39062,0.46875 -0.39062,1.5 z m 11.79687,1.95313 q -0.48437,0.42187 -0.9375,0.59374 -0.45312,0.17188 -0.96875,0.17188 -0.85937,0 -1.32812,-0.42188 -0.45313,-0.42187 -0.45313,-1.07812 0,-0.375 0.17188,-0.6875 0.17187,-0.3125 0.45312,-0.5 0.28125,-0.20312 0.64063,-0.29688 0.25,-0.0625 0.78125,-0.125 1.0625,-0.125 1.5625,-0.3125 0,-0.17187 0,-0.21874 0,-0.54688 -0.25,-0.76563 -0.32813,-0.29687 -1,-0.29687 -0.60938,0 -0.90625,0.21874 -0.29688,0.21876 -0.4375,0.76563 l -0.85938,-0.10937 q 0.10938,-0.5625 0.375,-0.89063 0.28125,-0.34375 0.78125,-0.51563 0.51563,-0.1875 1.1875,-0.1875 0.65625,0 1.0625,0.15626 0.42188,0.15624 0.60938,0.39062 0.20312,0.23438 0.28125,0.59375 0.0469,0.21875 0.0469,0.8125 v 1.17187 q 0,1.21876 0.0469,1.54688 0.0625,0.32812 0.23437,0.625 h -0.92187 q -0.14063,-0.28125 -0.17188,-0.64062 z m -0.0781,-1.96876 q -0.48438,0.20313 -1.4375,0.34376 -0.53125,0.0781 -0.76563,0.17187 -0.21875,0.0937 -0.34375,0.28125 -0.125,0.1875 -0.125,0.42188 0,0.34374 0.26563,0.57812 0.26562,0.23438 0.78125,0.23438 0.51562,0 0.90625,-0.21876 0.39062,-0.21874 0.57812,-0.60937 0.14063,-0.29687 0.14063,-0.875 z m 6.09376,2.60938 v -0.76562 q -0.60937,0.89062 -1.65624,0.89062 -0.45313,0 -0.85938,-0.17188 -0.39064,-0.1875 -0.59377,-0.45312 -0.1875,-0.26562 -0.26562,-0.65625 -0.0469,-0.25 -0.0469,-0.8125 v -3.21875 h 0.87502 v 2.875 q 0,0.6875 0.0625,0.9375 0.0781,0.34375 0.34375,0.54688 0.26562,0.1875 0.67188,0.1875 0.39062,0 0.73437,-0.20313 0.34375,-0.20313 0.48437,-0.54687 0.15626,-0.35938 0.15626,-1.01563 v -2.78125 h 0.875 v 5.1875 z m 4.51563,-0.78125 0.125,0.76563 q -0.375,0.0781 -0.65625,0.0781 -0.48438,0 -0.75,-0.14062 -0.26562,-0.15626 -0.375,-0.40626 -0.0937,-0.25 -0.0937,-1.03124 v -2.98438 h -0.65625 v -0.6875 h 0.65625 v -1.28125 l 0.85937,-0.53125 v 1.8125 h 0.89063 v 0.6875 h -0.89063 v 3.03125 q 0,0.375 0.0469,0.48437 0.0469,0.10938 0.15625,0.17188 0.10937,0.0625 0.29687,0.0625 0.15626,0 0.39063,-0.0312 z m 1.07813,0.78125 v -7.15625 h 0.875 v 2.5625 q 0.625,-0.70313 1.5625,-0.70313 0.57812,0 1,0.23438 0.42187,0.21875 0.60937,0.625 0.1875,0.39062 0.1875,1.15625 v 3.28125 h -0.89063 v -3.28125 q 0,-0.67187 -0.28124,-0.96875 -0.28126,-0.29688 -0.8125,-0.29688 -0.39063,0 -0.73438,0.20313 -0.34375,0.20313 -0.5,0.54687 -0.14062,0.34376 -0.14062,0.95313 v 2.84375 z m 5.67187,-2.59375 q 0,-1.4375 0.8125,-2.14063 0.65625,-0.5625 1.625,-0.5625 1.0625,0 1.73437,0.70313 0.6875,0.6875 0.6875,1.92187 0,1 -0.29687,1.57813 -0.29687,0.57813 -0.875,0.90625 -0.57813,0.3125 -1.25,0.3125 -1.09375,0 -1.76563,-0.70312 -0.67187,-0.70313 -0.67187,-2.01563 z m 0.90625,0 q 0,1 0.4375,1.5 0.4375,0.48437 1.09375,0.48437 0.65625,0 1.07813,-0.5 0.4375,-0.5 0.4375,-1.51562 0,-0.95312 -0.4375,-1.45312 -0.4375,-0.5 -1.07813,-0.5 -0.65625,0 -1.09375,0.5 -0.4375,0.48437 -0.4375,1.48437 z m 5.42188,2.59375 v -5.1875 h 0.78124 v 0.78125 q 0.3125,-0.54687 0.5625,-0.71875 0.25,-0.17188 0.5625,-0.17188 0.45313,0 0.90626,0.28126 l -0.29688,0.8125 q -0.32812,-0.1875 -0.65625,-0.1875 -0.28125,0 -0.51563,0.17187 -0.23437,0.17187 -0.32812,0.48437 -0.14062,0.46876 -0.14062,1.01563 v 2.71875 z"
       fill-rule="nonzero"
       id="path7-5"
       style="display:inline;stroke:none;stroke-linecap:square;stroke-miterlimit:10" /><path
       fill="#000000"
       d="m 114.8172,232.47343 0.875,-0.10938 q 0.15625,0.73438 0.51562,1.07812 0.35938,0.32813 0.89063,0.32813 0.625,0 1.04687,-0.42187 0.42188,-0.4375 0.42188,-1.07813 0,-0.60937 -0.39063,-1 -0.39062,-0.39063 -1,-0.39063 -0.25,0 -0.625,0.0938 l 0.0937,-0.76563 q 0.0937,0 0.14063,0 0.5625,0 1.01562,-0.28125 0.45313,-0.29688 0.45313,-0.90625 0,-0.48437 -0.32813,-0.79687 -0.32812,-0.32813 -0.84375,-0.32813 -0.51562,0 -0.85937,0.32813 -0.34375,0.3125 -0.4375,0.96874 l -0.875,-0.15624 q 0.15625,-0.89063 0.71875,-1.375 0.57812,-0.48438 1.42187,-0.48438 0.59375,0 1.07813,0.25 0.5,0.25 0.75,0.6875 0.26562,0.4375 0.26562,0.92188 0,0.46874 -0.25,0.84374 -0.23437,0.375 -0.73437,0.60938 0.64062,0.14062 0.98437,0.60938 0.35938,0.45312 0.35938,1.15624 0,0.9375 -0.6875,1.59376 -0.6875,0.64062 -1.71875,0.64062 -0.95313,0 -1.57813,-0.5625 -0.60937,-0.5625 -0.70312,-1.45312 z m 6.23437,1.89062 v -5.1875 h 0.78126 v 0.78125 q 0.3125,-0.54687 0.5625,-0.71875 0.25,-0.17188 0.5625,-0.17188 0.45313,0 0.90625,0.28126 l -0.29688,0.8125 q -0.32812,-0.1875 -0.65624,-0.1875 -0.28126,0 -0.51563,0.17187 -0.23437,0.17187 -0.32813,0.48437 -0.14062,0.46876 -0.14062,1.01563 v 2.71875 z m 6.37501,0 v -0.65625 q -0.5,0.78125 -1.45312,0.78125 -0.625,0 -1.15626,-0.34375 -0.51562,-0.34375 -0.79687,-0.95313 -0.28125,-0.625 -0.28125,-1.42187 0,-0.76563 0.25,-1.39063 0.26562,-0.64062 0.78125,-0.96874 0.51563,-0.34376 1.15625,-0.34376 0.46875,0 0.82812,0.20313 0.375,0.1875 0.60938,0.5 v -2.5625 h 0.875 v 7.15625 z m -2.78125,-2.59375 q 0,1 0.40625,1.5 0.42188,0.48437 1,0.48437 0.57812,0 0.96875,-0.46874 0.40625,-0.46876 0.40625,-1.4375 0,-1.0625 -0.40625,-1.5625 -0.40625,-0.5 -1,-0.5 -0.59375,0 -0.98437,0.48437 -0.39063,0.46875 -0.39063,1.5 z m 11.79687,1.95313 q -0.48437,0.42187 -0.9375,0.59374 -0.45312,0.17188 -0.96874,0.17188 -0.85938,0 -1.32813,-0.42188 -0.45313,-0.42187 -0.45313,-1.07812 0,-0.375 0.17188,-0.6875 0.17188,-0.3125 0.45312,-0.5 0.28126,-0.20312 0.64063,-0.29688 0.25,-0.0625 0.78125,-0.125 1.0625,-0.125 1.5625,-0.3125 0,-0.17187 0,-0.21874 0,-0.54688 -0.25,-0.76563 -0.32812,-0.29687 -1,-0.29687 -0.60938,0 -0.90625,0.21874 -0.29687,0.21876 -0.4375,0.76563 l -0.85937,-0.10937 q 0.10937,-0.5625 0.375,-0.89063 0.28124,-0.34375 0.78124,-0.51563 0.51563,-0.1875 1.1875,-0.1875 0.65626,0 1.0625,0.15626 0.42188,0.15624 0.60938,0.39062 0.20312,0.23438 0.28125,0.59375 0.0469,0.21875 0.0469,0.8125 v 1.17187 q 0,1.21876 0.0469,1.54688 0.0625,0.32812 0.23438,0.625 h -0.92188 q -0.14062,-0.28125 -0.17188,-0.64062 z m -0.0781,-1.96876 q -0.48438,0.20313 -1.4375,0.34376 -0.53125,0.0781 -0.76562,0.17187 -0.21876,0.0937 -0.34376,0.28125 -0.125,0.1875 -0.125,0.42188 0,0.34374 0.26563,0.57812 0.26563,0.23438 0.78125,0.23438 0.51562,0 0.90625,-0.21876 0.39063,-0.21874 0.57813,-0.60937 0.14062,-0.29687 0.14062,-0.875 z m 6.09375,2.60938 v -0.76562 q -0.60937,0.89062 -1.65625,0.89062 -0.45312,0 -0.85938,-0.17188 -0.39062,-0.1875 -0.59374,-0.45312 -0.1875,-0.26562 -0.26563,-0.65625 -0.0469,-0.25 -0.0469,-0.8125 v -3.21875 h 0.875 v 2.875 q 0,0.6875 0.0625,0.9375 0.0781,0.34375 0.34374,0.54688 0.26563,0.1875 0.67188,0.1875 0.39062,0 0.73438,-0.20313 0.34374,-0.20313 0.48437,-0.54687 0.15625,-0.35938 0.15625,-1.01563 v -2.78125 h 0.875 v 5.1875 z m 4.51563,-0.78125 0.125,0.76563 q -0.375,0.0781 -0.65626,0.0781 -0.48437,0 -0.75,-0.14062 -0.26562,-0.15626 -0.375,-0.40626 -0.0937,-0.25 -0.0937,-1.03124 v -2.98438 h -0.65626 v -0.6875 h 0.65626 v -1.28125 l 0.85937,-0.53125 v 1.8125 h 0.89063 v 0.6875 h -0.89063 v 3.03125 q 0,0.375 0.0469,0.48437 0.0469,0.10938 0.15626,0.17188 0.10937,0.0625 0.29687,0.0625 0.15625,0 0.39063,-0.0312 z m 1.07812,0.78125 v -7.15625 h 0.875 v 2.5625 q 0.625,-0.70313 1.5625,-0.70313 0.57812,0 1,0.23438 0.42188,0.21875 0.60938,0.625 0.1875,0.39062 0.1875,1.15625 v 3.28125 h -0.89063 v -3.28125 q 0,-0.67187 -0.28125,-0.96875 -0.28125,-0.29688 -0.8125,-0.29688 -0.39062,0 -0.73438,0.20313 -0.34374,0.20313 -0.5,0.54687 -0.14062,0.34376 -0.14062,0.95313 v 2.84375 z m 5.67188,-2.59375 q 0,-1.4375 0.8125,-2.14063 0.65624,-0.5625 1.625,-0.5625 1.0625,0 1.73437,0.70313 0.6875,0.6875 0.6875,1.92187 0,1 -0.29687,1.57813 -0.29688,0.57813 -0.875,0.90625 -0.57813,0.3125 -1.25,0.3125 -1.09376,0 -1.76563,-0.70312 -0.67187,-0.70313 -0.67187,-2.01563 z m 0.90624,0 q 0,1 0.4375,1.5 0.4375,0.48437 1.09376,0.48437 0.65624,0 1.07812,-0.5 0.4375,-0.5 0.4375,-1.51562 0,-0.95312 -0.4375,-1.45312 -0.4375,-0.5 -1.07812,-0.5 -0.65626,0 -1.09376,0.5 -0.4375,0.48437 -0.4375,1.48437 z m 5.42188,2.59375 v -5.1875 h 0.78125 v 0.78125 q 0.3125,-0.54687 0.5625,-0.71875 0.25,-0.17188 0.5625,-0.17188 0.45313,0 0.90625,0.28126 l -0.29688,0.8125 q -0.32812,-0.1875 -0.65624,-0.1875 -0.28126,0 -0.51563,0.17187 -0.23437,0.17187 -0.32813,0.48437 -0.14062,0.46876 -0.14062,1.01563 v 2.71875 z"
       fill-rule="nonzero"
       id="path8-3"
       style="display:inline;stroke:none;stroke-linecap:square;stroke-miterlimit:10" /><path
       fill="#000000"
       d="m 126.70533,136.39037 q 0,-1.4375 0.8125,-2.14063 0.65625,-0.5625 1.625,-0.5625 1.0625,0 1.73437,0.70313 0.6875,0.6875 0.6875,1.92187 0,1 -0.29687,1.57813 -0.29688,0.57812 -0.875,0.90625 -0.57813,0.3125 -1.25,0.3125 -1.09375,0 -1.76563,-0.70313 -0.67187,-0.70312 -0.67187,-2.01562 z m 0.90625,0 q 0,1 0.4375,1.5 0.4375,0.48437 1.09375,0.48437 0.65625,0 1.07812,-0.5 0.4375,-0.5 0.4375,-1.51562 0,-0.95313 -0.4375,-1.45313 -0.4375,-0.5 -1.07812,-0.5 -0.65625,0 -1.09375,0.5 -0.4375,0.48438 -0.4375,1.48438 z m 7.34375,1.8125 0.125,0.76562 q -0.375,0.0781 -0.65625,0.0781 -0.48438,0 -0.75,-0.14062 -0.26563,-0.15625 -0.375,-0.40625 -0.0937,-0.25 -0.0937,-1.03125 v -2.98438 h -0.65625 v -0.6875 h 0.65625 v -1.28125 l 0.85937,-0.53125 v 1.8125 h 0.89063 v 0.6875 h -0.89063 v 3.03125 q 0,0.375 0.0469,0.48437 0.0469,0.10938 0.15625,0.17188 0.10937,0.0625 0.29687,0.0625 0.15625,0 0.39063,-0.0312 z m 1.07812,0.78125 v -7.15625 h 0.875 v 2.5625 q 0.625,-0.70313 1.5625,-0.70313 0.57813,0 1,0.23438 0.42188,0.21875 0.60938,0.625 0.1875,0.39062 0.1875,1.15625 v 3.28125 h -0.89063 v -3.28125 q 0,-0.67188 -0.28125,-0.96875 -0.28125,-0.29688 -0.8125,-0.29688 -0.39062,0 -0.73437,0.20313 -0.34375,0.20312 -0.5,0.54687 -0.14063,0.34375 -0.14063,0.95313 v 2.84375 z m 9.54688,-1.67188 0.92187,0.10938 q -0.21875,0.79687 -0.8125,1.25 -0.57812,0.4375 -1.46875,0.4375 -1.14062,0 -1.8125,-0.70313 -0.67187,-0.70312 -0.67187,-1.96875 0,-1.3125 0.67187,-2.03125 0.6875,-0.71875 1.75,-0.71875 1.04688,0 1.70313,0.70313 0.65625,0.70312 0.65625,1.98437 0,0.0781 0,0.23438 h -3.85938 q 0.0469,0.85937 0.46875,1.3125 0.4375,0.45312 1.09375,0.45312 0.48438,0 0.82813,-0.25 0.34375,-0.25 0.53125,-0.8125 z m -2.875,-1.42187 h 2.89062 q -0.0625,-0.65625 -0.32812,-0.98438 -0.42188,-0.5 -1.09375,-0.5 -0.60938,0 -1.01563,0.40625 -0.40625,0.40625 -0.45312,1.07813 z m 5.32812,3.09375 v -5.1875 h 0.78125 v 0.78125 q 0.3125,-0.54688 0.5625,-0.71875 0.25,-0.17188 0.5625,-0.17188 0.45313,0 0.90625,0.28125 l -0.29687,0.8125 q -0.32813,-0.1875 -0.65625,-0.1875 -0.28125,0 -0.51563,0.17188 -0.23437,0.17187 -0.32812,0.48437 -0.14063,0.46875 -0.14063,1.01563 v 2.71875 z"
       fill-rule="nonzero"
       id="path9-5"
       style="display:inline;stroke:none;stroke-linecap:square;stroke-miterlimit:10" /></g><g
     id="layer3"
     style="display:inline"><path
       fill="#1a1a1a"
       d="m 352.16877,283.47658 v 1.01563 h -5.6875 q 0,-0.375 0.125,-0.73438 0.21875,-0.57812 0.6875,-1.14062 0.48437,-0.5625 1.39063,-1.29688 1.40624,-1.15625 1.89062,-1.82812 0.5,-0.67188 0.5,-1.26563 0,-0.625 -0.45312,-1.04687 -0.45313,-0.4375 -1.17188,-0.4375 -0.76562,0 -1.21875,0.45312 -0.45313,0.45313 -0.46875,1.26563 l -1.07812,-0.10938 q 0.10937,-1.21875 0.82812,-1.84375 0.73438,-0.64062 1.96875,-0.64062 1.23437,0 1.95313,0.6875 0.71874,0.6875 0.71874,1.70312 0,0.51563 -0.21874,1.01563 -0.20313,0.48437 -0.70313,1.04687 -0.48437,0.54688 -1.60937,1.5 -0.95313,0.79688 -1.23438,1.09375 -0.26562,0.28125 -0.4375,0.5625 z m 1.75,1.01563 v -6.21875 h 0.9375 v 0.875 q 0.6875,-1.01563 1.98437,-1.01563 0.5625,0 1.03126,0.20313 0.48437,0.20312 0.71874,0.53125 0.23438,0.32812 0.32813,0.76562 0.0469,0.29688 0.0469,1.03125 v 3.82813 h -1.04687 v -3.78125 q 0,-0.65625 -0.125,-0.96875 -0.125,-0.3125 -0.4375,-0.5 -0.3125,-0.20313 -0.73437,-0.20313 -0.67188,0 -1.17188,0.4375 -0.48438,0.42188 -0.48438,1.60938 v 3.40625 z m 11.03125,0 v -0.78125 q -0.59375,0.92187 -1.73438,0.92187 -0.75,0 -1.375,-0.40625 -0.625,-0.42187 -0.96874,-1.15625 -0.34376,-0.73437 -0.34376,-1.6875 0,-0.92187 0.3125,-1.6875 0.3125,-0.76562 0.9375,-1.15625 0.625,-0.40625 1.39063,-0.40625 0.5625,0 1,0.23438 0.4375,0.23437 0.71875,0.60937 v -3.07812 h 1.04688 v 8.59375 z m -3.32812,-3.10938 q 0,1.20313 0.5,1.79688 0.5,0.57812 1.1875,0.57812 0.6875,0 1.17187,-0.5625 0.48437,-0.5625 0.48437,-1.71875 0,-1.28125 -0.5,-1.875 -0.48437,-0.59375 -1.20312,-0.59375 -0.70312,0 -1.17188,0.57813 -0.46874,0.5625 -0.46874,1.79687 z m 13.35937,2.34375 q -0.59375,0.5 -1.14063,0.70313 -0.53124,0.20312 -1.15624,0.20312 -1.03126,0 -1.57813,-0.5 -0.54687,-0.5 -0.54687,-1.28125 0,-0.45312 0.20312,-0.82812 0.20312,-0.39063 0.54688,-0.60938 0.34374,-0.23437 0.76562,-0.34375 0.29688,-0.0937 0.9375,-0.17187 1.26562,-0.14063 1.875,-0.35938 0,-0.21875 0,-0.26562 0,-0.65625 -0.29688,-0.92188 -0.40624,-0.34375 -1.20312,-0.34375 -0.73438,0 -1.09375,0.26563 -0.35937,0.25 -0.53125,0.90625 l -1.03125,-0.14063 q 0.14063,-0.65625 0.46875,-1.0625 0.32812,-0.40625 0.9375,-0.625 0.60938,-0.21875 1.40625,-0.21875 0.79687,0 1.29687,0.1875 0.5,0.1875 0.73438,0.46875 0.23438,0.28125 0.32812,0.71875 0.0469,0.26563 0.0469,0.96875 v 1.40625 q 0,1.46875 0.0625,1.85938 0.0781,0.39062 0.28125,0.75 h -1.10937 q -0.15626,-0.32813 -0.20313,-0.76563 z m -0.0937,-2.35937 q -0.57812,0.23437 -1.71875,0.40625 -0.65625,0.0937 -0.92187,0.21875 -0.26563,0.10937 -0.42188,0.32812 -0.14062,0.21875 -0.14062,0.5 0,0.42188 0.3125,0.70313 0.32812,0.28125 0.9375,0.28125 0.60937,0 1.07812,-0.26563 0.48438,-0.26562 0.70312,-0.73437 0.17188,-0.35938 0.17188,-1.04688 z m 7.10938,3.125 v -0.92188 q -0.73438,1.0625 -1.98438,1.0625 -0.54688,0 -1.03125,-0.20312 -0.46875,-0.21875 -0.70313,-0.53125 -0.23437,-0.32813 -0.32812,-0.79688 -0.0625,-0.29687 -0.0625,-0.98437 v -3.84375 h 1.0625 v 3.45312 q 0,0.8125 0.0625,1.10938 0.0937,0.40625 0.40625,0.65625 0.32813,0.23437 0.8125,0.23437 0.46875,0 0.875,-0.23437 0.42187,-0.25 0.59375,-0.67188 0.1875,-0.42187 0.1875,-1.21875 v -3.32812 h 1.04688 v 6.21875 z m 5.21874,-0.9375 0.15626,0.92187 q -0.45313,0.0937 -0.79688,0.0937 -0.57812,0 -0.89062,-0.17187 -0.3125,-0.1875 -0.45313,-0.48438 -0.125,-0.29687 -0.125,-1.25 v -3.57812 h -0.76563 v -0.8125 h 0.76563 v -1.54688 l 1.04687,-0.625 v 2.17188 h 1.0625 v 0.8125 h -1.0625 v 3.64062 q 0,0.45313 0.0469,0.57813 0.0625,0.125 0.1875,0.20312 0.125,0.0781 0.35938,0.0781 0.1875,0 0.46874,-0.0312 z m 0.70313,0.9375 v -8.59375 h 1.04687 v 3.07812 q 0.73438,-0.84375 1.85938,-0.84375 0.70312,0 1.20312,0.28125 0.51563,0.26563 0.73438,0.75 0.21875,0.46875 0.21875,1.39063 v 3.9375 h -1.04687 v -3.9375 q 0,-0.79688 -0.34376,-1.15625 -0.34374,-0.35938 -0.96874,-0.35938 -0.46876,0 -0.89063,0.25 -0.40625,0.23438 -0.59375,0.65625 -0.17188,0.40625 -0.17188,1.14063 v 3.40625 z m 6.60937,-3.10938 q 0,-1.73437 0.95313,-2.5625 0.79687,-0.6875 1.95313,-0.6875 1.28124,0 2.09374,0.84375 0.82813,0.82813 0.82813,2.3125 0,1.20313 -0.35937,1.89063 -0.35938,0.6875 -1.0625,1.07812 -0.6875,0.375 -1.5,0.375 -1.29688,0 -2.10938,-0.82812 -0.79688,-0.84375 -0.79688,-2.42188 z m 1.07813,0 q 0,1.1875 0.51563,1.78125 0.53124,0.59375 1.3125,0.59375 0.79687,0 1.3125,-0.59375 0.51562,-0.59375 0.51562,-1.8125 0,-1.15625 -0.53125,-1.75 -0.51563,-0.59375 -1.29687,-0.59375 -0.78126,0 -1.3125,0.59375 -0.51563,0.57813 -0.51563,1.78125 z m 6.29687,3.10938 v -6.21875 h 0.95313 v 0.9375 q 0.35937,-0.65625 0.65625,-0.85938 0.3125,-0.21875 0.6875,-0.21875 0.53125,0 1.07812,0.32813 l -0.35937,0.98437 q -0.39063,-0.23437 -0.76563,-0.23437 -0.35937,0 -0.64062,0.21875 -0.26562,0.20312 -0.375,0.57812 -0.1875,0.5625 -0.1875,1.21875 v 3.26563 z"
       fill-rule="nonzero"
       id="path22"
       style="stroke:none;stroke-linecap:square;stroke-miterlimit:10" /><path
       fill="#9e9e9e"
       d="m 370.6219,299.22658 1.0625,-0.14062 q 0.17187,0.89062 0.60937,1.29687 0.4375,0.39063 1.0625,0.39063 0.75,0 1.26563,-0.51563 0.51562,-0.51562 0.51562,-1.28125 0,-0.71875 -0.48438,-1.1875 -0.46874,-0.48437 -1.20312,-0.48437 -0.29688,0 -0.75,0.125 l 0.125,-0.9375 q 0.10938,0.0156 0.17188,0.0156 0.67187,0 1.20312,-0.34375 0.54688,-0.35937 0.54688,-1.09375 0,-0.57812 -0.39063,-0.95312 -0.39063,-0.39063 -1.01563,-0.39063 -0.60937,0 -1.03124,0.39063 -0.40626,0.39062 -0.51563,1.15625 l -1.0625,-0.1875 q 0.1875,-1.04688 0.875,-1.625 0.6875,-0.59375 1.70313,-0.59375 0.70312,0 1.29687,0.3125 0.59375,0.29687 0.90625,0.8125 0.3125,0.51562 0.3125,1.10937 0,0.54688 -0.29688,1.01563 -0.29687,0.45312 -0.875,0.71875 0.75,0.17187 1.17188,0.73437 0.42188,0.54688 0.42188,1.39063 0,1.125 -0.82813,1.90625 -0.8125,0.78125 -2.0625,0.78125 -1.125,0 -1.875,-0.67188 -0.75,-0.6875 -0.85937,-1.75 z m 8.625,-2.39062 q -0.65626,-0.25 -0.98438,-0.6875 -0.3125,-0.45313 -0.3125,-1.0625 0,-0.9375 0.67188,-1.57813 0.6875,-0.64062 1.79687,-0.64062 1.125,0 1.8125,0.65625 0.6875,0.65625 0.6875,1.59375 0,0.59375 -0.3125,1.03125 -0.3125,0.4375 -0.95313,0.6875 0.79688,0.25 1.20313,0.82812 0.40625,0.57813 0.40625,1.375 0,1.09375 -0.78125,1.84375 -0.76563,0.75 -2.04687,0.75 -1.26563,0 -2.04688,-0.75 -0.78125,-0.75 -0.78125,-1.875 0,-0.84375 0.42187,-1.40625 0.4375,-0.5625 1.21876,-0.76562 z m -0.21876,-1.79688 q 0,0.60938 0.39063,1 0.40625,0.39063 1.03125,0.39063 0.60938,0 1,-0.375 0.39062,-0.39063 0.39062,-0.95313 0,-0.57812 -0.40624,-0.96875 -0.40626,-0.40625 -1,-0.40625 -0.60938,0 -1.01563,0.39063 -0.39063,0.39062 -0.39063,0.92187 z m -0.32812,3.96875 q 0,0.45313 0.20312,0.875 0.21876,0.42188 0.64063,0.65625 0.42187,0.23438 0.90625,0.23438 0.75,0 1.23438,-0.48438 0.5,-0.48437 0.5,-1.23437 0,-0.76563 -0.5,-1.26563 -0.5,-0.5 -1.26563,-0.5 -0.75,0 -1.23437,0.5 -0.48438,0.48438 -0.48438,1.21875 z m 6.51562,2.48438 v -1.20313 h 1.20313 v 1.20313 z m 2.5625,-1.98438 1.01563,-0.0937 q 0.125,0.71875 0.48437,1.04688 0.375,0.3125 0.9375,0.3125 0.48438,0 0.84376,-0.21875 0.375,-0.23438 0.60937,-0.59375 0.23437,-0.375 0.39063,-1 0.15624,-0.64063 0.15624,-1.29688 0,-0.0781 0,-0.21875 -0.3125,0.5 -0.85937,0.82813 -0.54687,0.3125 -1.1875,0.3125 -1.07813,0 -1.8125,-0.76563 -0.73437,-0.78125 -0.73437,-2.04687 0,-1.3125 0.76562,-2.10938 0.78125,-0.79687 1.9375,-0.79687 0.82812,0 1.51562,0.45312 0.70313,0.45313 1.0625,1.29688 0.35938,0.82812 0.35938,2.40625 0,1.64062 -0.35938,2.625 -0.34374,0.96875 -1.0625,1.48437 -0.70312,0.5 -1.64062,0.5 -1.01562,0 -1.65625,-0.54687 -0.64063,-0.5625 -0.76563,-1.57813 z m 4.3125,-3.79687 q 0,-0.90625 -0.48437,-1.4375 -0.46875,-0.53125 -1.15625,-0.53125 -0.70312,0 -1.23438,0.57812 -0.51562,0.5625 -0.51562,1.48438 0,0.8125 0.5,1.32812 0.5,0.51563 1.21875,0.51563 0.73437,0 1.20313,-0.51563 0.46874,-0.51562 0.46874,-1.42187 z m 2.73438,-0.75 q 0,-0.92188 0.45312,-1.5625 0.46876,-0.64063 1.34376,-0.64063 0.8125,0 1.34374,0.57813 0.53126,0.57812 0.53126,1.6875 0,1.09375 -0.54688,1.6875 -0.53125,0.57812 -1.3125,0.57812 -0.78125,0 -1.29688,-0.57812 -0.51562,-0.57813 -0.51562,-1.75 z m 1.82812,-1.48438 q -0.39062,0 -0.65624,0.34375 -0.25,0.34375 -0.25,1.25 0,0.82813 0.25,1.17188 0.26562,0.32812 0.65624,0.32812 0.40626,0 0.65626,-0.34375 0.26562,-0.34375 0.26562,-1.23437 0,-0.84375 -0.26562,-1.17188 -0.26563,-0.34375 -0.65626,-0.34375 z m 0,8.32813 4.70313,-9.04688 h 0.85937 l -4.6875,9.04688 z m 3.71876,-2.32813 q 0,-0.92187 0.45312,-1.5625 0.46875,-0.64062 1.35938,-0.64062 0.8125,0 1.34374,0.57812 0.53126,0.5625 0.53126,1.6875 0,1.09375 -0.54688,1.6875 -0.53125,0.57813 -1.32812,0.57813 -0.76563,0 -1.29688,-0.57813 -0.51562,-0.57812 -0.51562,-1.75 z m 1.84374,-1.48437 q -0.40624,0 -0.67187,0.34375 -0.25,0.34375 -0.25,1.25 0,0.8125 0.26563,1.15625 0.26562,0.34375 0.65624,0.34375 0.39063,0 0.65626,-0.34375 0.26562,-0.34375 0.26562,-1.25 0,-0.82813 -0.26562,-1.15625 -0.26563,-0.34375 -0.65626,-0.34375 z"
       fill-rule="nonzero"
       id="path23"
       style="stroke:none;stroke-linecap:square;stroke-miterlimit:10" /><path
       stroke="#757575"
       stroke-width="1"
       stroke-linecap="butt"
       d="m 405.1219,288.99221 h -75.5 -67.8975"
       fill-rule="nonzero"
       id="path24"
       style="fill:none;stroke-miterlimit:10" /><path
       fill="#1a1a1a"
       d="m 354.59064,101.69222 h -1.04687 v -6.71875 q -0.39063,0.359375 -1.01563,0.734375 -0.60937,0.359375 -1.09374,0.53125 V 95.22347 q 0.875,-0.421875 1.53124,-1 0.67188,-0.59375 0.95313,-1.15625 h 0.67187 z m 2.90626,-1.859375 1.03124,-0.15625 q 0.0938,0.625005 0.48438,0.953125 0.40625,0.32813 1.14062,0.32813 0.71876,0 1.0625,-0.28125 0.35938,-0.29688 0.35938,-0.70313 0,-0.359375 -0.3125,-0.5625 -0.21875,-0.140625 -1.07812,-0.359375 -1.15626,-0.296875 -1.60938,-0.5 -0.4375,-0.21875 -0.67188,-0.59375 -0.23437,-0.375 -0.23437,-0.84375 0,-0.40625 0.1875,-0.765625 0.1875,-0.359375 0.51563,-0.59375 0.25,-0.171875 0.67187,-0.296875 0.42187,-0.125 0.92187,-0.125 0.71876,0 1.26563,0.21875 0.5625,0.203125 0.82813,0.5625 0.26562,0.359375 0.35937,0.953125 l -1.03125,0.140625 q -0.0625,-0.46875 -0.40625,-0.734375 -0.32813,-0.28125 -0.95313,-0.28125 -0.71874,0 -1.03124,0.25 -0.3125,0.234375 -0.3125,0.5625 0,0.203125 0.125,0.359375 0.14062,0.171875 0.40624,0.28125 0.15626,0.0625 0.9375,0.265625 1.125,0.3125 1.5625,0.5 0.4375,0.1875 0.6875,0.546875 0.25,0.359375 0.25,0.90625 0,0.531255 -0.3125,1.000005 -0.29687,0.45312 -0.875,0.71875 -0.57812,0.25 -1.3125,0.25 -1.21874,0 -1.85937,-0.5 -0.625,-0.51563 -0.79687,-1.500005 z m 9.71874,0.921875 0.15626,0.92188 q -0.45313,0.0937 -0.79688,0.0937 -0.57812,0 -0.89062,-0.17188 -0.3125,-0.1875 -0.45313,-0.48437 -0.125,-0.29688 -0.125,-1.250005 V 96.28592 h -0.76563 v -0.8125 h 0.76563 v -1.546875 l 1.04687,-0.625 v 2.171875 h 1.0625 v 0.8125 h -1.0625 v 3.640625 q 0,0.453125 0.0469,0.578125 0.0625,0.125 0.1875,0.20313 0.125,0.0781 0.35938,0.0781 0.1875,0 0.46874,-0.0312 z m 7.76563,0.17188 q -0.59375,0.5 -1.14063,0.70312 -0.53124,0.20313 -1.15624,0.20313 -1.03126,0 -1.57813,-0.5 -0.54687,-0.5 -0.54687,-1.28125 0,-0.45313 0.20312,-0.82813 0.20312,-0.390625 0.54688,-0.609375 0.34374,-0.234375 0.76562,-0.34375 0.29688,-0.09375 0.9375,-0.171875 1.26562,-0.140625 1.875,-0.359375 0,-0.21875 0,-0.265625 0,-0.65625 -0.29688,-0.921875 -0.40624,-0.34375 -1.20312,-0.34375 -0.73438,0 -1.09375,0.265625 -0.35937,0.25 -0.53125,0.90625 l -1.03125,-0.140625 q 0.14063,-0.65625 0.46875,-1.0625 0.32812,-0.40625 0.9375,-0.625 0.60938,-0.21875 1.40625,-0.21875 0.79687,0 1.29687,0.1875 0.5,0.1875 0.73438,0.46875 0.23438,0.28125 0.32812,0.71875 0.0469,0.265625 0.0469,0.96875 v 1.40625 q 0,1.468755 0.0625,1.859375 0.0781,0.39063 0.28125,0.75 h -1.10937 q -0.15626,-0.32812 -0.20313,-0.76562 z m -0.0937,-2.35938 q -0.57812,0.234375 -1.71875,0.40625 -0.65625,0.09375 -0.92187,0.21875 -0.26563,0.109375 -0.42188,0.328125 -0.14062,0.21875 -0.14062,0.500005 0,0.42187 0.3125,0.70312 0.32812,0.28125 0.9375,0.28125 0.60937,0 1.07812,-0.26562 0.48438,-0.26563 0.70312,-0.73438 0.17188,-0.359375 0.17188,-1.046875 z m 7.10938,3.125 v -0.92187 q -0.73438,1.0625 -1.98438,1.0625 -0.54688,0 -1.03125,-0.20313 -0.46875,-0.21875 -0.70313,-0.53125 -0.23437,-0.32812 -0.32812,-0.79687 -0.0625,-0.29688 -0.0625,-0.98438 v -3.84375 h 1.0625 v 3.453125 q 0,0.8125 0.0625,1.109375 0.0937,0.40625 0.40625,0.65625 0.32813,0.23438 0.8125,0.23438 0.46875,0 0.875,-0.23438 0.42187,-0.25 0.59375,-0.67187 0.1875,-0.42188 0.1875,-1.218755 V 95.47347 h 1.04688 v 6.21875 z m 5.21874,-0.9375 0.15626,0.92188 q -0.45313,0.0937 -0.79688,0.0937 -0.57812,0 -0.89062,-0.17188 -0.3125,-0.1875 -0.45313,-0.48437 -0.125,-0.29688 -0.125,-1.250005 V 96.28592 h -0.76563 v -0.8125 h 0.76563 v -1.546875 l 1.04687,-0.625 v 2.171875 h 1.0625 v 0.8125 h -1.0625 v 3.640625 q 0,0.453125 0.0469,0.578125 0.0625,0.125 0.1875,0.20313 0.125,0.0781 0.35938,0.0781 0.1875,0 0.46874,-0.0312 z m 0.70313,0.9375 v -8.59375 h 1.04687 v 3.078125 q 0.73438,-0.84375 1.85938,-0.84375 0.70312,0 1.20312,0.28125 0.51563,0.265625 0.73438,0.75 0.21875,0.46875 0.21875,1.390625 v 3.9375 h -1.04687 v -3.9375 q 0,-0.796875 -0.34376,-1.15625 -0.34374,-0.359375 -0.96874,-0.359375 -0.46876,0 -0.89063,0.25 -0.40625,0.234375 -0.59375,0.65625 -0.17188,0.40625 -0.17188,1.140625 v 3.40625 z m 6.60937,-3.109375 q 0,-1.734375 0.95313,-2.5625 0.79687,-0.6875 1.95313,-0.6875 1.28124,0 2.09374,0.84375 0.82813,0.828125 0.82813,2.3125 0,1.203125 -0.35937,1.890625 -0.35938,0.6875 -1.0625,1.07813 -0.6875,0.375 -1.5,0.375 -1.29688,0 -2.10938,-0.82813 -0.79688,-0.84375 -0.79688,-2.421875 z m 1.07813,0 q 0,1.1875 0.51563,1.781255 0.53124,0.59375 1.3125,0.59375 0.79687,0 1.3125,-0.59375 0.51562,-0.593755 0.51562,-1.812505 0,-1.15625 -0.53125,-1.75 -0.51563,-0.59375 -1.29687,-0.59375 -0.78126,0 -1.3125,0.59375 -0.51563,0.578125 -0.51563,1.78125 z m 6.29687,3.109375 v -6.21875 h 0.95313 v 0.9375 q 0.35937,-0.65625 0.65625,-0.859375 0.3125,-0.21875 0.6875,-0.21875 0.53125,0 1.07812,0.328125 l -0.35937,0.984375 q -0.39063,-0.234375 -0.76563,-0.234375 -0.35937,0 -0.64062,0.21875 -0.26562,0.203125 -0.375,0.578125 -0.1875,0.5625 -0.1875,1.21875 v 3.265625 z"
       fill-rule="nonzero"
       id="path18"
       style="stroke:none;stroke-linecap:square;stroke-miterlimit:10" /><path
       fill="#9e9e9e"
       d="m 376.16877,117.6766 v 1.01562 h -5.6875 q 0,-0.375 0.125,-0.73437 0.21875,-0.57813 0.6875,-1.14063 0.48437,-0.5625 1.39063,-1.29687 1.40624,-1.15625 1.89062,-1.82813 0.5,-0.67187 0.5,-1.26562 0,-0.625 -0.45312,-1.04688 -0.45313,-0.4375 -1.17188,-0.4375 -0.76562,0 -1.21875,0.45313 -0.45313,0.45312 -0.46875,1.26562 l -1.07812,-0.10937 q 0.10937,-1.21875 0.82812,-1.84375 0.73438,-0.64063 1.96875,-0.64063 1.23437,0 1.95313,0.6875 0.71874,0.6875 0.71874,1.70313 0,0.51562 -0.21874,1.01562 -0.20313,0.48438 -0.70313,1.04688 -0.48437,0.54687 -1.60937,1.5 -0.95313,0.79687 -1.23438,1.09375 -0.26562,0.28125 -0.4375,0.5625 z m 7,0 v 1.01562 h -5.6875 q 0,-0.375 0.125,-0.73437 0.21875,-0.57813 0.6875,-1.14063 0.48437,-0.5625 1.39063,-1.29687 1.40624,-1.15625 1.89062,-1.82813 0.5,-0.67187 0.5,-1.26562 0,-0.625 -0.45312,-1.04688 -0.45313,-0.4375 -1.17188,-0.4375 -0.76562,0 -1.21875,0.45313 -0.45313,0.45312 -0.46875,1.26562 l -1.07812,-0.10937 q 0.10937,-1.21875 0.82812,-1.84375 0.73438,-0.64063 1.96875,-0.64063 1.23437,0 1.95313,0.6875 0.71874,0.6875 0.71874,1.70313 0,0.51562 -0.21874,1.01562 -0.20313,0.48438 -0.70313,1.04688 -0.48437,0.54687 -1.60937,1.5 -0.95313,0.79687 -1.23438,1.09375 -0.26562,0.28125 -0.4375,0.5625 z m 2.04687,1.01562 v -1.20312 h 1.20313 v 1.20312 z m 7.95313,-1.01562 v 1.01562 h -5.6875 q 0,-0.375 0.125,-0.73437 0.21875,-0.57813 0.6875,-1.14063 0.48437,-0.5625 1.39063,-1.29687 1.40624,-1.15625 1.89062,-1.82813 0.5,-0.67187 0.5,-1.26562 0,-0.625 -0.45312,-1.04688 -0.45313,-0.4375 -1.17188,-0.4375 -0.76562,0 -1.21875,0.45313 -0.45313,0.45312 -0.46875,1.26562 l -1.07812,-0.10937 q 0.10937,-1.21875 0.82812,-1.84375 0.73438,-0.64063 1.96875,-0.64063 1.23437,0 1.95313,0.6875 0.71874,0.6875 0.71874,1.70313 0,0.51562 -0.21874,1.01562 -0.20313,0.48438 -0.70313,1.04688 -0.48437,0.54687 -1.60937,1.5 -0.95313,0.79687 -1.23438,1.09375 -0.26562,0.28125 -0.4375,0.5625 z m 1.65625,-5.51563 q 0,-0.92187 0.45312,-1.5625 0.46876,-0.64062 1.34376,-0.64062 0.8125,0 1.34374,0.57812 0.53126,0.57813 0.53126,1.6875 0,1.09375 -0.54688,1.6875 -0.53125,0.57813 -1.3125,0.57813 -0.78125,0 -1.29688,-0.57813 -0.51562,-0.57812 -0.51562,-1.75 z m 1.82812,-1.48437 q -0.39062,0 -0.65624,0.34375 -0.25,0.34375 -0.25,1.25 0,0.82812 0.25,1.17187 0.26562,0.32813 0.65624,0.32813 0.40626,0 0.65626,-0.34375 0.26562,-0.34375 0.26562,-1.23438 0,-0.84375 -0.26562,-1.17187 -0.26563,-0.34375 -0.65626,-0.34375 z m 0,8.32812 4.70313,-9.04687 h 0.85937 l -4.6875,9.04687 z m 3.71876,-2.32812 q 0,-0.92188 0.45312,-1.5625 0.46875,-0.64063 1.35938,-0.64063 0.8125,0 1.34374,0.57813 0.53126,0.5625 0.53126,1.6875 0,1.09375 -0.54688,1.6875 -0.53125,0.57812 -1.32812,0.57812 -0.76563,0 -1.29688,-0.57812 -0.51562,-0.57813 -0.51562,-1.75 z m 1.84374,-1.48438 q -0.40624,0 -0.67187,0.34375 -0.25,0.34375 -0.25,1.25 0,0.8125 0.26563,1.15625 0.26562,0.34375 0.65624,0.34375 0.39063,0 0.65626,-0.34375 0.26562,-0.34375 0.26562,-1.25 0,-0.82812 -0.26562,-1.15625 -0.26563,-0.34375 -0.65626,-0.34375 z"
       fill-rule="nonzero"
       id="path19"
       style="stroke:none;stroke-linecap:square;stroke-miterlimit:10" /><path
       stroke="#757575"
       stroke-width="1"
       stroke-linecap="butt"
       d="m 405.1219,106.19222 h -75.5 -51.90458"
       fill-rule="nonzero"
       id="path20"
       style="fill:none;stroke-miterlimit:10" /><path
       fill="#1a1a1a"
       d="m 6.72815,112.38823 q 0,-1.73438 0.95312,-2.5625 0.79688,-0.6875 1.95313,-0.6875 1.28125,0 2.09375,0.84375 0.82812,0.82812 0.82812,2.3125 0,1.20312 -0.35937,1.89062 -0.35938,0.6875 -1.0625,1.07813 -0.6875,0.375 -1.5,0.375 -1.29688,0 -2.10938,-0.82813 -0.79687,-0.84375 -0.79687,-2.42187 z m 1.07812,0 q 0,1.1875 0.51563,1.78125 0.53125,0.59375 1.3125,0.59375 0.79687,0 1.3125,-0.59375 0.51562,-0.59375 0.51562,-1.8125 0,-1.15625 -0.53125,-1.75 -0.51562,-0.59375 -1.29687,-0.59375 -0.78125,0 -1.3125,0.59375 -0.51563,0.57812 -0.51563,1.78125 z m 8.60938,2.17187 0.15625,0.92188 q -0.45313,0.0937 -0.79688,0.0937 -0.57812,0 -0.89062,-0.17188 -0.3125,-0.1875 -0.45313,-0.48437 -0.125,-0.29688 -0.125,-1.25 v -3.57813 h -0.76562 v -0.8125 h 0.76562 v -1.54687 l 1.04688,-0.625 v 2.17187 h 1.0625 v 0.8125 h -1.0625 v 3.64063 q 0,0.45312 0.0469,0.57812 0.0625,0.125 0.1875,0.20313 0.125,0.0781 0.35938,0.0781 0.1875,0 0.46875,-0.0312 z m 0.70312,0.9375 v -8.59375 h 1.04688 v 3.07813 q 0.73437,-0.84375 1.85937,-0.84375 0.70313,0 1.20313,0.28125 0.51562,0.26562 0.73437,0.75 0.21875,0.46875 0.21875,1.39062 v 3.9375 H 21.1344 v -3.9375 q 0,-0.79687 -0.34375,-1.15625 -0.34375,-0.35937 -0.96875,-0.35937 -0.46875,0 -0.89063,0.25 -0.40625,0.23437 -0.59375,0.65625 -0.17187,0.40625 -0.17187,1.14062 v 3.40625 z m 11.25,-2 1.09375,0.125 q -0.25,0.95313 -0.95312,1.48438 -0.70313,0.53125 -1.78125,0.53125 -1.35938,0 -2.17188,-0.84375 -0.79687,-0.84375 -0.79687,-2.35938 0,-1.5625 0.8125,-2.42187 0.8125,-0.875 2.09375,-0.875 1.25,0 2.03125,0.84375 0.79687,0.84375 0.79687,2.39062 0,0.0937 0,0.28125 h -4.64062 q 0.0625,1.03125 0.57812,1.57813 0.51563,0.53125 1.29688,0.53125 0.57812,0 0.98437,-0.29688 0.42188,-0.3125 0.65625,-0.96875 z m -3.45312,-1.70312 h 3.46875 q -0.0625,-0.79688 -0.39063,-1.1875 -0.51562,-0.60938 -1.3125,-0.60938 -0.73437,0 -1.23437,0.48438 -0.48438,0.48437 -0.53125,1.3125 z m 6.1875,3.70312 v -6.21875 h 0.95312 v 0.9375 q 0.35938,-0.65625 0.65625,-0.85937 0.3125,-0.21875 0.6875,-0.21875 0.53125,0 1.07813,0.32812 l -0.35938,0.98438 q -0.39062,-0.23438 -0.76562,-0.23438 -0.35938,0 -0.64063,0.21875 -0.26562,0.20313 -0.375,0.57813 -0.1875,0.5625 -0.1875,1.21875 v 3.26562 z"
       fill-rule="nonzero"
       id="path10-6"
       style="stroke:none;stroke-linecap:square;stroke-miterlimit:10" /><path
       fill="#9e9e9e"
       d="m 12.36877,131.48197 v 1.01563 h -5.6875 q 0,-0.375 0.125,-0.73438 0.21875,-0.57812 0.6875,-1.14062 0.48438,-0.5625 1.39063,-1.29688 1.40625,-1.15625 1.89062,-1.82812 0.5,-0.67187 0.5,-1.26562 0,-0.625 -0.45312,-1.04688 -0.45313,-0.4375 -1.17188,-0.4375 -0.76562,0 -1.21875,0.45313 -0.45312,0.45312 -0.46875,1.26562 L 6.8844,126.35698 q 0.10937,-1.21875 0.82812,-1.84375 0.73438,-0.64063 1.96875,-0.64063 1.23438,0 1.95313,0.6875 0.71875,0.6875 0.71875,1.70313 0,0.51562 -0.21875,1.01562 -0.20313,0.48438 -0.70313,1.04687 -0.48437,0.54688 -1.60937,1.5 -0.95313,0.79688 -1.23438,1.09375 -0.26562,0.28125 -0.4375,0.5625 z m 1.51563,-6.45312 v -1.01562 h 5.5625 v 0.82812 q -0.8125,0.875 -1.625,2.32813 -0.79688,1.43749 -1.23438,2.96874 -0.32812,1.07813 -0.40625,2.35938 h -1.09375 q 0.0156,-1.01563 0.39063,-2.45313 0.39062,-1.4375 1.09375,-2.76562 0.71875,-1.32812 1.53125,-2.25 z m 7.53125,7.46875 v -1.20313 h 1.20312 v 1.20313 z m 4.03125,-4.65625 q -0.65625,-0.25 -0.98438,-0.6875 -0.3125,-0.45312 -0.3125,-1.0625 0,-0.9375 0.67188,-1.57812 0.6875,-0.64063 1.79687,-0.64063 1.125,0 1.8125,0.65625 0.6875,0.65625 0.6875,1.59375 0,0.59375 -0.3125,1.03125 -0.3125,0.4375 -0.95312,0.6875 0.79687,0.25 1.20312,0.82812 0.40625,0.57813 0.40625,1.375 0,1.09375 -0.78125,1.84375 -0.76562,0.75 -2.04687,0.75 -1.26563,0 -2.04688,-0.75 -0.78125,-0.75 -0.78125,-1.875 0,-0.84375 0.42188,-1.40625 0.4375,-0.5625 1.21875,-0.76562 z m -0.21875,-1.79687 q 0,0.60937 0.39062,1 0.40625,0.39062 1.03125,0.39062 0.60938,0 1,-0.375 0.39063,-0.39062 0.39063,-0.95312 0,-0.57813 -0.40625,-0.96875 -0.40625,-0.40625 -1,-0.40625 -0.60938,0 -1.01563,0.39062 -0.39062,0.39063 -0.39062,0.92188 z m -0.32813,3.96874 q 0,0.45313 0.20313,0.875 0.21875,0.42188 0.64062,0.65625 0.42188,0.23438 0.90625,0.23438 0.75,0 1.23438,-0.48438 0.5,-0.48437 0.5,-1.23437 0,-0.76563 -0.5,-1.26563 -0.5,-0.5 -1.26563,-0.5 -0.75,0 -1.23437,0.5 -0.48438,0.48438 -0.48438,1.21875 z m 6.125,-4.04687 q 0,-0.92187 0.45313,-1.5625 0.46875,-0.64062 1.34375,-0.64062 0.8125,0 1.34375,0.57812 0.53125,0.57813 0.53125,1.6875 0,1.09375 -0.54688,1.6875 -0.53125,0.57812 -1.3125,0.57812 -0.78125,0 -1.29687,-0.57812 -0.51563,-0.57812 -0.51563,-1.75 z m 1.82813,-1.48437 q -0.39063,0 -0.65625,0.34375 -0.25,0.34375 -0.25,1.25 0,0.82812 0.25,1.17187 0.26562,0.32813 0.65625,0.32813 0.40625,0 0.65625,-0.34375 0.26562,-0.34375 0.26562,-1.23438 0,-0.84375 -0.26562,-1.17187 -0.26563,-0.34375 -0.65625,-0.34375 z m 0,8.32812 4.70312,-9.04687 h 0.85938 l -4.6875,9.04687 z m 3.71875,-2.32813 q 0,-0.92187 0.45312,-1.5625 0.46875,-0.64062 1.35938,-0.64062 0.8125,0 1.34375,0.57812 0.53125,0.5625 0.53125,1.6875 0,1.09375 -0.54688,1.6875 -0.53125,0.57813 -1.32812,0.57813 -0.76563,0 -1.29688,-0.57813 -0.51562,-0.57812 -0.51562,-1.75 z m 1.84375,-1.48437 q -0.40625,0 -0.67188,0.34375 -0.25,0.34375 -0.25,1.25 0,0.8125 0.26563,1.15625 0.26562,0.34375 0.65625,0.34375 0.39062,0 0.65625,-0.34375 0.26562,-0.34375 0.26562,-1.25 0,-0.82813 -0.26562,-1.15625 -0.26563,-0.34375 -0.65625,-0.34375 z"
       fill-rule="nonzero"
       id="path11"
       style="stroke:none;stroke-linecap:square;stroke-miterlimit:10" /><path
       stroke="#757575"
       stroke-width="1"
       stroke-linecap="butt"
       d="m 6.3219,119.9976 h 75.5 38.0992"
       fill-rule="nonzero"
       id="path12"
       style="fill:none;stroke-miterlimit:10" /><path
       fill="#1a1a1a"
       d="m 6.8219,241.22991 1.0625,-0.14063 q 0.17187,0.89063 0.60937,1.29688 0.4375,0.39062 1.0625,0.39062 0.75,0 1.26563,-0.51562 0.51562,-0.51563 0.51562,-1.28125 0,-0.71875 -0.48437,-1.1875 -0.46875,-0.48438 -1.20313,-0.48438 -0.29687,0 -0.75,0.125 l 0.125,-0.9375 q 0.10938,0.0156 0.17188,0.0156 0.67187,0 1.20312,-0.34375 0.54688,-0.35938 0.54688,-1.09375 0,-0.57813 -0.39063,-0.95313 -0.39062,-0.39062 -1.01562,-0.39062 -0.60938,0 -1.03125,0.39062 -0.40625,0.39063 -0.51563,1.15625 l -1.0625,-0.1875 q 0.1875,-1.04687 0.875,-1.625 0.6875,-0.59375 1.70313,-0.59375 0.70312,0 1.29687,0.3125 0.59375,0.29688 0.90625,0.8125 0.3125,0.51563 0.3125,1.10938 0,0.54687 -0.29687,1.01562 -0.29688,0.45313 -0.875,0.71875 0.75,0.17188 1.17187,0.73438 0.42188,0.54687 0.42188,1.39062 0,1.125 -0.82813,1.90625 -0.8125,0.78125 -2.0625,0.78125 -1.125,0 -1.875,-0.67187 -0.75,-0.6875 -0.85937,-1.75 z m 7.28125,2.26562 v -6.21875 h 0.95312 v 0.9375 q 0.35938,-0.65625 0.65625,-0.85937 0.3125,-0.21875 0.6875,-0.21875 0.53125,0 1.07813,0.32812 l -0.35938,0.98438 q -0.39062,-0.23438 -0.76562,-0.23438 -0.35938,0 -0.64063,0.21875 -0.26562,0.20313 -0.375,0.57813 -0.1875,0.5625 -0.1875,1.21875 v 3.26562 z m 8.04687,0 v -0.78125 q -0.59375,0.92188 -1.73437,0.92188 -0.75,0 -1.375,-0.40625 -0.625,-0.42188 -0.96875,-1.15625 -0.34375,-0.73438 -0.34375,-1.6875 0,-0.92188 0.3125,-1.6875 0.3125,-0.76563 0.9375,-1.15625 0.625,-0.40625 1.39062,-0.40625 0.5625,0 1,0.23437 0.4375,0.23438 0.71875,0.60938 v -3.07813 h 1.04688 v 8.59375 z m -3.32812,-3.10937 q 0,1.20312 0.5,1.79687 0.5,0.57813 1.1875,0.57813 0.6875,0 1.17187,-0.5625 0.48438,-0.5625 0.48438,-1.71875 0,-1.28125 -0.5,-1.875 -0.48438,-0.59375 -1.20313,-0.59375 -0.70312,0 -1.17187,0.57812 -0.46875,0.5625 -0.46875,1.79688 z m 13.35937,2.34375 q -0.59375,0.5 -1.14062,0.70312 -0.53125,0.20313 -1.15625,0.20313 -1.03125,0 -1.57813,-0.5 -0.54687,-0.5 -0.54687,-1.28125 0,-0.45313 0.20312,-0.82813 0.20313,-0.39062 0.54688,-0.60937 0.34375,-0.23438 0.76562,-0.34375 0.29688,-0.0937 0.9375,-0.17188 1.26563,-0.14062 1.875,-0.35937 0,-0.21875 0,-0.26563 0,-0.65625 -0.29687,-0.92187 -0.40625,-0.34375 -1.20313,-0.34375 -0.73437,0 -1.09375,0.26562 -0.35937,0.25 -0.53125,0.90625 l -1.03125,-0.14062 q 0.14063,-0.65625 0.46875,-1.0625 0.32813,-0.40625 0.9375,-0.625 0.60938,-0.21875 1.40625,-0.21875 0.79688,0 1.29688,0.1875 0.5,0.1875 0.73437,0.46875 0.23438,0.28125 0.32813,0.71875 0.0469,0.26562 0.0469,0.96875 v 1.40625 q 0,1.46875 0.0625,1.85937 0.0781,0.39063 0.28125,0.75 h -1.10937 q -0.15625,-0.32812 -0.20313,-0.76562 z m -0.0937,-2.35938 q -0.57812,0.23438 -1.71875,0.40625 -0.65625,0.0937 -0.92187,0.21875 -0.26563,0.10938 -0.42188,0.32813 -0.14062,0.21875 -0.14062,0.5 0,0.42187 0.3125,0.70312 0.32812,0.28125 0.9375,0.28125 0.60937,0 1.07812,-0.26562 0.48438,-0.26563 0.70313,-0.73438 0.17187,-0.35937 0.17187,-1.04687 z m 7.10938,3.125 v -0.92187 q -0.73438,1.0625 -1.98438,1.0625 -0.54687,0 -1.03125,-0.20313 -0.46875,-0.21875 -0.70312,-0.53125 -0.23438,-0.32812 -0.32813,-0.79687 -0.0625,-0.29688 -0.0625,-0.98438 v -3.84375 h 1.0625 v 3.45313 q 0,0.8125 0.0625,1.10937 0.0937,0.40625 0.40625,0.65625 0.32813,0.23438 0.8125,0.23438 0.46875,0 0.875,-0.23438 0.42188,-0.25 0.59375,-0.67187 0.1875,-0.42188 0.1875,-1.21875 v -3.32813 h 1.04688 v 6.21875 z m 5.21875,-0.9375 0.15625,0.92188 q -0.45313,0.0937 -0.79688,0.0937 -0.57812,0 -0.89062,-0.17188 -0.3125,-0.1875 -0.45313,-0.48437 -0.125,-0.29688 -0.125,-1.25 v -3.57813 H 41.5407 v -0.8125 h 0.76562 v -1.54687 l 1.04688,-0.625 v 2.17187 h 1.0625 v 0.8125 h -1.0625 v 3.64063 q 0,0.45312 0.0469,0.57812 0.0625,0.125 0.1875,0.20313 0.125,0.0781 0.35938,0.0781 0.1875,0 0.46875,-0.0312 z m 0.70312,0.9375 v -8.59375 h 1.04688 v 3.07813 q 0.73437,-0.84375 1.85937,-0.84375 0.70313,0 1.20313,0.28125 0.51562,0.26562 0.73437,0.75 0.21875,0.46875 0.21875,1.39062 v 3.9375 h -1.04687 v -3.9375 q 0,-0.79687 -0.34375,-1.15625 -0.34375,-0.35937 -0.96875,-0.35937 -0.46875,0 -0.89063,0.25 -0.40625,0.23437 -0.59375,0.65625 -0.17187,0.40625 -0.17187,1.14062 v 3.40625 z m 6.60938,-3.10937 q 0,-1.73438 0.95312,-2.5625 0.79688,-0.6875 1.95313,-0.6875 1.28125,0 2.09375,0.84375 0.82812,0.82812 0.82812,2.3125 0,1.20312 -0.35937,1.89062 -0.35938,0.6875 -1.0625,1.07813 -0.6875,0.375 -1.5,0.375 -1.29688,0 -2.10938,-0.82813 -0.79687,-0.84375 -0.79687,-2.42187 z m 1.07812,0 q 0,1.1875 0.51563,1.78125 0.53125,0.59375 1.3125,0.59375 0.79687,0 1.3125,-0.59375 0.51562,-0.59375 0.51562,-1.8125 0,-1.15625 -0.53125,-1.75 -0.51562,-0.59375 -1.29687,-0.59375 -0.78125,0 -1.3125,0.59375 -0.51563,0.57812 -0.51563,1.78125 z m 6.29688,3.10937 v -6.21875 h 0.95312 v 0.9375 q 0.35938,-0.65625 0.65625,-0.85937 0.3125,-0.21875 0.6875,-0.21875 0.53125,0 1.07813,0.32812 l -0.35938,0.98438 q -0.39062,-0.23438 -0.76562,-0.23438 -0.35938,0 -0.64063,0.21875 -0.26562,0.20313 -0.375,0.57813 -0.1875,0.5625 -0.1875,1.21875 v 3.26562 z"
       fill-rule="nonzero"
       id="path14"
       style="stroke:none;stroke-linecap:square;stroke-miterlimit:10" /><path
       fill="#9e9e9e"
       d="M 10.79065,260.49553 H 9.74377 v -6.71875 q -0.39062,0.35938 -1.01562,0.73438 -0.60938,0.35937 -1.09375,0.53125 v -1.01563 q 0.875,-0.42187 1.53125,-1 0.67187,-0.59375 0.95312,-1.15625 h 0.67188 z m 7,0 h -1.04688 v -6.71875 q -0.39062,0.35938 -1.01562,0.73438 -0.60938,0.35937 -1.09375,0.53125 v -1.01563 q 0.875,-0.42187 1.53125,-1 0.67187,-0.59375 0.95312,-1.15625 h 0.67188 z m 3.625,0 v -1.20312 h 1.20312 v 1.20312 z m 6.375,0 h -1.04688 v -6.71875 q -0.39062,0.35938 -1.01562,0.73438 -0.60938,0.35937 -1.09375,0.53125 v -1.01563 q 0.875,-0.42187 1.53125,-1 0.67187,-0.59375 0.95312,-1.15625 h 0.67188 z m 3.23437,-6.53125 q 0,-0.92187 0.45313,-1.5625 0.46875,-0.64062 1.34375,-0.64062 0.8125,0 1.34375,0.57812 0.53125,0.57813 0.53125,1.6875 0,1.09375 -0.54688,1.6875 -0.53125,0.57813 -1.3125,0.57813 -0.78125,0 -1.29687,-0.57813 -0.51563,-0.57812 -0.51563,-1.75 z m 1.82813,-1.48437 q -0.39063,0 -0.65625,0.34375 -0.25,0.34375 -0.25,1.25 0,0.82812 0.25,1.17187 0.26562,0.32813 0.65625,0.32813 0.40625,0 0.65625,-0.34375 0.26562,-0.34375 0.26562,-1.23438 0,-0.84375 -0.26562,-1.17187 -0.26563,-0.34375 -0.65625,-0.34375 z m 0,8.32812 4.70312,-9.04687 h 0.85938 l -4.6875,9.04687 z m 3.71875,-2.32812 q 0,-0.92188 0.45312,-1.5625 0.46875,-0.64063 1.35938,-0.64063 0.8125,0 1.34375,0.57813 0.53125,0.5625 0.53125,1.6875 0,1.09375 -0.54688,1.6875 -0.53125,0.57812 -1.32812,0.57812 -0.76563,0 -1.29688,-0.57812 -0.51562,-0.57813 -0.51562,-1.75 z m 1.84375,-1.48438 q -0.40625,0 -0.67188,0.34375 -0.25,0.34375 -0.25,1.25 0,0.8125 0.26563,1.15625 0.26562,0.34375 0.65625,0.34375 0.39062,0 0.65625,-0.34375 0.26562,-0.34375 0.26562,-1.25 0,-0.82812 -0.26562,-1.15625 -0.26563,-0.34375 -0.65625,-0.34375 z"
       fill-rule="nonzero"
       id="path15"
       style="stroke:none;stroke-linecap:square;stroke-miterlimit:10" /><path
       stroke="#757575"
       stroke-width="1"
       stroke-linecap="butt"
       d="m 6.3219,247.99553 h 75.5 26.90082"
       fill-rule="nonzero"
       id="path16"
       style="fill:none;stroke-miterlimit:10" /><path
       fill="#9e9e9e"
       d="m 263.7244,288.99221 c 0,-1.10458 -0.89544,-2 -2,-2 -1.10458,0 -2,0.89542 -2,2 0,1.10456 0.89542,2 2,2 1.10456,0 2,-0.89544 2,-2"
       fill-rule="nonzero"
       id="path25"
       style="display:inline;stroke:none;stroke-linecap:square;stroke-miterlimit:10" /><path
       fill="#9e9e9e"
       d="m 279.71732,106.19222 c 0,-1.10457 -0.89542,-2 -2,-2 -1.10455,0 -2,0.89543 -2,2 0,1.10457 0.89545,2 2,2 1.10458,0 2,-0.89543 2,-2"
       fill-rule="nonzero"
       id="path21"
       style="display:inline;stroke:none;stroke-linecap:square;stroke-miterlimit:10" /><path
       fill="#9e9e9e"
       d="m 121.92109,119.9976 c 0,-1.10457 -0.89543,-2 -1.99999,-2 -1.10458,0 -2,0.89543 -2,2 0,1.10457 0.89542,2 2,2 1.10456,0 1.99999,-0.89543 1.99999,-2"
       fill-rule="nonzero"
       id="path13"
       style="display:inline;stroke:none;stroke-linecap:square;stroke-miterlimit:10" /><path
       fill="#9e9e9e"
       d="m 110.72272,247.99553 c 0,-1.10457 -0.89543,-2 -2,-2 -1.10457,0 -2,0.89543 -2,2 0,1.10457 0.89543,2 2,2 1.10457,0 2,-0.89543 2,-2"
       fill-rule="nonzero"
       id="path17"
       style="display:inline;stroke:none;stroke-linecap:square;stroke-miterlimit:10" /></g></svg>
